<?xml version="1.0" encoding="UTF-8" standalone="no"?>
<!-- Created with Inkscape (http://www.inkscape.org/) -->

<svg
   version="1.1"
   id="svg55"
   width="1105.0667"
   height="596.26666"
   viewBox="0 0 1105.0667 596.26666"
   sodipodi:docname="images-S4v7PPaEG-transformed.png"
   xmlns:inkscape="http://www.inkscape.org/namespaces/inkscape"
   xmlns:sodipodi="http://sodipodi.sourceforge.net/DTD/sodipodi-0.dtd"
   xmlns="http://www.w3.org/2000/svg"
   xmlns:svg="http://www.w3.org/2000/svg">
  <defs
     id="defs59" />
  <sodipodi:namedview
     id="namedview57"
     pagecolor="#ffffff"
     bordercolor="#000000"
     borderopacity="0.25"
     inkscape:showpageshadow="2"
     inkscape:pageopacity="0.0"
     inkscape:pagecheckerboard="0"
     inkscape:deskcolor="#d1d1d1"
     showgrid="false" />
  <g
     inkscape:groupmode="layer"
     inkscape:label="Image"
     id="g61">
    <path
       style="fill:#000000;stroke-width:1.06667"
       d="m 240.28792,558.2341 c -33.33683,-1.16676 -54.34325,-4.37071 -65.40383,-9.97553 -7.20566,-3.65138 -28.44544,-21.24807 -32.79794,-27.17238 -6.7605,-9.20192 -14.88135,-33.07056 -12.17307,-35.77885 0.63659,-0.63659 5.26144,1.003 12.4928,4.42889 13.67459,6.47836 15.10978,6.84199 27.005,6.84199 7.47099,0 10.50193,-0.52578 16.04406,-2.78316 11.33586,-4.61722 19.74417,-5.32977 45.16734,-3.8276 32.62564,1.92772 62.13414,3.02592 65.25846,2.42866 1.49367,-0.28553 2.96064,-1.15728 3.25993,-1.93723 0.62689,-1.63366 -3.18302,-19.06607 -5.62502,-25.73756 -2.12506,-5.80558 -5.09387,-6.6816 -22.67057,-6.68954 l -13.17618,-0.006 0.52035,-21.6 c 0.28619,-11.88 1.28586,-28.48963 2.22148,-36.91031 1.47529,-13.27786 2.18795,-16.32225 5.36847,-22.93333 2.01703,-4.19266 4.87854,-8.76028 6.35888,-10.15025 2.61997,-2.46004 2.59518,-2.30407 -0.93254,5.86667 -6.37171,14.7578 -7.25556,29.54619 -2.65185,44.36967 2.17315,6.99733 6.72603,14.69088 8.69376,14.69088 1.365,0 0.933,-2.78567 -2.23312,-14.4 -3.04407,-11.16657 -3.40663,-30.19286 -0.74691,-39.19524 2.83124,-9.58291 7.00422,-13.31558 26.89322,-24.05563 4.20015,-2.26807 24.17803,-4.49564 45.79395,-5.10611 22.04807,-0.62267 24.54111,0.52222 5.70544,2.62013 -14.17773,1.57911 -26.28533,5.04747 -35.7161,10.23127 -7.10508,3.90544 -7.41272,3.97222 -12.773,2.77264 -5.48183,-1.22678 -12.74448,-0.29359 -17.80675,2.28804 -1.84047,0.93859 -6.06392,6.90503 -6.07227,8.57824 -0.01,1.90059 2.26985,0.56933 3.19602,-1.86667 0.55762,-1.46667 1.56172,-2.66667 2.23133,-2.66667 1.27746,0 1.07732,1.01266 -1.58107,8 -2.25426,5.92513 -2.10095,12.1151 0.4164,16.81193 2.55635,4.76961 2.58645,5.05474 0.53334,5.05474 -2.12574,0 -2.01907,1.37948 0.33112,4.28183 4.30887,5.32123 13.15262,0.44837 16.87476,-9.29792 2.06298,-5.40183 1.51344,-15.84017 -1.17232,-22.2681 -0.91386,-2.18718 -1.4182,-4.22006 -1.12077,-4.5175 0.81293,-0.81292 4.83664,3.13876 6.52974,6.41287 1.96947,3.80852 1.97175,25.8699 0.003,34.23458 -1.02962,4.37575 -1.10258,6.06252 -0.25,5.77965 0.66216,-0.21968 4.56394,-4.34129 8.6706,-9.15913 15.49729,-18.18101 37.75051,-30.75243 64.73609,-36.57107 9.4146,-2.02997 14.29764,-2.37456 33.93058,-2.3944 22.7045,-0.0229 23.2686,0.0324 56.53334,5.55024 18.48,3.06538 46.98385,8.23159 63.34188,11.48049 17.59281,3.49414 31.75358,5.77665 34.66666,5.58778 4.92512,-0.31932 4.92512,-0.31932 -1.47488,-2.3001 -18.28744,-5.65988 -78.29044,-18.11061 -108.26667,-22.46551 -27.76887,-4.03422 -43.4225,-5.20287 -62.4,-4.65855 -13.07862,0.37511 -16.06965,0.23047 -12.8,-0.61897 2.43404,-0.63236 16.63692,-1.114 33.06667,-1.12135 47.73719,-0.0213 67.93728,3.34889 180.80001,30.16515 57.18875,13.58808 93.09519,21.14382 117.0544,24.63156 31.2663,4.55145 57.55009,5.14998 71.15698,1.62039 2.96216,-0.76837 5.52138,-1.26141 5.68714,-1.09564 0.16577,0.16576 -1.03359,1.17807 -2.66523,2.24956 -3.20288,2.10333 -15.84599,3.45295 -34.43329,3.67566 -5.57333,0.0668 -12.05333,0.47902 -14.4,0.9161 -4.26667,0.79468 -4.26667,0.79468 1.18206,1.5552 5.40893,0.75496 38.91911,2.80111 46.51375,2.84015 2.82146,0.0145 4.2826,0.61855 5.07425,2.09775 0.61148,1.14256 1.61171,9.66256 2.22273,18.93333 0.61103,9.27077 1.37914,17.57595 1.70691,18.45595 1.45763,3.91343 2.35465,-3.69073 2.42533,-20.55998 0.0627,-14.96678 0.42036,-18.87601 2.18673,-23.90163 4.35907,-12.40235 15.76258,-28.23994 23.62916,-32.817 3.31214,-1.92713 3.13132,-1.5471 -2.48101,5.21441 -3.32943,4.01116 -7.48795,9.98653 -9.24116,13.27861 -5.87393,11.02977 -14.67056,44.6328 -11.10754,42.43074 0.61081,-0.3775 3.0978,-5.6121 5.52666,-11.63243 5.98005,-14.82259 13.10267,-27.9207 15.42632,-28.3682 1.76558,-0.34001 1.77825,-0.15399 0.19784,2.9022 -0.92876,1.79602 -2.88145,7.71775 -4.33932,13.15939 -4.61607,17.23002 -2.83992,25.49009 2.18638,10.16786 4.76541,-14.5269 9.37809,-22.24322 18.51464,-30.97222 11.91346,-11.38206 22.56521,-15.72374 38.46705,-15.67926 19.70097,0.0552 39.46661,13.58262 49.06161,33.57751 2.86318,5.96653 7.53336,19.61351 9.04939,26.44362 0.39824,1.79419 1.12755,2.68847 1.83561,2.25086 0.78027,-0.48223 0.98904,-3.81063 0.6216,-9.91028 -1.25841,-20.8902 -13.20297,-41.8228 -32.2429,-56.50503 -3.86299,-2.97887 -5.75573,-5.04379 -4.79313,-5.22918 1.64674,-0.31713 29.78434,7.53983 41.04371,11.46079 3.52,1.22581 7.36,2.09234 8.53334,1.92565 1.93561,-0.27501 1.84212,-0.55024 -1.00889,-2.96976 -5.48194,-4.6523 -8.29967,-7.58034 -7.78757,-8.09244 0.27306,-0.27306 4.12393,0.95603 8.55749,2.73132 14.78085,5.91853 16.43112,3.40418 3.0068,-4.58118 -10.54531,-6.2728 -19.68337,-10.14236 -35.8345,-15.17431 -7.04,-2.19335 -14.9793,-5.07644 -17.64289,-6.40688 -6.92694,-3.45996 -15.42641,-4.74408 -31.35302,-4.73689 -24.00872,0.0109 -44.09353,4.33663 -57.25397,12.33117 -3.30203,2.00588 -10.51178,8.39008 -16.02167,14.1871 -10.01797,10.54006 -10.01797,10.54006 -16.93988,11.29581 -3.80705,0.41566 -9.95169,1.43612 -13.65476,2.26769 -12.8483,2.88523 -32.97739,1.52501 -64.50569,-4.35897 -19.52402,-3.64367 -22.0948,-4.45573 -22.0948,-6.97922 0,-1.14576 -0.48,-2.0832 -1.06666,-2.0832 -0.58667,0 -1.06667,0.72 -1.06667,1.6 0,0.88 -0.93637,1.6 -2.08083,1.6 -6.02025,0 -40.24343,-9.36028 -47.20115,-12.90985 -2.43413,-1.2418 -9.27646,-7.22758 -15.2052,-13.30176 -12.93827,-13.25565 -19.31573,-16.69205 -35.5638,-19.16308 -9.26639,-1.40925 -47.87002,-3.33937 -76.48236,-3.82401 -10.66666,-0.18066 -10.66666,-0.18066 3.2,-1.11931 25.44905,-1.72267 29.25552,-4.52098 59.39592,-43.66471 12.27244,-15.93838 16.3766,-22.06699 15.41896,-23.02463 -0.34566,-0.34566 -4.76664,0.19336 -9.8244,1.19782 -11.53737,2.2913 -12.96437,1.575 -1.80541,-0.90623 4.55488,-1.0128 10.61454,-2.55314 13.4659,-3.42298 2.85137,-0.86986 5.42927,-1.33658 5.72867,-1.03718 0.77967,0.77966 -6.97414,11.47577 -29.25278,40.35313 -10.73976,13.92081 -19.52686,25.97026 -19.52686,26.77657 0,1.17817 4.45017,1.58731 22.66667,2.08394 13.4603,0.36696 26.65826,1.32743 32.49424,2.36474 14.25891,2.53442 15.162,2.2886 18.86295,-5.13474 1.70208,-3.41401 4.78127,-7.4873 6.85394,-9.06667 3.21543,-2.45016 4.78451,-2.86364 10.77614,-2.83966 5.88105,0.0236 8.07687,0.60072 13.60694,3.57666 3.62682,1.95174 9.86682,6.36316 13.86667,9.80318 3.99985,3.44004 8.08875,6.27053 9.08644,6.29001 1.16729,0.0228 6.91656,-7.28481 16.12675,-20.49791 17.55388,-25.18307 17.59621,-25.25893 15.10801,-27.07834 -1.99523,-1.45895 -19.43329,-7.42595 -31.98208,-10.9437 -9.7338,-2.72864 -5.84515,-2.7832 6.3424,-0.089 17.82538,3.94054 34.72427,9.69317 34.72427,11.82065 0,0.51327 -2.0901,3.69858 -4.64467,7.07847 -2.55456,3.37988 -9.37058,13.25638 -15.1467,21.94778 -8.98441,13.51894 -10.32371,16.08806 -9.26809,17.77838 1.05754,1.69339 0.82119,2.1339 -1.6533,3.08135 -1.58799,0.60801 -3.77653,1.81669 -4.86344,2.68596 -1.90313,1.52204 -1.8326,1.95107 1.90751,11.60375 4.96161,12.8052 5.90246,14.06752 13.21229,17.72677 9.89991,4.95581 34.41927,13.78504 41.40726,14.91043 10.95524,1.76429 25.36035,-1.01922 37.6065,-7.26674 5.86748,-2.9934 13.97598,-10.44367 13.97598,-12.84148 0,-1.01602 -1.96079,-4.07489 -4.35733,-6.79748 -2.39652,-2.72259 -3.89237,-4.95017 -3.32411,-4.95017 0.56825,0 2.76905,1.92138 4.89065,4.26973 5.80968,6.43063 5.38321,9.61893 -2.27588,17.01484 -3.37333,3.25742 -9.13333,7.50912 -12.8,9.44823 -7.27407,3.84685 -8.36429,5.53386 -3.57623,5.53386 4.49797,0 17.16215,-6.88296 24.19128,-13.14792 14.98042,-13.35183 12.9593,-27.85134 -5.17804,-37.14725 -10.25778,-5.25739 3.68572,-2.45624 30.42265,6.11172 16.42083,5.26212 18.48237,5.43178 36.58465,3.01097 18.29353,-2.44639 44.50809,-1.53127 62.0706,2.16679 41.69,8.77848 72.93548,26.30178 92.1778,51.69576 7.66595,10.11666 10.38515,16.38979 11.14455,25.70993 0.7516,9.2244 -1.0358,27.26953 -3.2185,32.49358 -4.63605,11.0955 -41.84138,21.05151 -68.1431,18.23484 -7.14232,-0.76489 -7.14232,-0.76489 -7.15809,-15.87998 -0.0182,-17.49175 -1.4636,-25.05137 -6.93497,-36.27191 -12.90257,-26.46024 -35.4252,-38.78762 -58.01891,-31.75566 -16.40991,5.10733 -27.90067,17.36936 -36.58985,39.0458 -3.38498,8.44432 -3.42046,8.72248 -3.4008,26.66666 0.023,20.99014 1.20935,27.04576 8.02089,40.94157 5.80439,11.84118 14.55737,20.70413 26.06316,26.39059 7.95392,3.93104 8.86811,4.13451 18.57668,4.13451 9.42799,0 10.76798,-0.27415 17.47258,-3.57482 8.38921,-4.12999 16.75512,-12.10057 23.26323,-22.16393 2.41678,-3.73703 4.54602,-6.79458 4.73164,-6.79458 0.78911,0 -3.10289,9.48778 -5.99189,14.6068 -1.72526,3.05699 -2.70298,5.82631 -2.17271,6.15403 0.53028,0.32772 9.76146,1.06898 20.51376,1.64723 20.64728,1.11041 34.7738,2.59475 42.12693,4.42649 4.35599,1.08512 8.88936,4.27058 8.88936,6.24628 0,4.80834 -31.20214,9.99159 -80,13.28947 -65.23705,4.40888 -123.55531,5.99419 -296.53334,8.06092 -52.50667,0.62734 -111.54667,1.58993 -131.20001,2.13907 -19.65333,0.54915 -67.89333,1.2496 -107.2,1.55654 -39.30667,0.30696 -80.10667,0.70044 -90.66667,0.87443 -10.56,0.17398 -28.32,-0.003 -39.46667,-0.393 z m 180.54827,-11.06165 c 8.33295,-2.21828 14.79113,-6.4266 23.71841,-15.45552 8.99608,-9.09852 13.76315,-16.54358 17.92895,-28.00085 2.69474,-7.41144 2.84529,-8.86311 2.85782,-27.55691 0.012,-17.85829 -0.22354,-20.4428 -2.47854,-27.2 -5.47535,-16.40708 -14.53294,-29.25473 -27.19726,-38.57766 -15.71053,-11.56543 -38.38378,-11.97645 -55.5323,-1.00668 -17.66039,11.29722 -32.6638,39.50278 -32.6366,61.35496 0.0329,26.35452 6.26612,44.04831 21.11951,59.94972 12.05917,12.91003 22.52763,17.91911 37.53842,17.96186 4.98666,0.0142 11.59338,-0.64682 14.68159,-1.46892 z M 398.68793,521.0905 c -16.22555,-5.33151 -26.65281,-20.94459 -28.30911,-42.38815 -1.14512,-14.82537 4.55855,-31.14358 13.89293,-39.74772 13.70764,-12.63526 30.76221,-12.26202 42.39583,0.92782 8.75397,9.92497 12.94596,22.09579 12.86213,37.34339 -0.104,18.9179 -8.60147,34.40315 -22.87422,41.68456 -4.8139,2.45587 -13.80735,3.5471 -17.96756,2.1801 z m 15.64008,-19.41528 c 4.6857,-2.26831 9.18946,-7.14763 12.72184,-13.78272 3.05821,-5.74442 2.8257,-22.39902 -0.39795,-28.505 -3.01746,-5.71542 -9.11008,-11.83612 -13.68428,-13.74734 -5.02612,-2.10005 -13.09855,-1.86807 -16.96105,0.48742 -7.59971,4.63457 -14.43445,27.77277 -11.47684,38.85349 0.65954,2.47099 1.0497,4.64215 0.86702,4.82483 -0.18268,0.18268 -1.41195,-1.415 -2.73169,-3.55041 -2.1305,-3.44721 -2.33828,-4.8646 -1.85314,-12.64091 0.39781,-6.37651 1.23154,-10.04971 3.06569,-13.50688 1.38561,-2.61169 2.90288,-5.67932 3.37173,-6.81696 2.01717,-4.89457 -3.56299,2.00684 -6.29919,7.7907 -2.51152,5.30891 -2.74606,6.81673 -2.26349,14.55164 0.35671,5.71772 1.27196,10.05118 2.71276,12.84422 2.50143,4.84915 8.8974,11.33507 13.55518,13.74582 4.61409,2.38814 13.8478,2.12701 19.37341,-0.5479 z M 260.0534,519.62584 c 1.17377,-1.90667 2.69827,-5.31868 3.38778,-7.58224 0.73527,-2.41372 2.23312,-4.56184 3.62225,-5.19478 1.64471,-0.74937 9.1617,-0.54731 24.59654,0.66116 12.22537,0.95719 22.54982,1.73483 22.9432,1.7281 0.39339,-0.006 1.00943,1.32714 1.36898,2.96416 0.35955,1.63703 1.59064,4.51703 2.73574,6.4 1.70848,2.80938 2.75461,3.4236 5.83102,3.4236 2.06197,0 3.74902,-0.51337 3.74902,-1.14082 0,-2.61638 -6.75499,-17.10668 -8.37464,-17.96465 -1.55583,-0.82416 -15.24192,-1.97112 -46.5587,-3.90183 -7.05199,-0.43476 -10.07892,-0.22037 -11.4044,0.80772 -1.67861,1.302 -10.46227,19.97997 -10.46227,22.24743 0,0.56035 1.44706,1.01881 3.21568,1.01881 2.47907,0 3.70454,-0.7941 5.3498,-3.46666 z m 218.1012,-2.93806 c 8.05476,-0.96597 70.23423,-4.66545 102.03953,-6.07103 13.96743,-0.61726 14.85373,-0.52966 21.33334,2.10859 8.30769,3.38257 11.69244,4.1374 13.51145,3.01319 1.02596,-0.63407 0.0905,-2.01782 -3.50178,-5.17987 -9.14466,-8.04945 -9.84643,-8.19111 -33.58028,-6.77838 -11.47791,0.68321 -38.62893,2.17765 -60.33559,3.32099 -57.03273,3.00403 -55.46451,2.78032 -56.01876,7.99123 -0.39845,3.74611 -0.0592,4.02604 4.01875,3.31556 2.2,-0.38331 7.84,-1.15743 12.53334,-1.72028 z m 218.81636,-2.20107 c 2.50611,-1.21318 6.07002,-3.92953 7.9198,-6.03633 3.36326,-3.83053 3.36326,-3.83053 46.76003,-3.17855 23.86822,0.35858 44.19759,0.95928 45.17635,1.33486 0.97877,0.3756 2.09304,1.71855 2.47613,2.98435 1.58887,5.24989 8.55885,9.31264 10.52336,6.134 0.99133,-1.60399 -3.72473,-12.57681 -6.54406,-15.22603 -2.63197,-2.47317 -2.63197,-2.47317 -50.59324,-3.24724 l -47.96127,-0.77408 -10.62006,9.15957 c -5.84103,5.03776 -10.62006,9.5861 -10.62006,10.1074 0,1.78293 8.9207,0.95063 13.48302,-1.25795 z m -500.1399,-10.83145 c -0.53282,-1.59848 -4.2891,-2.715 -9.6098,-2.85643 -4.25871,-0.11321 -5.20399,1.21974 -2.13334,3.00823 2.75282,1.60337 12.28712,1.48012 11.74314,-0.1518 z m 501.05688,-21.15658 c 19.05682,-1.67181 58.39936,-6.24998 59.01702,-6.86764 0.2962,-0.2962 0.29325,-0.78382 -0.006,-1.0836 -1.04786,-1.04786 -21.79046,-2.60013 -35.10968,-2.62742 -7.3879,-0.0151 -19.31285,-0.3437 -26.4999,-0.73014 l -13.06736,-0.70262 0.77533,-28.57473 c 0.77532,-28.57472 0.77532,-28.57472 -2.11154,-29.29928 -1.73174,-0.43463 -3.38912,-0.22288 -4.1421,0.52923 -0.89828,0.89725 -1.34649,11.26114 -1.57615,36.44583 -0.32092,35.19207 -0.32092,35.19207 4.8,34.61267 2.8165,-0.31867 10.88092,-1.08471 17.92092,-1.7023 z M 474.14692,452.81004 c -1.07737,-17.88478 -10.14242,-36.34415 -25.23134,-51.37908 -10.26231,-10.22559 -20.9869,-16.53474 -33.22913,-19.5483 -8.7789,-2.16101 -26.19181,-2.23217 -34.05712,-0.13916 -24.40938,6.49549 -44.74664,29.96291 -50.58501,58.3707 -1.8543,9.02246 -2.15696,16.58962 -0.75217,18.80592 0.61178,0.96518 1.85057,-1.45343 3.82437,-7.46667 4.95892,-15.10747 13.92936,-32.89428 16.58962,-32.89428 0.51677,0 0.19693,1.77744 -0.71076,3.94986 -2.20896,5.28679 -6.75236,25.52393 -6.76446,30.13014 -0.0143,5.44907 1.56915,3.10276 6.32233,-9.36822 5.53074,-14.5111 8.63136,-19.52125 17.58303,-28.41175 12.72651,-12.63953 22.4763,-16.53315 41.45197,-16.55403 18.61666,-0.0205 29.40023,4.84441 42.78636,19.30266 8.17774,8.83271 14.27501,20.52019 18.41179,35.29243 1.59273,5.68759 3.3499,10.06049 3.90483,9.71754 0.57909,-0.35791 0.77323,-4.53631 0.45569,-9.80776 z M 655.7546,446.6107 c -5.3988,-2.37321 -58.12959,-15.51957 -80,-19.94486 -28.12105,-5.69005 -54.05909,-9.20434 -73.06667,-9.89965 -9.38666,-0.34337 -16.75477,-0.28852 -16.37356,0.12189 0.81821,0.88088 19.65528,4.04163 41.65695,6.98978 15.2126,2.03844 38.38444,6.701 92.58328,18.6293 15.56481,3.42557 28.72155,5.75013 32.53334,5.74809 6.4,-0.003 6.4,-0.003 2.66666,-1.64455 z M 282.95459,397.75917 c 0,-1.07555 -0.6,-2.15555 -1.33333,-2.4 -0.84445,-0.28148 -1.33333,0.59852 -1.33333,2.4 0,1.80148 0.48888,2.68148 1.33333,2.4 0.73333,-0.24445 1.33333,-1.32445 1.33333,-2.4 z m 387.73335,-37.70662 c 0,-1.31361 -6.26211,-9.76004 -7.23602,-9.76004 -0.45245,0 -1.89563,0.75155 -3.20707,1.67012 -2.81465,1.97145 -2.1258,3.86112 2.52519,6.92712 3.18551,2.09994 7.9179,2.79492 7.9179,1.1628 z m -12.76828,-13.07786 c 1.2959,-4.81262 -0.1579,-8.74423 -3.03702,-8.2132 -2.12708,0.39232 -6.70334,8.9401 -5.90297,11.02584 0.30611,0.79772 1.3557,1.62257 2.33242,1.83302 3.62091,0.78013 5.50284,-0.543 6.60757,-4.64566 z m -10.92377,-5.53402 c 1.88396,-3.10852 3.42538,-6.16739 3.42538,-6.79749 0,-1.81272 -9.3584,-9.95859 -13.36349,-11.63202 -1.99906,-0.83526 -6.09808,-1.51865 -9.10892,-1.51865 -4.80341,0 -5.91869,0.44443 -9.10092,3.62666 -6.81449,6.81449 -3.81996,11.49845 11.30666,17.68562 5.57334,2.27964 10.87192,4.17695 11.77463,4.21626 0.90271,0.0392 3.18271,-2.47187 5.06666,-5.58038 z M 863.9457,503.81961 c -7.74085,-3.86815 -13.23421,-9.86896 -16.13718,-17.62788 -7.03723,-18.80865 -5.07765,-41.21608 4.7274,-54.05737 10.9247,-14.30764 27.70199,-16.39348 39.21947,-4.87599 10.17326,10.17326 14.84729,26.28551 12.7772,44.04544 -1.35093,11.5901 -5.07003,19.41173 -13.02186,27.38621 -4.95168,4.96578 -6.94504,6.20437 -11.58747,7.2 -7.88895,1.69188 -8.64446,1.59397 -15.97756,-2.07041 z m 23.77667,-18.1446 c 6.75876,-6.23002 8.38234,-11.24364 7.85916,-24.26925 -0.38152,-9.49874 -0.75273,-11.11537 -3.61557,-15.74591 -4.77727,-7.72705 -11.15375,-12.16735 -17.47288,-12.16735 -4.7706,0 -5.4373,0.36121 -10.45045,5.66188 -8.6549,9.15129 -9.20333,10.81351 -8.55104,25.91728 0.30853,7.14432 1.07934,13.88169 1.7129,14.97193 0.93991,1.61744 1.16575,1.00071 1.22706,-3.35109 0.0751,-5.33333 0.0751,-5.33333 1.7442,-2.13333 5.71865,10.96408 10.98814,15.41999 18.26936,15.44869 3.86122,0.0153 5.27799,-0.64646 9.27726,-4.33285 z M 856.87223,466.2925 c -0.44689,-1.02666 -0.44689,-2.70666 0,-3.73333 0.77384,-1.77778 0.83379,-1.77778 1.259,0 0.24556,1.02667 0.24556,2.70667 0,3.73333 -0.42521,1.77779 -0.48516,1.77779 -1.259,0 z m 2.03856,-15.13623 c 0.27988,-2.31159 1.5108,-5.19159 2.73536,-6.4 2.22648,-2.1971 2.22648,-2.1971 0.19953,2.6029 -1.11481,2.64 -2.34573,5.52 -2.73535,6.4 -0.38963,0.88 -0.47942,-0.29131 -0.19954,-2.6029 z m -701.82287,37.89822 c -4.69333,-1.64306 -10.45333,-3.85689 -12.8,-4.91961 -4.26667,-1.93223 -4.26667,-1.93223 -0.53333,-2.58282 3.61118,-0.62933 3.65583,-0.69398 1.36444,-1.97597 -6.40762,-3.58494 -37.3841,-9.68671 -63.497776,-12.50783 -5.315893,-0.57428 -6.154772,-0.97224 -6.294187,-2.98585 -0.28375,-4.09827 0.307962,-8.69561 1.244123,-9.6663 1.06793,-1.10732 44.20453,4.09222 53.15839,6.40753 3.31375,0.85688 10.73959,3.75596 16.50186,6.44241 16.05831,7.48659 24.20668,7.43361 42.55768,-0.27673 5.93003,-2.49157 6.84269,-2.55895 32.53333,-2.40201 l 26.43214,0.16147 -26.66667,1.27299 c -26.12903,1.24733 -26.83666,1.3416 -35.09857,4.676 -9.65316,3.89589 -19.12701,5.50027 -25.539,4.32501 -5.22614,-0.9579 -6.30061,-0.36565 -3.36075,1.85249 3.46138,2.61162 21.55481,1.36753 30.60774,-2.10458 7.14275,-2.73949 7.14275,-2.73949 55.15855,-3.07551 48.0158,-0.33601 48.0158,-0.33601 50.06074,7.13066 1.12473,4.10666 1.74337,7.78246 1.37478,8.16845 -0.36858,0.38598 -11.95015,0.0344 -25.73682,-0.78118 -13.78667,-0.81564 -35.38667,-1.55505 -48,-1.64314 -22.93333,-0.16019 -22.93333,-0.16019 -34.76808,3.7145 -6.5091,2.13108 -13.70911,3.84831 -16,3.81606 -2.29089,-0.0323 -8.00525,-1.40298 -12.69859,-3.04604 z m -3.73333,-15.54767 c 0,-0.55505 -7.27579,-3.77156 -8.39693,-3.71216 -0.36836,0.0195 0.46343,0.97952 1.84843,2.13333 2.25376,1.87757 6.5485,2.91303 6.5485,1.57883 z m -8.75169,-13.41486 c -11.68828,-5.47216 -15.34328,-6.64525 -26.58101,-8.53135 -7.16612,-1.20273 -13.86708,-2.63515 -14.89103,-3.18315 -3.195119,-1.70998 -9.487339,-24.42361 -11.067539,-39.95162 -0.35822,-3.52 -0.91641,-8.56 -1.24043,-11.2 -0.58913,-4.8 -0.58913,-4.8 2.60352,-1.76396 6.05136,5.75451 14.017719,3.64441 18.568329,-4.9183 1.94313,-3.65633 2.40336,-6.2465 2.41371,-13.58441 0.0113,-8.00773 -0.3337,-9.65613 -2.954,-14.11372 -3.4988,-5.95207 -6.52814,-8.01064 -8.89619,-6.04534 -6.999449,5.80904 -10.196639,22.5092 -5.890829,30.77008 2.55926,4.91005 1.64202,5.49976 -2.72003,1.74872 -2.79443,-2.403 -3.01615,-3.19845 -3.34481,-12 -0.352,-9.4264 -0.352,-9.4264 5.86666,-16.58805 8.199819,-9.4432 12.059619,-12.13977 21.671079,-15.14005 17.16862,-5.35931 38.07975,-7.84066 72.29929,-8.57917 23.18164,-0.5003 23.18164,-0.5003 3.52853,1.01537 -37.88873,2.92201 -84.3469,11.08014 -84.3469,14.81146 0,0.28681 2.15989,2.07258 4.79974,3.96839 5.7874,4.15619 6.91797,7.44344 6.93097,20.15231 0.01,9.06667 0.01,9.06667 6.46055,17.33334 3.5482,4.54666 7.15171,8.26666 8.0078,8.26666 0.85608,0 4.7915,-4.16174 8.74539,-9.24831 12.56193,-16.16057 20.74956,-25.05965 29.19384,-31.73057 7.90425,-6.24432 22.96361,-15.2081 23.92866,-14.24307 0.25682,0.25683 -2.28988,2.34684 -5.65934,4.64446 -11.4571,7.81253 -37.42702,35.6526 -36.32938,38.94551 0.20532,0.61594 4.10311,-1.76244 8.66176,-5.28528 4.55867,-3.52283 10.30708,-7.40527 12.77425,-8.62763 2.46717,-1.22237 8.99842,-6.23743 14.51387,-11.1446 14.30423,-12.72663 24.26408,-18.22932 36.90523,-20.38973 3.64227,-0.62247 2.97782,-0.0946 -4.54036,3.60671 -11.78463,5.80183 -20.69005,11.96985 -29.05933,20.12686 -5.6193,5.47679 -6.6299,6.9488 -5.33333,7.76841 0.87982,0.55619 2.65108,1.0186 3.93611,1.02758 9.94591,0.0695 63.26358,27.07586 63.26358,32.04412 0,1.43411 -0.57452,1.32799 -5.10916,-0.94365 -12.09783,-6.06044 -57.16489,-18.582 -65.05376,-18.07471 -5.76585,0.37076 -5.25264,-2.79174 -3.88435,23.93577 0.39452,7.70653 0.36621,21.03553 -0.0629,29.62001 -0.88648,17.73313 -1.61559,19.48517 -8.55647,20.56101 -4.26667,0.66134 -4.26667,0.66134 -2.13333,-1.74098 1.85486,-2.08875 2.17958,-4.21743 2.4877,-16.30823 0.32149,-12.61575 0.18969,-13.84271 -1.42058,-13.22479 -0.97621,0.37462 -1.97568,0.68111 -2.22103,0.68111 -0.24535,0 -0.44609,0.70312 -0.44609,1.56248 0,0.85936 -1.02668,2.11192 -2.28151,2.78348 -1.98833,1.06413 -2.61506,0.79482 -4.87731,-2.09579 -2.95409,-3.77465 -5.64118,-4.33838 -5.64118,-1.1835 0,1.42222 -0.71112,2.13333 -2.13334,2.13333 -1.17333,0 -2.13333,-0.56221 -2.13333,-1.24934 0,-0.68714 -0.77703,-2.10794 -1.72671,-3.15735 -2.11361,-2.33551 -1.31295,-8.08488 1.55454,-11.16277 1.06403,-1.14211 1.71955,-2.72172 1.45671,-3.51025 -0.61824,-1.85472 1.91871,-3.43653 4.31546,-2.69072 1.02667,0.31947 1.86667,0.10539 1.86667,-0.47585 0,-0.58119 1.24266,-2.53354 2.76148,-4.33854 3.13479,-3.72549 7.39125,-4.35163 9.62033,-1.41518 1.21804,1.60457 1.42177,0.71817 1.45093,-6.31276 0.0571,-13.76011 -1.06261,-14.26811 -13.3437,-6.05401 -11.54641,7.7227 -12.09842,9.1966 -13.40698,35.79744 -1.02826,20.90292 -1.02826,20.90292 1.89686,23.95608 1.87669,1.95885 5.52295,3.82684 10.1731,5.21172 8.23419,2.45224 9.40025,4.23065 2.71464,4.14021 -3.21777,-0.0435 -8.46599,-1.90251 -18.08502,-6.40589 z m 48.28597,-31.45279 c 0.0486,-19.93602 0.37259,-26.93395 1.15773,-25.01333 1.5517,3.79582 1.52604,49.94195 -0.0287,51.49664 -0.88448,0.88448 -1.17905,-6.02488 -1.12908,-26.48331 z m 55.02631,22.41825 c -0.38166,-2.78447 -0.69392,-11.81168 -0.69392,-20.06046 0,-11.45032 0.29516,-14.70263 1.24786,-13.74993 1.61156,1.61157 2.65824,34.37315 1.18241,37.01032 -0.83297,1.48843 -1.18188,0.84544 -1.73635,-3.19993 z m -21.26256,2.70175 c -0.93096,-2.41377 -1.58792,-41.62455 -0.70652,-42.16929 1.46383,-0.90469 2.21875,4.38793 2.74375,19.23596 0.49405,13.9723 -0.62683,26.59017 -2.03723,22.93333 z m -10.75081,-7.2 c -0.38203,-3.96 -0.99282,-14.64 -1.35731,-23.73333 -0.54163,-13.51285 -0.41026,-16.29607 0.7191,-15.23459 1.01329,0.95238 1.5144,7.28171 1.87902,23.73333 0.27348,12.33903 0.26246,22.43459 -0.0245,22.43459 -0.28695,0 -0.83428,-3.24 -1.21632,-7.2 z m 21.80634,2.4 c -0.0986,-2.93333 -0.59738,-11.81333 -1.10843,-19.73333 -0.87737,-13.59742 -0.79441,-16.03817 0.50115,-14.74262 1.1755,1.17551 2.51805,28.37822 1.67518,33.94262 -0.88865,5.86666 -0.88865,5.86666 -1.0679,0.53333 z m -33.44928,-0.94887 c -1.06365,-7.19569 -0.77663,-44.08214 0.29971,-38.51779 1.36419,7.05241 2.13968,29.38872 1.27766,36.79999 -0.80643,6.93334 -0.80643,6.93334 -1.57737,1.7178 z m 513.3624,-47.24491 c -28.20373,-2.91379 -84.88272,-13.9432 -142.4,-27.71022 -28.81904,-6.89796 -69.82759,-15.72072 -97.65,-21.00886 -31.17622,-5.92559 -52.57674,-8.31683 -92.75001,-10.3637 -13.2,-0.67256 -24.2,-1.41047 -24.44445,-1.6398 -0.62199,-0.58354 18.92442,-0.88034 36.71112,-0.55742 48.70776,0.88429 94.5134,8.19338 185.6,29.61571 21.12001,4.96714 49.61403,11.66257 63.32006,14.87875 30.10058,7.06324 62.26225,12.8927 79.61328,14.4303 24.59902,2.1799 27.03521,2.81386 10.66667,2.77573 -8.21333,-0.0191 -16.61333,-0.20835 -18.66667,-0.42049 z m -13.9254,-38.01691 c -1.13665,-1.86411 -2.06842,-3.74931 -2.07061,-4.18931 -0.002,-0.44 -4.76474,-0.8 -10.58341,-0.8 -5.81869,0 -11.33869,-0.29135 -12.26667,-0.64745 -2.68085,-1.02874 -1.95989,-3.39087 1.24609,-4.08266 6.0442,-1.30421 33.07754,-3.77676 40.26667,-3.68291 7.03168,0.0918 7.25121,0.16613 3.76828,1.27601 -2.09101,0.66632 -6.87006,4.29409 -10.99606,8.34708 -7.29766,7.16856 -7.29766,7.16856 -9.36429,3.77924 z M 279.75459,345.92652 c -8.8,-2.98402 -16.24,-5.67847 -16.53333,-5.98769 -1.71956,-1.81264 31.62156,8.556 33.54667,10.43257 1.79048,1.74533 -0.59964,1.12089 -17.01334,-4.44488 z m 626.13335,-4.85321 c -5.286,-0.9018 -21.52265,-1.685 -42.66666,-2.05811 -34.13334,-0.60231 -34.13334,-0.60231 -53.86667,-4.74452 -46.79152,-9.82199 -89.01906,-12.96527 -113.4659,-8.44602 -3.41528,0.63134 -6.428,0.9295 -6.69494,0.66257 -0.26693,-0.26694 3.65547,-6.84998 8.71645,-14.62897 10.49882,-16.13724 15.44439,-24.62559 15.44439,-26.50805 0,-4.86923 -57.93329,-21.09468 -99.73334,-27.93242 -20.4907,-3.35192 -37.93121,-2.56057 -56,2.54094 -16.13227,4.55475 -38.06204,12.54429 -45.29638,16.50254 -4.02672,2.20322 -9.55101,7.84105 -23.04466,23.51832 -9.76156,11.34123 -18.97821,21.85035 -20.48145,23.35359 -2.73317,2.73316 -2.73317,2.73316 -50.55534,3.59263 -26.3022,0.4727 -73.98218,1.40767 -105.95551,2.0777 -31.97334,0.67003 -66.77334,1.05416 -77.33334,0.85363 -19.2,-0.36463 -19.2,-0.36463 -18.95444,-6.1121 0.31298,-7.3254 5.84638,-30.25937 10.96402,-45.44204 7.86288,-23.32699 21.87106,-54.16836 30.51958,-67.19398 4.32974,-6.52106 7.05819,-7.97235 22.102,-11.75627 15.13831,-3.80769 36.12947,-6.59613 64.13113,-8.51907 35.02375,-2.40518 48.74669,-4.26819 79.00318,-10.72534 18.39031,-3.92476 36.33707,-9.36783 38.86311,-11.7868 1.35863,-1.30104 1.21981,-1.49513 -1.06666,-1.49131 -1.44572,0.002 -9.58858,1.45121 -18.09525,3.21956 -30.82321,6.40746 -53.51793,9.5851 -67.49454,9.45031 -13.03879,-0.12574 -13.03879,-0.12574 -2.37213,-1.52946 16.0434,-2.11127 23.5086,-3.44864 47.78775,-8.56102 34.34699,-7.23233 33.99138,-9.3006 -0.64039,-3.72467 -27.61397,4.44601 -33.37124,5.22053 -51.94736,6.98833 -20.23713,1.92587 -81.01662,4.40933 -83.60492,3.4161 -1.62612,-0.624 -1.189,-1.60866 3.26366,-7.35186 7.75834,-10.00694 38.86503,-40.90044 51.54126,-51.18801 52.3662,-42.498469 115.07763,-68.473661 183.46668,-75.992221 76.78729,-8.441848 149.82575,5.20313 215.45547,40.251202 42.69452,22.800029 83.88419,57.308749 112.36269,94.137459 9.26629,11.98327 9.24173,11.84551 2.46389,13.81588 -3.16543,0.92021 -15.41727,5.23046 -27.22631,9.57834 -33.81905,12.45154 -59.45258,19.94726 -80.22038,23.45792 -19.13318,3.23433 -37.7739,7.15837 -38.83276,8.17463 -1.087,1.04326 8.95144,0.69109 35.98924,-1.26259 14.84269,-1.0725 35.7512,-5.29642 68.91594,-13.92235 11.35261,-2.95273 20.84638,-5.16334 21.09727,-4.91245 1.02844,1.02843 -38.72479,11.52491 -67.31312,17.77343 -8.12021,1.77482 -15.0478,3.53737 -15.39464,3.91677 -1.18678,1.29819 21.75557,-0.70533 39.36938,-3.43808 19.1652,-2.97344 44.40267,-9.13659 67.58102,-16.50368 17.39461,-5.52878 15.15096,-6.72916 26.4969,14.17621 11.35836,20.92824 21.68499,48.26979 29.1171,77.09253 3.75499,14.56237 6.92914,31.03981 6.93492,36 0.004,3.40067 -0.20786,3.41943 -13.32994,1.1808 z m -435.43426,-8.99903 c 2.19183,-1.80669 8.48409,-8.64669 13.9828,-15.2 14.75727,-17.58757 16.19319,-18.08933 3.97345,-1.38848 -5.95322,8.13632 -10.69607,15.54442 -10.53968,16.46245 0.30839,1.81029 -2.97347,3.1288 -8.22535,3.3046 -3.17637,0.10634 -3.17637,0.10634 0.80878,-3.17857 z"
       id="path223" />
  </g>
</svg>
