<svg width="100" height="100" viewBox="0 0 100 100" fill="none" xmlns="http://www.w3.org/2000/svg">
<circle cx="50" cy="50" r="50" fill="#EEEEEE"/>
<path d="M72.5687 48.6032C82.8969 41.9188 96.7812 41.7032 80.5812 52.5032L80.8375 52.1594C85.4219 45.8594 76.0812 47.2751 72.7812 48.5157L72.5687 48.6032ZM34.7719 53.3626H39.1437V55.0782H34.0844C31.9406 55.0782 31 54.4345 31 52.722V52.3376C31 50.8813 31.8562 49.9376 34 49.9376H39.1437V51.6532H34.7719C34.5674 51.654 34.3716 51.7356 34.227 51.8802C34.0824 52.0248 34.0008 52.2206 34 52.4251V52.6407C34.012 52.8369 34.0987 53.021 34.2422 53.1553C34.3858 53.2896 34.5753 53.3637 34.7719 53.3626ZM43 49.0751V53.3594H45.5719V55.0751H39.5719V49.0751H43ZM26.7562 49.847C27.3531 49.3657 28.0906 49.0938 28.8562 49.0751H30.5719V55.0751H27.1406V52.0751L23.8406 55.0751H20.7125V52.0751L16.8969 55.0751H13L19.8125 49.9313C20.4562 49.4594 20.8844 49.0751 21.9969 49.0751H24.1406V52.0751L26.7562 49.847ZM55.8562 50.4907C55.8557 50.3536 55.8838 50.2179 55.9386 50.0922C55.9934 49.9666 56.0738 49.8537 56.1746 49.7608C56.2755 49.6679 56.3945 49.597 56.5243 49.5527C56.654 49.5083 56.7915 49.4915 56.9281 49.5032H61V51.2188H58.8562V55.0751H55.8562V50.4907ZM75.9531 49.5032C78.525 49.5032 79.425 50.0595 79.425 51.9469V55.0751H76.425V52.9313C76.425 52.7627 76.3918 52.5956 76.3272 52.4398C76.2627 52.284 76.1681 52.1424 76.0488 52.0231C75.9295 51.9039 75.788 51.8093 75.6321 51.7447C75.4763 51.6802 75.3093 51.647 75.1406 51.647H73.8562V55.0751H70.8562V49.5032H75.9531ZM52.5562 49.5032C54.5281 49.5032 55.4281 50.3188 55.4281 51.6876V52.972C55.4281 54.5563 54.5281 55.0719 52.3437 55.0719H48.9594C47.7156 55.0719 46.8156 54.9438 46.3437 54.5157C46.1187 54.2372 45.9972 53.8893 46 53.5313V53.3157C46 52.4594 46.5156 51.6438 48.1437 51.6438H52C52 51.2594 52.0437 51.2157 51.5719 51.2157H46.4281V49.5001H52.5562V49.5032ZM51.9969 53.1469V52.9313H49.6406C49.5897 52.94 49.5436 52.9664 49.5103 53.0059C49.477 53.0454 49.4587 53.0953 49.4587 53.1469C49.4587 53.1986 49.477 53.2485 49.5103 53.288C49.5436 53.3275 49.5897 53.3539 49.6406 53.3626H51.7844C51.8125 53.3626 51.8404 53.357 51.8664 53.3461C51.8924 53.3352 51.916 53.3193 51.9357 53.2992C51.9555 53.2792 51.9711 53.2554 51.9816 53.2292C51.9921 53.2031 51.9973 53.1751 51.9969 53.1469ZM67.6844 49.5032C69.9562 49.5032 70.4281 50.1876 70.4281 51.1313V51.3469C70.4281 52.3751 69.6125 52.9313 68.2844 52.9313H64.4281C64.4281 53.3157 64.8125 53.3594 65.2844 53.3594H69.9969V55.0751H64.125C62.2812 55.0751 61.425 54.3032 61.425 52.8907V51.9063C61.425 50.2782 62.325 49.5063 64.3812 49.5063L67.6844 49.5032ZM67.2125 51.647C67.2634 51.6383 67.3096 51.6118 67.3428 51.5724C67.3761 51.5329 67.3944 51.483 67.3944 51.4313C67.3944 51.3797 67.3761 51.3297 67.3428 51.2903C67.3096 51.2508 67.2634 51.2244 67.2125 51.2157H64.6406C64.5837 51.2165 64.5293 51.2395 64.489 51.2797C64.4488 51.32 64.4258 51.3744 64.425 51.4313V51.647H67.2125Z" fill="#121212"/>
</svg>
