<svg width="100" height="100" viewBox="0 0 100 100" fill="none" xmlns="http://www.w3.org/2000/svg">
<circle cx="50" cy="50" r="50" fill="url(#paint0_linear_152_36)"/>
<path d="M50.5002 22C59.9767 22 69.8128 22.809 79.7965 24.532C79.9455 28.5344 80.1147 34.7208 79.8306 39.9706C79.1944 51.6752 76.6183 60.7598 71.7211 68.5609C66.839 76.3392 59.2795 83.0277 50.5002 87C41.7209 83.0277 34.1605 76.3395 29.2788 68.5609C24.3821 60.7598 21.8054 51.6749 21.1698 39.9706C20.8846 34.721 21.0541 28.5344 21.2033 24.532C31.1871 22.809 41.0237 22 50.5002 22ZM50.5002 23.1275C41.1581 23.1275 31.6735 23.9218 22.2959 25.4897C22.09 31.4272 22.09 36.1516 22.2945 39.9097C22.9188 51.4147 25.4413 60.3289 30.2324 67.9612C35.0229 75.593 42.2059 81.8975 50.5002 85.7599C58.7937 81.8975 65.9775 75.593 70.768 67.9612C75.559 60.3286 78.0808 51.4147 78.7059 39.9097C78.9103 36.1516 78.9103 31.4272 78.7045 25.4897C69.3269 23.9218 59.8418 23.1275 50.5002 23.1275ZM50.4187 57.3061C50.4187 57.3061 50.6031 58.4016 50.6592 58.7193C50.6906 58.8994 50.6974 58.9476 50.6519 59.1242C50.5227 59.5833 49.6679 63.4305 49.1934 66.2357C48.9708 67.5268 48.7782 68.8081 48.6661 69.9045C48.6027 70.5274 48.6233 70.6766 48.7877 71.2294C49.2535 72.7913 50.9766 76.8719 51.3075 77.6159C51.3436 77.6978 51.367 77.7846 51.3772 77.8735L51.5015 78.8357C50.9495 78.0013 47.9495 72.4825 46.7714 69.4264C46.6324 69.0665 46.6056 68.8891 46.7594 68.2272C47.5787 64.7166 49.7958 58.7502 50.4187 57.3061ZM46.0439 48.8244C46.1284 49.0717 46.8318 51.4799 46.8854 52.0525C46.9287 52.3704 46.9214 52.456 46.8085 52.7604C46.192 54.4017 44.3279 58.4829 43.6088 59.8457C43.449 60.1455 43.2987 60.3408 42.9978 60.6468C42.3113 61.3461 40.9975 62.6678 40.1839 63.4072C39.8884 63.6761 39.8088 63.9058 39.7487 64.2538C39.6517 64.8125 39.5555 65.7661 39.5287 66.2585C39.5054 66.6916 39.5756 66.8941 39.8169 67.3231C41.2507 69.8828 46.0369 75.7715 47.4005 77.0081C47.4994 77.0978 47.5717 77.1579 47.7802 77.2966C47.9806 77.4304 48.6344 77.8548 48.6344 77.8548C48.6606 77.8732 48.6827 77.8969 48.6992 77.9244L48.9359 78.3412C48.3249 78.037 47.345 77.5482 46.8391 77.2771C46.7189 77.2123 46.6056 77.1356 46.5008 77.0482C44.904 75.7206 40.0108 69.9892 38.5716 67.5961C38.2128 66.9987 38.1759 66.8053 38.2241 66.2398C38.3143 65.1871 38.4541 63.8635 38.5765 63.2834C38.6507 62.9335 38.7276 62.7279 38.9955 62.4189C41.0357 60.0767 44.9698 54.9052 46.1165 52.6938C46.244 52.4436 46.2549 52.3566 46.2576 52.1205C46.2649 51.4352 46.0463 50.1009 45.9889 49.7637C45.98 49.7108 45.9778 49.657 45.9822 49.6036L46.0439 48.8244ZM59.3987 47.5385C59.6186 47.6406 59.9775 47.7554 60.1386 47.9453C62.6752 50.5951 64.7038 53.3427 65.11 54.0669C65.1883 54.2061 65.2417 54.3454 65.2612 54.5046C65.717 58.3691 65.3253 62.463 64.3942 66.0245C64.31 66.3457 64.2157 66.5104 63.907 66.7425C61.8468 68.2897 56.9495 72.3531 55.3053 73.8646C55.1252 74.0311 54.9687 74.2213 54.84 74.4301C54.4257 75.1101 53.914 76.0583 53.5888 76.6645C53.2546 75.9343 52.526 74.153 52.276 73.4331C52.1945 73.1983 52.1799 73.0751 52.266 72.7607C52.6736 71.2678 54.6006 66.9275 54.9757 66.1426C54.9708 66.2433 54.9928 66.5074 54.9543 66.6011C54.7853 67.1143 53.7491 70.5352 53.5387 72.0186C53.4918 72.3485 53.4959 72.4376 53.5387 72.7615C53.631 73.454 54.0446 74.7242 54.0446 74.7242C54.0917 74.6121 54.5557 73.6853 54.8815 73.4312C56.8014 71.5397 60.8319 68.0891 63.1416 66.2168C63.4011 66.0066 63.4978 65.8661 63.5554 65.4674C63.8414 63.5028 63.9243 59.9762 63.7521 57.4098C63.7207 56.9252 63.561 56.4576 63.2895 56.0549C62.6639 55.1294 61.9158 54.2535 60.7816 53.1285C60.6194 52.9675 60.51 52.7609 60.4682 52.5362C60.1373 50.7693 59.3987 47.5385 59.3987 47.5385ZM37.9484 51.6256C38.1056 51.5749 38.2738 51.5686 38.4343 51.6075C39.1574 51.7814 40.6882 52.157 41.8452 52.4533C42.0077 52.4947 42.21 52.6467 42.2964 52.7905L42.5483 53.21C42.5917 53.2821 42.6159 53.3641 42.6187 53.4482C42.6215 53.5323 42.6028 53.6157 42.5642 53.6905C42.296 54.2047 42.0201 54.7149 41.7368 55.221L41.4969 55.6497C41.0552 56.434 40.6156 57.191 40.3659 57.5891C40.2015 57.8521 40.1099 57.9686 39.8172 58.0723C38.6789 58.4731 37.2651 58.9522 36.425 59.2247C36.2533 59.2802 36.195 59.3847 36.2284 59.5754C36.2885 59.9226 36.4824 61.1018 36.5566 61.4458C36.584 61.5728 36.6855 61.6741 36.874 61.6378C37.3707 61.5436 38.6927 61.2196 38.6927 61.2196C38.6927 61.2196 38.3029 61.5804 38.0698 61.793C38.0276 61.8327 37.9772 61.8627 37.9222 61.8807C37.5619 62.0013 36.6823 62.248 36.4082 62.3084C36.1942 62.3544 36.058 62.2702 36.003 62.0281C36.003 62.0281 35.6279 60.4302 35.4925 59.8866C35.4719 59.8072 35.4489 59.7285 35.4237 59.6504C35.3222 59.336 35.0781 58.7177 34.9405 58.3938C34.9244 58.3561 34.9164 58.3155 34.917 58.2746C34.921 57.9046 34.9893 57.0789 34.9893 57.0789C34.9893 57.0789 35.7988 57.8383 36.1904 58.1126C36.2787 58.1749 36.3315 58.1877 36.4399 58.16C36.978 58.0216 38.2152 57.6119 38.8942 57.3578C39.0489 57.2997 39.1855 57.2018 39.2904 57.074C39.9929 56.2249 40.8737 54.9038 41.3826 53.9074C41.4523 53.7708 41.4665 53.6125 41.4221 53.4657L41.3124 53.1044C41.2805 52.9988 41.1686 52.8796 41.0657 52.8401C39.9899 52.429 38.9065 52.0381 37.816 51.6676L37.9484 51.6256ZM61.6236 41.3407C61.8864 41.2437 62.1764 41.2504 62.4345 41.3594C64.4411 42.2025 67.8151 44.1861 69.6906 45.5834C69.8718 45.7185 69.9439 45.8117 69.9915 46.0297C70.4319 48.0344 70.599 51.1335 70.3217 53.7425C70.3016 53.9299 70.2643 54.0423 70.1665 54.2424C68.9781 56.6748 67.6407 58.9641 66.2329 60.73C66.254 60.5114 66.3537 59.4795 66.3605 58.8791C66.3607 58.8473 66.3682 58.816 66.3825 58.7876C66.3968 58.7592 66.4174 58.7344 66.4428 58.7152C66.722 58.4984 66.9965 58.2755 67.2661 58.0468C67.365 57.9613 67.42 57.8971 67.4714 57.8139C68.0448 56.8863 69.0701 54.9444 69.4832 53.7761C69.5844 53.4914 69.624 53.1885 69.5994 52.8875C69.4669 51.2595 69.2118 49.0037 68.8313 47.5315C68.7999 47.4074 68.7426 47.2914 68.6631 47.1912C68.5836 47.0909 68.4837 47.0087 68.37 46.95C68.0418 46.7812 67.3983 46.4877 65.9325 45.8994C65.7293 45.818 65.5402 45.7049 65.3725 45.5641C64.4113 44.7557 62.9087 43.544 61.9738 42.8466C61.8387 42.7457 61.6834 42.6752 61.5184 42.6402C61.3535 42.6052 61.183 42.6064 61.0185 42.6437C60.337 42.799 59.6582 42.9666 58.9827 43.1464C58.8169 43.1914 58.7514 43.1951 58.5802 43.1751C58.307 43.1434 57.7658 43.1006 57.5457 43.0841C59.1357 42.3363 60.6657 41.6915 61.6236 41.3407ZM40.4087 54.5003C39.9114 55.3193 39.3172 56.1892 38.8679 56.7327C38.8077 56.8046 38.7299 56.8595 38.642 56.892C38.0102 57.1238 37.3723 57.3389 36.7291 57.5371L40.4087 54.5003ZM33.8364 53.4251L33.543 55.452L32.545 54.2795C32.7268 53.8855 33.2581 53.5134 33.8364 53.4251ZM31.9768 48.8247L31.6166 49.0516C31.5264 49.1091 31.5018 49.134 31.4641 49.2128C31.3918 49.3613 31.3145 49.5072 31.2323 49.6505C31.2077 49.6932 31.1413 49.7596 31.1061 49.787C30.6809 50.1136 30.25 50.4326 29.8134 50.7438C29.7893 50.7606 29.7587 50.7533 29.7378 50.733C29.6932 50.688 29.5052 50.4746 29.4719 50.4245C29.4445 50.3858 29.4302 50.3394 29.431 50.2921C29.4326 50.1712 29.4382 50.0504 29.4478 49.93C29.4583 49.7921 29.4979 49.7266 29.6658 49.5524C29.8535 49.3577 30.0582 49.1529 30.2733 48.9428C30.8006 48.4983 32.132 47.4172 34.5097 45.7188C34.5549 45.6871 34.5949 45.6484 34.628 45.6042C34.8774 45.2673 35.5868 44.3465 35.7617 44.1276C35.7862 44.0965 35.8142 44.0682 35.8451 44.0434C36.0686 43.8631 36.3033 43.6973 36.5479 43.547C37.2101 43.1293 38.4928 42.3678 39.2113 41.9496L38.9386 42.2854C38.9234 42.3003 38.9085 42.3141 38.8934 42.3296C38.3823 42.7148 37.8745 43.1042 37.3699 43.4979C37.2925 43.5594 37.2616 43.613 37.2437 43.71C37.1822 44.0529 37.0799 44.704 37.0498 45.0644C37.0411 45.1701 36.9956 45.2223 36.8881 45.2659C36.4196 45.4566 35.8641 45.6573 35.415 45.8374C35.3186 45.8756 35.2921 45.8902 35.2352 45.9338C35.1903 45.9685 34.5936 46.502 34.5936 46.502C34.5936 46.502 35.8909 46.1822 36.3668 46.0744C36.4805 46.0489 36.5293 46.0557 36.6341 46.1052C36.7324 46.1507 36.896 46.2157 36.9824 46.2472C37.1148 46.2959 37.1849 46.2938 37.3312 46.2618C37.8672 46.1421 38.7688 45.9279 39.2487 45.8027C39.4981 45.7377 39.6344 45.6703 39.8456 45.5224C40.0755 45.3624 40.6578 44.9252 40.6578 44.9252C40.6578 44.9252 40.647 45.0024 40.6392 45.0452C40.6338 45.0777 40.6186 45.1078 40.5955 45.1313C40.4576 45.296 40.3148 45.4565 40.1674 45.6126C39.9315 45.8569 39.7904 45.9438 39.4943 46.0676C38.1307 46.6364 35.8007 47.5198 34.053 48.1254C33.9385 48.1655 33.8889 48.1982 33.8041 48.2852C33.7118 48.3789 33.5888 48.5154 33.5888 48.5154C33.5888 48.5154 35.0139 48.6191 35.4489 48.6692C35.59 48.6852 35.6908 48.7315 35.7985 48.8244C36.156 49.1324 37.3399 50.3522 37.6941 50.7758C37.6941 50.7758 34.3287 51.3359 32.7693 51.7234C32.5767 51.7708 32.4806 51.8935 32.437 52.0479C32.308 52.5015 32.0039 53.9605 32.0039 53.9605C32.0039 53.9605 31.8956 53.9258 31.7444 53.8386C31.6407 53.779 31.5882 53.7295 31.4744 53.6092C31.1055 53.2192 30.4992 52.4723 30.2077 52.0395C30.1222 51.9116 30.0861 51.7491 30.1931 51.6186C30.5092 51.2291 31.1443 50.5185 31.4945 50.1531C31.5318 50.1136 31.5792 50.0448 31.6296 49.9457C31.7645 49.6662 31.9107 49.0858 31.9768 48.8247ZM53.7023 41.1964C53.8018 41.1791 53.9043 41.1931 53.9956 41.2365L54.69 41.5691C54.7239 41.5855 54.7538 41.6093 54.7773 41.6387C54.8009 41.6681 54.8176 41.7024 54.8262 41.7391C54.9205 42.1367 55.0361 42.6632 55.1136 43.1109C55.1448 43.2968 55.1104 43.4878 55.0161 43.651C54.7287 44.1509 54.1386 45.0501 53.8082 45.5333C53.7348 45.6416 53.7258 45.7729 53.7486 45.9019C53.8983 46.7303 54.5226 49.6231 54.5226 49.6231L54.1296 49.2651C54.0543 49.1982 53.998 49.1125 53.9666 49.0167C53.6871 48.1982 53.1644 46.4885 52.9239 45.6567C52.9045 45.5896 52.9017 45.5188 52.9158 45.4504C52.9299 45.382 52.9605 45.318 53.0049 45.264C53.4146 44.7662 54.0115 43.97 54.3604 43.4654C54.4579 43.3235 54.4901 43.167 54.4327 43.05C54.324 42.8328 54.2091 42.6188 54.0879 42.4084C54.0526 42.3454 53.9949 42.2982 53.9262 42.2759L53.455 42.1248C53.3728 42.0987 53.2843 42.1003 53.2031 42.1294C52.1764 42.5021 50.7957 43.0394 49.9507 43.3901C49.8269 43.4416 49.7763 43.4457 49.6265 43.4229C49.3819 43.3869 48.6694 43.2591 48.3197 43.1935C48.3051 43.1906 48.2915 43.1843 48.2799 43.1751C48.2682 43.1658 48.259 43.1539 48.2529 43.1404C48.2468 43.1268 48.244 43.112 48.2448 43.0972C48.2456 43.0824 48.2499 43.0679 48.2574 43.0551L48.6718 42.3363C48.6993 42.2884 48.7366 42.2466 48.7811 42.2138C48.8256 42.181 48.8765 42.1578 48.9304 42.1457C50.2635 41.8415 52.0261 41.4921 53.7023 41.1964ZM38.954 44.4968C38.9849 44.494 39.0159 44.501 39.0425 44.5169C39.0692 44.5327 39.0901 44.5566 39.1024 44.5851C39.1861 44.7801 39.1634 44.9975 39.0824 45.1833C39.051 45.2592 38.954 45.3326 38.8747 45.3502L38.2095 45.498C38.2002 45.5 38.1906 45.4998 38.1814 45.4975C38.1722 45.4951 38.1636 45.4906 38.1564 45.4844C38.1492 45.4782 38.1436 45.4704 38.1399 45.4616C38.1362 45.4528 38.1347 45.4433 38.1353 45.4339L38.1976 44.6522C38.1997 44.6267 38.2108 44.6027 38.2289 44.5846C38.247 44.5664 38.2709 44.5553 38.2964 44.5531L38.954 44.4968ZM46.5214 39.4747C46.5389 39.4745 46.5561 39.479 46.5713 39.4876C46.5865 39.4962 46.5992 39.5087 46.608 39.5238C46.6169 39.5389 46.6216 39.5561 46.6216 39.5736C46.6216 39.5911 46.6171 39.6082 46.6083 39.6234L44.9868 42.4184C44.8968 42.5828 44.7459 42.7053 44.5665 42.7596L41.5259 43.7119C41.195 43.8155 40.8531 43.8802 40.5073 43.9047C39.8329 43.9556 37.8298 44.0185 37.8298 44.0185L37.8737 43.9234C37.8945 43.8787 37.9312 43.8432 37.9766 43.8237L38.9245 43.421C38.995 43.3915 39.0571 43.3447 39.1049 43.2851L40.5687 41.481C40.647 41.3846 40.7491 41.2923 40.8583 41.2349C41.8251 40.7254 43.5449 39.9606 44.7496 39.5579C44.8746 39.5184 45.0047 39.4969 45.1358 39.4942L46.5214 39.4747ZM44.8958 36.229C48.2512 35.9338 52.7914 35.8537 57.1288 36.1822C57.3748 36.2007 57.6162 36.2593 57.8433 36.3555C59.2644 36.9538 61.7855 38.2627 64.5887 39.868C64.7124 39.9388 64.8287 40.022 64.9356 40.1163C65.6782 40.7715 67.5597 42.6987 67.5597 42.6987L66.9728 42.5822C66.891 42.5663 66.8132 42.534 66.7442 42.4872C65.5572 41.6888 63.8241 40.6496 62.3716 39.917C62.1993 39.8303 62.0126 39.7754 61.8208 39.755C61.0603 39.6773 60.2978 39.6215 59.5341 39.5876C59.2259 39.5749 59.016 39.5235 58.7146 39.3702C58.1385 39.0777 56.7429 38.4439 56.0477 38.1785C55.7503 38.0647 55.5986 38.0379 55.3072 38.0425C54.1128 38.0599 51.3918 38.1468 50.0021 38.2332C49.955 38.236 49.9077 38.2337 49.861 38.2264L49.1988 38.1227C51.0771 37.7988 55.7197 37.3847 57.6413 37.2837L56.8594 37.022C56.7082 36.9721 56.5505 36.9448 56.3914 36.9411C53.7648 36.882 50.1524 36.8929 47.0961 37.1225C46.9072 37.1363 46.722 37.1825 46.5487 37.259C45.6745 37.6433 43.5425 38.8006 41.4045 39.9893C40.715 40.3728 39.9718 40.7888 39.3107 41.1609C39.3107 41.1609 39.5775 40.8175 39.6289 40.7506C39.6744 40.6924 39.6883 40.6815 39.75 40.6415C40.0257 40.4562 40.8629 39.9162 41.1971 39.6705C41.8408 39.1846 42.8567 38.3283 43.4623 37.7974C43.5987 37.6777 43.7163 37.5381 43.8112 37.3833C44.007 37.0662 44.2209 36.7222 44.3525 36.5316C44.4647 36.3661 44.6567 36.2504 44.8958 36.229ZM30.6072 28.5108C31.436 28.4253 31.8991 28.7478 31.8991 29.5874V30.0519C31.8991 30.911 31.436 31.2584 30.6072 31.3448C29.4604 31.4646 28.3148 31.5946 27.1703 31.7348V33.0042C26.9304 33.0337 26.6899 33.0633 26.4499 33.0939V28.9913C27.8339 28.816 29.2197 28.6558 30.6072 28.5108ZM69.0742 28.3779C70.9025 28.5561 72.7281 28.7604 74.5505 28.9907V29.6527C73.762 29.5528 72.9728 29.458 72.1831 29.3683V32.8098C71.9427 32.7824 71.7023 32.7554 71.4619 32.7288V29.287C70.6666 29.1994 69.8708 29.1169 69.0745 29.0395L69.0742 28.3779ZM38.717 27.8386V28.4997C37.2135 28.5927 35.7111 28.7031 34.2101 28.831V29.8414C35.5451 29.727 36.8813 29.6271 38.2184 29.5416V30.2035C36.8813 30.2892 35.5451 30.3888 34.2101 30.5025V31.6113C35.711 31.4829 37.2135 31.3725 38.717 31.2801V31.9412C36.978 32.0485 35.2404 32.1794 33.5049 32.3339V28.2308C35.2404 28.0763 36.9779 27.9456 38.717 27.8386ZM62.097 28.9623C62.097 28.0423 62.5528 27.8527 63.5801 27.9223C64.4825 27.9846 65.3833 28.052 66.2852 28.1271C67.1776 28.2007 67.7664 28.4515 67.7664 29.3905V31.2227C67.7664 32.1441 67.2577 32.3101 66.2852 32.2299C65.384 32.1556 64.4822 32.0876 63.5801 32.0257C62.5975 31.9594 62.097 31.7695 62.097 30.7945V28.9623ZM55.1063 27.5312C56.8466 27.5727 58.5865 27.6382 60.3263 27.7279V28.389C58.8225 28.3119 57.3178 28.2526 55.8126 28.211V29.2207C57.1513 29.2583 58.4895 29.3092 59.8272 29.3742V30.0362C58.4896 29.971 57.1515 29.9199 55.8129 29.8829V30.9911C57.3181 31.0326 58.8228 31.0921 60.3266 31.1699V31.831C58.5875 31.7419 56.8473 31.6764 55.1065 31.6344L55.1063 27.5312ZM46.0496 27.5277V30.4955C46.0496 31.4345 45.5569 31.6406 44.5643 31.6712C43.6999 31.6977 42.8356 31.7303 41.9717 31.769C41.0505 31.8104 40.4878 31.6352 40.4878 30.7057V27.7379L41.1935 27.7019V30.7948C41.1935 30.9827 41.3547 31.136 41.5687 31.126C42.701 31.073 43.8337 31.0301 44.9668 30.9974C45.1821 30.9914 45.3251 30.8267 45.3251 30.6388V27.5459C45.5662 27.5391 45.8075 27.5331 46.0496 27.5277ZM63.1784 28.5574C62.9639 28.5428 62.8028 28.6934 62.8028 28.9081V30.937C62.8028 31.1249 62.9639 31.3224 63.1784 31.3372C64.3487 31.415 65.5179 31.5033 66.6868 31.6021C66.874 31.6181 67.0611 31.4461 67.0611 31.2587V29.2294C67.0611 29.0151 66.874 28.838 66.6868 28.8217C65.5182 28.7228 64.3487 28.6347 63.1784 28.5574ZM49.1707 27.4806C50.468 27.4711 51.7653 27.476 53.062 27.4933V28.1544C51.6754 28.136 50.2887 28.1324 48.902 28.1436C48.7143 28.1455 48.5264 28.3082 48.5264 28.4962V30.5518C48.5264 30.7398 48.714 30.9259 48.902 30.924C50.1459 30.9131 51.3891 30.9153 52.633 30.9294V29.8206C51.9114 29.8125 51.1897 29.8087 50.468 29.8092V29.1476C51.4251 29.1476 52.3822 29.1549 53.3393 29.169V31.6C51.9947 31.5801 50.6498 31.5743 49.305 31.5826C48.3205 31.5894 47.8198 31.4193 47.8198 30.4625V28.6744C47.8198 27.7809 48.2669 27.4874 49.1707 27.4806ZM30.8212 29.1505C29.6029 29.2762 28.3859 29.4136 27.1703 29.5627V31.0729C28.3859 30.9241 29.6029 30.7868 30.8212 30.6612C31.0078 30.6412 31.1949 30.4706 31.1949 30.2918V29.4609C31.1949 29.273 31.0078 29.131 30.8212 29.1505Z" fill="#030303"/>
<defs>
<linearGradient id="paint0_linear_152_36" x1="-3" y1="53" x2="100" y2="50" gradientUnits="userSpaceOnUse">
<stop stop-color="white"/>
<stop offset="1" stop-color="#C1C1C1"/>
</linearGradient>
</defs>
</svg>
