<svg width="100" height="100" viewBox="0 0 100 100" fill="none" xmlns="http://www.w3.org/2000/svg">
<circle cx="50" cy="50" r="50" fill="url(#paint0_linear_152_31)"/>
<g clip-path="url(#clip0_152_31)">
<path d="M50.5 13C29.75 13 13 29.75 13 50.5C13 71.25 29.75 88 50.5 88C71.25 88 88 71.25 88 50.5C88 29.75 71.25 13 50.5 13ZM50.5 17.4062C54.25 17.4062 57.875 18.0938 61.2188 19.25L50.9062 41.5312C50.7812 41.6562 50.7812 41.9375 50.5 41.9375C50.2188 41.9375 50.2188 41.6562 50.0938 41.5312L39.7812 19.25C43.125 18.0938 46.75 17.4375 50.5 17.4375M34.5625 21.5625L46.5 47.2812C46.75 47.8125 47.0312 47.9688 47.375 47.9688H53.625C54 47.9688 54.25 47.8125 54.5312 47.2812L66.3125 21.5625C71.25 24.375 75.5 28.4062 78.5 33.2188L61.75 65.625C61.625 65.9062 61.4375 66.0312 61.3438 66.0312C61.0938 66.0312 61.0938 65.7812 60.9375 65.625L54.5312 51.4375C54.25 50.9062 54 50.7812 53.625 50.7812H47.375C47.0312 50.7812 46.75 50.9062 46.4688 51.4375L40.0625 65.625C39.9062 65.7812 39.9375 66.0312 39.6562 66.0312C39.375 66.0312 39.375 65.7812 39.25 65.625L22.375 33.2188C25.3125 28.4062 29.625 24.375 34.5625 21.5625ZM19.4375 39.6562L38.7187 77.1562C38.9687 77.6875 39.25 78.0938 39.9375 78.0938C40.5938 78.0938 40.8438 77.6875 41.125 77.1562L50.0938 57.1875C50.2188 56.9375 50.375 56.75 50.5 56.75C50.7812 56.75 50.7812 57.0625 50.9062 57.1875L60 77.1562C60.2812 77.6875 60.5312 78.0938 61.2188 78.0938C61.875 78.0938 62.1562 77.6875 62.4062 77.1562L81.75 39.6562C82.9062 43 83.5938 46.625 83.5938 50.5C83.4375 68.5938 68.5938 83.5938 50.5 83.5938C32.4062 83.5938 17.5625 68.5938 17.5625 50.5C17.5625 46.75 18.2188 43.1562 19.4375 39.6562Z" fill="#050505"/>
</g>
<defs>
<linearGradient id="paint0_linear_152_31" x1="8.5" y1="22" x2="90.5" y2="74.5" gradientUnits="userSpaceOnUse">
<stop stop-color="white"/>
<stop offset="1" stop-color="#C1C1C1"/>
</linearGradient>
<clipPath id="clip0_152_31">
<rect width="75" height="75" fill="white" transform="translate(13 13)"/>
</clipPath>
</defs>
</svg>
