<svg width="100" height="100" viewBox="0 0 100 100" fill="none" xmlns="http://www.w3.org/2000/svg">
<circle cx="50" cy="50" r="50" fill="#EEEEEE"/>
<path d="M50.5 25.0249C29.3219 25.0249 13 35.8062 13 50.4999C13 65.1937 29.325 75.9749 50.5 75.9749C71.675 75.9749 88 65.1937 88 50.4999C88 35.8062 71.6781 25.0249 50.5 25.0249ZM73.4187 37.0218C73.4187 40.3968 68.0281 42.9999 59.3937 44.0405C58.5812 35.978 56.2531 30.6687 53.2594 28.6874C62.4719 29.2624 73.4187 32.5218 73.4187 37.0218ZM50.5 64.253C47.5 64.253 45.0438 59.5655 44.85 50.5374C46.6531 50.6843 48.5375 50.7624 50.5 50.7624C52.4625 50.7624 54.3438 50.6843 56.1469 50.5374C55.9562 59.5687 53.5 64.253 50.5 64.253ZM50.5 44.5405C48.6562 44.5405 46.8906 44.4812 45.2188 44.3718C46.0344 38.9718 48.0938 34.528 50.5 34.528C52.9062 34.528 54.9625 38.9718 55.7781 44.3718C54.1063 44.478 52.3438 44.5405 50.5 44.5405ZM47.7438 28.6812C44.7563 30.6593 42.4125 35.9718 41.6063 44.0405C32.9719 42.9999 27.5781 40.3968 27.5781 37.0218C27.5781 32.5218 38.5281 29.2405 47.7438 28.6812ZM19.3656 49.4999C19.3577 45.9364 20.507 42.4666 22.6406 39.6124C23.4844 44.4468 30.5219 48.6155 41.3031 50.1437V50.4999C41.3031 62.2874 44.05 69.8843 47.825 72.2812C31.8656 71.278 19.3656 61.4062 19.3656 49.4999ZM53.1875 72.2812C56.9594 69.8843 59.7094 62.2874 59.7094 50.4999V50.1405C70.4812 48.6155 77.5344 44.4343 78.3719 39.6093C80.5083 42.4634 81.6588 45.9348 81.65 49.4999C81.6375 61.4062 69.1281 71.278 53.1875 72.2812Z" fill="#0A0A0A"/>
</svg>
