<svg width="100" height="100" viewBox="0 0 100 100" fill="none" xmlns="http://www.w3.org/2000/svg">
<circle cx="50" cy="50" r="50" fill="#EEEEEE"/>
<path d="M89.6833 42.6133H63.0666V37.4866C63.0671 37.4176 63.0539 37.3492 63.0278 37.2853C63.0017 37.2215 62.9632 37.1634 62.9145 37.1144C62.8659 37.0655 62.8081 37.0266 62.7443 37.0001C62.6806 36.9736 62.6123 36.96 62.5433 36.96H37.46C37.391 36.96 37.3226 36.9736 37.2589 37.0001C37.1952 37.0266 37.1374 37.0655 37.0887 37.1144C37.0401 37.1634 37.0016 37.2215 36.9755 37.2853C36.9494 37.3492 36.9362 37.4176 36.9366 37.4866V42.6133H17.86C17.57 42.6133 17.2166 42.8466 17.07 43.14L10.0666 56.86C9.91664 57.1533 10.03 57.3833 10.3233 57.3833H36.9333V62.5166C36.9333 62.8033 37.1666 63.04 37.4566 63.04H62.54C62.83 63.04 63.0633 62.8066 63.0633 62.5166V57.3833H82.14C82.43 57.3833 82.7833 57.15 82.9333 56.86L89.9333 43.14C90.0833 42.85 89.97 42.6133 89.68 42.6133M81.3666 45.9333L77.22 54.0566H59.78V59.75H40.2333V54.0566H18.65L22.8 45.9333H40.24V40.2433H59.7866V45.9333H81.3666Z" fill="black"/>
</svg>
