<svg width="100" height="100" viewBox="0 0 100 100" fill="none" xmlns="http://www.w3.org/2000/svg">
<circle cx="50" cy="50" r="50" fill="#EEEEEE"/>
<g clip-path="url(#clip0_152_25)">
<path d="M50.5 13C29.7906 13 13 29.7906 13 50.5C13 71.2094 29.7906 88 50.5 88C71.2094 88 88 71.2094 88 50.5C88 29.7906 71.2094 13 50.5 13ZM50.5 15.4375C69.8625 15.4375 85.5594 31.1344 85.5594 50.5C85.5594 69.8625 69.8656 85.5594 50.5 85.5594C31.1344 85.5594 15.4406 69.8625 15.4406 50.5C15.4406 31.1375 31.1375 15.4375 50.5 15.4375ZM48.3812 17.4062C47.35 17.45 46.3187 17.5375 45.2812 17.65L44.9469 26.85C45.6827 26.7255 46.4228 26.6275 47.1656 26.5562L47.3844 20.3437L47.3438 19.9156L47.4781 20.3219L49.5531 24.975H51.4469L53.5219 20.325L53.6469 19.9156L53.6156 20.3437L53.8344 26.5562C54.5594 26.625 55.3125 26.725 56.0531 26.85L55.7125 17.65C54.6822 17.5339 53.6483 17.4526 52.6125 17.4062L50.5719 22.4844L50.5 22.8594L50.4281 22.4844L48.3812 17.4062ZM69.3062 23.1062L64.4844 30.6938C65.0938 31.1625 65.8969 31.8531 66.4125 32.325L70.9531 29.9688L71.2406 29.7531L71.025 30.0469L68.675 34.5875C69.1844 35.1344 69.9188 36.0188 70.3313 36.5562L77.925 31.7313C77.4593 31.1288 76.98 30.537 76.4875 29.9563L71.6781 33.125L71.35 33.4125L71.5938 33.0531L73.7188 28.8156L72.2188 27.3156L67.9813 29.4406L67.6219 29.6844L67.9062 29.3531L71.0875 24.5437C70.525 24.0688 69.9906 23.6344 69.3062 23.1062ZM30.1875 24.8281C29.0625 24.9438 28.1937 25.7125 25.8344 28.3438C25.0162 29.2709 24.2273 30.2235 23.4688 31.2L29.95 37.3469C32.0969 34.9719 32.9688 34.0906 34.6625 32.3062C35.8594 31.0406 36.5375 29.5875 35.3375 28.1906C34.6875 27.4344 33.5938 27.2687 32.6812 27.6437L32.5938 27.675L32.625 27.5938C32.7377 27.1791 32.7258 26.7404 32.5907 26.3325C32.4557 25.9246 32.2035 25.5655 31.8656 25.3C31.6308 25.1148 31.3615 24.9781 31.0735 24.8976C30.7855 24.8171 30.4843 24.7915 30.1875 24.8281ZM30.2062 26.75C30.6313 26.6344 31.0719 26.9375 31.1688 27.375C31.2688 27.8125 30.9937 28.225 30.6875 28.5687C30 29.35 27.4656 32 27.4656 32L26.2094 30.8031C27.5125 29.2094 28.9 27.7594 29.5281 27.1844C29.7166 26.9879 29.949 26.839 30.2062 26.75ZM50.5 28.2594C44.995 28.2569 39.6849 30.2971 35.5977 33.9848C31.5104 37.6726 28.9368 42.7456 28.375 48.2219V48.2281C28.0219 51.7025 28.4913 55.2112 29.7453 58.4705C30.9994 61.7299 33.0028 64.6484 35.5936 66.99C38.1845 69.3317 41.29 71.0308 44.6591 71.95C48.0283 72.8692 51.5664 72.9827 54.9875 72.2812C60.0021 71.2504 64.5071 68.52 67.7412 64.5515C70.9753 60.5829 72.7401 55.6195 72.7375 50.5C72.7317 44.6043 70.3869 38.9518 66.2177 34.7832C62.0485 30.6146 56.3957 28.2706 50.5 28.2656V28.2594ZM33.1969 29.0156C33.3438 29.0156 33.4969 29.0563 33.6344 29.15C33.9094 29.3344 34.0344 29.65 33.9656 29.9625C33.8844 30.3344 33.575 30.6844 33.325 30.9562L30.0594 34.4563L28.7469 33.2063C28.7469 33.2063 31.2063 30.6063 32.0125 29.7719C32.3313 29.4406 32.5375 29.2406 32.7563 29.1313C32.8918 29.0609 33.0443 29.0214 33.1969 29.0156ZM50.5 31.1812C53.0378 31.1784 55.5512 31.6761 57.8964 32.6459C60.2415 33.6158 62.3724 35.0387 64.1668 36.8332C65.9613 38.6276 67.3842 40.7585 68.3541 43.1036C69.3239 45.4488 69.8216 47.9622 69.8187 50.5H50.5V69.8187C47.9622 69.8216 45.4488 69.3239 43.1036 68.3541C40.7585 67.3842 38.6276 65.9613 36.8332 64.1668C35.0387 62.3724 33.6158 60.2415 32.6459 57.8964C31.6761 55.5512 31.1784 53.0378 31.1812 50.5H50.5V31.1812Z" fill="#131313"/>
</g>
<defs>
<clipPath id="clip0_152_25">
<rect width="75" height="75" fill="white" transform="translate(13 13)"/>
</clipPath>
</defs>
</svg>
