<svg width="100" height="100" viewBox="0 0 100 100" fill="none" xmlns="http://www.w3.org/2000/svg">
<circle cx="50" cy="50" r="50" fill="url(#paint0_linear_152_23)"/>
<g clip-path="url(#clip0_152_23)">
<path d="M14.0253 45.0649C13.8144 45.0649 13.3559 45.0962 13.1097 45.5531C13.0044 45.764 12.9019 46.1187 13.1831 46.6456L13.7447 47.5549C13.9553 47.9065 14.2322 48.0509 14.7947 48.0862C14.7947 48.0862 15.0415 48.1178 15.2522 48.434L15.8137 49.4168C15.919 49.6274 16.2031 50.1918 17.1869 50.3324C17.2222 50.3324 17.469 50.3699 17.6447 50.6862L18.3465 51.9131C18.5575 52.2996 18.8387 52.4393 19.3659 52.6149L32.049 56.3443C32.4709 56.4849 32.6837 56.9728 32.6837 56.9728C33 57.7459 33.3834 58.414 35.3509 59.0115L45.7209 61.8253C45.8615 61.8603 47.0522 62.2109 47.9303 61.3674L50.3597 59.0481C50.3597 59.0481 50.4619 58.9443 50.5672 58.9443C50.7078 58.9443 50.7806 59.0481 50.7806 59.0481L53.2037 61.3674C54.1175 62.2456 55.2787 61.8603 55.4194 61.8253L65.7831 59.0115C67.7506 58.414 68.14 57.7809 68.4565 56.9728C68.4565 56.9728 68.6281 56.4846 69.0853 56.3443L81.7743 52.6149C82.2665 52.4393 82.5419 52.2993 82.7875 51.9131L83.4956 50.6862C83.6362 50.4049 83.9125 50.3321 83.9472 50.3321C84.8959 50.1915 85.1803 49.6628 85.3206 49.4165L85.8822 48.434C86.0578 48.1178 86.3044 48.0862 86.34 48.0862C86.8665 48.0509 87.1494 47.9065 87.3956 47.5549L87.9572 46.6456C88.0628 46.1537 87.959 45.764 87.8534 45.5531C87.6072 45.0965 87.0787 45.0649 86.9378 45.0649H56.6097C55.7662 45.0649 55.0675 45.3068 54.5406 45.8337C54.189 46.1853 53.9059 46.6756 53.7656 47.2378C53.7656 47.2378 53.729 47.3784 53.4481 47.3784H47.4787C47.2328 47.3784 47.1965 47.2728 47.1612 47.2378C47.0206 46.6753 46.7728 46.1853 46.3862 45.834C45.8944 45.3421 45.1544 45.0649 44.3112 45.0649H14.0253ZM56.579 45.6265H70.5256C70.0337 45.9778 69.7872 46.4337 69.7872 46.4687C69.6115 46.7849 69.4409 47.1031 69.195 47.5246H54.2906C54.3256 47.4893 54.3272 47.4146 54.3272 47.4146C54.4325 46.9228 54.6444 46.5712 54.9253 46.2553C55.3119 45.8687 55.8762 45.6265 56.579 45.6265ZM14.0253 45.6568H29.1315C30.1506 45.6568 30.7856 46.7131 30.7856 46.7131C30.9262 46.9587 31.0631 47.239 31.274 47.5553H14.764C14.3775 47.5199 14.2712 47.4853 14.1656 47.2743C14.1656 47.2743 13.67 46.4353 13.6347 46.3649C13.5644 46.2243 13.5312 46.0812 13.5312 46.0109C13.5312 45.7999 13.674 45.6568 14.0253 45.6568ZM44.3478 45.6568C45.0503 45.6568 45.6153 45.8699 46.0015 46.2918C46.2828 46.5731 46.4944 46.9593 46.6 47.4512L46.6669 47.5918H31.7687C31.5578 47.2403 31.1706 46.5356 31.1706 46.5356C31.1353 46.5006 30.8887 46.0449 30.4319 45.6937C37.6003 45.6584 44.3478 45.6568 44.3478 45.6568ZM71.8259 45.6568H86.9381C87.1134 45.6568 87.2859 45.6949 87.4262 45.8706C87.4262 45.9056 87.4994 45.9421 87.4994 46.0474C87.3947 46.0828 87.3931 46.1893 87.3225 46.3649L86.7975 47.2743C86.6922 47.4499 86.6212 47.5199 86.1993 47.5553H69.6834C69.8944 47.239 70.0375 46.9587 70.1778 46.7128C70.1778 46.7128 70.7719 45.6568 71.8259 45.6568ZM35.4609 47.9762H65.5025V52.1937H35.4609V47.9762ZM69.4025 47.9762H85.3572C85.3572 48.0115 85.3194 48.0831 85.284 48.1534L84.7225 49.1724C84.6522 49.3131 84.5109 49.5265 84.1244 49.6668C83.8084 49.7371 83.1797 49.7021 82.934 49.6668L68.9081 48.7512C69.0844 48.4703 69.2622 48.2221 69.4025 47.9762ZM15.5328 48.0128H31.524C31.6647 48.259 31.8365 48.5068 32.0125 48.7878L17.9622 49.6974C17.7865 49.7324 17.1494 49.7324 16.8331 49.6974C16.4465 49.5568 16.3403 49.3496 16.235 49.2093C16.024 48.8228 15.7087 48.2237 15.5328 48.0128ZM32.049 48.0128H35.0031V48.5743L32.5437 48.7515C32.3678 48.5056 32.1897 48.259 32.049 48.0128ZM65.9234 48.0128H68.8778C68.7368 48.2237 68.559 48.5056 68.3834 48.7515L65.9234 48.5743V48.0128ZM37.3531 48.6478L36.0531 51.5284H36.4069V51.4918C36.5091 51.1468 36.6273 50.8066 36.7609 50.4724L36.7915 50.4056H37.774C37.9147 50.7218 38.0609 51.0353 38.2015 51.4918V51.5284H38.6897L37.4628 48.6478H37.3531ZM44.2437 48.6478C43.3303 48.6478 42.7303 49.2462 42.7303 50.1246C42.7303 51.0031 43.3653 51.5956 44.2437 51.5956C45.1575 51.5956 45.825 50.9665 45.825 50.0881C45.825 49.1043 45.0169 48.6478 44.2437 48.6478ZM54.9984 48.6478L53.6922 51.5284H54.0462V51.4918C54.1484 51.1468 54.2665 50.8066 54.4 50.4724C54.4 50.4724 54.4306 50.4406 54.4306 50.4056H55.4194C55.56 50.7218 55.7 51.0703 55.8406 51.4918V51.5284H56.3287L55.1022 48.6478H54.9984ZM39.8125 48.6781C39.25 48.6781 38.9031 48.9965 38.9031 49.4531C38.9031 49.9453 39.2534 50.0878 39.605 50.2284C39.8862 50.334 40.1665 50.4387 40.1665 50.7899C40.1665 51.1062 39.9578 51.3515 39.6415 51.3515C39.3603 51.3515 39.1822 51.2484 39.0069 50.9671H38.8662L38.7931 51.3515C38.9337 51.5271 39.2887 51.5956 39.4647 51.5956C40.0619 51.5956 40.4837 51.2118 40.4837 50.6496C40.554 50.1578 40.165 50.0153 39.849 49.8746C39.5328 49.769 39.2509 49.6643 39.2509 49.3131C39.2509 49.0668 39.464 48.8553 39.7453 48.8553C39.9562 48.8553 40.1281 48.9631 40.2334 49.2093V49.2459H40.3069L40.4106 48.8918C40.235 48.7512 39.9881 48.6781 39.8125 48.6781ZM40.6912 48.6781V48.9649H40.7278C40.974 48.9299 41.2187 48.8918 41.5703 48.8918V51.4553H41.9609V48.8918C42.2422 48.8918 42.5203 48.9299 42.7665 48.9649L42.8397 48.9956V48.6781H40.6912ZM50.64 48.6781V48.7146C50.605 49.1365 50.355 50.824 50.2494 51.4918V51.5284H50.6034V51.4918C50.6034 51.1053 50.6734 50.5068 50.744 49.8743C50.744 49.8743 50.7759 49.5953 50.8109 49.4899C50.8812 49.5603 51.3753 50.5759 51.5859 50.9974L51.7997 51.4918H51.8669V51.4553C52.0778 50.9281 52.4294 50.2981 52.8862 49.4899C52.9565 49.9818 53.0294 50.9296 53.0997 51.4918V51.5284H53.5209V51.4918C53.4506 50.8243 53.3075 49.9096 53.1669 48.7146L53.0631 48.6781L52.3919 49.9112C52.3919 49.9112 51.9737 50.6831 51.9034 50.7534C51.4815 50.0506 51.1315 49.3106 50.7803 48.6784L50.64 48.6781ZM46.2456 48.7146V51.5284H46.5262V49.3496C46.5615 49.3846 48.284 51.2843 48.284 51.2843L48.4915 51.5284H48.6322L48.6015 48.7149H48.3512V50.7899C47.7076 50.0989 47.0647 49.4072 46.4225 48.7149L46.2456 48.7146ZM58.6112 48.7146V48.9956H58.6478C58.8937 48.9606 59.1387 48.9284 59.4903 48.9284V51.4918H59.8809V48.9284C60.1622 48.9284 60.4403 48.9606 60.6865 48.9956H60.7231V48.7146H58.6112ZM61.0709 48.7146V51.5284H61.4615V48.7149L61.0709 48.7146ZM62.0597 48.7146V51.5284H62.3406V49.3496C62.375 49.3846 64.0984 51.2843 64.0984 51.2843L64.3059 51.5284H64.4828V48.7149H64.2022V50.7899C64.1672 50.7549 62.2672 48.7149 62.2672 48.7149L62.0597 48.7146ZM56.6094 48.7515V51.5653H57V50.1918H57.1037C57.1037 50.2268 57.4209 50.5459 57.4209 50.5459L57.9094 51.1746L58.1594 51.5284H58.6478C58.6831 51.5284 57.5978 50.1903 57.5978 50.1553C58.09 50.0499 58.4037 49.7728 58.4037 49.3862C58.4037 48.9643 58.0856 48.7515 57.4881 48.7515H56.6094ZM44.3106 48.8246C44.6622 48.8246 44.9469 48.9631 45.1225 49.209C45.3334 49.4553 45.3665 49.7368 45.3665 50.0881V50.1553C45.3665 50.4365 45.2584 50.7896 45.0125 51.0709C44.8019 51.2815 44.5612 51.3881 44.2803 51.3881C43.6478 51.3881 43.1878 50.8931 43.1878 50.1553C43.1878 49.3471 43.6078 48.8246 44.3106 48.8246ZM57 48.8918C57.1756 48.8918 57.4209 48.8565 57.5615 48.8918C57.8428 48.9621 57.9825 49.1049 57.9825 49.3862C57.9825 49.6674 57.7694 49.8774 57.4881 49.9478C57.3125 49.9828 57.0703 49.9843 57 49.9843V48.8918ZM65.9231 48.9956L68.1022 49.1362C67.926 49.3514 67.761 49.5754 67.6078 49.8074L65.9234 49.5937L65.9231 48.9956ZM35.0028 49.0321V49.5937L33.3487 49.8378C33.1747 49.6245 33.0118 49.4024 32.8606 49.1724L35.0028 49.0321ZM32.3294 49.2093C32.5053 49.4199 32.6834 49.6999 32.8237 49.9112L19.4328 51.7056C18.9409 51.7759 18.7659 51.6003 18.7309 51.5649L18.0653 50.3687C17.9953 50.2987 17.959 50.1906 17.8887 50.1553C17.9587 50.1553 32.3294 49.2093 32.3294 49.2093ZM68.5965 49.2093L82.8606 50.1553C82.8953 50.1553 82.9322 50.1568 83.0375 50.1918C83.0022 50.2271 82.9325 50.2987 82.8969 50.3687C82.8969 50.3687 82.3312 51.3543 82.2256 51.5653C82.1912 51.6003 82.0159 51.7759 81.5237 51.7056L68.0656 49.9112C68.2765 49.6653 68.4206 49.4199 68.5965 49.2093ZM37.249 49.2762C37.284 49.3465 37.635 50.1581 37.67 50.2284H36.8644C36.8997 50.1581 37.214 49.3815 37.249 49.2762ZM54.9247 49.2762C54.96 49.3465 55.3106 50.1581 55.3459 50.2284H54.5403C54.6745 49.9135 54.8026 49.596 54.9247 49.2762ZM65.9231 50.0149L67.26 50.1918C67.0837 50.4028 66.9094 50.6462 66.6984 50.8571C66.3472 50.8221 66.0993 50.7871 65.9234 50.7165L65.9231 50.0149ZM35.0394 50.0515V50.7534L34.2644 50.894C34.0534 50.6831 33.8784 50.4393 33.7028 50.2284L35.0394 50.0515ZM33.1719 50.2956C33.3828 50.5065 33.524 50.7865 33.77 50.9974L24.5294 52.8956C24.1428 52.9659 23.1597 53.1462 22.6678 53.0056C21.2972 52.5837 20.1384 52.2671 19.6465 52.1265L33.1719 50.2956ZM67.8215 50.3321L81.3465 52.1265L78.295 53.0056C77.8031 53.1462 76.7803 52.9674 76.4637 52.9324C76.4637 52.9324 70.14 51.6315 67.2231 51.034C67.4344 50.8234 67.6106 50.5431 67.8215 50.3321ZM35.0028 51.1746V51.7359C34.8622 51.5953 34.7222 51.4249 34.5815 51.2843C34.7241 51.2565 34.8648 51.2199 35.0028 51.1746ZM65.9231 51.2112L66.3443 51.2843C66.204 51.4599 66.064 51.5968 65.9231 51.7728V51.2112ZM66.8753 51.3881L76.3603 53.3168C76.3956 53.3168 76.5737 53.3899 76.8547 53.3899L73.6868 54.3362C73.054 54.5118 72.1794 54.2324 72.1794 54.2324L65.9965 52.2974C66.3122 51.9812 66.5944 51.6693 66.8753 51.3881ZM34.124 51.4246C34.4053 51.7409 34.6865 52.0528 35.0028 52.334L28.8137 54.269C28.7437 54.234 27.9022 54.5118 27.27 54.3362C26.2156 54.0199 25.1637 53.7081 24.145 53.4268C24.4259 53.3915 24.6331 53.3534 24.6331 53.3534C24.6331 53.3534 31.3131 51.9868 34.124 51.4246ZM35.9122 52.6149H39.5315L37.1815 53.7074C37.1465 53.6721 36.2637 52.9312 35.9122 52.6149ZM40.5509 52.6149H43.2915L39.5009 55.3249C38.8687 54.9384 38.1987 54.4815 37.5665 54.0249C38.9719 53.3571 40.305 52.7556 40.5509 52.6149ZM47.8631 52.6149H48.9187L47.4053 58.0959C46.5619 57.9906 45.7522 57.8184 44.9087 57.6078C45.9981 55.7453 47.4769 53.2828 47.8631 52.6149ZM52.0437 52.6149H53.1L56.0478 57.6078C55.2397 57.8184 54.4009 57.9553 53.5575 58.0959L52.0437 52.6149ZM53.6247 52.6149H54.8575L58.7881 56.6921C58.0506 57.0084 57.2787 57.2565 56.5056 57.4671L53.6247 52.6149ZM55.4497 52.6149H56.9265L61.0403 55.569C60.4431 55.9206 59.8112 56.2034 59.1787 56.4846C57.8437 55.1143 56.1875 53.4231 55.4497 52.6149ZM57.6653 52.6149H60.369L63.3597 54.0249C62.7275 54.5168 62.0925 54.9337 61.425 55.3556C60.0194 54.3012 58.4734 53.2124 57.6653 52.6149ZM61.4247 52.6149H65.0443C64.6925 52.9662 63.8156 53.7074 63.7809 53.7074C62.9025 53.3209 62.0578 52.9312 61.4247 52.6149ZM46.105 52.6515H47.3381L44.4512 57.5037C43.6781 57.2931 42.9412 57.0099 42.1684 56.7287C43.7497 55.0771 45.6481 53.1084 46.105 52.6515ZM49.3034 52.6515H50.219L50.2494 58.3096C49.4412 58.3096 48.5978 58.2393 47.79 58.169L49.3034 52.6515ZM50.7072 52.6515H51.6228L53.1303 58.169C52.3222 58.2746 51.5153 58.3096 50.7072 58.3096V52.6515ZM65.6425 52.6515L72.039 54.6171C72.039 54.6171 72.1806 54.6903 72.3562 54.6903L68.8775 55.7459C68.4206 55.8515 67.7881 55.6012 67.5775 55.4959C67.5775 55.4959 65.9237 54.7231 64.2022 53.9149C64.694 53.4931 65.1859 53.0731 65.6425 52.6515ZM35.2837 52.6881C35.7403 53.1099 36.1969 53.5299 36.724 53.9515L33.349 55.5324C33.1731 55.6028 32.5422 55.8865 32.0853 55.7462C31.9447 55.7109 30.4672 55.2537 28.5697 54.7268C28.7453 54.6915 28.8872 54.6534 28.8872 54.6534C28.8872 54.6534 34.0887 53.0396 35.2837 52.6881ZM43.9994 52.6881H45.4703L41.7472 56.5518C41.1147 56.2706 40.5181 55.9524 39.8856 55.6362C41.6778 54.3362 43.5425 53.0043 43.9994 52.6881ZM37.0719 54.2324C37.7044 54.7243 38.3759 55.184 39.0434 55.6056L35.9122 57.8149C35.9475 57.8856 35.315 58.3449 34.7528 58.169C33.4525 57.6771 33.2437 57.184 33.0681 56.6921C33.0328 56.6218 32.9659 56.3781 32.72 56.1671C33.1769 56.0968 33.5272 55.9215 33.5625 55.8865C33.5625 55.8865 35.35 55.0756 37.0719 54.2324ZM63.8481 54.269L67.4003 55.9168C67.4356 55.9168 67.784 56.1334 68.2059 56.2037C67.995 56.4496 67.8887 56.6937 67.8887 56.7287C67.6778 57.2206 67.5037 57.6787 66.204 58.2059C65.6765 58.3815 65.0078 57.8884 65.0078 57.8884C65.0078 57.8884 63.5344 56.8309 61.8828 55.6362C62.5503 55.2143 63.2159 54.7612 63.8481 54.269ZM39.5012 55.8499C40.1337 56.2012 40.7622 56.5512 41.43 56.8324L39.6415 58.7671C39.4659 58.9431 38.934 59.3259 38.5125 59.2556L35.7412 58.4865C36.0225 58.3812 36.2297 58.2409 36.2297 58.2059C36.2297 58.2059 37.7794 57.1153 39.5012 55.8499ZM61.425 55.8865L64.6965 58.2365C64.6965 58.2365 64.9037 58.3824 65.1847 58.5231C64.4815 58.6987 62.9019 59.1153 62.9019 59.1153L62.4075 59.2556C61.9856 59.3609 61.4969 58.9431 61.3212 58.7671C61.3212 58.7671 60.5503 57.9584 59.4962 56.869C60.1287 56.5528 60.7925 56.2378 61.425 55.8865ZM41.8509 57.0765C42.624 57.4281 43.3987 57.714 44.2072 57.9249L43.2244 59.5731C43.1187 59.7837 42.7334 60.3465 42.3819 60.3115L39.3912 59.5059C39.7075 59.3299 39.9225 59.1199 39.9225 59.0846C39.9225 59.0846 40.7619 58.1659 41.8509 57.0765ZM59.069 57.0765L61.0037 59.0846C61.039 59.1199 61.2125 59.2949 61.5287 59.5059L58.5806 60.3115C58.2294 60.3818 57.8072 59.819 57.7019 59.5731L56.719 57.9249C57.5275 57.7143 58.3312 57.4281 59.069 57.0765ZM44.6281 57.9921C45.4715 58.2031 46.35 58.3812 47.2281 58.4865L46.74 60.3481C46.74 60.3481 46.6322 60.8771 46.2456 61.1231C46.07 61.2287 45.8934 61.2256 45.6475 61.1903L43.0106 60.4884C43.3269 60.2424 43.5431 59.8568 43.5784 59.7865C43.5784 59.7865 44.0306 59.0112 44.6281 57.9921ZM56.3284 58.0287L57.3847 59.8231C57.4197 59.8934 57.6297 60.244 57.9459 60.5249L55.3094 61.1906C55.2118 61.2239 55.1081 61.2352 55.0057 61.2235C54.9033 61.2119 54.8047 61.1777 54.7172 61.1234C54.3659 60.9124 54.2228 60.3831 54.2228 60.3484L53.7284 58.5234C54.6069 58.4178 55.4853 58.2396 56.3284 58.0287ZM47.6494 58.5903C48.2819 58.6606 48.9531 58.6956 49.6209 58.7309C49.164 59.2578 47.4053 60.8731 47.4053 60.8731C47.1944 61.084 46.9812 61.1918 46.7703 61.2271C47.0515 60.8756 47.1609 60.4871 47.1609 60.4521L47.6494 58.5903ZM53.24 58.5903L53.7284 60.4518C53.7637 60.5221 53.8378 60.9459 54.119 61.2268C53.7678 61.1568 53.6587 61.0171 53.1669 60.5249C53.1669 60.5249 51.7606 59.1524 51.2687 58.7306C51.9362 58.6956 52.6075 58.6606 53.24 58.5903Z" fill="#040404"/>
</g>
<defs>
<linearGradient id="paint0_linear_152_23" x1="88.5" y1="76.5" x2="11" y2="19.5" gradientUnits="userSpaceOnUse">
<stop stop-color="white"/>
<stop offset="1" stop-color="#C1C1C1"/>
</linearGradient>
<clipPath id="clip0_152_23">
<rect width="75" height="75" fill="white" transform="translate(13 16)"/>
</clipPath>
</defs>
</svg>
