<?xml version="1.0" encoding="UTF-8" standalone="no"?>
<!-- Created with Inkscape (http://www.inkscape.org/) -->

<svg
   version="1.1"
   id="svg2"
   width="811"
   height="212.86301"
   viewBox="0 0 811 212.86301"
   xmlns="http://www.w3.org/2000/svg"
   xmlns:svg="http://www.w3.org/2000/svg">
  <defs
     id="defs6" />
  <g
     id="g8"
     transform="translate(0,12)">
    <path
       style="fill:#000000;stroke-width:1.00525"
       d="m 10.054117,162.43909 c 3.2945,-3.24674 33.101987,-32.39549 66.23886,-64.774993 l 60.248863,-58.87182 -9.99886,-10.865632 c -5.49937,-5.976097 -9.99886,-11.159979 -9.99886,-11.519739 0,-0.35976 13.6434,-0.65411 30.31866,-0.65411 h 30.31866 l 64.43134,66.873803 c 35.43724,36.780591 68.41286,71.113221 73.27917,76.294741 l 8.84783,9.42093 h -30.40103 -30.40102 l -11.8522,-12.12632 -11.85219,-12.12631 H 164.1231 89.012853 L 77.044117,156.21595 65.075381,168.34227 H 34.569749 4.0641168 Z M 185.49445,88.510692 C 174.91081,77.394902 165.9756,68.300165 165.63842,68.300165 c -0.33718,0 -9.60461,9.094737 -20.5943,20.210527 l -19.98125,20.210528 h 39.83727 39.83727 z M 335.4264,166.95919 c -8.84164,-3.22223 -16.35899,-10.27025 -20.46968,-19.19168 -2.39044,-5.18796 -2.39307,-5.23549 -2.40283,-43.34103 l -0.01,-38.147368 h 23 23 v 29.257716 c 0,20.531432 0.35632,30.047992 1.19469,31.907362 2.50444,5.55452 2.23763,5.52966 59.35565,5.52966 h 52.64966 l 3.4,-3.43579 3.4,-3.43579 V 96.190692 66.279112 h 23.04402 23.04401 l -0.29401,39.157898 c -0.29096,38.75048 -0.31817,39.20362 -2.61506,43.55309 -3.33944,6.32368 -9.3006,12.47682 -15.39056,15.88624 l -5.2884,2.96067 -81,0.2203 c -64.53176,0.17552 -81.73552,-0.0477 -84.61772,-1.09812 z m 223.61772,-0.0125 c -10.57171,-2.67365 -17.52842,-7.66036 -21.83108,-15.64899 -3.68423,-6.84039 -4.99133,-18.8625 -4.46431,-41.06074 0.38296,-16.130434 0.57536,-17.549015 3.15237,-23.242108 3.29975,-7.28976 9.35349,-13.85862 16.14302,-17.516651 l 5,-2.693876 53.75,-0.286101 c 29.5625,-0.157356 53.73503,-0.612093 53.71673,-1.010526 -0.0183,-0.398434 -9.52926,-8.113899 -21.13548,-17.145478 l -21.1022,-16.421053 h 34.07259 34.0726 l 21.31288,18.522245 c 11.72208,10.187235 23.05001,20.475639 25.17317,22.86312 8.74053,9.828663 11.18295,21.602014 10.38003,50.035408 -0.5574,19.73887 -1.62289,24.95809 -6.60522,32.35513 -3.27217,4.85803 -7.7296,8.03192 -14.54672,10.35787 -4.61659,1.57516 -12.3669,1.75561 -83.58838,1.94621 -60.09736,0.16082 -79.67214,-0.0864 -83.5,-1.05446 z m 137.88346,-35.37435 c 5.39184,-2.27656 8.08257,-7.06623 8.10092,-14.42014 0.0169,-6.76306 -1.52918,-9.8974 -6.8695,-13.92649 -2.71314,-2.04697 -3.75496,-2.08349 -59.43821,-2.08349 -52.67286,0 -56.90938,0.12839 -59.97089,1.81748 -5.42859,2.99504 -7.36721,7.17046 -6.98048,15.03461 0.35761,7.27215 1.64074,9.58264 7.2747,13.09934 2.82662,1.76437 6.22383,1.87281 58.78212,1.87637 45.30582,0.003 56.40549,-0.25942 59.10134,-1.39768 z m 60.61654,-14.2617 V 66.279112 h 23 23 v 51.031578 51.03158 h -23 -23 z"
       id="path170" />
  </g>
</svg>
