<?xml version="1.0" encoding="UTF-8" standalone="no"?>
<!-- Created with Inkscape (http://www.inkscape.org/) -->

<svg
   version="1.1"
   id="svg2"
   width="366"
   height="57.360001"
   viewBox="0 0 366 57.360001"
   xmlns="http://www.w3.org/2000/svg"
   xmlns:svg="http://www.w3.org/2000/svg">
  <defs
     id="defs6" />
  <g
     id="g8">
    <path
       style="fill:#000000;stroke-width:0.24"
       d="m 94.503146,56.703529 c -7.79824,-0.831549 -13.19532,-3.910337 -15.40167,-8.785946 -0.41092,-0.908074 -0.53948,-1.642779 -0.54401,-3.109061 -0.005,-1.657035 0.0957,-2.13366 0.73636,-3.48 2.39518,-5.033684 8.31389,-7.962332 17.24932,-8.535168 3.802234,-0.243756 10.561914,0.46374 15.720004,1.645315 l 1.32,0.302376 0.0212,4.144298 0.0212,4.144296 -0.62125,-0.130224 c -0.34169,-0.07162 -1.86325,-0.237448 -3.38125,-0.368505 -8.72163,-0.752976 -15.314384,0.437839 -15.552814,2.809226 -0.10015,0.996091 0.94253,1.832655 3.14878,2.526329 2.946004,0.926263 11.385194,0.689748 15.909924,-0.445889 0.50853,-0.127632 0.51529,-0.08507 0.52781,3.322361 0.007,1.898405 -0.0608,3.561778 -0.15051,3.696384 -0.25925,0.388788 -4.05937,1.266809 -8.12713,1.877777 -2.97636,0.447041 -8.475374,0.642422 -10.876064,0.386431 z m 65.160004,-0.05331 c -3.5885,-0.262994 -7.70661,-1.921941 -9.33208,-3.759357 -0.24864,-0.281062 -0.54564,-0.453195 -0.66,-0.382517 -0.11435,0.07068 -0.20792,0.986131 -0.20792,2.034341 v 1.905835 h -16.80193 -16.80194 l 0.0619,-13.98 0.062,-13.98 9.29697,-0.06281 9.29696,-0.06282 0.063,8.582815 0.063,8.582816 5.94,0.06419 5.94,0.06419 v -1.153768 c 0,-1.48327 0.54618,-3.567562 1.35113,-5.156038 0.75105,-1.48213 2.92163,-3.671009 4.42184,-4.459128 3.99326,-2.097799 9.41596,-2.512555 14.74703,-1.127926 2.47952,0.644002 4.80778,1.38066 5.028,1.590855 0.49353,0.471057 0.852,0.209196 0.852,-0.62238 v -0.84 h 8.16 8.16 v 11.28 11.28 h -8.18724 -8.18724 l 0.10722,-0.730567 c 0.059,-0.401811 0.0147,-0.787767 -0.0984,-0.857676 -0.11312,-0.06991 -0.87811,0.09286 -1.69998,0.361718 -1.99935,0.654034 -5.9297,1.407934 -7.85432,1.506574 -0.858,0.04397 -2.532,0.0087 -3.72,-0.07835 z m 11.17865,-6.955641 c 2.90493,-0.870336 4.17616,-3.839283 2.66285,-6.21907 -1.92879,-3.033183 -7.40671,-3.075204 -9.48725,-0.07278 -2.03806,2.941131 0.433,6.545348 4.49791,6.56052 0.77668,0.0029 1.8236,-0.118003 2.32649,-0.268672 z M 234.30315,56.596 c -4.24185,-0.703865 -7.87908,-2.026078 -10.70494,-3.891473 -2.55678,-1.687781 -3.97112,-3.456982 -4.77736,-5.976005 -0.16899,-0.528 -0.42001,-1.032984 -0.55782,-1.122187 -0.41968,-0.271652 -5.21832,0.03395 -6.75562,0.430228 -1.36079,0.35078 -2.75853,1.169876 -3.41663,2.002193 -0.20271,0.256383 -0.29471,1.602451 -0.3,4.389766 l -0.008,4.02 h -8.03963 -8.04 v -11.28 -11.28 h 8.04 8.04 v 1.2 c 0,1.279411 0.10177,1.384896 0.8466,0.877519 2.46318,-1.67791 5.67161,-2.695027 9.2934,-2.946132 l 2.34,-0.162235 v 3.565394 3.565394 l 1.02,-0.975979 c 1.36664,-1.307654 2.97849,-2.367189 5.05808,-3.324873 4.22403,-1.945232 7.46995,-2.596733 13.00192,-2.609672 5.75765,-0.01346 9.47318,0.78656 13.80314,2.972086 1.99728,1.008108 2.95796,1.708478 4.41416,3.218052 1.7338,1.797377 2.4227,3.420564 2.4227,5.708446 0,1.0164 -0.11148,1.959475 -0.24773,2.095721 -0.16281,0.162835 -4.08693,0.252254 -11.45136,0.260947 -7.40846,0.0087 -11.25535,0.0969 -11.35631,0.260246 -0.3173,0.513396 2.65929,2.16673 5.00147,2.778055 2.92855,0.764367 8.0443,0.379678 10.27224,-0.77244 0.65863,-0.340586 6.09867,-0.553552 6.40162,-0.25061 0.0835,0.08356 -0.59775,0.878266 -1.51399,1.766006 -2.55792,2.478301 -6.28378,4.242653 -11.02594,5.221253 -2.5908,0.534644 -9.2221,0.681423 -11.76,0.2603 z m 11.88,-15.043256 c 0,-1.768793 -1.99152,-2.97546 -4.92,-2.981028 -2.35338,-0.0045 -3.81156,0.629455 -4.44539,1.932578 -0.26104,0.536676 -0.47461,1.103677 -0.47461,1.260001 0,0.209726 1.28963,0.284227 4.92,0.284227 4.81219,0 4.92,-0.01087 4.92,-0.495778 z M 0.81510694,56.148522 c 0.09916,-0.165 1.21253096,-1.57915 2.47416396,-3.142553 1.261633,-1.563403 2.779878,-3.467078 3.373878,-4.230389 0.594,-0.76331 4.5175841,-5.668128 8.7190761,-10.899598 l 7.639076,-9.511761 12.400923,0.06215 12.400925,0.06215 0.04032,4.200001 c 0.02218,2.31 0.04918,4.275273 0.06,4.367277 0.01082,0.092 1.504678,-1.365197 3.319678,-3.238219 1.815,-1.873025 3.757373,-3.865298 4.316386,-4.427278 l 1.016387,-1.021781 h 9.843615 9.843611 v 14.040001 14.04 h -8.639997 -8.64 v -5.64 c 0,-3.102 -0.09345,-5.64 -0.20767,-5.64 -0.185716,0 -1.057495,0.863025 -4.23233,4.189829 -0.528,0.553274 -2.289516,2.3749 -3.914479,4.048061 l -2.954482,3.04211 H 39.64867 31.623149 v -5.64 c 0,-3.102 -0.08381,-5.64 -0.186233,-5.64 -0.156741,0 -5.45543,5.428557 -9.780292,10.02 l -1.186844,1.26 h -9.917479 c -7.8701371,0 -9.88026206,-0.06193 -9.73719406,-0.3 z M 262.40427,56.242692 c -0.07,-0.113208 -0.10334,-5.162208 -0.0742,-11.22 l 0.053,-11.014166 8.1,-0.06319 8.1,-0.06319 v 0.868869 c 0,0.657331 0.0841,0.836607 0.34534,0.736351 1.92002,-0.736785 6.10209,-1.884016 8.06344,-2.211976 3.31947,-0.555053 8.08452,-0.38449 10.31122,0.369088 3.41885,1.157036 5.82336,2.844982 6.7589,4.744692 0.55076,1.118343 0.56256,1.29541 0.63989,9.59936 l 0.0788,8.46 h -8.17872 -8.17879 v -6.347787 -6.347786 l -0.78,-0.588646 c -2.01098,-1.517644 -6.14045,-1.481997 -8.32262,0.07184 l -0.73738,0.525056 v 6.343656 6.343659 h -8.02584 c -4.4142,0 -8.08308,-0.09263 -8.15304,-0.205834 z m 56.38541,-4.823623 c -0.078,-0.126202 0.13068,-0.408014 0.46375,-0.626251 0.3331,-0.218239 0.54614,-0.492984 0.4735,-0.610543 -0.0727,-0.117562 -0.0114,-0.213749 0.13622,-0.213749 0.14758,0 0.20614,-0.100611 0.13015,-0.223579 -0.076,-0.122969 0.10366,-0.392969 0.39924,-0.6 0.29559,-0.207032 0.46008,-0.376421 0.36559,-0.376421 -0.0945,0 0.33231,-0.783 0.94846,-1.74 2.83212,-4.398763 4.39126,-8.593414 4.57186,-12.3 0.0988,-2.028471 0.0383,-2.622917 -0.39072,-3.84 -0.2792,-0.792 -0.53396,-1.539001 -0.56612,-1.660001 -0.0322,-0.120999 -0.22046,-0.393864 -0.41846,-0.606368 -0.198,-0.212503 -0.64435,-0.727747 -0.99187,-1.144989 -0.71863,-0.862771 -2.66419,-2.160175 -4.35221,-2.902289 -1.67191,-0.735028 -5.68598,-1.666897 -8.57592,-1.990908 -3.75427,-0.420917 -11.78148,-0.131841 -17.52,0.63093 -2.574,0.342138 -5.004,0.663541 -5.4,0.714229 -0.396,0.05069 -1.17802,0.206611 -1.73784,0.346499 -0.5598,0.139887 -1.0998,0.23687 -1.2,0.215517 -0.10018,-0.02135 -0.34416,0.02378 -0.54216,0.100303 -0.45437,0.175596 -3.55978,0.739646 -4.2,0.762864 -0.264,0.0096 -0.615,0.104061 -0.78,0.209973 -0.165,0.105912 -0.40054,0.130433 -0.52342,0.05449 -0.12288,-0.07595 -0.2958,-0.02095 -0.38428,0.122196 -0.0885,0.143153 -0.30848,0.20363 -0.48888,0.134397 -0.18044,-0.06923 -0.38763,-0.02947 -0.46047,0.08837 -0.0728,0.117835 -0.31927,0.218676 -0.54768,0.22409 -0.55764,0.01322 -1.2959,0.160512 -1.73527,0.346205 -0.198,0.08368 -0.684,0.192478 -1.08,0.241767 -0.396,0.04929 -0.89388,0.163574 -1.10642,0.253965 -0.21255,0.09039 -0.64911,0.192355 -0.97016,0.226584 -0.32104,0.03423 -0.68716,0.121541 -0.81357,0.194026 -0.12641,0.07249 -0.52685,0.202778 -0.88985,0.289543 -0.52138,0.12462 -0.66,0.07278 -0.66,-0.246816 0,-0.222516 0.0685,-0.33611 0.15214,-0.252434 0.0837,0.08368 0.42038,-0.05885 0.7482,-0.316731 0.32784,-0.257877 0.69139,-0.409965 0.80786,-0.337975 0.1165,0.07199 0.2118,0.0033 0.2118,-0.152657 0,-0.209407 0.0956,-0.204235 0.3655,0.01978 0.3065,0.254376 0.34048,0.238167 0.21055,-0.100428 -0.0852,-0.222069 -0.0607,-0.386556 0.0545,-0.365525 0.53374,0.09744 0.82443,-0.04181 0.66514,-0.318607 -0.0949,-0.165 -0.0843,-0.219936 0.0238,-0.122083 0.108,0.09785 0.34133,0.05763 0.51847,-0.08939 0.17714,-0.147016 0.32208,-0.181255 0.32208,-0.07608 0,0.105173 0.28742,-0.0706 0.63871,-0.390613 0.35127,-0.32001 0.55927,-0.419836 0.46219,-0.221836 -0.15444,0.31501 -0.13677,0.314644 0.14129,-0.0029 0.31524,-0.36 1.3861,-0.917432 1.66092,-0.86459 0.0787,0.01514 0.32033,-0.119565 0.53695,-0.299333 0.2166,-0.179767 0.55169,-0.266268 0.74465,-0.192222 0.24737,0.09492 0.30703,0.02045 0.20227,-0.252521 -0.099,-0.257863 -0.0548,-0.329198 0.13224,-0.213614 0.15442,0.09545 0.28078,0.06122 0.28078,-0.07606 0,-0.137276 0.297,-0.320155 0.66,-0.406398 0.363,-0.08624 0.849,-0.32104 1.08,-0.52177 0.231,-0.20073 0.42,-0.2881 0.42,-0.194157 0,0.09394 0.23563,0.0058 0.52363,-0.195968 0.39118,-0.273982 0.60509,-0.299196 0.8455,-0.09966 0.2477,0.205567 0.29095,0.18657 0.18773,-0.08245 -0.0952,-0.248111 0.30369,-0.55098 1.3745,-1.04357 0.82975,-0.381704 1.72008,-0.712008 1.97851,-0.734008 0.25843,-0.022 0.51065,-0.162343 0.5605,-0.311872 0.0499,-0.149529 0.18941,-0.210825 0.31013,-0.136212 0.12072,0.07461 0.2195,0.02562 0.2195,-0.108871 0,-0.134491 0.459,-0.378607 1.02,-0.54248 0.561,-0.163872 1.08372,-0.389617 1.1616,-0.501656 0.0779,-0.112039 0.37488,-0.22128 0.66,-0.242758 0.28512,-0.02148 0.5184,-0.106731 0.5184,-0.189453 0,-0.202345 1.13196,-0.707443 1.58546,-0.707443 0.21317,0 0.29223,0.114306 0.19162,0.277082 -0.10942,0.17706 -0.0654,0.211703 0.1218,0.09597 0.16118,-0.09961 0.23256,-0.241613 0.15862,-0.315556 -0.22476,-0.22476 0.80337,-0.817638 1.10001,-0.634315 0.18391,0.113674 0.21082,0.06444 0.0802,-0.146882 -0.14266,-0.230801 -0.0871,-0.27589 0.20292,-0.164615 0.21965,0.08429 0.39936,0.06503 0.39936,-0.04281 0,-0.263217 1.93118,-1.010295 2.19312,-0.848408 0.11378,0.07033 0.20688,0.02077 0.20688,-0.110128 0,-0.214893 0.57586,-0.486131 1.28966,-0.607471 0.14868,-0.02527 0.51334,-0.179556 0.81034,-0.342852 0.297,-0.163296 0.54166,-0.212102 0.54367,-0.108458 0.002,0.103644 0.0844,0.06157 0.183,-0.0935 0.0986,-0.15507 1.90599,-0.922445 4.01633,-1.705279 13.71398,-5.0872027 24.94903,-8.1112157 36.477,-9.8181117 4.0675,-0.602254 14.38822,-0.611172 16.7352,-0.01446 3.63235,0.923518 6.22778,2.596235 7.16813,4.619795 0.63938,1.375859 0.59054,3.6720587 -0.12099,5.6879437 -0.68268,1.934128 -2.22093,4.752056 -2.59408,4.752056 -0.14756,0 -0.20295,0.06532 -0.12312,0.145145 0.34377,0.343778 -7.10158,8.864268 -7.51988,8.605755 -0.10564,-0.0653 -0.27024,0.0077 -0.36576,0.162268 -0.11731,0.189821 -0.0643,0.218604 0.16342,0.0887 0.46198,-0.263544 0.26378,-0.07381 -2.53198,2.423828 -1.31397,1.173866 -2.29874,1.972301 -2.18836,1.774301 0.1104,-0.198 -0.11052,-0.02369 -0.49095,0.38734 -0.82226,0.888495 -3.45163,3.091116 -3.45163,2.891444 0,-0.07674 -0.4548,0.280425 -1.01066,0.793694 -0.55587,0.513271 -1.09587,0.880565 -1.2,0.816206 -0.10414,-0.06436 -0.18934,-0.0175 -0.18934,0.104153 0,0.249444 -3.14674,2.647846 -3.40968,2.598807 -0.0933,-0.0174 -0.30931,0.131452 -0.48,0.330794 -0.55608,0.649457 -1.71298,1.567116 -1.50977,1.197562 0.10889,-0.198 -0.0627,-0.08774 -0.38129,0.245011 -0.3186,0.332757 -1.01126,0.867055 -1.53926,1.187333 -0.528,0.320275 -1.014,0.648931 -1.08,0.730349 -0.36794,0.45389 -4.7567,3.320596 -4.8859,3.191421 -0.0847,-0.08476 -0.1541,-0.03738 -0.1541,0.1053 0,0.372641 -2.39443,1.794077 -2.7757,1.647771 -0.21532,-0.08262 -0.27129,0.0038 -0.17128,0.264408 0.0922,0.240331 0.0516,0.327232 -0.10709,0.229156 -0.14059,-0.0869 -0.3235,0.01884 -0.40644,0.23498 -0.0829,0.216134 -0.21375,0.330019 -0.29069,0.253075 -0.0769,-0.07695 -0.3714,0.07646 -0.65434,0.34091 -0.83721,0.782448 -4.612,3.090286 -5.05461,3.090286 -0.2245,0 -0.34143,0.108 -0.25985,0.24 0.0816,0.132 0.0943,0.24 0.0283,0.24 -0.066,0 -0.18382,-0.103255 -0.26179,-0.229457 z m 5.72875,-7.170542 c 0.068,-0.110006 -0.0289,-0.200006 -0.21528,-0.200006 -0.18638,0 -0.28327,0.09 -0.21528,0.200002 0.068,0.109999 0.16486,0.199999 0.21528,0.199999 0.0504,0 0.14729,-0.09 0.21528,-0.199999 z m 16.70472,-8.77062 c 0,-0.04984 -0.189,-0.238836 -0.42,-0.42 -0.38066,-0.298529 -0.38914,-0.29004 -0.0906,0.09061 0.31353,0.39978 0.51062,0.526915 0.51062,0.329385 z m 20.29714,-21.209386 c 0.61284,-1.437904 0.73327,-4.3968917 0.23236,-5.7085307 -0.46615,-1.220565 -1.73023,-2.575642 -3.01672,-3.233889 -2.24439,-1.148348 -6.76311,-1.801904 -10.55278,-1.52628 l -2.28,0.165825 2.99338,0.54874 c 4.73426,0.867881 7.11756,1.908722 9.26064,4.044343 1.47136,1.4662567 2.44041,3.3761847 2.65346,5.2297917 0.0872,0.759 0.1963,1.38 0.24235,1.38 0.0461,0 0.25635,-0.405 0.46731,-0.9 z m -92.77714,13.767992 c 0,-0.0506 0.21614,-0.148532 0.48034,-0.217618 0.26416,-0.06908 0.4198,-0.02768 0.34584,0.09201 -0.1292,0.209018 -0.82618,0.314985 -0.82618,0.125608 z"
       id="path170" />
  </g>
</svg>
