<svg width="100" height="100" viewBox="0 0 100 100" fill="none" xmlns="http://www.w3.org/2000/svg">
<circle cx="50" cy="50" r="50" fill="url(#paint0_linear_152_37)"/>
<path d="M10 44.5744H35.1877C36.7877 42.0777 38.8903 40.0984 41.4993 38.6317C44.1067 37.1674 46.9373 36.4351 49.994 36.4351C53.0483 36.4351 55.885 37.1694 58.5027 38.6401C61.12 40.1107 63.2207 42.0901 64.8 44.5744H90L87.5057 47.0687H66.1743C66.6141 48.0166 66.9483 49.0099 67.171 50.0307H84.6153L82.121 52.5274H67.557C67.6 53.1714 67.6203 53.6594 67.6203 53.9917C67.6203 54.3241 67.6 54.8144 67.557 55.4584H79.1917L76.6953 57.9527H67.1713C66.9534 58.9704 66.619 59.9596 66.1747 60.9007H73.7213L71.194 63.3951H64.8C63.2207 65.8831 61.12 67.8687 58.5027 69.3477C55.885 70.8267 53.0483 71.5651 49.994 71.5651C46.9373 71.5651 44.1067 70.8287 41.4993 69.3561C38.8903 67.8811 36.7877 65.8934 35.1877 63.3951H28.806L26.326 60.9007H33.8583C33.4182 59.9589 33.0872 58.9698 32.8717 57.9527H23.354L20.8267 55.4584H32.4593C32.4163 54.8144 32.396 54.3241 32.396 53.9917C32.396 53.6594 32.4163 53.1714 32.4593 52.5274H17.926L15.399 50.0307H32.8717C33.0919 49.0105 33.4227 48.0172 33.8583 47.0687H12.4943L10 44.5744ZM36.1457 48.1457C35.3517 50.0061 34.954 51.9551 34.954 53.9917C34.954 56.0287 35.3517 57.9794 36.1457 59.8401C36.9393 61.6984 38.0103 63.3047 39.3557 64.6544C40.7017 66.0044 42.3017 67.0771 44.1557 67.8751C46.0103 68.6727 47.957 69.0707 49.994 69.0707C52.0287 69.0707 53.9773 68.6727 55.838 67.8751C57.6963 67.0771 59.3007 66.0041 60.646 64.6544C61.9917 63.3044 63.0627 61.6984 63.8647 59.8401C64.6647 57.9794 65.0647 56.0287 65.0647 53.9917C65.0647 51.9551 64.6647 50.0061 63.8647 48.1457C63.0627 46.2851 61.9917 44.6831 60.646 43.3374C59.3007 41.9941 57.6963 40.9231 55.838 40.1251C53.9773 39.3274 52.0287 38.9294 49.994 38.9294C47.957 38.9294 46.0103 39.3274 44.156 40.1251C42.3017 40.9231 40.7017 41.9941 39.356 43.3374C38.0103 44.6831 36.9393 46.2851 36.1457 48.1457ZM37.9917 57.9527H39.5507L39.5057 52.0431L41.3927 57.9531L43.126 57.9424L44.9783 52.0737V57.9527H46.642V50.0307L44.2993 50.0287L42.2893 56.3467L40.24 50.0367L37.9917 50.0307V57.9527ZM48.435 57.9527H50.086V50.0307H48.435V57.9527ZM51.879 57.9527H53.469V52.2461L56.6317 57.9527H58.5497V50.0307H56.9907V55.7704L53.8277 50.0307H51.879V57.9527ZM60.3733 57.9527H61.994V50.0307H60.3733V57.9527Z" fill="black"/>
<defs>
<linearGradient id="paint0_linear_152_37" x1="17.5" y1="87.5" x2="85.5" y2="19" gradientUnits="userSpaceOnUse">
<stop stop-color="white"/>
<stop offset="1" stop-color="#C1C1C1"/>
</linearGradient>
</defs>
</svg>
