<svg width="100" height="100" viewBox="0 0 100 100" fill="none" xmlns="http://www.w3.org/2000/svg">
<circle cx="50" cy="50" r="50" fill="#EEEEEE"/>
<g clip-path="url(#clip0_152_3)">
<path d="M55.13 28.0173C55.3209 28.0173 55.5039 27.9415 55.6389 27.8065C55.7738 27.6716 55.8497 27.4885 55.8497 27.2976C55.8497 27.1068 55.7738 26.9237 55.6389 26.7888C55.5039 26.6538 55.3209 26.578 55.13 26.578C54.9391 26.578 54.7561 26.6538 54.6211 26.7888C54.4862 26.9237 54.4103 27.1068 54.4103 27.2976C54.4103 27.4885 54.4862 27.6716 54.6211 27.8065C54.7561 27.9415 54.9391 28.0173 55.13 28.0173ZM24.1117 33.2706L21.934 37.5996L17.479 35.2663L16.559 37.1043C16.6594 37.0826 16.7619 37.0718 16.8647 37.072C17.05 37.072 17.2337 37.107 17.3767 37.1723L22.351 39.777L25.3073 33.897L24.1117 33.2706ZM76.5187 34.712L77.555 34.149L79.2517 37.413L80.4177 36.7816L78.7193 33.518L79.709 32.982L82.1543 37.6796L83.319 37.0476L79.9397 30.5523C79.816 30.84 79.5783 31.083 79.3893 31.1816L74.5527 33.805L77.9097 40.2576L79.0753 39.6253L76.5187 34.712ZM52.2307 28.0173C52.4215 28.0173 52.6046 27.9415 52.7395 27.8065C52.8745 27.6716 52.9503 27.4885 52.9503 27.2976C52.9503 27.1068 52.8745 26.9237 52.7395 26.7888C52.6046 26.6538 52.4215 26.578 52.2307 26.578C52.0398 26.578 51.8567 26.6538 51.7218 26.7888C51.5868 26.9237 51.511 27.1068 51.511 27.2976C51.511 27.4885 51.5868 27.6716 51.7218 27.8065C51.8567 27.9415 52.0398 28.0173 52.2307 28.0173ZM69.0887 33.0796L69.0977 33.09C73.0917 37.5893 75.5183 43.5116 75.5183 50.0006C75.5183 60.3456 69.353 69.2496 60.4967 73.2433C60.4667 73.258 60.4373 73.2743 60.4063 73.288L60.4133 73.282L60.4967 73.2433C61.945 72.555 62.9473 71.0806 62.9473 69.3703C62.9473 67.0013 61.0273 65.082 58.6583 65.082L54.1433 65.078C53.9969 65.078 53.8565 65.0198 53.753 64.9163C53.6495 64.8128 53.5913 64.6724 53.5913 64.526C53.5913 64.3796 53.6495 64.2392 53.753 64.1357C53.8565 64.0321 53.9969 63.974 54.1433 63.974H61.7683C65.3573 63.974 68.267 61.0643 68.267 57.475C68.267 53.886 65.3573 50.976 61.7683 50.976L60.7997 50.977H54.405C54.3314 50.9788 54.2582 50.9659 54.1896 50.9389C54.1211 50.912 54.0586 50.8717 54.0059 50.8202C53.9532 50.7688 53.9114 50.7074 53.8828 50.6395C53.8542 50.5717 53.8394 50.4988 53.8394 50.4251C53.8394 50.3515 53.8542 50.2786 53.8828 50.2108C53.9114 50.1429 53.9532 50.0815 54.0059 50.0301C54.0586 49.9786 54.1211 49.9383 54.1896 49.9114C54.2582 49.8844 54.3314 49.8715 54.405 49.8733L60.0277 49.867C65.9603 49.867 70.77 45.0576 70.77 39.125C70.7733 37.0251 70.158 34.9707 69.001 33.2183L68.9727 33.1783C68.9629 33.1653 68.9575 33.1496 68.9573 33.1333C68.9573 33.09 68.9927 33.055 69.036 33.055C69.0627 33.055 69.074 33.059 69.0887 33.0796ZM58.2287 74.139C55.5887 75.0339 52.8196 75.489 50.032 75.486C46.2053 75.486 42.576 74.6413 39.3187 73.1293V53.0446H46.536C46.2642 52.222 46.1261 51.361 46.127 50.4946C46.127 49.1516 46.4557 47.8846 47.0333 46.7676H39.319V26.871C42.576 25.3593 46.205 24.5143 50.0323 24.5143C54.4813 24.5143 58.665 25.655 62.305 27.6593C62.8257 27.9886 63.174 28.5693 63.174 29.2316C63.174 29.4756 63.1259 29.7171 63.0326 29.9425C62.9392 30.1679 62.8024 30.3726 62.6299 30.5451C62.4574 30.7176 62.2526 30.8544 62.0272 30.9477C61.8018 31.041 61.5603 31.089 61.3163 31.089L61.2757 31.0876H60.6783L58.145 31.0906C57.2527 31.0906 56.7633 31.354 56.4563 31.6206C55.5713 32.388 55.8747 33.297 54.059 33.297H49.0517C49.729 34.8586 51.2837 35.986 51.6703 36.2486H57.8203C57.939 36.2487 58.055 36.2843 58.1533 36.3508C58.2517 36.4174 58.3278 36.5118 58.372 36.622C58.4176 36.7235 58.4296 36.8369 58.406 36.9456C58.3822 37.0838 58.3104 37.2092 58.2033 37.2996C58.0961 37.39 57.9605 37.4397 57.8203 37.44H51.56C51.079 37.6913 49.6177 38.603 48.9433 40.6603H60.2433C60.4187 40.6603 60.5923 40.6948 60.7543 40.762C60.9164 40.8291 61.0636 40.9274 61.1876 41.0514C61.3116 41.1754 61.4099 41.3226 61.477 41.4846C61.5441 41.6466 61.5787 41.8203 61.5787 41.9956C61.5787 42.171 61.5441 42.3446 61.477 42.5067C61.4099 42.6687 61.3116 42.8159 61.1876 42.9399C61.0636 43.0639 60.9164 43.1622 60.7543 43.2293C60.5923 43.2964 60.4187 43.331 60.2433 43.331L54.5197 43.3303C50.5743 43.3303 47.376 46.5286 47.376 50.4736C47.376 54.4193 50.5743 57.6176 54.5193 57.6176H61.6573C61.9623 57.6176 62.2093 57.8726 62.2093 58.1776C62.2092 58.2497 62.1947 58.3211 62.1668 58.3876C62.1389 58.4541 62.0981 58.5144 62.0468 58.565C61.9955 58.6156 61.9347 58.6556 61.8678 58.6826C61.801 58.7096 61.7294 58.7231 61.6573 58.7223H54.3473C51.457 58.7223 49.1137 61.065 49.1137 63.9546C49.1137 66.845 51.457 69.188 54.347 69.188L57.1083 69.1973C58.5033 69.1973 59.6523 70.368 59.6523 71.753C59.6523 72.885 58.969 73.6833 58.2287 74.139ZM33.0423 46.7676H24.75C25.5393 40.5293 28.5853 34.9943 33.0427 31.0053L33.0423 46.7676ZM33.0423 68.9953C28.5407 64.9653 25.4797 59.3596 24.728 53.0446H33.0423V68.9953ZM50.0323 23.1356C35.1957 23.1356 23.1677 35.1633 23.1677 50.0006C23.1677 64.8366 35.1957 76.8653 50.032 76.8653C64.8693 76.8653 76.897 64.8366 76.897 50.0006C76.897 35.1633 64.8697 23.1356 50.0323 23.1356ZM49.029 29.8323H55.37C55.4972 29.832 55.6192 29.7814 55.7091 29.6914C55.7991 29.6015 55.8497 29.4795 55.85 29.3523C55.8497 29.225 55.7991 29.103 55.7092 29.013C55.6192 28.9229 55.4973 28.8721 55.37 28.8716H49.029C48.9017 28.8721 48.7798 28.9229 48.6898 29.013C48.5999 29.103 48.5493 29.225 48.549 29.3523C48.549 29.6166 48.7653 29.8323 49.029 29.8323ZM49.269 28.0173C49.4599 28.0173 49.6429 27.9415 49.7779 27.8065C49.9128 27.6716 49.9887 27.4885 49.9887 27.2976C49.9887 27.1068 49.9128 26.9237 49.7779 26.7888C49.6429 26.6538 49.4599 26.578 49.269 26.578C49.0781 26.578 48.8951 26.6538 48.7601 26.7888C48.6252 26.9237 48.5493 27.1068 48.5493 27.2976C48.5493 27.4885 48.6252 27.6716 48.7601 27.8065C48.8951 27.9415 49.0781 28.0173 49.269 28.0173ZM50.265 36.858L50.355 36.7723L50.265 36.6853C48.8617 35.6663 48.24 34.404 47.8647 33.427C47.6057 32.7536 47.314 32.2006 46.8897 31.796C46.449 31.3766 46.128 31.1536 45.4923 31.1536C45.2336 31.1553 44.976 31.188 44.725 31.251L44.573 31.2876L44.6673 31.4626C44.808 31.7236 45.069 32.2086 45.526 32.348C45.5646 32.359 45.6046 32.3642 45.6447 32.3633C45.6816 32.3628 45.7186 32.3607 45.7553 32.357C45.7853 32.3543 45.8147 32.3513 45.8423 32.3513C45.8733 32.3513 45.8833 32.3556 45.8837 32.3556C46.377 32.641 46.6353 34.7443 46.6353 35.7923C46.6353 35.9713 46.5613 36.0523 46.396 36.0523C46.2317 36.0523 46.0173 35.9623 45.886 35.8386C45.597 35.527 45.1837 35.352 44.7293 35.352C43.9883 35.352 43.2027 35.8516 43.1717 36.687V36.8566C43.203 37.692 43.9883 38.1916 44.7297 38.1916C45.1837 38.1916 45.597 38.0166 45.886 37.705C46.0173 37.5816 46.2317 37.492 46.396 37.492C46.5613 37.492 46.6353 37.572 46.6353 37.7513C46.6353 38.7993 46.3767 40.9026 45.8837 41.188C45.8837 41.188 45.8737 41.192 45.8423 41.192C45.8134 41.1915 45.7845 41.1897 45.7557 41.1866C45.7188 41.1829 45.6817 41.1808 45.6447 41.1803C45.6046 41.1794 45.5646 41.1846 45.526 41.1956C45.069 41.335 44.808 41.82 44.6673 42.081L44.573 42.256L44.725 42.2933C44.9761 42.3557 45.2336 42.3881 45.4923 42.39C46.128 42.39 46.449 42.1676 46.8897 41.7476C47.314 41.343 47.6057 40.79 47.8647 40.1166C48.24 39.1396 48.8613 37.8773 50.265 36.858ZM18.7943 43.9323L18.387 46.6106L16.054 44.8493L18.7943 43.9323ZM14.5483 46.0563C14.6507 46.0132 14.7606 45.9913 14.8717 45.992C15.0155 45.9916 15.157 46.0281 15.2827 46.098L15.292 46.1033L20.3807 50.015L20.639 48.3156L19.6047 47.537L20.225 43.4563L21.4377 43.051L21.6953 41.3546L14.9257 43.6313L14.5483 46.0563ZM50 88.4C28.7927 88.4 11.6 71.2073 11.6 50C11.6 28.7926 28.793 11.601 50 11.601C71.2073 11.601 88.3993 28.7926 88.3993 50C88.3993 71.2073 71.2077 88.4 50 88.4ZM50 10.001C27.909 10.001 10 27.9093 10 50C10 72.0906 27.909 89.999 50 89.999C72.0913 89.999 90 72.0906 90 50C90 27.9093 72.0913 10.001 50 10.001ZM58.8917 18.811C59.156 18.0443 59.8073 17.6216 60.7267 17.6216C61.111 17.6216 61.5193 17.6983 61.94 17.8496C63.406 18.3766 64.106 19.4336 63.723 20.5423C63.4577 21.3133 62.8047 21.7386 61.8853 21.7386C61.4987 21.7386 61.0877 21.6613 60.6637 21.509C59.2023 20.984 58.5067 19.9253 58.8917 18.811ZM60.1997 22.8663C60.8497 23.1 61.4963 23.2186 62.121 23.2186C63.7053 23.2186 64.9197 22.4413 65.369 21.1386C65.686 20.2186 65.5423 19.2386 64.9643 18.3786C64.4127 17.5573 63.5033 16.887 62.4037 16.492C61.7697 16.2643 61.1317 16.1486 60.5097 16.1486C58.912 16.1486 57.692 16.9206 57.2447 18.215C56.6057 20.0656 57.848 22.0223 60.1997 22.8663ZM70.5143 23.3976L69.902 28.249L69.9787 28.3206L74.6247 27.232L72.0713 30.6886L73.3237 31.8566L77.1973 26.7476L75.7583 25.4066L71.7057 26.3143L72.2007 22.0906L70.694 20.6856L70.508 20.515C70.493 20.82 70.3657 21.1283 70.193 21.295L66.1783 25.1946L67.4373 26.3686L70.5143 23.3976ZM82.5953 48.336C82.4942 48.3536 82.3917 48.3625 82.289 48.3626C81.2853 48.3626 80.5167 47.487 80.2823 46.0786C80.0237 44.5213 80.5947 43.3873 81.739 43.1883C81.8386 43.1718 81.9394 43.1633 82.0403 43.163C83.0267 43.163 83.8127 44.0556 84.0423 45.4386C84.3023 47.0006 83.7347 48.1383 82.5953 48.336ZM85.4263 45.1966C85.0517 42.9506 83.6183 41.3823 81.94 41.3823C81.7746 41.3829 81.6094 41.3972 81.4463 41.425C79.553 41.7546 78.4817 43.8133 78.8987 46.3206C79.2797 48.6066 80.6807 50.1426 82.3843 50.1426C82.5533 50.1425 82.7219 50.1278 82.8883 50.0986C84.776 49.771 85.844 47.7096 85.4263 45.1966ZM51.441 15.757C51.9787 15.757 52.3437 16.1423 52.3487 16.717C52.3533 17.297 52.002 17.661 51.4317 17.6656L48.1343 17.6946L48.1177 15.786L51.441 15.757ZM46.4577 20.8343L48.1607 20.8193L48.1457 19.046L51.003 19.0203L52.2517 20.7843L54.1503 20.7676L52.716 18.8686L52.8927 18.784C53.6217 18.4346 54.035 17.7076 54.0267 16.7893C54.0143 15.341 53.06 14.4046 51.5973 14.4046L46.4017 14.4493L46.1017 14.453C46.2793 14.668 46.3923 14.9523 46.4093 15.1906L46.4577 20.8343ZM35.1763 21.9136L32.8277 23.2626L32.752 20.3406L35.1763 21.9136ZM31.294 20.5086L31.296 20.52L31.4073 26.9433L32.898 26.0863L32.862 24.7923L36.4403 22.7346L37.5127 23.4313L39.0003 22.5763L33.002 18.6983L30.8687 19.9163C30.9792 19.9771 31.0748 20.0619 31.1483 20.1644C31.2219 20.2668 31.2717 20.3845 31.294 20.5086ZM22.4933 28.582L26.524 32.45L27.693 31.1816L26.208 29.756L28.688 27.0646L27.7257 26.1406L25.2447 28.832L24.098 27.7316L27.669 23.856L26.7067 22.9326L21.7537 28.3096C22.0143 28.327 22.3013 28.4296 22.487 28.577L22.4933 28.582Z" fill="black"/>
</g>
<defs>
<clipPath id="clip0_152_3">
<rect width="80" height="80" fill="white" transform="translate(10 10)"/>
</clipPath>
</defs>
</svg>
