<svg width="100" height="100" viewBox="0 0 100 100" fill="none" xmlns="http://www.w3.org/2000/svg">
<circle cx="50" cy="50" r="50" fill="#EEEEEE"/>
<path d="M77.3 58.7344L77.2688 58.8219C73.3719 70.2062 62.6281 77.8406 50.5156 77.8406C38.4031 77.8406 27.6406 70.1906 23.7594 58.8094L23.7281 58.7188H15.2188V59.7469L18.7594 60.1625C20.9469 60.4125 21.4062 61.3812 22.0031 62.6L22.1531 62.9C27.2719 73.8219 38.4156 80.875 50.5281 80.875C62.6437 80.875 73.7875 73.8219 78.9062 62.9156L79.0563 62.6188C79.65 61.4 80.1125 60.4312 82.3 60.1781L85.8438 59.7594V58.7344H77.3ZM23.7594 40.1625C27.6562 28.7781 38.4031 21.1312 50.5156 21.1312C62.6281 21.1312 73.3875 28.7781 77.2719 40.1625L77.3031 40.25H85.8281V39.225L82.2844 38.8094C80.0969 38.5563 79.6375 37.5906 79.0406 36.3687L78.8938 36.0688C73.775 25.1781 62.625 18.125 50.5156 18.125C38.3875 18.125 27.2563 25.1781 22.1375 36.1L21.9875 36.3969C21.3938 37.6156 20.9313 38.5844 18.7438 38.8375L15.2031 39.2531V40.2812H23.7156L23.7594 40.1625ZM67.0781 45.1187L61.6313 53.8531H63.9812L64.95 52.2906H71.3031L72.2719 53.8531H74.6063L69.1594 45.1187H67.0781ZM70.3062 50.6375H65.9469L68.1344 47.125L70.3062 50.6375ZM79.0875 47.3063L85.5594 53.8531H88V45.1187H86.0812V51.6344L79.6375 45.1187H77.1531V53.8531H79.0875V47.3063ZM13 53.8531H14.9344V47.3063L21.4219 53.8531H23.8625V45.1187H21.9281V51.6344L15.4844 45.1187H13V53.8531ZM28.1344 45.1187H30.0688V53.8531H28.1313L28.1344 45.1187ZM42.1531 52.0062C42.0906 52.0219 41.8531 52.0219 41.7656 52.0219H34.0719V53.8094H41.8844C41.9438 53.8094 42.4062 53.8094 42.4937 53.7937C44.0875 53.6437 44.8156 52.3187 44.8156 51.1594C44.8156 49.9688 44.0562 48.6906 42.6125 48.5562C42.3312 48.525 42.0938 48.525 41.9875 48.525H36.8844C36.6948 48.5311 36.5051 48.5165 36.3188 48.4812C35.9156 48.375 35.7687 48.0187 35.7687 47.7219C35.7687 47.4531 35.9156 47.0969 36.3313 46.9781C36.5078 46.9408 36.6885 46.9261 36.8687 46.9344H44.2344V45.1781H36.75C36.4375 45.1781 36.2 45.1906 36.0063 45.2219C35.3966 45.2969 34.8367 45.596 34.4353 46.0609C34.0339 46.5259 33.8197 47.1234 33.8344 47.7375C33.8344 48.8094 34.5031 50.0594 35.975 50.2687C36.2438 50.2969 36.6156 50.2969 36.7812 50.2969H41.75C41.8406 50.2969 42.0625 50.2969 42.1063 50.3125C42.6719 50.3844 42.8656 50.8031 42.8656 51.175C42.8704 51.3771 42.8003 51.5738 42.6687 51.7272C42.5372 51.8807 42.3535 51.9801 42.1531 52.0062ZM56.7062 52.0062C56.6437 52.0219 56.4062 52.0219 56.3031 52.0219H48.625V53.8094H56.4375C56.4969 53.8094 56.9594 53.8094 57.0469 53.7937C58.6406 53.6437 59.3688 52.3187 59.3688 51.1594C59.3688 49.9688 58.6094 48.6906 57.1656 48.5562C56.8844 48.525 56.6469 48.525 56.5406 48.525H51.4375C51.2479 48.5311 51.0583 48.5165 50.8719 48.4812C50.4688 48.375 50.3219 48.0187 50.3219 47.7219C50.3219 47.4531 50.4688 47.0969 50.8844 46.9781C51.061 46.9408 51.2416 46.9261 51.4219 46.9344H58.7875V45.1781H51.3031C50.9906 45.1781 50.7531 45.1906 50.5594 45.2219C49.9497 45.2969 49.3898 45.596 48.9884 46.0609C48.587 46.5259 48.3728 47.1234 48.3875 47.7375C48.3875 48.8094 49.0563 50.0594 50.5312 50.2687C50.7969 50.2969 51.1688 50.2969 51.3344 50.2969H56.3031C56.3937 50.2969 56.6156 50.2969 56.6594 50.3125C57.225 50.3844 57.4188 50.8031 57.4188 51.175C57.4202 51.3762 57.3488 51.5711 57.2179 51.7238C57.087 51.8766 56.9053 51.9769 56.7062 52.0062Z" fill="black"/>
</svg>
