<?xml version="1.0" encoding="UTF-8" standalone="no"?>
<!-- Created with Inkscape (http://www.inkscape.org/) -->

<svg
   version="1.1"
   id="svg2"
   width="1230.2609"
   height="136.69565"
   viewBox="0 0 1230.2609 136.69565"
   xmlns="http://www.w3.org/2000/svg"
   xmlns:svg="http://www.w3.org/2000/svg">
  <defs
     id="defs6" />
  <g
     id="g8">
    <path
       style="fill:#000000;stroke-width:1.04348"
       d="M 109.51971,125.14283 C 107.79798,124.902 101.97685,124.19256 96.583868,123.5663 91.190891,122.94003 81.330021,121.09118 74.670824,119.45773 41.527537,111.32794 19.202883,97.458327 9.2132676,78.79101 c -2.79016,-5.213894 -2.79016,-21.91654 0,-27.130434 C 15.742002,39.460514 26.248358,30.401453 43.780586,21.855063 93.856379,-2.5552668 175.33798,-0.46902676 220.86272,26.389023 c 15.65024,9.233111 24.36554,19.299674 27.69312,31.986786 1.69983,6.480984 1.69983,7.218984 0,13.699968 -0.98814,3.767492 -3.49631,9.410688 -5.57372,12.540436 -11.97715,18.044327 -42.29037,32.665617 -79.85117,38.515427 -10.23811,1.59451 -46.78751,2.96564 -53.61124,2.01119 z m 44.12809,-5.71805 c 52.33959,-5.70964 90.3067,-28.496193 90.3067,-54.198987 0,-26.087079 -38.45905,-48.79322 -92.06173,-54.35303 -16.72497,-1.7347598 -48.48992,-0.69716 -63.311349,2.06806 -30.05816,5.60792 -51.211677,14.68957 -64.667781,27.763232 -9.321381,9.056455 -11.411531,13.546182 -11.415863,24.521738 -0.0039,9.785405 1.052552,12.671377 7.593278,20.743749 12.853831,15.863828 45.309872,29.270748 80.898475,33.417498 11.03352,1.28562 41.02205,1.30711 52.65827,0.0378 z m -45.6933,-1.60509 C 78.330817,114.37279 60.996507,109.72505 42.971544,100.39619 30.989035,94.194618 21.991652,86.464009 17.665818,78.653349 14.998736,73.837706 14.563516,71.953962 14.563516,65.225793 c 0,-6.728169 0.43522,-8.611914 3.102302,-13.427556 4.325834,-7.810659 13.323217,-15.541273 25.305726,-21.742844 21.626716,-11.19294 45.374673,-16.65863 77.051086,-17.73362 48.37206,-1.64158 92.56525,10.84493 112.08421,31.668702 12.64037,13.485341 12.75489,28.734047 0.31669,42.168781 -18.05406,19.500554 -54.44559,31.066404 -99.94729,31.764974 -11.47826,0.17623 -22.51305,0.12918 -24.52174,-0.10454 z M 78.737109,91.834488 c 0.723086,-2.582609 1.729344,-4.695652 2.23613,-4.695652 0.506786,0 1.948025,2.113043 3.202753,4.695652 2.17835,4.483701 2.48389,4.695652 6.769047,4.695652 2.468248,0 4.487723,-0.268559 4.487723,-0.596796 0,-0.328239 -1.266505,-2.757923 -2.814454,-5.399299 -2.653076,-4.527132 -2.706427,-4.866863 -0.930437,-5.924943 4.843967,-2.885887 6.849227,-5.139582 7.457374,-8.381284 1.461005,-7.787799 -2.814737,-11.002025 -14.63549,-11.002025 -5.789795,0 -6.818536,0.274961 -6.832139,1.826087 -0.0088,1.004348 -2.121851,7.634063 -4.695652,14.732699 -2.573801,7.098636 -4.679638,13.320375 -4.679638,13.826087 0,0.505711 2.052019,0.919474 4.560041,0.919474 4.51407,0 4.573294,-0.04734 5.874742,-4.695652 z M 83.9545,77.157193 c 0,-1.171818 2.177542,-4.626685 2.906279,-4.611074 0.410243,0.0088 1.420049,0.442566 2.244015,0.963949 1.241572,0.785635 1.264366,1.229627 0.133101,2.592718 -1.2823,1.545077 -5.283395,2.343576 -5.283395,1.054407 z m 35.26921,17.906875 c 3.90005,-2.029196 7.12052,-5.686596 9.02881,-10.253784 4.39964,-10.529806 -1.97742,-20.637068 -12.15908,-19.271422 -13.48312,1.808466 -20.718683,21.177512 -10.88638,29.141988 2.72962,2.211078 10.11546,2.413007 14.01665,0.383218 z m -8.54888,-7.488836 c -1.18808,-3.096099 -0.62832,-7.214518 1.44214,-10.610309 3.90838,-6.410211 9.49195,-2.964381 7.41067,4.573404 -1.79923,6.516273 -7.24406,10.229216 -8.85281,6.036905 z m 40.45938,-6.078763 c 6.09464,-8.268518 11.08116,-15.311996 11.08116,-15.652173 0,-0.340176 -2.09874,-0.618503 -4.66386,-0.618503 -4.64764,0 -4.683,0.02811 -10.17391,8.086956 l -5.51006,8.086957 -0.30476,-8.086957 -0.30477,-8.086956 h -4.77346 c -4.44102,0 -4.72964,0.163506 -4.14427,2.347826 0.34606,1.291304 0.63562,8.334782 0.64345,15.652174 l 0.0143,13.304347 h 3.52754 c 3.33174,0 4.14258,-0.834433 14.60869,-15.033671 z m 23.62872,12.357045 c 0.55971,-1.472143 1.01766,-2.880839 1.01766,-3.130435 0,-0.249594 -2.11305,-0.453808 -4.69566,-0.453808 -2.58261,0 -4.69565,-0.431161 -4.69565,-0.958136 0,-2.912121 1.51199,-4.259255 4.7805,-4.259255 2.83562,0 3.82098,-0.594142 5.10575,-3.078616 2.15329,-4.164015 2.12158,-4.225732 -2.1718,-4.225732 -3.00341,0 -3.63586,-0.333468 -3.13044,-1.650561 0.34837,-0.907809 0.63338,-2.081722 0.63338,-2.608695 0,-0.526974 2.27246,-0.958135 5.04989,-0.958135 4.39883,0 5.20603,-0.342666 6.26087,-2.657795 0.66605,-1.461787 1.21098,-3.122269 1.21098,-3.68996 0,-1.19326 -19.8023,-0.86904 -19.89694,0.32577 -0.0332,0.418343 -2.14379,6.972702 -4.69035,14.565244 -2.54656,7.592541 -4.6301,14.176348 -4.6301,14.63068 0,0.454334 4.23771,0.82606 9.41713,0.82606 9.14854,0 9.44616,-0.07634 10.43478,-2.676626 z m 14.10413,-2.670192 1.77592,-5.346819 2.74271,5.08595 c 2.54921,4.727105 3.05562,5.108587 7.1775,5.406816 2.43914,0.176477 4.43479,0.04347 4.43479,-0.295559 0,-0.339035 -1.16691,-2.919221 -2.59315,-5.733747 -2.50886,-4.951007 -2.5273,-5.138215 -0.56757,-5.760213 3.25583,-1.033357 7.33463,-6.634043 7.33463,-10.071314 0,-6.705591 -4.03928,-9.242643 -14.71536,-9.242643 -5.9368,0 -6.07533,0.06681 -7.03154,3.391304 -0.53648,1.865218 -2.90639,8.752792 -5.26644,15.30572 -2.36005,6.55293 -4.29101,12.070321 -4.29101,12.26087 0,0.190549 2.0753,0.346453 4.61179,0.346453 h 4.6118 z m 5.56855,-15.729878 c 0.99425,-2.687724 2.17717,-3.243024 4.19268,-1.968175 2.18583,1.382582 0.5417,4.262263 -2.4335,4.262263 -2.248,0 -2.49073,-0.316539 -1.75918,-2.294088 z M 64.15424,81.331775 c 1.552547,-4.083506 1.320059,-4.473902 -2.895392,-4.86198 l -3.913044,-0.360238 4.841567,-2.225089 c 4.413758,-2.028477 7.397325,-4.484762 5.447489,-4.484762 -0.434847,0 -5.434034,1.522001 -11.109306,3.382225 -9.484993,3.108963 -10.437765,3.667249 -11.79269,6.910042 -0.810709,1.9403 -1.474017,3.705255 -1.474017,3.922123 0,0.216868 4.472492,0.394305 9.938871,0.394305 9.708587,0 9.962449,-0.06201 10.956522,-2.676626 z m 12.839661,-24.714678 1.393214,-3.391304 -4.259786,-0.521739 c -2.342883,-0.286957 -4.166206,-0.991304 -4.051833,-1.565217 0.114375,-0.573913 1.844174,-5.856521 3.843998,-11.739133 l 3.636045,-10.695651 h -4.914404 -4.914404 l -4.929594,14.907484 c -2.711277,8.199114 -4.929594,15.242592 -4.929594,15.652173 0,0.409581 3.989958,0.744692 8.866573,0.744692 h 8.866573 z m 11.376676,1.304348 c 0.966615,-1.547797 2.433419,-2.086956 5.677655,-2.086956 3.457885,0 4.5131,0.437227 5.036704,2.086956 0.51648,1.627285 1.578814,2.086957 4.823114,2.086957 h 4.16074 l -0.66171,-14.347825 c -0.36395,-7.891303 -0.84449,-14.934783 -1.06788,-15.652174 -0.60617,-1.94665 -9.86296,-1.75238 -9.86296,0.20698 0,0.831231 -3.991305,7.637131 -8.869566,15.12421 -4.878261,7.487081 -8.869565,13.85046 -8.869565,14.140842 0,0.290381 1.874282,0.527967 4.165071,0.527967 3.034976,0 4.518698,-0.566247 5.468397,-2.086957 z m 7.062185,-10.235341 c 0,-0.464222 0.689413,-1.755526 1.532031,-2.869565 1.467442,-1.940133 1.53343,-1.904549 1.565218,0.844038 0.02162,1.869822 -0.512129,2.869565 -1.532032,2.869565 -0.86087,0 -1.565217,-0.379818 -1.565217,-0.844038 z m 23.655528,8.409254 c 0.89979,-2.152174 2.11747,-5.086956 2.70597,-6.521738 1.04244,-2.541538 1.0945,-2.501244 2.02215,1.565217 0.52368,2.295652 1.16924,5.230434 1.43456,6.521739 0.40021,1.947729 1.17129,2.347826 4.52481,2.347826 2.87632,0 4.25284,-0.526755 4.77195,-1.826087 0.40125,-1.004348 2.51993,-6.756522 4.70817,-12.782608 2.18824,-6.026083 4.48117,-12.247823 5.09539,-13.826083 1.11285,-2.859501 1.10097,-2.869571 -3.38357,-2.869571 h -4.50035 l -1.95078,5.739131 c -1.07293,3.15652 -2.25707,5.739132 -2.63142,5.739132 -0.37435,0 -1.09885,-2.465222 -1.61,-5.478262 l -0.92937,-5.478261 -4.95652,-0.31804 c -4.23493,-0.27174 -4.95652,-0.0381 -4.95652,1.604801 0,1.05757 -2.11305,7.91438 -4.69565,15.237366 -2.58261,7.322985 -4.69566,13.526909 -4.69566,13.7865 0,0.25959 1.66744,0.471982 3.70543,0.471982 3.29531,0 3.88647,-0.433075 5.34141,-3.913044 z m 41.683,1.916749 c 8.7471,-3.972222 14.13042,-15.920402 10.63223,-23.598083 -1.85026,-4.060871 -5.99577,-5.709971 -14.35372,-5.709971 -6.50416,0 -7.35617,0.22723 -7.35617,1.961851 0,1.07902 -2.11305,7.9184 -4.69565,15.198614 -2.58261,7.280215 -4.69566,13.440859 -4.69566,13.690319 0,0.24946 3.63913,0.443252 8.08696,0.430648 5.63046,-0.01595 9.39162,-0.615389 12.38201,-1.973378 z m -7.94723,-6.776874 c 0,-0.742368 5.17184,-14.485619 5.61977,-14.933549 0.18832,-0.18832 1.11396,-0.0463 2.05697,0.31554 4.26153,1.6353 -0.24604,14.116809 -5.36476,14.855057 -1.27159,0.183395 -2.31198,0.07672 -2.31198,-0.237048 z m 34.43221,0.283098 c 5.45359,-1.799974 10.018,-3.35018 10.14313,-3.444902 0.12513,-0.09473 0.95318,-1.908973 1.84009,-4.031668 l 1.61258,-3.859445 h -9.92405 -9.92405 l -1.39322,3.391304 -1.39321,3.391305 4.25979,0.589996 4.25978,0.589995 -5.47826,2.418691 c -3.01305,1.33028 -5.47826,2.825651 -5.47826,3.323047 0,1.33765 0.65985,1.201472 11.47568,-2.368323 z M 604.12842,118.36715 C 578.19404,114.01503 562.63498,94.108971 564.22306,67.312749 565.4479,46.645432 575.92885,31.562374 594.091,24.329993 c 4.99127,-1.98758 7.88144,-2.3404 19.42873,-2.37173 14.69121,-0.0399 18.53618,0.99693 28.09972,7.57714 4.13783,2.847051 13.11767,13.997788 13.11767,16.288913 0,1.049408 -19.87005,10.022272 -22.17391,10.013241 -0.43044,-0.0017 -0.78261,-0.600428 -0.78261,-1.330535 0,-2.008356 -6.07849,-8.963592 -9.22435,-10.554839 -15.45694,-7.818489 -32.02169,4.093695 -33.32526,23.965141 -0.70158,10.694748 1.64401,17.936909 7.89713,24.382967 7.14483,7.365266 16.188,9.334809 24.73943,5.388066 5.55257,-2.562677 8.81737,-6.288915 9.56916,-10.92163 l 0.61694,-3.801804 h -9.52783 -9.52783 v -8.869565 -8.869565 h 23.47826 23.47826 l -0.0182,5.478261 c -0.0644,19.463114 -9.21035,35.639386 -24.31091,42.998096 -10.45964,5.09713 -20.26654,6.54962 -31.49706,4.665 z m 297.84811,0.0108 c -16.01588,-2.35724 -29.26258,-11.74657 -36.30052,-25.730027 -4.25924,-8.46256 -5.72099,-16.105688 -5.19284,-27.152224 0.38176,-7.985092 0.96608,-10.453291 3.87212,-16.356305 8.3945,-17.0516 26.33238,-27.739691 46.55575,-27.739691 26.33756,0 48.4811,19.015821 50.31047,43.204229 2.06524,27.307285 -15.66451,50.037238 -41.96265,53.797088 -8.2128,1.17418 -9.15611,1.17293 -17.28233,-0.0231 z m 19.40968,-24.851424 c 5.30896,-2.411546 12.25767,-10.219666 13.8629,-15.577431 5.50844,-18.38554 -8.03219,-35.03011 -27.0916,-33.301864 -15.29666,1.387053 -25.81778,14.967867 -22.8121,29.44618 2.70381,13.024177 12.50612,21.384811 25.04389,21.36055 4.32673,-0.0083 8.30854,-0.706266 10.99691,-1.927435 z M 268.30233,115.66057 c -0.38261,-0.3826 -0.69566,-21.074696 -0.69566,-45.982421 V 24.391373 l 24.26087,0.33025 c 24.04936,0.32738 24.30746,0.35483 29.60321,3.14852 10.22255,5.392751 14.55878,13.636669 13.74311,26.128082 -0.76977,11.788569 -5.84864,19.570726 -14.91117,22.847777 -2.00889,0.726427 -3.65254,1.706913 -3.65254,2.178861 0,0.471946 6.10435,8.783502 13.56522,18.470124 7.46087,9.686623 13.56522,17.893113 13.56522,18.236653 0,0.34352 -6.493,0.62459 -14.42889,0.62459 h -14.4289 l -11.39719,-17.917593 -11.3972,-17.917581 -0.2855,17.917581 -0.28552,17.917593 h -11.27971 c -6.20383,0 -11.59275,-0.31304 -11.97535,-0.69566 z m 35.19475,-51.436585 c 4.8982,-1.862294 6.89503,-4.836312 6.85902,-10.215583 -0.0183,-2.726087 -0.65333,-5.773278 -1.41129,-6.771538 -1.97423,-2.600143 -8.23204,-4.967591 -13.1307,-4.967591 h -4.20743 v 11.478259 11.478261 h 4.62772 c 2.54525,0 5.81345,-0.450814 7.26268,-1.001808 z m 44.88276,50.306155 c 0.35673,-1.00434 8.24957,-21.665217 17.53964,-45.913043 l 16.89104,-44.086954 h 13.20044 13.20045 l 16.8498,44.684903 c 9.2674,24.576697 16.84982,45.252464 16.84982,45.946164 0,0.93099 -3.20183,1.18427 -12.22751,0.96727 l -12.22751,-0.29399 -3.19785,-7.82609 -3.19784,-7.82608 -16.27302,-0.286723 -16.27303,-0.28672 -3.37543,8.373683 -3.37543,8.37367 h -12.5161 c -11.47153,0 -12.46195,-0.1524 -11.86747,-1.82609 z m 56.96597,-33.349303 c 0,-1.547153 -8.83564,-27.432947 -9.36129,-27.425749 -0.6533,0.0089 -9.42132,25.034764 -9.42132,26.890496 0,0.910988 2.68575,1.275861 9.3913,1.275861 5.16522,0 9.39131,-0.333274 9.39131,-0.740608 z M 456.47624,70.443184 V 24.530143 h 11.91328 11.91328 l 21.7389,27.913041 21.73889,27.913043 0.27791,-27.913043 0.27792,-27.913041 h 11.99392 11.99393 l -0.27184,45.652172 -0.27184,45.652175 -11.6751,0.29445 -11.67511,0.29444 -21.54206,-27.685751 C 491.0402,73.510468 480.91574,61.05188 480.38952,61.05188 c -0.55595,0 -0.95675,11.584077 -0.95675,27.652173 v 27.652177 h -11.47826 -11.47827 z m 220.17392,0.01823 V 24.530143 h 26.08696 26.08696 v 9.883591 9.883602 l -14.34783,0.290316 -14.34783,0.290316 v 7.304347 7.304348 l 13.30435,0.292045 13.30435,0.292046 v 9.850691 9.850691 l -13.30435,0.292046 -13.30435,0.292045 -0.30597,7.535478 -0.30599,7.535477 14.39294,0.290609 14.39294,0.29061 v 9.913049 9.91304 l -25.82609,0.2791 -25.82609,0.2791 z m 100.17392,0.01594 V 24.530143 h 21.72365 c 16.68423,0 23.0009,0.3793 27.22954,1.63507 6.97164,2.07036 13.95536,8.347991 16.39575,14.738091 2.40127,6.2876 2.43195,16.272425 0.0689,22.414076 -2.21491,5.756628 -9.43527,12.842708 -14.1387,13.875755 -1.80353,0.396119 -3.27656,1.035081 -3.27342,1.419915 0.003,0.384835 6.10749,8.636926 13.56521,18.33798 7.45775,9.70106 13.55954,18.0491 13.55954,18.55119 0,0.5021 -6.44856,0.78226 -14.33014,0.62259 l -14.33014,-0.29032 -10.97421,-17.166283 -10.97421,-17.166274 -0.52174,17.166274 -0.52174,17.166283 -11.73913,0.29504 -11.73913,0.29505 z m 38.3825,-8.055893 c 5.49035,-4.099136 5.57274,-13.187219 0.15621,-17.231241 -1.5095,-1.127004 -5.23194,-2.252379 -8.6001,-2.600005 l -5.93861,-0.612918 v 11.753459 11.753461 l 5.7824,-0.479522 c 3.54971,-0.294369 6.87038,-1.291807 8.6001,-2.583234 z m 173.18553,9.883756 c -10.16503,-24.267593 -18.78222,-44.959544 -19.1493,-45.982104 -0.62051,-1.72854 0.23598,-1.83854 12.18683,-1.56522 l 12.85425,0.29399 10.64341,26.608693 c 5.8539,14.634782 10.9727,26.608695 11.3751,26.608695 0.4023,0 5.5211,-11.973913 11.375,-26.608695 l 10.6434,-26.608693 12.8107,-0.29364 c 11.8877,-0.27248 12.7671,-0.15972 12.2081,1.56522 -0.3313,1.02237 -9.0138,21.580592 -19.2946,45.684938 l -18.6922,43.826089 -9.2394,0.29682 -9.2394,0.29683 z m 87.56249,43.355353 c -0.3827,-0.3826 -0.6957,-21.043477 -0.6957,-45.913042 V 24.530143 h 26.0869 26.087 v 9.913041 9.913045 h -14.087 -14.0869 v 7.826086 7.826087 h 13.5652 13.5652 v 9.913043 9.913043 h -13.5652 -13.5652 v 7.826087 7.826087 h 14.0869 14.087 v 10.434788 10.43478 h -25.3913 c -13.9653,0 -25.7044,-0.31304 -26.0869,-0.69566 z m 72,0 c -0.3827,-0.3826 -0.6957,-21.043477 -0.6957,-45.913042 V 24.530143 h 22.3956 c 25.7984,0 30.9045,1.12622 38.2048,8.426521 7.5017,7.501645 9.2969,22.045825 4.057,32.869725 -2.4997,5.163872 -9.0181,10.651244 -13.7879,11.607004 -1.5782,0.316255 -2.8695,0.743054 -2.8695,0.948442 0,0.205389 6.3391,8.615481 14.0869,18.689093 7.7479,10.073612 14.087,18.533832 14.087,18.800482 0,0.26665 -6.5196,0.48482 -14.488,0.48482 h -14.4879 l -11.3382,-17.722443 -11.3381,-17.722444 -0.2855,17.722444 -0.2855,17.722443 h -11.2797 c -6.2039,0 -11.5928,-0.31304 -11.9753,-0.69566 z m 35.4917,-52.01107 c 4.9822,-2.081673 6.5219,-4.310879 6.562,-9.500381 0.057,-7.452558 -5.6397,-11.857355 -15.3581,-11.874032 l -3.3913,-0.0058 v 11.478259 11.478261 h 4.2074 c 2.3141,0 5.9051,-0.70933 7.98,-1.576289 z"
       id="path170" />
  </g>
</svg>
