<svg width="100" height="100" viewBox="0 0 100 100" fill="none" xmlns="http://www.w3.org/2000/svg">
<circle cx="50" cy="50" r="50" fill="#EEEEEE"/>
<path d="M50 37.4533C29.5733 37.4533 13.0167 43.1 13.0167 50.0067C13.0167 56.9133 29.5733 62.5567 50 62.5567C70.4233 62.5567 86.98 56.9133 86.98 50.0067C86.98 43.0967 70.4233 37.4533 50 37.4533ZM31.0067 58.2533C28.82 58.27 26.8967 56.92 26.6733 54.5833C26.5464 53.3658 26.8978 52.1465 27.6533 51.1833C28.3033 50.3367 29.4033 49.6333 30.3333 49.46C30.6333 49.4033 31.0433 49.44 31.2133 49.64C31.4767 49.95 31.4 50.2867 31.1367 50.42C30.4267 50.7833 29.57 51.4033 29.1467 52.2533C28.9528 52.6138 28.8608 53.0203 28.8808 53.4291C28.9008 53.8379 29.0319 54.2335 29.26 54.5733C30.1367 55.8967 32.5833 55.9333 34.8567 53.8233C35.42 53.3033 35.9233 52.81 36.4333 52.2233C37.4333 51.0767 37.7667 50.6567 39.1 48.81C39.1167 48.79 39.12 48.7633 39.1133 48.75C39.1033 48.7267 39.0833 48.7167 39.0467 48.7167C38.1567 48.74 37.38 49.0067 36.63 49.5667C36.4133 49.7267 36.1 49.7033 35.9633 49.4967C35.81 49.2633 35.92 48.9533 36.17 48.78C37.38 47.9367 38.7033 47.7867 40.0567 47.5567C40.0567 47.5567 40.15 47.5633 40.2267 47.4567C40.7833 46.7467 41.2 46.1067 41.7933 45.3867C42.3867 44.6533 43.16 43.9867 43.7467 43.48C44.5667 42.7733 45.0933 42.5367 45.6267 42.2467C45.77 42.1733 45.61 42.0833 45.5667 42.0833C42.58 41.5233 39.4767 40.7967 36.51 41.8967C34.4567 42.6633 33.5533 44.29 33.9867 45.38C34.2967 46.15 35.31 46.28 36.2633 45.8133C37.0924 45.4022 37.7957 44.7759 38.3 44C38.59 43.5533 39.2 43.8733 38.87 44.65C38.0033 46.6867 36.3467 48.3067 34.3267 48.3767C32.6067 48.43 31.4967 47.1667 31.5 45.6067C31.5067 42.5267 34.9333 40.5 38.5333 40.2C42.87 39.84 46.9767 40.9967 51.2833 41.5167C54.58 41.9167 57.7433 41.9267 61.0567 41.1633C61.45 41.08 61.7233 41.33 61.7 41.7233C61.6667 42.2967 61.2233 42.8467 60.1333 43.4433C58.89 44.1233 57.59 44.33 56.2333 44.3433C52.9533 44.37 49.8967 43.09 46.7333 42.4033C46.74 42.54 46.7733 42.7067 46.6567 42.7933C44.9067 44.0867 43.3233 45.4 42.2633 47.24C42.2267 47.2833 42.2467 47.3233 42.3067 47.32C43.23 47.27 44.0567 47.2467 44.9167 47.18C45.0667 47.1667 45.0733 47.13 45.06 47.02C45.0129 46.6792 45.0489 46.332 45.165 46.0082C45.2811 45.6843 45.4738 45.3933 45.7267 45.16C46.3 44.65 47.0167 44.5933 47.4933 44.96C48.0267 45.38 47.9833 46.1367 47.6867 46.7033C47.5546 46.9522 47.3738 47.1719 47.155 47.3494C46.9363 47.527 46.684 47.6586 46.4133 47.7367C46.4133 47.7367 46.3133 47.7567 46.3267 47.85C46.3467 47.9933 46.9933 48.3533 47.05 48.45C47.1067 48.54 47.0767 48.6833 46.98 48.79C46.9416 48.8368 46.8932 48.8746 46.8385 48.9005C46.7837 48.9265 46.7239 48.9399 46.6633 48.94C46.5533 48.94 46.4867 48.9 46.3433 48.8233C46.0002 48.6414 45.6948 48.3959 45.4433 48.1C45.3633 47.9967 45.32 47.9933 45.1133 48.0033C44.1833 48.06 42.7333 48.2 41.75 48.3233C41.5133 48.35 41.4767 48.3967 41.43 48.48C39.8633 51.0633 38.19 53.8467 36.3533 55.7133C34.38 57.7133 32.7433 58.24 31.0067 58.2533ZM73.5 45.7C73.1967 46.2267 67.3367 55.1467 66.9667 56.0667C66.85 56.36 66.8333 56.5833 66.9533 56.7467C67.26 57.16 67.9433 56.9167 68.37 56.62C69.64 55.7467 70.52 54.6867 71.4933 53.76C71.55 53.7167 71.6467 53.7 71.71 53.76C71.8533 53.8933 72.0633 54.0633 72.21 54.2167C72.223 54.2286 72.2336 54.2431 72.241 54.2591C72.2484 54.2752 72.2525 54.2926 72.2531 54.3103C72.2538 54.328 72.2509 54.3456 72.2446 54.3621C72.2383 54.3787 72.2288 54.3938 72.2167 54.4067C71.3262 55.5259 70.3157 56.5442 69.2033 57.4433C67.6367 58.6567 66.0733 58.9667 65.2967 58.19C65.0228 57.9042 64.8577 57.5315 64.83 57.1367C64.8233 56.9467 64.7267 56.9367 64.6367 57.0233C63.71 57.94 62.1033 58.9533 60.6433 58.23C59.4233 57.63 59.14 56.17 59.3667 54.9433C59.37 54.9167 59.3467 54.7433 59.1967 54.8433C58.8889 55.0671 58.5526 55.2487 58.1967 55.3833C57.814 55.5581 57.3973 55.6458 56.9767 55.64C56.6742 55.6434 56.3761 55.5674 56.1122 55.4193C55.8484 55.2713 55.6281 55.0566 55.4733 54.7967C55.2766 54.4421 55.168 54.0454 55.1567 53.64C55.1533 53.6033 55.1 53.5333 55.0467 53.6233C54.0467 55.1467 53.1167 56.62 52.13 58.1667C52.0767 58.24 52.03 58.2867 51.93 58.29L49.9733 58.2933C49.8533 58.2933 49.7967 58.2 49.86 58.0833C50.2067 57.4167 52.1067 54.65 53.3933 52.2967C53.75 51.65 53.6767 51.3167 53.4567 51.1733C53.18 50.9933 52.63 51.2633 52.1667 51.6167C50.9033 52.5733 49.8433 54.0667 49.3033 54.7333C48.9867 55.1233 48.6867 55.7033 47.86 56.6C46.5567 58.0167 44.8267 58.83 43.1667 58.2667C42.7282 58.1181 42.3329 57.8641 42.0155 57.527C41.6982 57.1899 41.4685 56.78 41.3467 56.3333C41.2967 56.16 41.2 56.1133 41.1033 56.2267C40.8367 56.56 40.2867 57.0567 39.8267 57.3667C39.7767 57.4033 39.6533 57.4767 39.5467 57.4233C39.346 57.2284 39.1753 57.0049 39.04 56.76C39.0199 56.7156 39.0142 56.6659 39.0238 56.6181C39.0334 56.5703 39.0577 56.5266 39.0933 56.4933C39.75 55.9167 40.11 55.59 40.3967 55.2267C40.61 54.96 40.7733 54.66 40.9633 54.1767C41.3633 53.17 42.2733 51.29 44.09 50.3167C44.7611 49.9367 45.4989 49.6889 46.2633 49.5867C46.5967 49.5533 46.8733 49.5933 46.9733 49.8533C47.01 49.9633 47.1033 50.2033 47.16 50.38C47.1967 50.4867 47.17 50.57 47.0433 50.6167C45.9767 51.0233 44.9 51.6533 44.16 52.65C43.3167 53.7767 43.09 55.1367 43.6533 55.9167C44.0633 56.4833 44.7267 56.5833 45.3667 56.38C46.3333 56.0733 47.16 55.17 47.5867 54.17C48.0467 53.0733 48.12 51.78 47.78 50.64C47.7267 50.4433 47.7767 50.2933 47.9033 50.1867C48.16 49.9767 48.5167 49.8133 48.62 49.76C48.7218 49.7056 48.8401 49.6908 48.9521 49.7185C49.0642 49.7462 49.162 49.8144 49.2267 49.91C49.58 50.4333 49.77 51.17 49.7933 51.9333C49.8133 52.0967 49.88 52.1 49.96 52.0167C50.5933 51.3433 51.18 50.6233 51.8533 50.0833C52.47 49.5933 53.26 49.1933 53.9967 49.21C54.95 49.23 55.4233 49.8767 55.3933 51.03C55.39 51.1767 55.4933 51.1633 55.5633 51.0667C55.7843 50.7348 56.054 50.4381 56.3633 50.1867C57.0233 49.6433 57.6967 49.4 58.4 49.4467C59.2667 49.5133 59.96 50.3033 59.8167 51.2033C59.7821 51.488 59.6787 51.76 59.5156 51.9957C59.3524 52.2315 59.1342 52.424 58.88 52.5567C58.6662 52.6705 58.4232 52.7174 58.1824 52.6913C57.9416 52.6651 57.7143 52.5671 57.53 52.41C57.3871 52.2749 57.2824 52.1046 57.2262 51.9162C57.17 51.7278 57.1644 51.5279 57.21 51.3367C57.2267 51.2533 57.12 51.1767 57.03 51.27C56.1833 52.15 56.12 53.29 56.6733 53.8033C57.2833 54.37 58.2 53.99 58.8667 53.5533C60.0867 52.7567 61.0333 51.6767 62.13 50.8433C62.8567 50.29 63.6867 49.7967 64.6167 49.6733C65.1275 49.5952 65.65 49.6551 66.13 49.8467C66.7967 50.1167 67.2167 50.68 67.27 51.1667C67.2833 51.31 67.39 51.3267 67.48 51.2C68.0067 50.38 70.83 46.1433 71.0633 45.7C71.13 45.5633 71.21 45.5433 71.36 45.5433H73.38C73.4967 45.5433 73.55 45.61 73.5 45.7ZM65.7667 53.0467C65.746 53.0881 65.7424 53.136 65.7567 53.18C65.7667 53.2467 65.8567 53.3133 65.9433 53.3467C65.9767 53.3567 65.9933 53.38 65.9567 53.4533C65.7067 53.9867 65.48 54.2933 65.1667 54.7567C64.8898 55.1661 64.5527 55.5313 64.1667 55.84C63.5733 56.33 62.7533 56.8633 62.0733 56.5067C61.7733 56.35 61.64 55.9267 61.65 55.5867C61.6633 54.6267 62.09 53.64 62.88 52.67C63.84 51.4867 64.9033 50.8733 65.6 51.21C66.32 51.5533 66.0933 52.3933 65.7667 53.0467ZM45.9367 46.7767C45.9116 46.5637 45.9385 46.3478 46.0152 46.1475C46.0918 45.9472 46.2158 45.7685 46.3767 45.6267C46.5667 45.46 46.82 45.42 46.9767 45.5533C47.15 45.7033 47.0667 46.0767 46.89 46.3333C46.6981 46.6223 46.408 46.832 46.0733 46.9233C46.0133 46.9367 45.96 46.91 45.9367 46.7767ZM50 35C27.8 35 10 41.6567 10 50C10 58.2933 27.9433 65 50 65C72.0567 65 90 58.2667 90 50C90 41.7333 72.0567 35 50 35ZM50 63.6933C28.83 63.6933 11.6667 57.5667 11.6667 50.0067C11.6667 42.4433 28.8333 36.3167 50 36.3167C71.1667 36.3167 88.3267 42.4433 88.3267 50.0067C88.3267 57.5667 71.1667 63.6933 50 63.6933Z" fill="black"/>
</svg>
