<?xml version="1.0" encoding="UTF-8" standalone="no"?>
<!-- Created with Inkscape (http://www.inkscape.org/) -->

<svg
   version="1.1"
   id="svg2"
   width="1200"
   height="121.905"
   viewBox="0 0 1200 121.905"
   xmlns="http://www.w3.org/2000/svg"
   xmlns:svg="http://www.w3.org/2000/svg">
  <defs
     id="defs6" />
  <g
     id="g8"
     transform="translate(0,16)">
    <path
       style="fill:#ffffff;stroke-width:1.00525"
       d="M 1.2862597,45.797038 V 8.4075676 H 66.352001 c 44.696199,0 65.697779,0.34182 67.084649,1.09186 3.68947,1.9953304 4.85117,7.0136904 4.82764,20.8546304 -0.018,10.567829 -0.37277,13.697643 -1.95111,17.211401 -1.06103,2.362106 -2.06365,4.39925 -2.22804,4.526989 -0.16439,0.127738 -26.62389,0.468791 -58.79888,0.757894 l -58.5,0.525644 -0.276733,14.905264 -0.276733,14.905263 H 8.7595267 1.2862597 Z M 121.82828,34.252988 c 1.45102,-2.23784 1.45079,-2.71771 -0.003,-5.5579 l -1.59039,-3.10858 H 68.26058 16.28626 v 5.5579 5.55789 h 51.976947 51.976933 z m 36.57484,47.285667 c -4.69927,-3.326147 -5.11687,-6.327016 -5.11687,-36.769869 0,-30.120368 0.38262,-32.853538 4.94461,-35.3207384 2.65227,-1.4344 123.45851,-1.4344 126.11078,0 1.05815,0.5722604 2.71607,2.5049004 3.68426,4.2947404 1.56188,2.88735 1.76035,6.44435 1.76035,31.548987 0,25.006613 -0.2027,28.669266 -1.74429,31.517606 -3.64067,6.726744 0.0191,6.377132 -66.75571,6.377132 -54.36517,0 -60.79297,-0.16844 -62.88313,-1.647858 z M 271.8317,63.527183 c 2.39554,-2.420751 2.45455,-2.858055 2.45455,-18.189474 0,-14.361721 -0.17154,-15.882441 -2,-17.730141 -1.94655,-1.96705 -3.33333,-2.02106 -51.89301,-2.02106 -44.57341,0 -49.95773,0.17043 -50.5,1.59844 -0.33385,0.87914 -0.60699,9.26599 -0.60699,18.637437 0,16.462069 0.0753,17.092263 2.22251,18.61209 1.93632,1.370531 8.38042,1.57309 50.04545,1.57309 h 47.82295 z M 304.28625,45.797038 V 8.4075676 h 65.54775 65.54775 l 2.33009,2.5406704 c 1.28155,1.39738 2.61007,3.95527 2.95225,5.68422 0.97747,4.93879 0.71644,24.233674 -0.3819,28.229093 -1.20115,4.369447 -4.55227,7.729177 -8.15991,8.180883 l -2.66396,0.333552 4.21802,10.610527 c 2.31991,5.835789 4.97756,12.543158 5.90587,14.905263 l 1.68785,4.294737 h -8.38362 -8.38362 L 418.58646,68.28125 412.6701,53.375986 365.97818,53.113362 319.28625,52.850738 v 15.167888 15.167887 h -7.5 -7.5 z m 119.17126,-10.76715 c 2.07675,-1.89921 2.42198,-6.41863 0.62874,-8.23074 -0.90245,-0.91195 -14.04444,-1.21264 -53,-1.21264 h -51.8 v 5.5579 5.55789 h 51.17126 c 46.21207,0 51.34849,-0.16208 53,-1.67241 z m 31.82874,39.061888 v -9.094737 h 58.32569 58.32568 l 2.17432,-2.338814 c 2.65471,-2.85556 2.78373,-5.88536 0.34557,-8.115093 -1.65496,-1.513483 -7.05042,-1.672409 -56.77749,-1.672409 -49.18216,0 -55.19308,-0.172935 -57.2769,-1.647858 -4.03477,-2.855811 -5.11687,-7.315655 -5.11687,-21.088987 0,-13.60552 1.18635,-18.6533 4.8496,-20.6344504 1.38687,-0.75004 22.38845,-1.09186 67.08466,-1.09186 h 65.06574 v 8.5894704 8.58947 H 532.8093 473.33236 l -1.71357,2.64276 c -1.53715,2.37068 -1.56135,2.91688 -0.23508,5.30527 l 1.47849,2.6625 56.46202,0.50526 c 31.05412,0.2779 57.07139,0.90242 57.81616,1.387831 3.44987,2.248484 5.1016,8.974939 5.11833,20.843752 0.0188,13.34834 -1.08087,18.461511 -4.69937,21.85032 l -2.56514,2.402312 h -64.85397 -64.85398 z m 155.52404,6.684583 c -4.12398,-4.167393 -4.66508,-8.892065 -4.33315,-37.835464 0.33686,-29.374047 0.59119,-30.706257 6.37019,-33.3670574 1.82984,-0.84251 20.28686,-1.16627 66.48597,-1.16627 h 63.95295 v 8.5894704 8.58947 h -58.97432 -58.97432 l -1.52568,2.9814 c -1.77906,3.47655 -2.19778,28.448028 -0.55043,32.826503 l 0.97525,2.592102 h 59.52475 59.52475 v 9.6 9.6 H 678.2408 613.19534 Z m 151.16607,-0.199648 c -4.09693,-4.140058 -4.85344,-10.612654 -4.50377,-38.533904 0.34244,-27.343869 0.8421,-29.921589 6.28572,-32.4279794 1.94557,-0.89579 19.12171,-1.20726 66.57499,-1.20726 h 63.95295 v 8.5894704 8.58947 H 835.23522 776.1842 l -1.44898,3.50439 c -1.69624,4.10241 -2.04842,28.118133 -0.47372,32.303513 l 0.97525,2.592102 h 59.52475 59.52475 v 9.6 9.6 H 829.42261 764.55898 Z M 908.28625,45.797038 V 8.4075676 h 8 8 v 14.1473604 14.14737 h 53 53.00005 V 22.554928 8.4075676 h 8 8 V 45.797038 83.186513 h -8 -8 V 68.028618 52.870723 h -53.00005 -53 v 15.157895 15.157895 h -8 -8 z m 152.00005,0 V 8.4075676 h 68.5 68.5 v 8.5894704 8.58947 h -61 -61 v 5.5579 5.55789 h 61 61 v 8.076386 8.076384 l -60.75,0.260459 -60.75,0.260459 v 5.557895 5.557895 l 60.75,0.260459 60.75,0.260459 v 9.08691 9.086909 h -68.5 -68.5 z"
       id="path170" />
  </g>
</svg>
