<?xml version="1.0" encoding="UTF-8" standalone="no"?>
<!-- Created with Inkscape (http://www.inkscape.org/) -->

<svg
   version="1.1"
   id="svg2"
   width="2560"
   height="630"
   viewBox="0 0 2560 630"
   xmlns="http://www.w3.org/2000/svg"
   xmlns:svg="http://www.w3.org/2000/svg">
  <defs
     id="defs6" />
  <g
     id="g8">
    <path
       style="fill:#000000"
       d="m 1559.5156,610.40743 c -25.0323,-5.60309 -43.8004,-19.5125 -57.8955,-42.90743 -3.8417,-6.37631 -4.5954,-11.26527 -2.4596,-15.95295 1.0337,-2.26879 1.7468,-2.54705 6.5267,-2.54705 5.0161,0 5.7923,0.35149 11.8998,5.3893 12.78,10.54148 27.9589,16.45342 39.2518,15.28788 13.4904,-1.39232 22.2851,-9.38495 31.3047,-28.44955 10.3277,-21.82977 27.6168,-63.81292 26.6638,-64.74779 -0.169,-0.16581 -3.602,0.80502 -7.6289,2.15739 -23.3624,7.84587 -41.3095,4.52948 -55.0652,-10.17532 -6.5251,-6.97535 -13.5747,-20.00228 -16.6201,-30.71191 -0.8992,-3.1625 -2.1656,-5.74832 -2.8141,-5.74626 -1.9666,0.006 -6.8134,3.32233 -25.9003,17.72029 -35.2505,26.59084 -51.8634,35.5933 -70.5825,38.24814 -13.9548,1.97916 -23.825,-1.49909 -34.4957,-12.15631 -9.9421,-9.92955 -13.7005,-19.7243 -13.7005,-35.70512 0,-26.49669 18.2554,-56.40494 51.3031,-84.05127 9.6245,-8.05138 12.387,-11.9014 10.7435,-14.97243 -1.1116,-2.07703 -2.4855,-2.34303 -23.5466,-4.55888 l -13,-1.36774 -4.1389,2.39684 c -2.2764,1.31827 -9.6419,6.56967 -16.3677,11.66979 l -12.2287,9.27295 -4.7068,13.5 c -15.286,43.84257 -39.2291,80.49457 -64.2144,98.29876 -8.3166,5.92635 -21.1895,11.95161 -30.3336,14.19789 -8.8277,2.16855 -31.3828,2.22167 -39.5246,0.0931 -13.3791,-3.49777 -16.8434,-5.43243 -25.8927,-14.45944 -14.9288,-14.89223 -20.3262,-29.18895 -20.4357,-54.13029 -0.059,-13.41355 0.484,-18.17938 3.987,-35 0.2863,-1.375 -2.6632,3.07739 -6.5545,9.8942 -31.0726,54.43298 -64.0494,84.48777 -105.0894,95.77776 -8.2475,2.26886 -36.288,2.19592 -48.4234,-0.12595 -21.6639,-4.14498 -34.2859,-16.578 -36.7936,-36.24254 -2.0181,-15.82476 -3.33397,-16.016 -21.4084,-3.11135 -42.97598,30.68369 -71.27766,42.87502 -92.63623,39.90432 -13.3173,-1.85227 -21.5463,-6.97313 -26.5251,-16.50642 C 859.82203,466.01133 859.557,464.4452 859.57503,455 l 0.02,-10.5 20.05906,-41.5 c 11.03249,-22.825 21.2486,-43.94672 22.70247,-46.93715 2.95022,-6.06822 3.3165,-8.86733 1.26346,-9.65516 -3.25014,-1.24719 -28.98455,10.39557 -41.12005,18.60355 -11.93528,8.07255 -16.30701,13.62707 -26.05088,33.09907 -20.00298,39.97367 -38.91405,74.11593 -44.26059,79.90859 l -2.68853,2.91286 -28.5,0.65677 -28.5,0.65678 -2.47827,-2.68009 -2.47827,-2.68008 32.73864,-64.83377 c 20.86185,-41.31364 32.51052,-65.42821 32.10984,-66.47237 -0.7253,-1.8901 -1.61755,-1.70072 -11.9007,2.52597 -9.50827,3.90818 -20.6545,10.60759 -28.49934,17.12942 -10.62069,8.82956 -16.51333,17.70984 -31.36377,47.26561 -16.37923,32.5984 -28.28433,54.7909 -33.45992,62.37323 l -3.84076,5.62677 -28.41373,0.61513 C 622.4355,481.81826 622,481.73793 622,475.04437 c 0,-3.10019 2.81544,-9.20627 13.59994,-29.49532 C 647.8666,422.47159 650.08721,417 647.18642,417 c -2.07485,0 -14.35678,8.99406 -38.18642,27.96391 -26.39365,21.01096 -39.90979,30.98017 -50.89399,37.5383 -10.80199,6.44933 -27.59451,7.13588 -36.85108,1.50663 C 514.33159,479.7985 510,470.33497 510,459.41939 c 0,-6.83909 -1.92039,-6.68009 -9.86771,0.817 -12.84506,12.11738 -29.0798,21.95209 -41.6367,25.22274 -6.88289,1.79277 -21.23445,2.01865 -26.97633,0.42458 -9.24225,-2.56585 -17.16666,-11.14643 -25.28962,-27.38371 -2.20117,-4.4 -4.8952,-9.10233 -5.98674,-10.44963 -1.8742,-2.31333 -2.11699,-2.36163 -4.36376,-0.86803 -1.30853,0.86988 -5.52914,4.38678 -9.37914,7.81534 -17.07807,15.20859 -30.65031,25.11167 -38.50724,28.09707 C 343.00115,484.99141 327.66645,487 318.17788,487 c -5.63897,0 -6.45095,-0.34649 -18.28942,-7.8045 -6.81365,-4.29248 -18.51711,-11.91105 -26.00769,-16.93016 -7.49058,-5.01911 -15.14526,-9.41193 -17.01041,-9.76184 -4.0956,-0.76834 -7.74313,0.50628 -12.6732,4.42862 -17.4972,13.92069 -66.743,30.87081 -106.69716,36.72453 -18.20346,2.667 -47.677492,2.41148 -61.422533,-0.53249 -25.688972,-5.50219 -42.671718,-16.48498 -53.379723,-34.52082 -3.737221,-6.29472 -4.188105,-7.73044 -4.109879,-13.08687 0.312617,-21.40608 26.940862,-51.53699 60.015021,-67.90937 39.772844,-19.68835 88.614104,-22.87858 144.735004,-9.45385 7.06084,1.68904 13.1823,2.68302 13.60325,2.20886 1.41439,-1.59319 64.13681,-124.24843 96.83443,-189.36211 20.35093,-40.52663 34.34116,-67.19946 37.64049,-71.76285 13.25642,-18.335272 30.68163,-35.736801 50.93445,-50.865215 11.78586,-8.803785 20.88735,-13.598986 39.6396,-20.884471 70.87265,-27.5349137 133.88208,-25.582334 175.04156,5.424308 9.11854,6.869262 22.69539,21.285674 24.9086,26.448888 1.01651,2.37142 2.88154,8.322898 4.14451,13.225506 2.88825,11.211673 3.14551,29.250854 0.56745,39.790154 -8.13897,33.27275 -37.68082,62.81719 -75.74782,75.75448 -7.83383,2.66238 -11.34725,3.27224 -21.03785,3.65177 -13.3078,0.5212 -28.48267,-0.9852 -39.07494,-3.87895 -12.90809,-3.52642 -35.74607,-16.0154 -37.46157,-20.4859 -0.98765,-2.57377 2.53225,-5.13042 8.74662,-6.35302 16.40489,-3.22747 44.22103,-14.82007 56.38101,-23.49725 12.82599,-9.15243 21.96496,-20.72072 25.55708,-32.35066 3.75416,-12.15457 1.97281,-30.48019 -4.12466,-42.432219 C 576.87864,66.88163 569.37504,60.083395 562.11206,56.677736 553.82497,52.791862 540.20743,51.85711 528.8731,54.396108 512.09546,58.154461 489.03678,69.914718 479.32184,79.667965 465.26605,93.779175 440.53751,136.2953 413.98646,192 c -6.94702,14.575 -35.94164,70.96563 -64.43251,125.31251 l -51.80156,98.81251 1.8738,3.65416 c 3.19315,6.22704 17.32491,19.85127 23.54405,22.69848 8.13721,3.72534 15.51008,4.84511 23.06152,3.50251 13.74824,-2.44435 23.97221,-9.23705 44.22143,-29.38028 L 404.62727,402.5 412.21623,387 c 12.83536,-26.21544 25.32356,-44.23177 42.46164,-61.25805 25.95064,-25.78134 52.73223,-38.8252 79.82213,-38.87705 17.36118,-0.0332 28.12446,3.81993 38.611,13.82238 l 5.71888,5.4549 5.83506,-9.60407 5.83506,-9.60407 29.6682,0.28298 c 16.3175,0.15564 30.02,0.63548 30.45,1.06631 1.19728,1.19963 0.92885,7.76054 -0.34986,8.55083 -2.77056,1.7123 -62.46241,118.47429 -62.63634,122.52163 -0.0957,2.22647 0.36629,3.17393 1.67875,3.44301 1.17197,0.24028 17.57565,-11.49794 46.5,-33.27472 L 680.5,355.87811 l 7.80736,-14.18906 c 4.29405,-7.80398 11.21439,-20.93642 15.37854,-29.18319 4.16414,-8.24678 9.3764,-17.65247 11.58279,-20.90152 l 4.01161,-5.90737 16.51956,0.65152 C 744.88562,286.70682 758.83372,287 766.79564,287 h 14.47621 l -0.5853,4.27024 c -0.32192,2.34862 -2.64842,9.60829 -5.17,16.13259 -2.52158,6.52429 -4.38762,12.05944 -4.14674,12.30031 0.24088,0.24088 11.61871,-6.85944 25.28408,-15.77848 13.66536,-8.91905 26.83013,-16.8258 29.25504,-17.57055 6.01963,-1.8488 19.63111,-1.73017 25.35746,0.22099 10.0341,3.41896 18.42052,14.7114 20.92431,28.1749 0.63927,3.4375 1.46595,6.25 1.83707,6.25 1.94498,0 25.95167,-13.83691 54.79398,-31.582 6.14613,-3.78137 13.82315,-5.00229 26.14393,-4.15781 C 973.72669,286.5461 984,297.34971 984,315.79322 c 0,8.99529 -4.74838,20.44751 -24.75591,59.70678 -24.41716,47.91196 -31.48057,62.30165 -31.09394,63.34513 0.61166,1.65082 53.93275,-28.81877 73.34985,-41.91474 17.3244,-11.68453 11.0437,-1.73123 56.7476,-89.93039 11.8277,-22.825 35.0902,-67.825 51.6944,-100 16.6043,-32.175 31.3101,-59.5125 32.6796,-60.75 2.4689,-2.23098 2.7509,-2.25 33.3627,-2.25 33.1544,0 34.0157,0.13071 34.0157,5.16214 0,1.1106 -15.3699,32.42457 -34.1553,69.5866 l -34.1552,67.56732 7.1925,-0.66848 c 28.7762,-2.67446 39.3051,-1.85489 46.9798,3.65689 11.0569,7.94078 15.0372,17.70532 15.8754,38.94553 l 0.5425,13.75 5.1102,-0.0153 c 2.8105,-0.008 5.6552,-0.36172 6.3214,-0.78511 0.6662,-0.42339 2.9739,-3.49691 5.1283,-6.83005 8.2506,-12.76535 25.3202,-26.93083 44.559,-36.97804 29.79,-15.55743 57.4892,-18.52859 77.7234,-8.33704 11.3508,5.71714 22.5185,19.35109 27.252,33.27018 0.7194,2.11557 -1.3833,3.59319 20.2667,-14.24143 7.6226,-6.27923 16.3343,-13.02923 19.3593,-15 l 5.5,-3.5832 15.5,-0.34702 c 8.525,-0.19086 37.6577,-0.025 64.7393,0.36857 l 49.2393,0.71559 -0.6132,2.63143 c -1.4097,6.04934 -7.7701,24.89833 -11.0273,32.67939 l -3.5059,8.37508 -11.2968,6.01556 c -38.6986,20.60698 -66.2093,45.47696 -73.6156,66.54924 -2.5331,7.2072 -2.6187,19.63549 -0.1682,24.44108 8.2835,16.245 29.7978,7.8559 74.4512,-29.03079 l 14.7028,-12.1455 6.517,-13.12632 c 12.2982,-24.77059 25.1358,-43.19945 41.5631,-59.66529 16.2475,-16.28568 32.6763,-26.21287 50.6854,-30.62701 8.9812,-2.20135 31.9887,-2.23845 41.8928,-0.0676 8.6589,1.89796 15.6328,5.08405 19.4218,8.87313 1.5733,1.57323 3.1568,2.86042 3.5191,2.86042 0.3622,0 2.5807,-1.575 4.9299,-3.5 l 4.2713,-3.5 h 31.647 31.647 v 3.30814 c 0,2.35556 -5.0593,12.89376 -17.5698,36.59701 -9.6633,18.30887 -17.3275,33.92021 -17.0313,34.69186 0.2961,0.77164 1.2141,1.40299 2.04,1.40299 0.8259,0 17.434,-11.93289 36.907,-26.51753 l 35.4055,-26.51753 42.7591,-81.23247 c 23.5176,-44.67786 43.6769,-82.24497 44.7987,-83.48247 2.0293,-2.23886 2.1893,-2.25 32.3084,-2.25 29.7124,0 30.2963,0.039 31.7548,2.12132 1.0009,1.42898 1.2143,2.83541 0.654,4.3093 -2.2429,5.89911 -66.1426,129.56932 -70.6836,136.79951 -2.2241,3.54116 -3.053,6.76987 -1.7381,6.76987 0.3326,0 7.6451,-2.51823 16.25,-5.59607 12.8311,-4.58949 17.1742,-5.69089 24.1453,-6.1232 28.1572,-1.74617 47.4034,16.90349 41.9336,40.63373 -0.5597,2.42796 -12.6987,27.05383 -26.9756,54.72416 -14.2769,27.67033 -25.958,50.92658 -25.958,51.68055 0,2.10843 3.3746,4.68083 6.1406,4.68083 2.4337,0 44.5204,-23.71087 58.3459,-32.87106 l 6.9865,-4.62894 27.7199,-53.5 27.7199,-53.5 3.7936,-0.34614 c 2.0865,-0.19038 17.4061,-0.0262 34.0436,0.36487 l 30.25,0.711 v 2.48358 c 0,1.36597 -16.0497,33.54554 -35.666,71.51016 -37.2956,72.18034 -37.3511,72.30883 -31.2026,72.25616 1.5567,-0.0133 19.0187,-12.55716 50.5591,-36.31907 l 48.181,-36.29869 13.2056,-24.68093 c 27.2752,-50.97688 28.0466,-52.32321 29.3565,-51.23609 0.768,0.63742 12.7424,1.12555 31.6509,1.29024 L 2258.5,292.5 l 0.3183,2.24019 c 0.175,1.2321 -1.7089,6.5196 -4.1866,11.75 -2.4777,5.2304 -4.031,9.50981 -3.4518,9.50981 0.5792,0 10.1132,-4.491 21.1866,-9.98 25.9972,-12.88658 35.8459,-16.24857 49.1335,-16.77238 9.4017,-0.37062 10.3291,-0.22528 15.5,2.42909 3.9364,2.02063 6.4557,4.24478 8.8615,7.82329 3.2265,4.79914 3.3402,5.28872 2.8319,12.18685 -0.717,9.72921 -3.5719,16.24099 -34.465,78.61195 -26.382,53.26338 -26.8876,54.5355 -22.051,55.4899 0.8046,0.15878 16.0564,-6.8454 33.8928,-15.56485 l 32.4298,-15.85354 28.9267,-56.43516 c 15.9097,-31.03933 30.4764,-58.34765 32.3705,-60.68515 l 3.4437,-4.25 h 32.8444 c 32.4144,0 32.8591,0.0277 33.9761,2.11464 0.9269,1.73207 0.6812,2.95323 -1.3585,6.75 -1.3696,2.54945 -17.8595,34.26338 -36.6443,70.47541 -26.796,51.65575 -33.9089,66.13545 -33.016,67.21127 1.7534,2.11268 4.6558,2.68047 7.0773,1.38449 1.2075,-0.64624 16.1597,-11.30562 33.227,-23.68751 l 31.0316,-22.51252 7.2711,7.88211 c 3.9991,4.33516 7.2593,8.33211 7.2449,8.88211 -0.061,2.34462 -47.4635,38.3131 -70.8631,53.77045 -17.0436,11.25862 -39.0194,22.73077 -47.1706,24.62465 -5.0104,1.16415 -17.0372,0.15125 -20.5544,-1.7311 -3.2007,-1.71298 -9.3863,-9.09041 -11.3568,-13.54501 -1.0038,-2.2692 -2.5647,-8.17428 -3.4686,-13.1224 -0.904,-4.94813 -1.8406,-10.00909 -2.0814,-11.24659 -0.2619,-1.34646 -1.1668,-2.25 -2.2534,-2.25 -2.3618,0 -12.6989,5.05937 -28.7594,14.07595 -18.9022,10.61194 -41.0441,21.24801 -51.0845,24.53894 -10.9739,3.59688 -25.4403,4.05594 -31.3023,0.99332 -10.4748,-5.47259 -14.5551,-13.57567 -14.4054,-28.60821 0.1627,-16.34592 3.1969,-24.0663 25.9393,-66 19.7964,-36.50196 25.4277,-48.43845 23.6773,-50.18878 -1.4122,-1.41225 -15.8902,2.92054 -24.1933,7.24027 -9.2589,4.81699 -19.9277,13.46775 -25.2619,20.4835 -2.0762,2.73076 -13.2091,23.64001 -24.7397,46.46501 -21.7948,43.14305 -28.8649,56.22636 -34.7203,64.25 l -3.4663,4.75 h -28.4603 -28.4603 l -2.4546,-2.45455 c -1.35,-1.35 -2.4545,-2.89739 -2.4545,-3.43866 0,-0.54126 5.625,-12.32503 12.5,-26.18616 C 2121.6063,429.51242 2123.06,426 2121.0556,426 c -0.5194,0 -10.5319,7.67414 -22.25,17.05364 -42.7617,34.22775 -65.2618,46.44392 -87.8325,47.68764 -8.3446,0.45981 -10.0424,0.264 -13.6444,-1.57357 -8.6832,-4.42987 -17.0551,-18.02887 -18.2589,-29.65925 -0.6195,-5.98555 -2.1939,-9.50846 -4.2494,-9.50846 -0.5141,0 -7.5465,3.66706 -15.6276,8.14902 -21.0079,11.65153 -50.9854,26.28462 -59.9908,29.28371 -17.9897,5.99111 -34.5937,0.8971 -40.5247,-12.43273 -2.3756,-5.33925 -2.6785,-15.69546 -0.6997,-23.92159 0.722,-3.0015 13.0692,-29.11482 27.6605,-58.5 17.971,-36.19165 26.3571,-54.1012 26.359,-56.29323 0,-2.27126 -0.6302,-3.55365 -2.1542,-4.36928 -1.8354,-0.98226 -3.3321,-0.54372 -10.0333,2.9399 -21.7552,11.30936 -38.5663,25.17049 -48.0761,39.63975 -3.2517,4.94755 -15.9622,29.02255 -28.2454,53.5 -12.2833,24.47745 -24.1583,47.31695 -26.3889,50.75445 l -4.0556,6.25 -21.2718,-0.0989 c -11.6995,-0.0544 -23.7468,-0.39189 -26.7718,-0.75 -5.4739,-0.64802 -5.5014,-0.66846 -5.8053,-4.31624 -0.3456,-4.149 1.2526,-7.59326 17.0922,-36.83486 5.5115,-10.175 13.6744,-25.925 18.1397,-35 10.9366,-22.22685 13.7237,-31.23762 10.093,-32.63085 -1.6631,-0.63819 -44.2401,30.92498 -64.5196,47.82967 l -12.5,10.4198 -13.1888,26.44069 c -18.3461,36.78008 -55.2137,105.52624 -61.3613,114.41908 -6.4384,9.3134 -20.6353,23.06924 -28.6674,27.77676 -14.5883,8.54992 -30.2492,11.40185 -44.7669,8.15228 z M 1263.8524,447.93824 c 9.758,-2.09272 12.9664,-5.16646 21.9894,-21.06675 4.4855,-7.90432 16.9876,-31.875 27.7824,-53.26817 l 19.627,-38.89668 -0.5193,-5.72618 c -0.2855,-3.1494 -1.2717,-6.87473 -2.1915,-8.2785 -2.1129,-3.22467 -6.864,-4.91311 -11.4719,-4.07687 -4.4891,0.81468 -12.0704,4.57393 -14.151,7.01682 -0.8704,1.02195 -5.6688,10.04288 -10.6631,20.0465 -4.9944,10.00363 -17.2137,33.63381 -27.154,52.51151 -19.0795,36.23395 -20.7165,40.48424 -18.0616,46.89381 0.7673,1.85248 2.5698,3.69812 4.3823,4.48735 3.8025,1.6557 4.2974,1.67265 10.4313,0.35716 z m -182.1105,-2.05532 c 2.4053,-1.16439 6.5677,-4.20189 9.2498,-6.75 4.3366,-4.11987 7.77,-10.35969 31.0046,-56.34649 27.0885,-53.61455 28.0773,-56.04329 25.0899,-61.62544 C 1145.5101,318.21608 1140.8554,316 1136.246,316 c -4.5736,0 -12.8178,3.87997 -16.452,7.74276 -1.4267,1.51648 -12.8146,22.78224 -25.3065,47.25724 -12.4918,24.475 -23.9942,46.82457 -25.5609,49.66571 -3.4891,6.32724 -6.9266,16.29272 -6.9266,20.08024 0,1.54497 0.7005,3.80917 1.5567,5.03154 1.3207,1.88551 2.4858,2.22251 7.6843,2.22251 4.1967,0 7.5056,-0.66711 10.5009,-2.11708 z m 535.5432,-3.80782 c 11.9044,-5.73412 14.4861,-8.65869 26.5489,-30.0751 28.005,-49.72027 36.9739,-68.01936 38.4874,-78.5252 0.9937,-6.89727 0.92,-7.67591 -0.9669,-10.22043 -6.6185,-8.9251 -20.0886,-9.52448 -31.8545,-1.41744 -4.986,3.43552 -5.8571,5.00401 -34.6026,62.31123 C 1595.067,423.68202 1592,430.40641 1592,434.35111 c 0,5.4813 1.4813,9.06051 4.3641,10.54484 3.6688,1.88905 14.0483,0.48955 20.921,-2.82085 z M 128.75198,439.512 c 25.13592,-5.30714 44.37755,-13.71362 54.99802,-24.0281 3.4375,-3.33846 6.25,-6.77066 6.25,-7.62711 0,-1.16641 -3.19964,-2.3335 -12.75,-4.65066 -18.38835,-4.46149 -28.53166,-5.5308 -46.86095,-4.94011 -18.5666,0.59833 -24.80919,1.97275 -38.38905,8.45202 -8.023341,3.82813 -10.782362,5.82775 -17.75,12.86442 -4.5375,4.58246 -8.25,9.07105 -8.25,9.97464 0,0.9036 1.477948,3.12085 3.284329,4.92723 3.874791,3.87479 8.87656,5.1428 25.215671,6.39247 18.12543,1.38629 21.94246,1.23419 34.25198,-1.3648 z m 365.08396,-7.92887 c 9.61941,-4.87452 23.99536,-17.7385 35.32061,-31.60583 2.0111,-2.46252 8.0503,-12.3523 13.42045,-21.9773 20.79977,-37.27975 25.18736,-50.81984 19.82692,-61.1858 -3.82078,-7.38856 -14.83392,-8.02204 -29.90392,-1.72009 -6.45477,2.69925 -7.42012,3.51557 -12.39377,10.4804 -2.96657,4.15423 -8.42667,12.59655 -12.13356,18.7607 -10.04281,16.70014 -34.67601,63.92672 -36.43708,69.85692 -5.51513,18.57142 4.52283,26.39956 22.30035,17.391 z M 2117.9888,235.12833 c -24.7225,-7.91362 -37.2861,-33.98139 -27.1662,-56.3664 C 2097.507,163.97612 2112.0779,155 2129.3952,155 c 24.1543,0 41.1531,14.4844 42.4064,36.13368 1.1901,20.55782 -9.8656,37.48724 -28.603,43.79941 -7.5824,2.55432 -17.5976,2.63189 -25.2098,0.19524 z m 369.3632,-0.18946 c -11.7311,-3.71852 -20.8972,-12.29744 -25.5774,-23.93887 -1.7919,-4.45725 -2.2111,-7.49071 -2.2111,-16 0,-13.97952 2.299,-20.0375 10.849,-28.58751 8.7351,-8.73514 14.503,-10.85377 29.6394,-10.88707 11.3529,-0.025 11.6823,0.0391 19.1289,3.71937 11.1293,5.50038 18.1155,14.11212 21.2672,26.21531 7.1007,27.2684 -12.0711,51.66526 -40.448,51.47186 -3.575,-0.0244 -9.2666,-0.92125 -12.648,-1.99309 z"
       id="path170" />
  </g>
</svg>
