<?xml version="1.0" encoding="UTF-8" standalone="no"?>
<!-- Created with Inkscape (http://www.inkscape.org/) -->

<svg
   version="1.1"
   id="svg2"
   width="665.28003"
   height="150.92"
   viewBox="0 0 665.28003 150.92"
   xmlns="http://www.w3.org/2000/svg"
   xmlns:svg="http://www.w3.org/2000/svg">
  <defs
     id="defs6" />
  <g
     id="g8"
     transform="translate(0,12)">
    <path
       style="fill:#000000;stroke-width:0.24"
       d="M 9.3600004,64.916448 V 9.8328977 l 70.5000036,0.069137 70.500006,0.069137 2.22763,0.5172473 c 7.89431,1.833024 13.70814,5.40657 17.87309,10.985926 2.43668,3.264172 3.9756,6.764582 5.03788,11.459114 0.48117,2.126458 0.50807,3.007639 0.59827,19.603637 l 0.0944,17.377094 1.14126,-2.275545 c 3.67272,-7.323024 9.30987,-12.487721 16.10743,-14.757476 l 2.04,-0.68117 32.01396,-0.06511 32.01396,-0.06511 -0.16538,-2.401148 c -0.19728,-2.864474 -0.8526,-5.584448 -1.73686,-7.209116 -0.88217,-1.62086 -2.8986,-3.462843 -4.70364,-4.29674 C 249.67744,36.673061 250.90895,36.72 215.05013,36.72 H 182.40001 V 23.28 9.84 l 39.42,2.006e-4 c 24.59081,1.251e-4 40.41312,0.09124 42.06,0.2422074 5.87345,0.538413 10.49136,1.773053 14.57506,3.89675 6.21405,3.231591 10.32643,8.350791 12.20287,15.190425 1.29562,4.722586 1.24935,3.503743 1.35053,35.570417 0.0518,16.401 0.14604,29.82 0.20947,29.82 0.0634,0 24.06137,-19.061798 53.32872,-42.359551 l 53.21336,-42.3595507 53.28,0.078112 c 55.8672,0.081905 54.5701,0.057138 59.97111,1.1451197 11.28036,2.272323 18.82104,8.130283 23.76103,18.458738 3.91008,8.175055 6.14213,20.458291 6.14676,33.826097 v 3.228962 l 1.08883,-1.766033 c 3.79361,-6.153038 8.98248,-10.26305 15.38616,-12.18712 1.30534,-0.392201 3.66766,-0.426804 33.3008,-0.48776 l 31.89581,-0.06561 -0.15641,-2.386778 c -0.20861,-3.182995 -0.52536,-4.594992 -1.48428,-6.616407 -0.99058,-2.088117 -2.85523,-3.928984 -4.96887,-4.905441 C 613.75745,36.673061 614.98896,36.72 579.13015,36.72 H 546.48002 V 23.28 9.84 l 39.42001,2.006e-4 c 24.59081,1.251e-4 40.41312,0.09124 42.06,0.2422074 14.08548,1.291204 22.90298,7.215201 26.3526,17.704886 1.83317,5.574261 1.70921,2.133444 1.78951,49.676726 l 0.0718,42.54402 -48.06696,-0.064 -48.06698,-0.064 -2.11119,-0.66219 c -4.0464,-1.26919 -7.35197,-3.29131 -10.49122,-6.41781 -3.92848,-3.91252 -7.14962,-9.64158 -8.64225,-15.370894 -0.29074,-1.116007 -0.57943,-2.191106 -0.64152,-2.389106 -0.0621,-0.198 -0.46121,0.560947 -0.88695,1.686552 -2.24167,5.927018 -5.86159,11.471988 -9.5531,14.633448 -1.59108,1.36262 -4.66675,3.428 -6.43109,4.31864 -2.16367,1.09222 -6.10039,2.37034 -9.22867,2.99623 -6.03005,1.20645 -5.97394,1.20513 -51.01402,1.20513 h -42.12 l -0.12,-42.998988 -0.12,-42.998988 -52.79607,43.062298 -52.79606,43.062298 -58.56394,-0.0633 -58.56394,-0.0633 -2.14521,-0.67205 c -7.0156,-2.19791 -12.37754,-7.00405 -16.3865,-14.68801 l -1.25216,-2.4 -0.008,8.94 -0.008,8.94 h -16.44 -16.44 V 83.905282 c 0,-35.308889 -0.0104,-36.128254 -0.47574,-37.634979 -0.92555,-2.996568 -3.12673,-5.24916 -5.99956,-6.139673 C 135.62246,39.764158 134.06053,39.72 122.28001,39.72 H 109.08 L 109.0193,79.86 108.9586,120 H 92.879303 76.800003 V 79.8 39.6 h -16.92 -16.920001 V 79.8 120 H 26.160001 9.3600004 Z M 495.32016,90.9774 c 6.77124,-2.356838 11.16605,-8.754372 12.65556,-18.422765 0.53779,-3.490917 0.54348,-11.022806 0.011,-14.474635 -1.63956,-10.62679 -6.489,-17.29266 -13.9729,-19.20672 C 492.24693,38.421403 491.28581,38.4 472.76162,38.4 h -19.4016 v 26.64 26.64 l 19.98,-0.0032 19.98,-0.0032 2.00014,-0.696178 z M 258.72001,82.32 v -8.4 l -23.1,0.0024 -23.1,0.0024 -1.2,0.573262 c -4.09669,1.957065 -5.8311,7.195488 -3.84466,11.612004 0.84594,1.880786 2.76781,3.728236 4.40139,4.230945 0.94265,0.290086 4.79907,0.348355 23.98327,0.362383 l 22.86,0.01661 z m 364.08002,0 v -8.4 l -23.1,0.0024 -23.1,0.0024 -1.2,0.569503 c -1.56672,0.743542 -3.05122,2.312285 -3.88534,4.105807 -0.5849,1.257632 -0.66972,1.728752 -0.66972,3.72 0,1.958348 0.0889,2.470284 0.62998,3.628803 1.06118,2.272068 2.83632,3.884673 5.00508,4.546766 0.33,0.100745 10.887,0.192456 23.46,0.203803 l 22.86,0.02052 z m -289.90002,37.34905 c 0.055,-0.05 7.65379,-6.74602 16.88618,-14.88 L 366.57234,90 h 21.19385 21.19383 v 14.88 14.88 h -38.08001 c -20.94399,0 -38.03499,-0.0409 -37.98,-0.091 z M 303.60001,24.72 V 9.84 h 38.21144 c 32.50824,0 38.15897,0.049459 37.86,0.331373 -0.1933,0.182255 -7.78551,6.878255 -16.87162,14.88 L 346.27967,39.6 h -21.33984 -21.33982 z"
       id="path170" />
  </g>
</svg>
