<svg width="100" height="100" viewBox="0 0 100 100" fill="none" xmlns="http://www.w3.org/2000/svg">
<circle cx="50" cy="50" r="50" fill="#EEEEEE"/>
<g clip-path="url(#clip0_152_29)">
<path d="M53.916 68.399C54.351 68.0663 55.3233 67.7337 55.8607 67.5034C55.8351 66.6846 55.5025 65.9169 55.7072 65.226C56.0654 63.9978 56.9098 63.4604 57.7287 63.3581C57.7798 63.3836 57.831 63.486 57.7798 63.5116C57.3192 63.9466 57.1401 64.5607 57.0634 65.226C57.0378 65.4819 56.9866 66.2751 57.2169 66.8381C57.7031 66.5822 58.8802 66.1728 59.264 66.096C59.3152 65.2772 59.4431 64.484 59.6734 63.8954C60.134 62.7439 61.1575 61.8227 62.1811 62.3601C62.2322 62.3857 62.2834 62.488 62.2322 62.5136C61.5925 62.7439 61.1831 63.4092 60.8249 64.1769C60.7225 64.4072 60.3643 65.6354 60.7737 65.8913C60.7737 65.8913 60.7993 65.8913 60.7993 65.9169C61.5414 65.7634 61.6693 65.8401 62.4625 65.7634C62.5905 64.9701 62.9487 64.2792 63.2558 63.7675C63.7164 62.8719 64.919 62.1554 65.9938 62.7951C66.0449 62.8207 66.0961 62.9486 66.0194 62.9486C65.2773 63.1022 64.7911 63.5884 64.5352 64.0234C64.4073 64.2281 63.7164 65.1748 64.0746 65.5587C64.1002 65.5587 64.1514 65.5587 64.2026 65.5587C64.8423 65.5331 65.3029 65.661 65.9682 65.789C66.1729 65.3028 66.352 65.2516 66.5567 64.9957C67.2988 64.1001 68.5526 63.7931 68.9876 64.6375C69.0388 64.6887 69.0388 64.791 68.9876 64.791C68.6038 64.8422 67.9641 65.0469 67.657 65.4307C67.5803 65.5075 67.3755 65.7378 67.1708 66.1728C68.0408 66.8381 68.527 67.3755 68.7573 68.2711C68.8085 68.4246 68.8853 69.3458 68.5782 68.8852C67.1708 67.1196 65.2773 66.7357 62.437 67.0172C59.3919 67.2987 57.9845 67.7593 54.9395 69.3969C56.6284 70.9067 54.0951 72.3908 53.6857 70.1646C52.2015 72.4164 50.6406 69.5761 52.6365 69.1667C50.5895 67.1707 53.3786 66.2496 53.916 68.399Z" fill="#131313"/>
<path d="M59.1104 58.6754C60.2107 58.3172 61.4134 57.9334 62.0275 57.8054C62.1299 56.0142 63.8187 53.788 65.8146 54.5557C65.8914 54.5813 65.9426 54.6836 65.8658 54.7092C65.354 54.8628 63.7164 56.4237 64.2793 57.4216C64.6887 57.4472 65.8146 57.4216 66.1473 57.4472C66.5823 55.4769 68.2967 54.0951 70.2415 54.9907C70.3182 55.0163 70.3694 55.1442 70.2926 55.1442C69.525 55.2722 67.785 56.5004 67.9897 57.5496C68.3479 57.5751 69.3203 57.9078 69.9344 58.2404C70.1647 57.7543 70.4206 57.5751 70.6509 57.3193C71.4953 56.4237 73.2353 56.3469 73.7471 57.2169C73.7983 57.2681 73.7983 57.3704 73.7471 57.3704C73.005 57.3448 72.3397 57.4472 71.7 58.0101C71.5976 58.0869 71.3929 58.394 71.1626 58.829C71.7768 59.1616 72.4677 59.8013 72.5956 60.4155C72.698 60.7225 72.7491 60.9784 72.698 61.2855C72.6724 61.3622 72.5188 61.2855 72.4677 61.2343C70.8556 59.4687 67.2988 58.3684 63.8443 58.8034C61.5413 59.0849 59.2896 59.7246 57.4216 60.5434C58.0613 59.9805 58.6243 59.3663 59.1104 58.6754ZM54.0439 62.6673C53.8904 62.8208 53.7368 62.9487 53.6089 63.1023C54.4277 64.2282 53.1227 65.1238 52.7389 63.9979C51.7665 65.047 50.9989 63.8187 51.6386 63.307C52.4574 63.179 53.2763 62.9743 54.0439 62.6673Z" fill="#131313"/>
<path d="M53.4809 77.7643C53.7112 77.5085 54.2741 77.0223 54.5556 76.792C53.6856 75.4358 54.1718 73.6958 55.0162 73.5678C55.0674 73.5934 55.093 73.6702 55.0674 73.7214C54.8371 74.054 54.7347 75.8452 55.4 76.229C55.7327 75.9987 56.3724 75.5381 56.6539 75.4614C56.1677 73.8237 57.0121 71.6231 58.6498 71.9813C58.7009 72.0069 58.7265 72.1093 58.7009 72.1349C57.3703 72.8258 57.3447 74.8728 57.703 75.1031C58.2403 74.9496 58.8289 74.7193 59.4174 74.6681C59.6733 72.4931 61.5924 71.5207 62.5648 72.0837C62.616 72.1093 62.6416 72.2372 62.616 72.2372C62.0786 71.9302 60.0571 74.0028 60.7224 74.6169C61.183 74.5914 61.7204 74.7961 62.2577 74.924C62.488 73.7213 64.1769 72.7234 64.8934 73.4911C64.9445 73.5422 64.9445 73.6446 64.919 73.6446C64.2792 73.7725 63.4348 74.3611 63.3069 75.487C64.6631 76.1267 64.5095 77.4573 64.2792 77.099C62.9998 75.4102 60.2874 75.6917 58.2148 76.1267C57.0121 76.3826 55.3233 77.534 54.6068 78.3529C56.7818 79.3764 54.8115 81.2956 53.8903 79.1205C52.3806 81.7817 50.8964 79.3508 52.662 78.6343C50.5126 76.9711 52.7388 75.8452 53.4809 77.7643Z" fill="#131313"/>
<path d="M31.5771 75.7431C29.4277 73.261 27.6109 70.5742 26.1523 67.8618H49.6938V75.7431H31.5771Z" fill="#131313"/>
<path d="M61.0295 37.2322H78.3274V44.0131H61.0295V37.2322Z" fill="#131313"/>
<path d="M78.3275 26.9456L73.2098 25.1288L67.2476 23.9262L60.5434 22.4676L54.3254 21.9814H49.5916V29.1206H78.3019L78.3275 26.9456Z" fill="#131313"/>
<path d="M25.0521 18.9364C25.743 18.7061 26.4339 18.5014 27.1503 18.2967C27.4062 18.2199 27.6621 18.1432 27.9436 18.092C28.2251 18.0408 28.5065 18.0152 28.788 18.092L28.8904 18.1432C28.9927 18.1944 29.0439 18.2711 29.0951 18.3735C29.1718 18.5526 29.1974 18.7317 29.223 18.9364C29.2742 19.3458 29.2742 19.7553 29.223 20.1647C29.1974 20.4973 29.1462 20.83 29.0183 21.1115C28.9671 21.2394 28.8904 21.3417 28.788 21.4441C28.7112 21.5209 28.6345 21.5976 28.5577 21.6488C28.3786 21.7768 28.225 21.8791 28.0203 21.9559C27.5597 22.1606 27.0992 22.3141 26.613 22.4676C25.7941 22.7491 24.9753 23.0306 24.1565 23.3121V24.8218C23.7471 24.9753 23.3376 25.1544 22.9282 25.308V19.6273C23.6447 19.397 24.3356 19.1667 25.0521 18.9364ZM24.1565 22.2885C24.9753 22.007 25.7941 21.7256 26.6386 21.4441C26.8944 21.3673 27.1503 21.2906 27.3806 21.1882L27.5597 21.0859L27.6365 21.0347L27.7133 20.9579L27.79 20.8812L27.8412 20.8044L27.918 20.6509C27.9436 20.5485 27.9692 20.4717 27.9692 20.3694C27.9948 20.1135 27.9948 19.8832 27.918 19.6273L27.8668 19.4994L27.8156 19.397L27.7389 19.3203L27.6365 19.2691L27.5342 19.2435H27.4318H27.3295C27.0736 19.2691 26.8433 19.3458 26.5874 19.4226C25.7685 19.6785 24.9497 19.96 24.1309 20.2159L24.1565 22.2885ZM34.571 16.352C35.134 16.2496 35.6713 16.1473 36.2343 16.0961C36.4134 16.0705 36.5925 16.0705 36.7716 16.0705C36.8484 16.0705 36.9507 16.0961 37.0275 16.1217C37.1043 16.1473 37.1554 16.1729 37.2322 16.224C37.2834 16.2752 37.3346 16.3008 37.3857 16.352C37.4369 16.4032 37.4625 16.4799 37.4881 16.5311C37.5393 16.6335 37.5649 16.7102 37.5649 16.8126C37.616 17.1452 37.6416 17.5035 37.6672 17.8617C37.6928 18.2711 37.6928 18.655 37.6672 19.0388C37.6672 19.1923 37.6672 19.3714 37.6416 19.525C37.616 19.832 37.616 20.1391 37.5393 20.4461C37.5137 20.5229 37.4881 20.5997 37.4625 20.6509C37.4113 20.7532 37.3602 20.8556 37.2834 20.9579L37.1299 21.1882L36.8996 21.3417C36.7972 21.3929 36.7204 21.4185 36.6181 21.4697C36.2087 21.5976 35.7993 21.6744 35.3898 21.7768C34.5454 21.9559 33.701 22.1094 32.8566 22.2885C32.4472 22.3653 32.0377 22.4421 31.6283 22.4932C31.526 22.5188 31.398 22.5188 31.2957 22.5188L31.0398 22.4932C30.963 22.4676 30.9118 22.4421 30.8607 22.4165L30.7327 22.3141L30.6304 22.1606L30.4768 21.3162V19.0388C30.5024 18.7829 30.528 18.5014 30.5792 18.2455L30.656 18.0152C30.7071 17.8873 30.7583 17.7849 30.8351 17.6826L31.0142 17.4779L31.1677 17.3499C31.3213 17.2476 31.5004 17.1452 31.7051 17.0685L32.6263 16.787C33.2148 16.6079 33.8801 16.4799 34.571 16.352ZM33.9313 17.5035L32.6007 17.8105C32.4983 17.8361 32.396 17.8873 32.2936 17.9129L32.1913 17.9896L32.0889 18.0664L32.0122 18.1432L31.9354 18.2199L31.8586 18.2967L31.8074 18.3991C31.7563 18.4758 31.7307 18.5782 31.7051 18.655C31.6283 18.9876 31.6283 19.3203 31.6283 19.6529C31.6283 20.0111 31.6283 20.3694 31.6795 20.702L31.7307 20.83L31.8074 20.9579L31.9098 21.0603L32.0122 21.137L32.1401 21.1882L32.268 21.2138H32.4216C32.5239 21.2138 32.6007 21.2138 32.6775 21.1882C33.1892 21.1115 33.701 21.0091 34.2128 20.9067C34.6222 20.83 35.0572 20.7276 35.4666 20.6253C35.5434 20.5997 35.6457 20.5741 35.7225 20.5485L35.8504 20.4717L35.9784 20.395L36.0807 20.2926L36.1831 20.1903L36.2599 20.0623L36.311 19.9344L36.3622 19.8064C36.439 19.4226 36.4134 19.0644 36.4134 18.6805C36.4134 18.4758 36.4134 18.2711 36.3878 18.092L36.3622 17.9385C36.3366 17.8361 36.311 17.7338 36.2599 17.6314L36.2087 17.5291L36.1575 17.4523L36.0807 17.3755L36.0296 17.3499L35.9272 17.2988L35.8248 17.2732L35.6201 17.2476C35.3898 17.2476 35.1851 17.2732 34.9804 17.2988C34.6222 17.3755 34.2639 17.4523 33.9313 17.5035ZM42.3755 15.4052C43.0152 15.354 43.6549 15.3029 44.2947 15.3029C44.4226 15.3029 44.5761 15.3029 44.7041 15.3029C44.8576 15.3029 44.9855 15.3284 45.1135 15.4052C45.1647 15.4308 45.2158 15.4564 45.2414 15.482C45.3438 15.5587 45.4205 15.6355 45.4717 15.7634C45.5229 15.8402 45.5485 15.9426 45.5741 16.0193C45.6253 16.224 45.6253 16.4543 45.6253 16.659C45.6253 16.9405 45.6253 17.1964 45.5997 17.4779C45.5997 17.5802 45.5741 17.6826 45.5485 17.7849L45.4973 17.8873C45.4461 17.9641 45.4205 18.0152 45.3694 18.092L45.2414 18.1944C45.1902 18.2199 45.1391 18.2711 45.0623 18.2967C44.9855 18.3223 44.8832 18.3479 44.8064 18.3735L44.1155 18.527L44.8064 18.9108C44.9088 18.9876 44.9855 19.0388 45.0623 19.1155L45.1391 19.2179C45.2414 19.3714 45.3182 19.525 45.395 19.7041C45.4973 20.0111 45.5485 20.3182 45.5485 20.6253C45.1391 20.6509 44.7297 20.6509 44.3202 20.6764C44.2947 20.4461 44.2691 20.2414 44.1923 20.0111L44.0899 19.7553L44.0388 19.6273L43.962 19.525L43.8852 19.4226L43.7829 19.3458L43.6549 19.2691C43.5782 19.2435 43.5014 19.2179 43.4246 19.2179C43.2711 19.1923 43.092 19.2179 42.9385 19.2179C42.1452 19.2691 41.3776 19.3458 40.5843 19.4226L40.2773 19.4482V20.9579C39.8678 21.0091 39.4584 21.0603 39.049 21.0859V15.7123C40.1749 15.5843 41.2752 15.482 42.3755 15.4052ZM40.3028 18.527C41.1217 18.4502 41.9405 18.3735 42.7593 18.3223C43.0408 18.2967 43.3223 18.2711 43.6038 18.2455C43.6805 18.2455 43.7573 18.2199 43.8341 18.1944L43.9364 18.1688L44.0388 18.1176L44.1155 18.0664L44.1923 17.9896L44.2435 17.9129L44.2947 17.8361C44.3202 17.7594 44.3458 17.7082 44.3458 17.6314C44.3714 17.4011 44.3714 17.1708 44.3714 16.9405C44.3714 16.8638 44.3458 16.787 44.3202 16.6846L44.2691 16.6079L44.2179 16.5311L44.1411 16.4543L44.0644 16.4032L43.9876 16.352L43.8852 16.3264C43.8085 16.3008 43.7317 16.3008 43.6549 16.3008C43.2455 16.3008 42.8361 16.352 42.4523 16.3776C41.7358 16.4287 41.0449 16.5055 40.3284 16.5567L40.3028 18.527ZM49.0029 19.7808C49.4635 19.7808 49.9241 19.7808 50.4103 19.7808C50.7174 19.7808 51.05 19.7808 51.3827 19.7553C51.4594 19.7553 51.5106 19.7297 51.5874 19.7297C51.6641 19.7041 51.7153 19.6785 51.7665 19.6529L51.8433 19.6017L51.8944 19.525L51.9456 19.4482L51.9712 19.3714L51.9968 19.1923V18.9364L51.9456 18.655L51.92 18.5782L51.8944 18.5014L51.8433 18.4247L51.7665 18.3735L51.6897 18.3223L51.5106 18.2711L51.2036 18.2199H50.8197H48.2353C47.9794 18.2199 47.7235 18.2199 47.4932 18.1688C47.4165 18.1432 47.3653 18.1432 47.3141 18.1176L47.2373 18.0664L47.1606 18.0152L47.1094 17.9641L47.0582 17.8873L47.007 17.8105C46.9559 17.7082 46.9047 17.6058 46.8791 17.5035C46.8279 17.222 46.8279 16.9149 46.8279 16.6335C46.8279 16.2752 46.8535 15.917 47.007 15.5843C47.0326 15.5331 47.0838 15.482 47.1094 15.4308C47.2885 15.2773 47.5188 15.2005 47.7491 15.1493C47.9794 15.0981 48.2353 15.0981 48.4656 15.0981C49.0285 15.0981 49.5915 15.0981 50.1544 15.0981C51.0756 15.0981 52.0224 15.1237 52.9436 15.1493V15.9682C51.7153 15.9426 50.4871 15.917 49.2588 15.917C48.9774 15.917 48.6959 15.917 48.4144 15.9426C48.3632 15.9426 48.2865 15.9682 48.2353 15.9682L48.1329 16.0193L48.0562 16.0961L48.005 16.1985L47.9794 16.3008L47.9538 16.4799C47.9538 16.6335 47.9538 16.7614 47.9538 16.9149L47.9794 17.0173L48.005 17.1196L48.0818 17.222L48.2097 17.2988L48.3376 17.3243C49.6171 17.3499 50.9221 17.3755 52.2015 17.4267L52.355 17.4523C52.5597 17.5035 52.7645 17.5802 52.918 17.7338C52.9948 17.8105 53.0459 17.8873 53.0715 17.9641C53.1995 18.2455 53.225 18.5782 53.225 18.8852C53.225 19.2435 53.225 19.6017 53.1227 19.9344C53.0971 19.9856 53.0971 20.0367 53.0715 20.0879L52.9948 20.1903C52.9436 20.267 52.8924 20.3182 52.8156 20.3694C52.6877 20.4461 52.5597 20.5229 52.4318 20.5485C52.2271 20.5997 51.9968 20.5997 51.7921 20.6253C51.1524 20.6509 50.5383 20.6509 49.8985 20.6509C48.9006 20.6509 47.9026 20.6764 46.9303 20.6764C46.9303 20.395 46.9303 20.0879 46.9303 19.8064C47.5956 19.7808 48.2609 19.7808 48.9262 19.7808H49.0029ZM57.4727 20.9067C56.961 20.8556 56.4236 20.83 55.9118 20.7532C55.6815 20.7276 55.4513 20.6764 55.2465 20.5997C55.1442 20.5485 55.0418 20.5229 54.9395 20.4461C54.8627 20.395 54.8115 20.3438 54.7348 20.2926C54.6836 20.2414 54.6324 20.1647 54.5812 20.1135C54.5301 20.0367 54.5045 19.96 54.4789 19.8832C54.4021 19.6017 54.3765 19.2947 54.3765 18.9876C54.3509 18.2455 54.3509 17.5291 54.3765 16.787V16.6079C54.4021 16.2752 54.4277 15.9426 54.6324 15.6611C54.7092 15.5843 54.7604 15.5076 54.8627 15.4564C55.1186 15.3284 55.4257 15.2773 55.7071 15.2517C56.0142 15.2261 56.2957 15.2261 56.6027 15.2517C57.1913 15.2773 57.8054 15.3029 58.3939 15.354C59.2639 15.4308 60.1084 15.5076 60.9784 15.6099V16.5823C59.8269 16.4799 58.701 16.3776 57.5495 16.3008C57.1913 16.2752 56.8074 16.2496 56.4236 16.2752L56.2445 16.3008L56.1166 16.3264L56.0142 16.3776L55.9118 16.4543L55.8095 16.5567L55.7327 16.659L55.6815 16.787C55.656 16.8638 55.6304 16.9405 55.6304 17.0173C55.5792 17.3755 55.5536 17.7594 55.5792 18.1432C55.5792 18.4502 55.5792 18.7573 55.6304 19.0644C55.656 19.1411 55.656 19.2179 55.6815 19.2947L55.7327 19.4226L55.8095 19.525L55.9118 19.6273L56.0142 19.7041L56.1166 19.7553L56.2445 19.8064C56.3469 19.832 56.4492 19.8576 56.5516 19.8576C56.8842 19.9088 57.2424 19.9344 57.5751 19.96C58.7266 20.0623 59.9037 20.1647 61.0551 20.2926C61.0551 20.5997 61.0551 20.8812 61.0551 21.1882V21.2906C60.3387 21.2138 59.5966 21.137 58.8801 21.0859C58.4451 20.9835 57.9589 20.9579 57.4727 20.9067ZM65.3028 18.4758C66.2496 18.655 67.1964 18.8341 68.1432 19.0132V16.8382C68.5782 16.9405 69.0132 17.0429 69.4738 17.1196V22.7235C69.0388 22.6212 68.6038 22.5188 68.1432 22.4165V20.2159C67.3755 20.0623 66.6334 19.9088 65.8658 19.7553C65.1749 19.6273 64.4584 19.4994 63.7675 19.3714V21.5465C63.3325 21.4697 62.8975 21.4185 62.4369 21.3417V15.8914C62.8719 15.9426 63.3325 15.9937 63.7675 16.0705V18.2199C64.2793 18.2967 64.7911 18.3735 65.3028 18.4758ZM75.3591 18.8341C75.8197 18.9876 76.2803 19.1411 76.7665 19.2947V20.2159C75.4103 19.7553 74.0285 19.3203 72.6467 18.8852L72.1862 18.7573V20.1647C73.1841 20.4717 74.2076 20.7788 75.2056 21.1115C75.6406 21.265 76.1012 21.3929 76.5362 21.5465V22.3653C75.2568 21.9303 73.9518 21.5209 72.6467 21.137L72.1862 21.0091V22.4932C73.1585 22.7747 74.1309 23.0818 75.0777 23.3888C75.6406 23.5679 76.2036 23.7727 76.7921 23.9518V24.8986C74.9497 24.2844 73.0818 23.7215 71.1882 23.1841L70.9835 23.1329V17.5035C72.442 17.9129 73.9006 18.3735 75.3591 18.8341Z" fill="#131313"/>
<path d="M22.8514 60.006C22.0326 57.268 21.5976 54.7092 21.572 52.5085H38.7163C38.7675 55.4 39.9702 58.0613 41.8637 60.006H22.8514Z" fill="#131313"/>
<path d="M20.8044 18.6805L21.1371 18.5526C30.7072 15.0214 40.2517 13.179 49.8218 12.9999C59.392 12.8464 68.9365 14.3561 78.5066 17.5802L78.8648 17.7082V18.0664C78.7881 29.5557 78.7113 41.0449 78.6345 52.5342C78.6089 58.4707 75.4871 66.8126 69.6018 74.1053C64.8679 79.9907 58.3172 85.2107 50.1289 87.9743H49.8474C41.5823 85.8504 35.0573 80.8351 30.2978 74.9753C24.2077 67.4267 21.0859 58.4195 21.0603 52.3039C21.0092 46.7512 20.9836 41.1984 20.9324 35.6713L20.8044 18.6805ZM31.961 75.4359H49.3613V68.4502H27.048C26.9713 68.3223 26.8945 68.1944 26.8433 68.0664C28.046 70.2158 29.4534 72.3397 31.0654 74.3612C31.3725 74.7194 31.654 75.0777 31.961 75.4359ZM49.3868 76.3059H32.7543C37.0532 81.0142 42.6059 84.9293 49.3868 86.8228V76.3059ZM32.3961 75.9221C32.3705 75.8965 32.3705 75.8965 32.3705 75.8709C32.3705 75.8965 32.3961 75.9221 32.3961 75.9221ZM26.5619 67.5546H49.3868V63.4349C49.566 63.4349 49.7451 63.4349 49.9242 63.4349C50.0521 63.4349 50.1545 63.4349 50.2824 63.4349V86.8484C50.2568 86.8484 50.2313 86.874 50.2313 86.874C58.0102 84.1616 64.2538 79.1462 68.8085 73.4912C74.4636 66.4799 77.4831 58.4963 77.611 52.7645C77.611 52.7901 77.611 52.7901 77.611 52.8156H61.1576C61.1576 52.6365 61.1832 52.4574 61.1832 52.2783V51.92H77.6366C77.6622 49.4635 77.6622 47.007 77.6878 44.5761H61.1832V43.7061H77.6878C77.7133 41.7102 77.7133 39.7399 77.7389 37.7696H61.1832V36.8996H61.0552V36.874H77.7389C77.7645 34.4687 77.7645 32.0889 77.7901 29.6836H50.0266V36.8996H49.131V22.3909C40.0214 22.5444 30.8863 24.3612 21.7256 27.918L21.7 26.9968C31.1166 23.3632 40.5332 21.572 49.9242 21.4953C59.2384 21.4185 68.5271 23.0306 77.7901 26.2292C77.7901 26.5362 77.7901 26.8433 77.7901 27.1503C77.8157 24.2332 77.8413 21.3162 77.8413 18.4247C68.5015 15.3284 59.1617 13.8699 49.8474 14.0234C40.3797 14.177 30.9375 15.9937 21.4953 19.4994L21.9559 35.6713C22.0071 41.0961 22.0327 46.5209 22.0839 51.9712C22.0839 51.9712 22.0839 51.9712 22.0839 51.9456H38.742V52.3039C38.742 52.483 38.742 52.6621 38.7676 52.8412H22.0583C22.1095 54.8883 22.5445 57.2681 23.2865 59.7757C23.2865 59.7501 23.2609 59.7245 23.2609 59.699H41.5312C41.6847 59.8781 41.8382 60.0572 42.0173 60.2107L42.5803 60.5946H23.5424C24.2845 62.8464 25.2824 65.2005 26.5619 67.5546ZM23.4912 60.4154C23.4657 60.3643 23.4657 60.3131 23.4401 60.2875C23.4657 60.3387 23.4912 60.3643 23.4912 60.4154ZM23.3889 60.0828C23.3633 60.0316 23.3633 59.9804 23.3377 59.9293C23.3633 59.9804 23.3889 60.0316 23.3889 60.0828ZM77.5854 52.3039V52.3295C77.5854 52.3295 77.5854 52.3295 77.5854 52.3039ZM77.5854 52.4574V52.483C77.5854 52.483 77.5854 52.483 77.5854 52.4574ZM77.5854 52.4574C77.5854 52.4318 77.5854 52.4318 77.5854 52.4318V52.4574ZM77.5854 52.3806C77.5854 52.355 77.5854 52.3551 77.5854 52.3551V52.3806ZM77.5854 51.9968C77.5854 51.9712 77.5854 51.9712 77.5854 51.9712V51.9968ZM50.0266 28.8136H77.7645C77.7645 28.9671 77.7645 29.0951 77.7645 29.2486C77.7645 28.5577 77.7645 27.8668 77.7645 27.1759C68.5271 23.9518 59.2896 22.3397 50.0266 22.3909V28.8136ZM49.9754 86.9507C49.9498 86.9507 49.9498 86.9508 49.9242 86.9763C49.9498 86.9763 49.9498 86.9763 49.9754 86.9507ZM49.6171 86.8996C49.5404 86.874 49.4892 86.874 49.4124 86.8484C49.4892 86.8484 49.566 86.874 49.6171 86.8996Z" fill="#131313"/>
<path d="M25.6918 32.8311C26.178 32.524 26.6898 32.2169 27.2015 31.9611C27.1248 31.1678 27.048 29.9396 27.2527 29.2743C27.6365 28.046 28.7624 27.0481 30.093 27.2784C30.1698 27.304 30.221 27.3807 30.1698 27.4063C29.4277 27.7901 28.8392 28.3787 28.5065 29.1975C28.4042 29.4278 28.046 31.0655 28.5833 31.1934C28.6345 31.219 28.6857 31.219 28.7624 31.219C29.7348 30.8096 30.7327 30.4513 31.7563 30.1443C31.7563 29.351 31.7819 28.2507 32.0634 27.6622C32.5751 26.5107 33.8545 25.6663 35.2363 26.0757C35.3131 26.1013 35.3643 26.2036 35.3131 26.2292C34.4943 26.5107 33.829 26.9969 33.394 27.7645C33.266 27.9948 32.7287 29.5557 33.2916 29.7605H33.3172C34.264 29.5557 35.2363 29.3766 36.2855 29.2487C36.4134 28.4554 36.6181 27.4319 36.9763 26.8945C37.744 25.7686 39.2793 25.001 40.7123 25.5383C40.789 25.5639 40.8402 25.6663 40.7635 25.6919C39.8167 25.9222 38.9978 26.3572 38.4093 27.0992C38.2558 27.304 37.4625 28.7369 37.9231 29.0696C37.9743 29.0696 38.0255 29.0696 38.0767 29.044C38.8955 28.9672 39.8423 28.9416 40.7379 28.9928C40.9682 28.5066 41.1985 28.0716 41.4543 27.7901C42.3499 26.8689 44.3203 26.5363 44.9088 27.3295C44.96 27.3807 44.9856 27.4831 44.9088 27.4831C44.0644 27.5087 43.1944 27.6366 42.5547 28.2251C42.4523 28.3275 42.0941 28.6857 41.8894 29.0951C43.2455 29.3254 44.397 29.786 44.7553 30.656C44.8832 30.9375 44.96 31.1934 44.9088 31.5005C44.9088 31.5772 44.7297 31.5261 44.6785 31.4493C42.9641 29.8628 40.2261 29.6837 36.5669 30.3234C32.8566 30.9631 29.7604 32.0634 26.4339 33.6499C27.7645 35.1596 25.6662 36.3111 24.9753 34.7246C23.3632 36.6438 21.8791 33.8546 24.0797 33.522C22.8259 31.5772 25.3592 31.5005 25.6918 32.8311Z" fill="#131313"/>
<path d="M26.1524 48.133C26.5874 47.8003 27.1504 47.5189 27.611 47.2374C27.1504 46.4953 26.8689 45.4206 27.048 44.7297C27.3551 43.5015 28.1227 42.9129 29.0695 42.9641C29.1463 42.9641 29.1974 43.0665 29.1463 43.0921C28.481 43.5271 28.3786 44.09 28.1739 44.9344C28.0715 45.395 28.3274 46.1627 28.6601 46.4442C29.5045 45.9836 29.4789 46.0603 30.3745 45.7277C30.1186 44.9344 30.1698 43.8597 30.5025 43.1944C31.0142 42.1197 31.8587 41.7103 32.7031 41.8894C32.7798 41.915 32.831 41.9917 32.7542 42.0173C32.0889 42.2988 30.7328 43.3735 31.6284 45.395C32.4472 45.1135 32.4984 45.0624 33.5475 44.8321C33.6243 44.0388 33.6498 43.0921 33.9569 42.5291C34.5966 41.3776 36.1063 40.8403 36.7972 41.1217C36.874 41.1473 36.9252 41.2497 36.8484 41.2753C36.4646 41.5312 35.9528 41.7359 35.441 42.5035C35.1596 42.9129 34.6734 43.8597 34.8013 44.4994C35.5434 44.3971 36.5158 44.3459 37.3602 44.3715C37.5393 43.8853 37.8975 43.2968 38.1278 43.0153C38.2814 42.8362 38.4861 42.6826 38.6908 42.6059V45.4718C37.2834 45.395 35.7225 45.5486 34.2384 45.9068C30.8863 46.7 30.0163 47.3142 27.0224 48.9262C28.8136 50.0521 27.0736 51.7666 25.9733 50.0777C24.0286 52.3039 22.7747 49.438 24.7962 49.003C23.2609 47.135 25.7686 46.1371 26.1524 48.133Z" fill="#131313"/>
<path d="M25.2823 40.5076C25.7941 40.2006 26.485 39.9703 26.9968 39.7144C26.9456 38.9211 26.8432 38.2047 27.0735 37.5394C27.4829 36.3367 28.1226 35.7226 29.1462 35.8249C29.223 35.8505 29.2741 35.9273 29.223 35.9785C28.4809 36.3623 28.66 36.874 28.3274 37.6673C28.225 37.8976 27.9691 38.87 28.5065 39.0235C28.5577 39.0491 28.6088 39.0491 28.6856 39.0491C29.658 38.6652 29.2997 38.6908 30.2977 38.435C30.3233 37.6673 30.3744 36.6182 30.6303 36.0552C31.1677 34.9549 32.1656 34.4175 33.0868 34.6478C33.1636 34.6734 33.3171 34.8526 33.2404 34.8781C32.4983 35.1084 31.2189 36.6182 31.7562 37.7952C32.3959 37.6929 32.8309 37.4882 33.9824 37.3346C34.136 36.5414 34.3918 35.7482 34.7757 35.2108C35.5689 34.1105 36.7972 33.8802 37.5136 34.2128C37.5904 34.2384 37.6928 34.4431 37.616 34.4687C36.6692 34.6734 36.6436 34.5711 36.0295 35.3131C35.6969 35.697 35.0316 36.7461 35.5177 37.2323C36.3366 37.1811 36.8995 37.0788 37.7951 37.1555C38.0254 36.6949 38.2045 36.0552 38.4604 35.7993C39.356 34.8781 40.9169 34.8014 41.4287 35.4155C41.4799 35.4667 41.5055 35.569 41.4287 35.569C40.5843 35.5946 40.2772 35.8249 39.6119 36.4135C39.5351 36.4646 39.3816 36.6693 39.2025 36.9252H38.7163V38.5117C37.3345 38.3838 35.8248 38.4349 34.4174 38.6397C30.7071 39.2026 29.3509 40.047 26.2803 41.5312C27.5853 43.0665 25.4614 44.1412 24.8217 42.5291C23.1841 44.4227 21.7255 41.5823 23.9773 41.3009C22.7235 39.2794 24.9241 38.742 25.2823 40.5076Z" fill="#131313"/>
<path d="M60.6203 37.437V52.304C60.6203 58.1637 55.8352 62.9232 49.9243 62.9232C44.0389 62.9232 39.2283 58.1637 39.2283 52.304V37.437H60.6203ZM61.1321 36.8997H38.6909V52.2784C38.6909 58.394 43.7319 63.435 49.8987 63.435C56.0911 63.435 61.1065 58.394 61.1065 52.2784L61.1321 36.8997Z" fill="#131313"/>
<path d="M49.4381 47.8003C49.5405 47.9026 49.7708 47.7747 49.8475 47.6723C50.0266 47.3909 50.0011 47.0326 50.0266 46.6744C50.0522 46.2906 50.0522 45.9579 49.9243 45.5997C49.7196 44.9855 49.4381 44.4994 48.7472 44.397C48.6704 44.3714 48.5169 44.5249 48.5681 44.5761C49.0287 45.0623 49.2078 45.0367 49.3358 45.7788C49.4637 46.4953 49.3869 47.7491 49.4381 47.8003ZM44.6019 56.7307C44.7042 56.7563 44.9345 56.4492 45.0113 56.2701C45.0881 56.1166 45.0625 55.8095 45.0625 55.7839C45.0369 55.7327 44.781 55.8351 44.653 55.8351C44.5251 55.8351 44.4228 55.8095 44.2436 55.7839C44.0645 55.7583 44.0901 55.3489 44.0645 55.1186C44.0133 54.5301 43.9877 53.9415 44.0133 53.353C44.0133 53.1995 44.0645 52.9948 44.1925 52.8924C44.3716 52.79 44.6275 52.8156 44.8322 52.8412C45.2416 52.918 45.6254 53.1227 46.0604 53.1995C46.2907 53.2506 46.5466 53.225 46.7769 53.1483C46.9816 53.0971 47.1351 52.9436 47.3143 52.8668C47.4166 52.8412 47.5446 52.8156 47.6213 52.8668C47.954 53.0459 48.1843 53.3786 48.5169 53.5065C48.9519 53.6345 49.4125 53.5833 49.8731 53.6089C50.2314 53.6089 50.5896 53.5577 50.9478 53.6089C51.1014 53.6345 51.3572 53.6601 51.4084 53.8392C51.4596 54.0695 51.0758 54.2742 51.1269 54.5045C51.2293 54.8627 51.6387 55.0418 51.8178 55.3489C51.8946 55.4768 51.869 55.6304 51.8178 55.7583C51.7667 55.8607 51.5875 55.8863 51.5108 55.9886C51.4084 56.1421 51.3828 56.3213 51.2805 56.4748C51.1781 56.6283 51.0246 56.7563 50.8711 56.8842C50.5384 57.1401 50.2058 57.396 49.8219 57.6007C49.694 57.6775 49.4637 57.5239 49.4125 57.6519C49.3102 57.8822 49.2078 58.1636 49.1055 58.3172C49.0031 58.4707 48.8752 58.4963 48.7984 58.5731C48.7216 58.6754 48.6193 58.8545 48.6704 58.8801C48.7216 58.9057 49.2078 58.9057 49.3869 58.8801C49.566 58.8545 49.6684 58.8289 49.7196 58.8034C49.7708 58.7522 49.694 58.5986 49.6428 58.2916C49.6172 57.9845 50.4616 57.8566 50.8711 57.6263C51.3061 57.3448 51.7411 57.0377 52.1761 56.7819C52.3552 56.6795 52.6111 56.6539 52.7646 56.5004C52.8414 56.4236 52.8158 56.2957 52.8158 56.1933C52.8158 55.9374 52.7646 55.6816 52.7646 55.4257C52.7646 55.2977 52.7646 55.1442 52.867 55.0674C52.9437 54.9907 53.0973 54.9651 53.174 55.0162C53.3276 55.093 53.3532 55.3233 53.4811 55.4257C53.6858 55.5792 53.9417 55.6304 54.172 55.7327C54.3767 55.8351 54.7349 55.8351 54.7605 56.0398C54.8117 56.4236 54.5558 56.7819 54.4023 57.1145C54.3255 57.2936 54.1464 57.396 54.044 57.5751C53.9929 57.6775 53.9929 57.8054 53.9161 57.8822C53.7114 58.0869 53.4299 58.2148 53.2252 58.4195C53.0717 58.5731 52.9437 58.7266 52.867 58.9057C52.8158 59.0081 52.7902 59.1104 52.739 59.2128C52.6623 59.3151 52.5343 59.3407 52.4576 59.4942C52.3808 59.6478 52.2017 60.0572 52.3552 60.0316C52.5087 60.006 53.4043 59.8525 53.4299 59.7501C53.4555 59.6734 53.3787 59.4431 53.3276 59.1616C53.2764 58.8801 53.9161 58.6754 54.2232 58.4963C54.4023 58.3939 54.6582 58.4451 54.8117 58.3172C54.9141 58.2404 54.8629 58.0613 54.8885 57.9589C54.9652 57.7798 55.0164 57.5751 55.1699 57.4216C55.3491 57.2169 55.6561 57.1401 55.8097 56.9354C55.9632 56.6795 56.1423 56.3724 56.0911 56.091C56.0399 55.8607 55.7585 55.7839 55.6049 55.6048C55.477 55.4768 55.3491 55.3233 55.2979 55.1442C55.2211 54.8883 55.1699 54.6324 55.2467 54.3765C55.3491 54.0695 55.6561 53.8648 55.8352 53.6089C55.9888 53.3786 56.2191 53.1995 56.2958 52.9436C56.3726 52.6365 56.2191 52.3039 56.1935 51.9968C56.1935 51.9456 56.1423 51.8689 56.1935 51.8177C56.3982 51.6386 56.6285 51.4083 56.91 51.3571C57.1658 51.3315 57.3706 51.5874 57.6264 51.6386C57.8823 51.6642 58.1894 51.6897 58.4453 51.5874C58.522 51.5618 58.5476 51.3827 58.4964 51.3059C58.3173 51.1524 57.9335 51.2036 57.8567 50.9988C57.8056 50.8197 58.1638 50.7685 58.2661 50.5894C58.3941 50.3591 58.4964 50.1032 58.4964 49.8218C58.4964 49.7194 58.2917 49.7194 58.215 49.7706C58.087 49.8474 58.087 50.0265 57.9847 50.1288C57.9079 50.2056 57.78 50.2312 57.6776 50.2312C57.5753 50.2312 57.4217 50.18 57.3706 50.1032C57.2938 50.0265 57.2426 49.8474 57.3194 49.7962C57.5241 49.6682 57.8056 49.7194 58.0359 49.6682C58.1382 49.6427 58.2662 49.6171 58.3173 49.5403C58.3941 49.3868 58.3941 49.2076 58.3173 49.0541C58.2917 48.9774 58.1638 48.9774 58.087 49.0029C57.9847 49.0285 57.9335 49.1821 57.8056 49.1821C57.652 49.1821 57.4985 49.1053 57.3961 49.0029C57.3194 48.9006 57.2938 48.7471 57.345 48.6447C57.4217 48.4656 57.6776 48.4144 57.7544 48.2353C57.8567 48.005 57.9335 47.7235 57.8823 47.4676C57.8567 47.3653 57.652 47.3141 57.5753 47.3909C57.4473 47.4676 57.4729 47.6468 57.3961 47.7491C57.2938 47.9026 57.2426 48.1329 57.0891 48.2097C56.9867 48.2609 56.8076 48.1585 56.782 48.0306C56.7308 47.8259 56.8588 47.6212 56.91 47.442C56.9867 47.2373 57.0891 47.0326 57.217 46.8535C57.345 46.6744 57.6008 46.5976 57.7032 46.3929C57.78 46.2394 57.8567 46.0347 57.7544 45.9067C57.6776 45.8044 57.4985 45.8811 57.3961 45.9579C57.3194 46.0091 57.345 46.1882 57.2682 46.2394C57.0379 46.3417 56.7564 46.265 56.5517 46.3673C56.3726 46.4697 56.2958 46.6488 56.1935 46.8279C56.0144 47.135 55.9888 47.6723 55.912 47.7235C55.8352 47.8003 55.6561 47.7747 55.6049 47.6723C55.5282 47.5444 55.6561 47.3397 55.5538 47.2117C55.477 47.135 55.2723 47.135 55.1955 47.2117C55.0932 47.3141 55.0676 47.4676 55.0676 47.6212C55.0676 47.8515 55.0932 48.0818 55.1955 48.2865C55.3746 48.6191 55.6561 48.875 55.8864 49.1821C56.1167 49.4891 56.3982 49.7706 56.5261 50.1288C56.6029 50.3591 56.6285 50.6406 56.5261 50.8453C56.4494 51.05 56.2447 51.2547 56.0399 51.2547C55.7585 51.2291 55.5538 50.9221 55.3235 50.7686C55.0932 50.615 54.8629 50.4103 54.607 50.3591C54.0185 50.2568 53.4043 50.3591 52.7902 50.3591C52.2528 50.3591 51.6899 50.4359 51.1525 50.3591C50.8967 50.3335 50.6152 50.2312 50.4361 50.0521C50.2569 49.873 50.129 49.6171 50.129 49.3868C50.1034 49.0541 50.2313 48.7471 50.3593 48.44C50.4616 48.2353 50.6152 48.0306 50.8199 47.9026C50.9734 47.8003 51.2293 47.7491 51.3828 47.8003C51.562 47.877 52.0481 48.5423 52.1505 48.5168C52.2528 48.4912 52.1761 47.9026 52.1249 47.7235C52.0225 47.442 51.7155 47.2885 51.6387 47.007C51.6131 46.9303 51.7411 46.8279 51.8178 46.8279C51.9714 46.8279 52.1505 46.9303 52.2784 47.0582C52.3552 47.1094 52.6878 47.5956 52.7646 47.57C52.8414 47.5444 52.7134 46.8791 52.6367 46.6744C52.5087 46.3929 52.0993 46.1882 52.0737 46.1114C52.0481 46.0603 52.0737 46.0091 52.1505 45.9835C52.304 45.9835 52.4576 46.0603 52.6111 46.1114C52.739 46.1626 52.9437 46.3161 53.0205 46.2906C53.0973 46.265 53.0205 46.0347 52.9437 45.9323C52.6623 45.5997 52.2784 45.395 51.997 45.0879C51.8434 44.9344 51.6899 44.7297 51.6899 44.4994C51.6899 44.3714 51.8434 44.2435 51.9714 44.1923C52.2017 44.0899 52.5087 44.0388 52.7134 43.9108C52.7902 43.8596 52.739 43.8085 52.6623 43.7829C52.3296 43.6549 51.9714 43.6038 51.6131 43.6038C51.4084 43.6038 51.2293 43.7317 51.0246 43.7829C50.8967 43.8341 50.7687 43.9108 50.6152 43.9108C50.3593 43.9108 50.0778 43.9364 49.8987 43.7829C49.7963 43.6805 49.9243 43.4758 50.0011 43.3223C50.0778 43.1943 50.2058 43.1176 50.3081 43.0152C50.3849 42.9385 50.6152 42.8617 50.5384 42.8361C50.4616 42.8105 50.0522 42.8105 49.8219 42.8873C49.6172 42.9385 49.4381 43.0152 49.2846 43.1688C49.1566 43.2967 49.1822 43.5782 49.0031 43.6549C48.696 43.8341 48.5425 43.7829 48.2099 43.9364C48.1331 43.9876 47.954 44.1923 47.8772 44.2179C47.4678 44.2691 46.649 44.0644 46.6234 44.1411C46.5722 44.2179 47.2631 44.6017 47.391 44.96C47.4422 45.1135 47.0584 44.8832 46.9048 44.9088C46.649 44.9344 46.3931 44.9855 46.1884 45.0879C45.9837 45.1903 45.8045 45.3694 45.651 45.5485C45.4975 45.702 45.4207 45.9067 45.2416 46.0347C45.1648 46.0859 44.9857 46.0091 44.9345 46.0858C44.8578 46.1882 44.8322 46.4185 44.9601 46.4185L45.6766 46.4697C45.8045 46.4697 45.5486 46.7511 45.6254 46.8791C45.6766 46.9559 45.8557 46.9303 45.9325 46.8791C46.0348 46.8279 46.086 46.6744 46.214 46.5976C46.3419 46.5209 46.4698 46.4185 46.6234 46.4185C46.8025 46.4185 47.0328 46.4953 47.1095 46.6488C47.1863 46.8023 47.0072 46.9814 46.9816 47.135C46.956 47.3141 47.0584 47.5444 46.9304 47.6723C46.5466 48.0306 46.4187 47.7235 45.8557 48.44C45.3951 49.0029 45.5998 48.6959 45.4463 49.4379C45.4207 49.5915 45.3951 49.745 45.2672 49.8474C45.1392 49.9241 44.9345 49.9753 44.8066 49.8985C44.5507 49.7706 44.3972 49.5147 44.218 49.2588C44.1157 49.1309 44.1669 48.9006 44.0389 48.7982C43.8598 48.6959 43.6039 48.6959 43.3992 48.7471C43.2457 48.7982 43.1689 48.9774 43.0921 49.1053C42.8874 49.3868 42.7339 49.7194 42.5548 50.0009C42.4013 50.2312 42.1965 50.4359 42.0686 50.6662C41.9918 50.7941 42.043 50.9477 41.9663 51.0756C41.8127 51.4339 41.6848 51.7665 41.5057 52.0992C41.4289 52.2271 41.2754 52.3039 41.2242 52.4574C41.1986 52.6109 41.2498 52.9436 41.3265 52.9436C41.4033 52.9436 41.6592 52.7645 41.8127 52.6621C41.9918 52.5853 42.3245 52.483 42.3501 52.4318C42.3757 52.3806 42.171 52.2015 42.0686 52.0736C41.8895 51.8433 42.2733 51.5106 42.4268 51.2547C42.478 51.1524 42.606 51.1268 42.6571 51.0244C42.7595 50.8197 42.7851 50.5638 42.8874 50.3591C43.0154 50.0777 43.1689 49.7962 43.3736 49.5915C43.476 49.4891 43.6551 49.4124 43.783 49.5147C43.9877 49.6427 44.0133 49.9241 44.1413 50.1544C44.2436 50.308 44.3716 50.4615 44.4228 50.6406C44.4739 50.7941 44.3204 50.9988 44.4228 51.1268C44.5507 51.2803 44.8066 51.3315 45.0113 51.3571L45.4719 51.4083L45.5231 52.048C45.5486 52.2783 45.0369 52.0992 44.8066 52.1503C44.6019 52.2015 44.3972 52.2783 44.1669 52.3295C43.9622 52.3806 43.5783 52.2015 43.5272 52.4318C43.348 53.3274 43.5783 54.223 43.6295 55.1186C43.6295 55.3489 43.5016 55.7327 43.7319 55.8351L44.1669 56.0142C44.2436 56.1933 44.2948 56.4236 44.3972 56.5516C44.3716 56.6795 44.4995 56.7051 44.6019 56.7307Z" fill="#131313"/>
<path d="M58.7012 39.6632C58.7012 39.484 58.5732 39.4073 58.3429 39.4073H57.4729C57.2426 39.4073 57.1147 39.484 57.1147 39.6632C57.1147 39.8423 57.2426 39.9191 57.4729 39.9191H57.652V41.5311C57.652 41.8126 57.7288 41.9405 57.9079 41.9405C58.087 41.9405 58.1638 41.8126 58.1638 41.5311V39.9191H58.3429C58.5988 39.9191 58.7012 39.8423 58.7012 39.6632ZM56.2191 40.2261C56.2191 40.4308 56.1167 40.5332 55.912 40.5332H55.6817V39.9191H55.912C56.1167 39.9191 56.2191 40.0214 56.2191 40.2261ZM56.782 41.6847C56.782 41.5823 56.7309 41.48 56.6285 41.352L56.2191 40.8402C56.5517 40.7635 56.7564 40.5076 56.7564 40.1494C56.7564 39.6888 56.4494 39.3561 55.912 39.3561H55.5282C55.2467 39.3561 55.17 39.4841 55.17 39.7655V41.5055C55.17 41.787 55.2467 41.915 55.4258 41.915C55.605 41.915 55.6817 41.787 55.6817 41.5055V40.8914L56.2703 41.7358C56.3726 41.8638 56.4494 41.9405 56.5517 41.9405C56.6797 41.9405 56.782 41.8382 56.782 41.6847ZM54.0696 40.8914H53.5323L53.8138 39.9702L54.0696 40.8914ZM54.7861 41.6591C54.7861 41.6079 54.7861 41.5567 54.7605 41.48L54.1976 39.6888C54.1208 39.4841 53.9929 39.3561 53.8138 39.3561C53.6346 39.3561 53.5067 39.4841 53.4299 39.7143L52.8414 41.48C52.8158 41.5311 52.8158 41.5823 52.8158 41.6335C52.8158 41.787 52.9182 41.915 53.0461 41.915C53.1485 41.915 53.2508 41.8382 53.302 41.6591L53.3788 41.4032H54.1976L54.2488 41.6335C54.2999 41.8126 54.3767 41.915 54.5047 41.915C54.6838 41.9406 54.7861 41.8382 54.7861 41.6591ZM52.4576 40.7635C52.4576 40.482 52.3552 40.3796 52.1505 40.3796H51.8179C51.6131 40.3796 51.5108 40.4564 51.5108 40.6355C51.5108 40.8147 51.6131 40.8914 51.8179 40.8914H51.9714C51.9714 41.1985 51.8179 41.4032 51.562 41.4032C51.2805 41.4032 51.0758 41.0961 51.0758 40.6099C51.0758 40.1238 51.2805 39.8423 51.562 39.8423C51.8434 39.8423 51.9714 40.0726 52.0993 40.0726C52.2017 40.0726 52.304 39.9446 52.304 39.8167C52.304 39.5608 52.0226 39.3049 51.5876 39.3049C50.9734 39.3049 50.5896 39.8167 50.5896 40.6355C50.5896 41.4288 50.9734 41.9661 51.5364 41.9661C52.0993 41.9661 52.4576 41.4544 52.4576 40.7635ZM50.4617 39.6632C50.4617 39.484 50.3337 39.4073 50.1034 39.4073H49.2334C49.0031 39.4073 48.8752 39.484 48.8752 39.6632C48.8752 39.8423 49.0031 39.9191 49.2334 39.9191H49.4125V41.5311C49.4125 41.8126 49.4893 41.9405 49.6684 41.9405C49.8475 41.9405 49.9243 41.8126 49.9243 41.5311V39.9191H50.1034C50.3337 39.9191 50.4617 39.8423 50.4617 39.6632ZM48.7728 39.6632C48.7728 39.484 48.6449 39.4073 48.4146 39.4073H47.5446C47.3143 39.4073 47.1863 39.484 47.1863 39.6632C47.1863 39.8423 47.3143 39.9191 47.5446 39.9191H47.7237V41.5311C47.7237 41.8126 47.8005 41.9405 47.9796 41.9405C48.1587 41.9405 48.2355 41.8126 48.2355 41.5311V39.9191H48.4146C48.6449 39.9191 48.7728 39.8423 48.7728 39.6632ZM46.8793 40.8147V39.7655C46.8793 39.4841 46.8025 39.3561 46.6234 39.3561C46.4443 39.3561 46.3675 39.4841 46.3675 39.7655V40.7635C46.3675 41.1985 46.214 41.4288 45.9325 41.4288C45.651 41.4288 45.4975 41.1985 45.4975 40.7635V39.7655C45.4975 39.4841 45.4207 39.3561 45.2416 39.3561C45.0625 39.3561 44.9857 39.4841 44.9857 39.7655V40.8147C44.9857 41.5567 45.344 41.9661 45.9325 41.9661C46.4954 41.9661 46.8793 41.5567 46.8793 40.8147ZM44.781 39.6632C44.781 39.484 44.6531 39.4073 44.4228 39.4073H43.5528C43.3225 39.4073 43.1945 39.484 43.1945 39.6632C43.1945 39.8423 43.3225 39.9191 43.5528 39.9191H43.7319V41.5311C43.7319 41.8126 43.8086 41.9405 43.9878 41.9405C44.1669 41.9405 44.2436 41.8126 44.2436 41.5311V39.9191H44.4228C44.6531 39.9191 44.781 39.8423 44.781 39.6632ZM43.0154 41.1217C43.0154 40.7379 42.8107 40.5076 42.4013 40.3541C42.1454 40.2517 41.9919 40.2261 41.9919 40.047C41.9919 39.9191 42.0942 39.8423 42.2477 39.8423C42.3757 39.8423 42.5292 39.9191 42.6316 39.9191C42.7851 39.9191 42.8619 39.8167 42.8619 39.6888C42.8619 39.4841 42.6316 39.3305 42.2477 39.3305C41.7616 39.3305 41.4545 39.6632 41.4545 40.1238C41.4545 40.5076 41.6592 40.6867 42.0686 40.8402C42.2989 40.917 42.4524 40.9938 42.4524 41.1985C42.4524 41.352 42.3501 41.4544 42.1966 41.4544C41.9663 41.4544 41.7871 41.3264 41.6592 41.3264C41.5057 41.3264 41.4033 41.4288 41.4033 41.5823C41.4033 41.787 41.7104 41.9917 42.1198 41.9917C42.6827 41.9661 43.0154 41.6079 43.0154 41.1217Z" fill="#131313"/>
</g>
<defs>
<clipPath id="clip0_152_29">
<rect width="75" height="75" fill="white" transform="translate(13 13)"/>
</clipPath>
</defs>
</svg>
