<svg width="100" height="100" viewBox="0 0 100 100" fill="none" xmlns="http://www.w3.org/2000/svg">
<circle cx="50" cy="50" r="50" fill="#EEEEEE"/>
<path d="M75.025 37.5249C71.925 37.5249 69.0812 38.6124 66.85 40.4249C64.6188 38.6124 61.775 37.5249 58.675 37.5249C55.575 37.5249 52.7313 38.6124 50.5 40.4249C48.2687 38.6124 45.425 37.5249 42.325 37.5249C39.225 37.5249 36.3813 38.6124 34.15 40.4249C31.9188 38.6124 29.075 37.5249 25.975 37.5249C18.8094 37.5249 13 43.3343 13 50.4999C13 57.6655 18.8094 63.4749 25.975 63.4749C29.075 63.4749 31.9188 62.3874 34.15 60.5749C36.3813 62.3874 39.225 63.4749 42.325 63.4749C45.425 63.4749 48.2687 62.3874 50.5 60.5749C52.7313 62.3874 55.575 63.4749 58.675 63.4749C61.775 63.4749 64.6188 62.3874 66.85 60.5749C69.0812 62.3874 71.925 63.4749 75.025 63.4749C82.1906 63.4749 88 57.6655 88 50.4999C88 43.3343 82.1906 37.5249 75.025 37.5249ZM66.85 56.3312C65.675 54.6874 64.9813 52.6749 64.9813 50.4999C64.9813 48.3249 65.675 46.3124 66.85 44.6687C68.025 46.3124 68.7188 48.3249 68.7188 50.4999C68.7188 52.6749 68.025 54.6874 66.85 56.3312ZM50.5 56.3312C49.325 54.6874 48.6313 52.6749 48.6313 50.4999C48.6313 48.3249 49.325 46.3124 50.5 44.6687C51.675 46.3124 52.3687 48.3249 52.3687 50.4999C52.3687 52.6749 51.675 54.6874 50.5 56.3312ZM34.15 56.3312C32.975 54.6874 32.2812 52.6749 32.2812 50.4999C32.2812 48.3249 32.975 46.3124 34.15 44.6687C35.325 46.3124 36.0188 48.3249 36.0188 50.4999C36.0188 52.6749 35.325 54.6874 34.15 56.3312ZM15.9313 50.4999C15.9313 44.953 20.4281 40.4562 25.975 40.4562C28.275 40.4562 30.3937 41.2312 32.0875 42.5343C30.375 44.7312 29.35 47.4968 29.35 50.4999C29.35 53.503 30.375 56.2687 32.0875 58.4655C30.3937 59.7655 28.275 60.5437 25.975 60.5437C20.4281 60.5437 15.9313 56.0468 15.9313 50.4999ZM36.2125 58.4655C37.925 56.2687 38.95 53.503 38.95 50.4999C38.95 47.4968 37.925 44.7312 36.2125 42.5343C37.9062 41.2343 40.025 40.4562 42.325 40.4562C44.625 40.4562 46.7438 41.2312 48.4375 42.5343C46.7219 44.7343 45.7 47.4968 45.7 50.4999C45.7 53.503 46.725 56.2687 48.4375 58.4655C46.7438 59.7655 44.625 60.5437 42.325 60.5437C40.025 60.5437 37.9062 59.7687 36.2125 58.4655ZM52.5625 58.4655C54.2781 56.2655 55.3 53.503 55.3 50.4999C55.3 47.4968 54.275 44.7312 52.5625 42.5312C54.2562 41.2312 56.375 40.453 58.675 40.453C60.975 40.453 63.0938 41.228 64.7875 42.5312C63.0719 44.7312 62.05 47.4937 62.05 50.4968C62.05 53.4999 63.075 56.2655 64.7875 58.4624C63.0938 59.7624 60.975 60.5405 58.675 60.5405C56.375 60.5437 54.2562 59.7687 52.5625 58.4655ZM75.025 60.5437C72.725 60.5437 70.6063 59.7687 68.9125 58.4655C70.625 56.2655 71.65 53.503 71.65 50.4999C71.65 47.4968 70.625 44.7312 68.9125 42.5343C70.6063 41.2343 72.725 40.4562 75.025 40.4562C80.5719 40.4562 85.0687 44.953 85.0687 50.4999C85.0687 56.0468 80.5719 60.5437 75.025 60.5437Z" fill="#070707"/>
</svg>
