<?xml version="1.0" encoding="UTF-8" standalone="no"?>
<!-- Created with Inkscape (http://www.inkscape.org/) -->

<svg
   version="1.1"
   id="svg2"
   width="1112"
   height="154"
   viewBox="0 0 1112 154"
   xmlns="http://www.w3.org/2000/svg"
   xmlns:svg="http://www.w3.org/2000/svg">
  <defs
     id="defs6" />
  <g
     id="g8"
     transform="translate(-0.7995378,20.283647)">
    <path
       style="fill:#000000"
       d="M 621.8743,108 599.2486,107.5 575.1243,86.070844 551,64.641687 V 57.320844 50 h 20.30887 c 14.78087,0 20.77905,-0.343806 22.03624,-1.26308 1.48792,-1.088001 1.68768,-2.786009 1.44113,-12.25 L 594.5,25.5 H 568 541.5 v 41.25017 41.25017 L 525,108.00017 508.5,108 V 58.5 9 L 561,9.021962 c 48.79945,0.020414 52.78195,0.1514324 56.5,1.858769 8.28207,3.803143 10.39644,8.885316 10.45053,25.119269 0.0455,13.643135 -1.05908,18.308545 -5.35053,22.6 -4.22831,4.228306 -8.92448,5.387718 -21.85,5.394423 -5.9125,0.0031 -10.75,0.3741 -10.75,0.824518 0,0.614663 48.47959,38.371239 54.41183,42.376689 0.56664,0.38259 0.81828,0.83259 0.55921,1 -0.25907,0.1674 -10.65261,0.0794 -23.09674,-0.19563 z M 18,106.82505 C 12.512668,105.26575 8.3606837,101.50646 6.3392783,96.267205 4.6870382,91.984782 4.5,88.144194 4.5,58.5 4.5,21.87991 4.9623148,18.733831 11.102902,13.566868 16.678317,8.8754654 18.855358,8.6618275 65.25,8.2532944 L 109,7.8680489 V 16.434024 25 H 74.035184 c -33.545233,0 -35.006845,0.07853 -36,1.934259 C 37.387573,28.14433 37,40.103911 37,58.877555 37,88.754426 37.0098,88.893448 39.222506,90.443296 41.132083,91.780816 46.412087,92 76.722506,92 H 112 v 8 8 L 66.75,107.9098 C 40.057086,107.85661 20.064645,107.41175 18,106.82505 Z M 123.24066,58.25 123.5,8.5 140.25,8.225821 157,7.9516421 V 27.992154 48.032667 L 183.75,47.766333 210.5,47.5 210.77114,27.75 211.04228,8 H 227.52114 244 v 50 50 H 227.51913 211.03826 L 210.76913,85.75 210.5,63.5 183.75,63.233667 157,62.967333 V 85.483667 108 h -17.00934 -17.00933 z m 151.51842,48.32707 C 268.646,104.39529 265.93637,102.0984 263.65646,97.165658 261.58361,92.680896 261.5,91.201145 261.5,59 c 0,-37.186084 0.44656,-40.252915 6.61732,-45.445261 C 274.05293,8.5602526 274.95105,8.5 343.4635,8.5 h 63.96349 l 16.17071,40.834204 c 8.89389,22.458812 16.62092,41.284411 17.17117,41.834665 0.55025,0.550253 2.04306,0.849862 3.31735,0.665796 2.0534,-0.296607 4.20463,-5.054067 18.91682,-41.834665 l 16.59994,-41.5 12.8173,-0.2807639 c 10.11228,-0.2215103 12.70433,-0.010466 12.28199,1 -1.26529,3.0272339 -24.05938,56.8587459 -31.20331,73.6910939 -4.29752,10.125681 -9.05509,19.80068 -10.57238,21.5 l -2.75872,3.08967 -21.33393,0.27695 c -19.79084,0.25692 -21.56507,0.1338 -24.5296,-1.70226 -1.75761,-1.08856 -3.94313,-3.11999 -4.8567,-4.51428 -0.91358,-1.39429 -7.47302,-16.153272 -14.57654,-32.79774 C 387.76757,52.118201 380.69627,35.575 379.15708,32 l -2.79851,-6.5 -39.92929,-0.263414 C 299.77932,24.994806 296.39734,25.113164 295.25,26.677716 294.46159,27.752814 294,31.81979 294,37.69113 V 47 H 329.5 365 V 55.5 64 H 329.5 294 v 12.443296 c 0,11.724931 0.12831,12.533166 2.22251,14 1.91238,1.339489 7.2845,1.556704 38.5,1.556704 H 371 v 8 8 l -46.25,-0.0439 c -35.9482,-0.0341 -47.08326,-0.34129 -49.99092,-1.37904 z M 655.5,106.77847 c -5.20303,-1.84471 -8.68242,-4.9435 -10.87606,-9.686325 -1.99439,-4.312055 -2.14317,-6.469331 -2.43925,-35.369064 C 641.7679,21.041131 642.81579,16.344372 653.50145,11 L 658.5,8.5 H 702 c 48.6412,0 49.85314,0.1518952 55.8676,7.00199 4.81038,5.478712 5.33762,10.362326 4.96606,45.99801 -0.31763,30.462612 -0.43665,32.192174 -2.47725,36 -5.59859,10.44712 -5.98129,10.51561 -58.23214,10.42105 -28.07278,-0.0508 -44.69373,-0.45812 -46.62427,-1.14258 z M 728.42857,90.428571 C 729.78896,89.068185 730,84.730303 730,58.128571 730,35.561905 729.68126,27.081265 728.8,26.2 c -1.70727,-1.707268 -50.89273,-1.707268 -52.6,0 -0.88126,0.881265 -1.2,9.361905 -1.2,31.928571 0,26.601732 0.21104,30.939614 1.57143,32.3 2.3548,2.354799 49.50234,2.354799 51.85714,0 z M 780.24066,58.25 780.5,8.5 h 16.5 16.5 l 0.26097,41.75 0.26097,41.75 H 849.01097 884 v 8 8 h -52.00934 -52.00933 z m 120.88624,48.25226 c -5.81983,-1.81518 -9.71304,-5.74017 -11.73653,-11.832332 -1.40919,-4.242679 -1.66085,-9.752283 -1.64838,-36.088519 0.0163,-34.45432 0.42668,-37.548582 5.76309,-43.455347 6.23282,-6.8989912 0.1691,-6.5323812 113.74492,-6.876974 L 1110,7.9373411 V 16.468671 25 H 1090.5 1071 V 66.5 108 H 1054.5 1038 V 66.5 25 h -57.3 c -43.23333,0 -57.59459,0.29459 -58.5,1.2 -0.77007,0.770068 -1.2,4.711111 -1.2,11 V 47 h 35 35 v 8.5 8.5 h -35 -35 v 12.964816 c 0,11.794478 0.17461,13.058263 1.93426,14 C 924.16643,91.624256 938.14091,92 961.43426,92 H 998 v 8 8 l -46.25,-0.0669 c -36.10539,-0.0522 -47.20921,-0.36606 -50.6231,-1.43084 z"
       id="path170" />
  </g>
</svg>
