<svg width="100" height="100" viewBox="0 0 100 100" fill="none" xmlns="http://www.w3.org/2000/svg">
<circle cx="50" cy="50" r="50" fill="#EEEEEE"/>
<path d="M43.94 49.3034H46.33L48.4133 43.1368L49.63 49.3034H52.0233L55.2833 39.7768L52.7833 39.7801L51.0433 44.9601L50.0467 39.7801H46.68L46.5967 40.0268L46.7633 40.1868C46.94 40.3634 46.93 40.5668 46.78 41.0068L43.94 49.3034ZM56.4367 41.0068L53.5933 49.3068H57.79C59.59 49.3068 60.6133 48.9068 61.45 48.0168C62.4933 46.9101 63.45 44.0334 63.4167 42.4501C63.3867 40.8334 62.3433 39.7834 60.15 39.7834H56.3333L56.2533 40.0268L56.42 40.1868C56.5933 40.3634 56.59 40.5668 56.4367 41.0068ZM58.7167 42.0401H59.76C60.47 42.0401 60.86 42.2768 60.87 42.8268C60.8767 43.1801 60.78 43.6668 60.4133 44.7101C60.0867 45.6434 59.8267 46.1868 59.4567 46.5834C59.1633 46.8968 58.7667 47.0334 57.8633 47.0334H56.9933L58.7167 42.0401ZM72.27 43.1968H65.9333L65.11 45.4634H69.5033L64.5133 47.1601L64.2033 47.9701L71.3933 45.6034L72.27 43.1968ZM26.81 49.3068H33.31L34.0967 47.0334H30.3167L32.8167 39.7801H29.5533L29.4733 40.0268L29.6367 40.1868C29.8133 40.3634 29.8067 40.5668 29.6533 41.0068L26.81 49.3068ZM33.9867 49.3034H36.7533L37.95 47.1968H40.8133L40.84 49.3034H43.35L42.81 39.7801H39.0533L38.97 40.0268L39.09 40.1468C39.29 40.3401 39.2067 40.6201 38.4767 41.7801L33.9867 49.3034ZM40.64 42.4134H40.7267L40.7733 45.2934H39.0167L40.64 42.4134ZM36.7 51.3668H32.5867L32.5033 51.6134L32.67 51.7801C32.8467 51.9501 32.8367 52.1568 32.6833 52.5968L29.81 60.8968H32.4367L33.56 57.6001H34.45L35.4367 60.8934H38.0767L36.8367 57.5268C37.3745 57.4708 37.8802 57.2442 38.28 56.8801C38.7767 56.4268 39.12 55.7934 39.4033 54.8568C39.8167 53.5001 39.5667 52.7234 39.3 52.3234C38.9333 51.7768 38.16 51.3668 36.7 51.3668ZM36.9267 54.8268C36.76 55.2334 36.58 55.3301 36.3433 55.4268C36.0768 55.4954 35.8017 55.5246 35.5267 55.5134H34.2667L34.95 53.5434H36.4667C36.92 53.5434 37.1067 53.7768 37.1133 54.0501C37.0916 54.3174 37.0274 54.5796 36.9233 54.8268M71.71 51.3668H67.6L67.52 51.6134L67.6867 51.7801C67.8633 51.9501 67.8533 52.1568 67.7033 52.5968L64.8267 60.8968H67.4567L68.5767 57.6034H69.4667L70.4567 60.8934H73.09L71.8567 57.5268C72.3922 57.4698 72.8956 57.2433 73.2933 56.8801C73.7933 56.4268 74.1367 55.7934 74.42 54.8568C74.8333 53.5001 74.5867 52.7234 74.32 52.3234C73.9533 51.7768 73.1733 51.3668 71.71 51.3668ZM71.9433 54.8268C71.7767 55.2334 71.5967 55.3301 71.3633 55.4268C71.0968 55.4952 70.8217 55.5244 70.5467 55.5134H69.2933L69.97 53.5434H71.4867C71.94 53.5434 72.1267 53.7768 72.13 54.0501C72.11 54.3173 72.0469 54.5796 71.9433 54.8268ZM76.5 39.0201C68.6167 34.9468 58.8 33.3868 50 33.3868C41.2 33.3868 31.3833 34.9468 23.5 39.0201C19.0667 41.3101 13.45 45.4368 13.45 51.0001C13.45 56.5634 19.07 60.6901 23.5 62.9801C31.3833 67.0534 41.2 68.6134 50 68.6134C58.8 68.6134 68.6167 67.0568 76.5 62.9801C80.93 60.6901 86.55 56.5634 86.55 51.0001C86.55 45.4334 80.9333 41.3101 76.5 39.0201ZM76.1 62.2001C68.3333 66.2101 58.6767 67.7334 50 67.7334C41.3233 67.7334 31.6667 66.2101 23.9 62.2001C19.7967 60.0701 14.3333 56.1534 14.3333 51.0001C14.3333 45.8401 19.7933 41.9268 23.9 39.8034C31.6667 35.7934 41.3267 34.2701 50 34.2701C58.6767 34.2701 68.3333 35.7901 76.1 39.8034C80.21 41.9268 85.6667 45.8368 85.6667 51.0034C85.6667 56.1601 80.2067 60.0734 76.1 62.2001ZM78.0833 35.9568C70.57 32.0734 60.6 29.9368 50 29.9368C39.4033 29.9368 29.4333 32.0734 21.9167 35.9568C17.4667 38.2568 10 43.2701 10 51.0001C10 58.7301 17.4667 63.7434 21.9167 66.0434C29.43 69.9268 39.4033 72.0668 50 72.0668C60.6 72.0668 70.57 69.9301 78.0833 66.0468C82.5333 63.7434 90 58.7334 90 51.0001C90 43.2668 82.5333 38.2568 78.0833 35.9568ZM77.1067 64.1568C69.89 67.8801 60.2667 69.9334 50 69.9334C39.7333 69.9334 30.1133 67.8801 22.8933 64.1501C15.9533 60.5668 12.1267 55.8934 12.1267 51.0001C12.1267 46.1034 15.9533 41.4334 22.8933 37.8468C30.1133 34.1201 39.7367 32.0668 50 32.0668C60.2667 32.0668 69.89 34.1234 77.1067 37.8501C84.05 41.4334 87.8733 46.1068 87.8733 51.0034C87.8733 55.8968 84.05 60.5701 77.1067 64.1568ZM45.74 51.2568H45.4367C43.64 51.2568 42.6167 51.7368 41.7733 52.6301C40.7267 53.7401 39.7433 56.7301 39.7633 58.3168C39.7833 59.9301 40.83 61.0501 43.0233 61.0501H43.3433C45.1433 61.0501 46.17 60.5668 47.01 59.6734C48.0567 58.5634 49.02 55.5734 49 53.9868C48.98 52.3734 47.9333 51.2534 45.7367 51.2534M45.89 56.3034C45.5633 57.2401 45.3067 57.8434 44.93 58.2401C44.63 58.5534 44.24 58.7768 43.33 58.7768C42.6233 58.7768 42.23 58.4868 42.23 57.9401C42.2233 57.5834 42.32 57.0468 42.7 56.0001C43.0267 55.0668 43.2833 54.4601 43.6633 54.0634C43.9567 53.7501 44.3533 53.5268 45.2567 53.5268C45.9667 53.5268 46.36 53.8168 46.3567 54.3601C46.3667 54.7201 46.27 55.2601 45.89 56.3034ZM30.1167 52.6001L22.9267 54.9634L22.05 57.3734H28.39L29.2167 55.1034H24.82L29.81 53.4134L30.1167 52.6001ZM56.27 51.3701L52.7833 58.2201H52.71L52.5333 51.3701H49.6167L49.5033 51.6168L49.7533 51.7701C49.9967 51.9401 50.0633 52.1134 50.0933 52.5901L50.49 60.8968H53.74L58.9833 51.3701H56.27ZM64.2567 57.0768L64.9867 55.0868H61.6333L62.1533 53.5634H65.78L66.58 51.3634H59.7333L59.6367 51.6434L59.8033 51.8068C59.98 51.9768 59.97 52.1801 59.8167 52.6268L56.9667 60.8934H63.3667L64.14 58.6834H60.4067L60.9533 57.0768H64.2567Z" fill="#030303"/>
</svg>
