<?xml version="1.0" encoding="UTF-8" standalone="no"?>
<!-- Created with Inkscape (http://www.inkscape.org/) -->

<svg
   version="1.1"
   id="svg2"
   width="1280"
   height="189"
   viewBox="0 0 1280 189"
   xmlns="http://www.w3.org/2000/svg"
   xmlns:svg="http://www.w3.org/2000/svg">
  <defs
     id="defs6" />
  <g
     id="g8">
    <path
       style="fill:#000000"
       d="M 944.22748,179.26234 C 945.08537,178.29305 957.08636,164.45 970.89635,148.5 l 25.10907,-29 -47.89868,-0.5 c -44.69619,-0.46657 -48.03449,-0.62296 -49.92986,-2.33906 -2.97439,-2.69306 -3.20924,-6.30509 -2.40568,-36.999925 0.7237,-27.644231 0.74532,-27.852353 3.08958,-29.75 C 901.13999,48.066039 903.92691,48 979.50749,48 h 78.28591 l 18.8533,-21.657512 18.8533,-21.6575115 36.4823,0.2231143 c 20.0652,0.1227128 36.5677,0.3085712 36.6721,0.4130186 0.1045,0.1044473 -20.2443,23.8124266 -45.2195,52.6843976 -42.3109,48.912563 -45.4103,52.749073 -45.4222,56.225443 -0.013,3.8285 -0.088,3.88942 -6.1073,4.98012 -0.8771,0.15891 -13.4845,14.01393 -28.0165,30.78893 l -26.4218,30.5 -37.39972,0.26234 c -35.65287,0.25008 -37.32683,0.18002 -35.8399,-1.5 z M 1012.6053,100.25 c 1.9268,-2.0625 4.4095,-4.9875 5.5171,-6.5 l 2.0138,-2.75 h -38.36811 c -28.50851,0 -38.67646,0.308368 -39.56809,1.2 -1.90912,1.909124 -1.5189,9.51488 0.55,10.7199 1.08751,0.63342 13.97796,1.03079 34.05098,1.04969 L 1009.102,104 Z M 1038.85,70.078955 c 2.8325,-3.256575 5.15,-6.181575 5.15,-6.5 C 1044,63.26053 1021.365,63 993.7,63 c -37.78889,0 -50.59848,0.298476 -51.5,1.2 -0.66,0.66 -1.2,2.877857 -1.2,4.928571 C 941,76.287579 938.99442,76 988.92146,76 h 44.77864 z m 10.708,109.827155 c 0.3719,-0.60165 34.5987,-40.27408 76.0596,-88.160959 l 75.3836,-87.0670589 36.241,0.2358784 c 19.9325,0.1297331 36.3992,0.3940506 36.5925,0.5873723 0.1933,0.1933217 -33.7261,39.7596052 -75.3766,87.9250752 L 1122.7301,181 h -36.9241 c -26.4743,0 -36.7327,-0.30958 -36.248,-1.09389 z M 300.14587,118.97783 C 249.47848,114.81297 225.04392,103.2702 225.04392,83.5 c 0,-13.670002 11.80406,-23.78746 34.95608,-29.961462 18.65594,-4.975021 29.76421,-6.020432 64,-6.023108 24.80788,-0.0019 34.36805,0.382959 45,1.811723 42.20894,5.672208 62.76459,15.275875 66.42913,31.035903 1.01404,4.36105 -1.19618,13.015293 -4.48268,17.552165 -6.3582,8.777249 -20.73574,15.327589 -41.94645,19.110599 -10.94925,1.95284 -16.59398,2.26501 -45.5,2.51627 -18.15,0.15777 -37.65936,-0.0962 -43.35413,-0.56426 z M 364.5,102.59243 c 11.21568,-2.26619 17.92854,-5.217485 21.92228,-9.63808 C 389.51323,89.533032 390,88.319088 390,84.031915 c 0,-4.11222 -0.52561,-5.560954 -3.06813,-8.456727 C 379.0286,66.573853 358.72984,62.018753 326.5,62.0141 c -27.39804,-0.004 -43.2434,3.552411 -51.25,11.502656 -4.20251,4.172931 -4.81586,5.969871 -4.25763,12.473614 0.77196,8.993737 15.0861,15.74986 38.07529,17.97114 12.73466,1.23046 46.72121,0.39105 55.43234,-1.36908 z M 9.7627074,117.47863 C 8.2571964,116.63758 6.7305226,114.7745 6.3700989,113.33846 6.0096752,111.90241 6.0223858,97.626289 6.3983447,81.613735 L 7.0819062,52.5 9.5967168,50.25 12.111527,48 72.305764,48.0012 c 65.416916,0.0013 77.657886,0.707834 96.333246,5.560103 24.9594,6.484997 37.69513,19.32771 34.40061,34.689568 C 199.57752,104.3941 187.53245,111.82088 157,116.63812 141.53949,119.0774 13.928537,119.80587 9.7627074,117.47863 Z M 127.02623,102.97795 c 21.18127,-2.55475 30.98075,-8.78132 30.97003,-19.67829 -0.009,-9.515433 -9.30125,-16.035768 -27.42992,-19.248204 -8.88489,-1.57442 -78.224838,-1.413036 -79.212083,0.184362 -0.420078,0.679699 -0.952437,9.228853 -1.183022,18.99812 C 49.858866,96.468239 50.069738,101.3791 50.99844,102.49812 52.061223,103.7787 57.130156,104 85.398679,104 c 18.234581,0 36.966981,-0.45992 41.627551,-1.02205 z M 462,118.33447 c -5.05119,-2.00514 -5.00038,-1.67715 -4.99442,-32.239458 0.006,-29.78868 0.61117,-35.284352 4.09186,-37.147162 1.39872,-0.748568 22.14019,-0.950982 68.20625,-0.665616 62.73039,0.388596 66.79843,0.523543 77.69631,2.577387 25.35601,4.778661 40.02291,12.461774 45.12899,23.640379 3.81816,8.359011 1.91288,19.012641 -4.71944,26.38938 -7.36309,8.18953 -17.74702,12.3375 -39.40955,15.74257 -8.80957,1.38475 -21.28657,1.70259 -77.5,1.97422 -36.85,0.17806 -67.675,0.0558 -68.5,-0.2717 z M 578.02623,102.98902 C 600.18645,100.34516 610.82646,92.549396 608.58462,80.599387 607.25346,73.503688 597.86317,67.431897 583.79216,64.568511 573.82295,62.539823 504.17474,62.225257 502.2,64.2 c -1.74443,1.744426 -1.69756,38.43257 0.05,39.13772 2.37441,0.9581 67.32828,0.6592 75.77623,-0.3487 z M 741.5,118.30358 c -19.33862,-1.09751 -41.27614,-5.87984 -50.83345,-11.08159 -16.39892,-8.925406 -19.8266,-29.204452 -7.04119,-41.657551 8.25929,-8.044614 24.06528,-13.547491 46.10072,-16.050027 11.39432,-1.294038 25.00339,-1.516788 78.77392,-1.289349 l 65,0.274937 0.30242,5.834373 c 0.17837,3.4411 -0.17951,6.415066 -0.87244,7.25 C 871.94095,62.776081 862.37688,63 812.46552,63 c -48.4846,0 -60.71473,0.272676 -67.10972,1.496239 -18.24322,3.490505 -26.87893,12.138954 -23.47283,23.507477 2.38395,7.956928 12.56148,13.321544 28.44904,14.995604 14.39863,1.51717 74.88264,1.29543 77.04051,-0.28245 1.35294,-0.98929 1.68295,-2.4205 1.44113,-6.249995 L 828.5,91.5 l -30,-0.537413 c -16.5,-0.295577 -30.13306,-0.633077 -30.29569,-0.75 -0.16263,-0.116923 -0.16263,-3.250087 0,-6.962587 L 768.5,76.5 l 50.4256,-0.259347 50.4256,-0.259348 2.38736,2.242815 c 2.35905,2.216208 2.38366,2.441425 2.07441,18.984194 -0.2968,15.876236 -0.43065,16.858946 -2.59029,19.016536 l -2.27732,2.27515 -60.72268,0.0721 C 774.82521,118.61167 744.8,118.49086 741.5,118.30358 Z"
       id="path170" />
  </g>
</svg>
