<?xml version="1.0" encoding="UTF-8" standalone="no"?>
<!-- Created with Inkscape (http://www.inkscape.org/) -->

<svg
   version="1.1"
   id="svg2"
   width="696"
   height="132.12601"
   viewBox="0 0 696 132.12601"
   xmlns="http://www.w3.org/2000/svg"
   xmlns:svg="http://www.w3.org/2000/svg">
  <defs
     id="defs6" />
  <g
     id="g8"
     transform="translate(0,12)">
    <path
       style="fill:#000000;stroke-width:1.00525"
       d="M 19.300191,54.461264 V 7.4717936 h 20.365141 c 18.571878,0 20.58019,0.17093 22.807332,1.94124 1.343205,1.0676904 12.316391,17.4367404 24.384859,36.3756704 12.068467,18.93892 22.280167,34.43589 22.692667,34.4377 0.4125,0.002 0.75,-16.38168 0.75,-36.40774 V 7.4076536 l 11.75,0.2847 11.75,0.2847 V 54.461264 100.94548 l -20.74257,0.27311 -20.742572,0.2731 -3.376718,-3.304681 C 87.081135,96.36943 76.669061,80.785474 65.800388,63.556004 54.931715,46.326524 45.422896,31.563824 44.669678,30.749984 c -1.161086,-1.25453 -1.369487,4.01233 -1.369487,34.61053 v 36.090226 h -12 -12 z m 181.213199,37.185781 0.2868,-9.901569 37.4124,-0.265095 c 25.58273,-0.181272 37.83534,-0.619807 38.75,-1.386887 1.61682,-1.35598 1.83036,-11.5631 0.26239,-12.54236 -0.59137,-0.36933 -8.12887,-1.28261 -16.75,-2.0295 -8.62114,-0.74689 -21.52479,-1.86178 -28.67479,-2.47753 -15.4667,-1.33199 -21.08033,-2.96275 -25.27489,-7.34235 -4.85002,-5.06397 -6.22641,-9.52738 -6.21534,-20.1554 0.011,-10.54369 2.27704,-17.15412 7.61375,-22.21043 6.13445,-5.8121304 6.59422,-5.8641304 51.84436,-5.8641304 h 41.53212 v 9.6000004 9.6 h -35.92857 c -31.32901,0 -36.12975,0.20329 -37.5,1.58797 -1.95865,1.97926 -2.04949,7.88983 -0.15075,9.80856 1.55039,1.56671 2.41243,1.68086 36.07932,4.77757 12.65,1.16355 24.5011,2.59588 26.33577,3.18296 4.44692,1.42297 9.78127,6.28482 12.47314,11.36831 1.90778,3.60277 2.18975,5.70572 2.18075,16.2641 -0.0112,13.172794 -0.9733,16.43461 -6.32592,21.447472 -6.22233,5.827354 -5.89616,5.790304 -53.95054,6.128334 l -44.28679,0.31154 z m 120.23102,8.505395 c -0.29177,-0.768328 -0.39857,-5.224207 -0.23735,-9.901959 l 0.29313,-8.505005 38,-0.257035 c 42.36569,-0.286566 40.5,0.05073 40.5,-7.321917 0,-7.51409 1.18995,-7.20504 -41,-10.64828 -10.725,-0.8753 -21.3,-2.12519 -23.5,-2.77753 -5.6522,-1.67597 -11.87526,-8.26195 -13.33248,-14.11 -3.97904,-15.96857 1.17183,-31.67822 12.14699,-37.0471404 4.1671,-2.03849 5.76374,-2.11178 46.00121,-2.11178 h 41.68428 v 9.6000004 9.6 h -35.06574 c -22.25936,0 -35.77215,0.38204 -37,1.04608 -2.681,1.44993 -2.82921,10.67519 -0.18426,11.46975 1.56359,0.46972 33.45944,3.69372 51.75,5.23084 9.63931,0.81008 16.4814,4.22898 20.38669,10.18694 3.63973,5.55284 4.48179,10.49607 3.93603,23.10593 -0.37222,8.599944 -0.70758,9.971294 -3.37714,13.809593 -1.77689,2.554817 -4.95098,5.29535 -7.9256,6.843016 l -4.96172,2.581537 -43.79178,0.30195 c -36.54919,0.25203 -43.87952,0.0709 -44.32226,-1.09499 z m 112.55578,0.33364 c 0,-0.530558 5.43616,-13.149502 12.08035,-28.042106 6.6442,-14.89259 15.69663,-35.26271 20.11652,-45.26692 4.41989,-10.00421 8.74474,-18.7579004 9.61077,-19.4526304 2.23446,-1.79249 40.14526,-1.79249 42.39665,0 1.53611,1.223 41.79571,90.4617974 41.79571,92.6437164 0,0.71451 -4.43978,1.0826 -13.058,1.0826 H 533.1842 l -4.40925,-9.6 -4.40925,-9.600001 h -28.02512 -28.02512 l -4.43938,9.600001 -4.43937,9.6 h -13.06826 c -7.63122,0 -13.06826,-0.40134 -13.06826,-0.96466 z m 81.49066,-37.420066 c 0.33478,-0.5474 -2.75857,-8.61897 -6.87412,-17.93685 l -7.48282,-16.94159 h -4.09302 -4.09302 l -7.49576,16.98698 c -4.12266,9.34284 -7.23433,17.41442 -6.91482,17.93685 0.78908,1.29019 36.16329,1.24674 36.95356,-0.0454 z m 60.20604,37.741396 c -0.38318,-0.38723 -0.6967,-21.546146 -0.6967,-47.019826 V 7.4717936 h 20.88922 c 18.40928,0 21.1443,0.20994 23.03788,1.76842 1.18177,0.9726304 5.91474,7.6800004 10.51771,14.9052604 4.60297,7.22526 14.59842,22.91368 22.21211,34.86316 l 13.84308,21.72632 0.5,-36.37895 0.5,-36.3789504 11.75,-0.2847 11.75,-0.2847 V 54.429194 101.45074 h -20.04966 c -15.25054,0 -20.69911,-0.33938 -22.76292,-1.41785 -1.86185,-0.972938 -9.61273,-12.296585 -24.70034,-36.085996 l -21.98708,-34.66814 -0.5,35.83336 -0.5,35.833366 -11.5533,0.28297 c -6.35431,0.15564 -11.86681,-0.0339 -12.25,-0.42104 z M 153.30019,53.450734 V 6.4026036 l 13.25,0.28196 13.25,0.28196 V 53.450734 99.934952 l -13.25,0.281968 -13.25,0.28195 z"
       id="path170" />
  </g>
</svg>
