<?xml version="1.0" encoding="UTF-8" standalone="no"?>
<!-- Created with Inkscape (http://www.inkscape.org/) -->

<svg
   version="1.1"
   id="svg2"
   width="1200"
   height="220.29474"
   viewBox="0 0 1200 220.29474"
   xmlns="http://www.w3.org/2000/svg"
   xmlns:svg="http://www.w3.org/2000/svg">
  <defs
     id="defs6" />
  <g
     id="g8">
    <path
       style="fill:#000000;stroke-width:1.00525"
       d="m 867.80015,218.43798 c -18.27714,-4.09789 -30.5,-14.55947 -30.5,-26.10504 0,-5.45521 4.31028,-12.94855 8.97073,-15.59545 5.4621,-3.10218 11.36723,-2.75741 23.59804,1.37775 14.08929,4.76351 23.97862,4.63227 29.81925,-0.39572 1.91349,-1.64727 5.06555,-8.07226 4.32655,-8.81902 -0.22143,-0.22376 -2.38529,0.30853 -4.80858,1.18287 -6.29674,2.27189 -16.21847,2.8978 -24.90599,1.57117 -18.19405,-2.77831 -33.47715,-15.70133 -40.16239,-33.96035 -3.23797,-8.8437 -3.30113,-29.24219 -0.12215,-39.452483 2.55464,-8.205014 8.0406,-17.218999 14.37232,-23.615164 10.49572,-10.602538 21.34335,-14.696541 37.20923,-14.043121 10.59724,0.43643 16.16907,2.280904 21.34353,7.065468 2.14007,1.978814 2.14255,1.978107 11.24793,-3.208811 5.00907,-2.853437 10.61367,-5.435067 12.45468,-5.736967 4.41363,-0.72377 8.93021,1.70019 12.5332,6.726331 5.14103,7.171689 5.28473,8.897963 4.88162,58.641577 -0.41677,51.42815 -0.37315,51.05841 -7.84203,66.47556 -6.3734,13.15586 -17.06056,22.31898 -31.61935,27.1103 -7.10749,2.33908 -31.74396,2.81077 -40.79659,0.7811 z m 31.36424,-88.054 c 11.50492,-8.61875 7.98979,-28.06748 -5.61078,-31.043661 -4.64814,-1.017144 -9.57856,0.975081 -13.63099,5.507841 -5.5158,6.16961 -6.01926,14.26799 -1.32819,21.36468 4.52638,6.84754 14.34073,8.83768 20.56996,4.17114 z M 61.797418,170.25193 c -3.101134,-1.5018 -6.028821,-3.92479 -7.702192,-6.37443 -1.484708,-2.17345 -13.151765,-27.59805 -25.926794,-56.49909 L 4.9411082,54.831032 4.8706262,46.677162 c -0.062871,-7.27331 0.2274181,-8.60921 2.6880563,-12.37031 4.4128925,-6.74515 9.7330045,-9.70087 18.2425615,-10.13511 9.91666,-0.50604 16.376015,2.88085 21.204727,11.11845 1.087262,1.85483 7.104515,17.79387 13.371672,35.420089 6.267157,17.626215 11.67785,31.723059 12.023762,31.326319 0.345913,-0.39675 5.673422,-14.818194 11.83891,-32.047668 6.165488,-17.22947 12.188694,-33.12507 13.384904,-35.32355 1.19621,-2.19848 4.115781,-5.37425 6.487941,-7.05726 3.63757,-2.5808 5.43859,-3.11568 11.50001,-3.41532 6.36363,-0.31459 7.8153,-0.0219 12.67154,2.55458 8.02773,4.25917 11.5206,10.30928 11.50041,19.9202 -0.015,7.15015 -0.0243,7.17374 -23.79963,60.710828 -13.08153,29.45683 -24.767038,55.01155 -25.967796,56.78824 -3.24456,4.80081 -8.621518,7.41549 -16.455417,8.00185 -5.725858,0.42856 -7.528786,0.13486 -11.764859,-1.91657 z m 113.849702,0.29925 c -8.56114,-2.2679 -12.91765,-4.42788 -20.69063,-10.25853 -5.89927,-4.42514 -13.23952,-13.30411 -16.75466,-20.2669 -4.38937,-8.69444 -6.04157,-23.63301 -3.90289,-35.28837 3.44878,-18.795092 20.50932,-36.89082 40.50121,-42.958693 8.2926,-2.516945 26.71038,-2.516415 35,9.99e-4 19.67187,5.974014 35.28699,21.413623 39.94875,39.499754 1.98065,7.68424 1.99021,21.65554 0.0201,29.29908 -5.09856,19.78072 -22.41756,36.16644 -42.67665,40.3769 -10.17335,2.11434 -22.53781,1.95538 -31.44519,-0.40424 z m 25.47752,-38.08636 c 8.77224,-6.47462 8.72809,-24.49023 -0.0755,-30.82495 -4.56972,-3.288187 -11.4551,-3.581643 -15.657,-0.66731 -6.26374,4.34434 -7.59199,7.14466 -7.59199,16.00584 0,8.86119 1.32825,11.6615 7.59195,16.00585 2.74972,1.90713 4.33999,2.276 8.23254,1.90952 2.65347,-0.24981 6.02847,-1.34285 7.5,-2.42895 z m 75.39115,38.18202 c -6.26325,-2.18623 -9.47676,-5.00375 -12.2068,-10.70261 -1.94641,-4.06307 -2.00884,-6.16559 -2.00884,-67.653382 V 28.830862 l 2.63633,-4.89479 c 8.56176,-15.8963707 31.14595,-15.1931907 39.43609,1.22788 1.84359,3.65178 1.92662,6.58288 1.90562,67.268933 -0.0206,59.537895 -0.13598,63.704455 -1.87085,67.564365 -2.62249,5.83477 -8.11287,10.05825 -14.85378,11.42626 -6.992,1.41898 -6.69719,1.43654 -13.03777,-0.77667 z m 58.42162,0.4945 c -4.90343,-1.84795 -9.08496,-5.88772 -11.66151,-11.26619 -1.97027,-4.11288 -2.01258,-5.78206 -1.74745,-68.943117 l 0.2717,-64.728191 3.00619,-4.38114 c 3.51391,-5.121081 11.96298,-9.939031 17.42973,-9.939031 8.35149,0 16.2008,4.43662 20.13766,11.382311 2.38705,4.21138 2.43453,4.77909 2.92642,34.98767 l 0.5,30.706818 8.27891,-10.719785 c 8.71947,-11.290225 12.54342,-14.814801 18.12031,-16.701673 16.00359,-5.4146 32.14072,8.824041 28.15025,24.838453 -1.46153,5.86537 -3.66086,9.14142 -11.83022,17.621955 l -6.47948,6.72629 11.38012,13.28391 c 13.41363,15.65763 15.2013,18.75294 15.19871,26.31615 -0.005,14.37302 -12.70538,24.41718 -26.82995,21.21849 -9.12078,-2.06553 -8.34183,-1.19239 -31.91857,-35.77862 l -4.07008,-5.97066 -0.55156,13.54961 c -0.30335,7.45228 -1.04659,14.71208 -1.65163,16.13288 -1.63051,3.82889 -6.1384,8.90309 -9.44412,10.63053 -4.2731,2.23297 -14.56384,2.78637 -19.21543,1.03334 z m 134.86274,0.7241 c -13.15553,-1.15822 -25.16042,-5.50152 -32.01417,-11.58253 -4.69252,-4.16346 -6.48583,-7.8393 -6.48583,-13.29436 0,-5.79971 3.17422,-10.61414 9.00807,-13.66284 5.86699,-3.06599 12.99787,-2.576 26.12047,1.79487 10.70868,3.56685 18.10332,3.91095 18.674,0.86898 0.50074,-2.66915 -3.53389,-4.64548 -17.22604,-8.43796 -19.28007,-5.34026 -25.30262,-9.21203 -30.26162,-19.45454 -2.25812,-4.66402 -2.75234,-7.01438 -2.69471,-12.815101 0.0865,-8.702012 2.91766,-14.970133 9.89979,-21.917576 9.724,-9.675699 20.29907,-13.278081 38.98004,-13.278471 18.57905,-4e-4 31.56052,4.091634 38.56885,12.157705 2.40807,2.77151 2.93115,4.277883 2.93115,8.441186 0,13.597023 -9.62425,17.982841 -28.83339,13.139518 -12.28826,-3.098318 -15.41303,-3.400273 -17.66661,-1.707171 l -2,1.502592 2,1.919197 c 1.1,1.055558 6.275,3.161453 11.5,4.679761 19.11366,5.55417 29.64746,12.449 35.18476,23.02996 3.35823,6.41708 3.29053,19.51005 -0.1374,26.57185 -8.13637,16.76157 -27.63999,24.50191 -55.54736,22.04493 z m 276.5,-0.45869 c -15.20423,-2.10786 -29.53082,-13.13513 -36.98879,-28.47052 -2.21302,-4.55049 -4.47086,-10.72305 -5.01744,-13.71681 -4.87175,-26.68408 7.21734,-53.332494 29.09427,-64.133517 15.4625,-7.634101 34.04821,-7.097741 43.96558,1.268791 l 3.43877,2.901032 10.08824,-5.443924 c 5.54853,-2.99416 11.25845,-5.44392 12.6887,-5.44392 6.22119,0 10.52816,3.489965 14.34152,11.62105 l 2.36961,5.052631 0.01,40.859897 c 0.009,39.65255 -0.0533,40.99145 -2.12294,45.31186 -2.58457,5.39521 -8.34281,9.82886 -13.93998,10.7333 -3.6983,0.5976 -5.14012,0.12446 -13.50193,-4.43071 l -9.36149,-5.09976 -4.51194,3.48029 c -5.00886,3.8636 -5.53765,4.07511 -13.98561,5.59404 -6.62962,1.192 -7.39221,1.18815 -16.56634,-0.0838 z m 23.66305,-39.37229 c 6.90783,-4.31421 9.65418,-15.9783 5.61435,-23.8448 -4.81627,-9.378433 -15.41709,-11.33553 -22.90349,-4.22839 -2.99106,2.83953 -5.77953,12.0399 -4.96647,16.38655 2.0939,11.19421 13.47495,17.17052 22.25561,11.68664 z m 399.837,39.61559 c -6.8865,-1.78051 -11.7645,-5.68955 -14.883,-11.92673 -1.3509,-2.7019 -1.6179,-7.10805 -1.6226,-26.77895 0,-12.9497 -0.4524,-25.17025 -0.9985,-27.15679 -2.4315,-8.84515 -11.9376,-11.563995 -18.2267,-5.21301 l -3.2692,3.30143 -0.5,26.50909 c -0.4736,25.11092 -0.6197,26.73556 -2.7698,30.80271 -3.5601,6.7345 -9.0141,9.78867 -18.1571,10.16775 -9.5574,0.39626 -15.078,-2.11583 -19.5662,-8.90347 l -3.0069,-4.54736 V 115.96787 74.031037 l 2.7366,-4.042105 c 3.6206,-5.347928 8.7363,-8.72075 14.165,-9.33908 3.9765,-0.45293 5.2822,0.0208 12.9386,4.694173 l 8.5158,5.197935 4.822,-3.091713 c 13.9097,-8.918465 35.1781,-9.509175 48.9659,-1.359989 5.2156,3.082679 12.4574,10.850132 15.5133,16.639353 2.3083,4.372866 2.3472,4.952995 2.6402,39.368069 l 0.2975,34.9298 -3.2975,4.94364 c -5.0659,7.59506 -15.8075,11.87398 -24.2974,9.67893 z m -165.5,-1.61566 c -27.95052,-5.68698 -46.04417,-26.88052 -45.98527,-53.86362 0.0328,-15.03631 5.38087,-27.980659 15.94952,-38.603999 11.49126,-11.550738 25.36653,-17.142749 42.53575,-17.142749 17.8622,0 30.7448,5.180272 42.5336,17.103376 8.7257,8.825029 13.2964,16.848803 15.0376,26.398262 1.2703,6.96648 0.6724,14.47258 -1.3677,17.17078 -0.6619,0.87545 -2.5325,2.46702 -4.1569,3.53684 -2.7039,1.78079 -5.5342,1.9878 -33.5,2.45038 l -30.5466,0.50527 4.2021,3.13934 c 2.3112,1.72663 6.2632,3.72245 8.7821,4.43515 5.931,1.67804 18.2426,0.85472 29.8898,-1.99883 9.7395,-2.38617 14.2838,-2.14249 19.4689,1.04397 7.1111,4.36999 9.2387,13.85381 4.8626,21.6751 -3.8995,6.96963 -15.1222,12.50937 -29.7055,14.66316 -9.1226,1.3473 -30.2607,1.06225 -38,-0.51243 z m 25,-65.72002 c 0,-0.29575 -0.6396,-2.08449 -1.4212,-3.97499 -2.5889,-6.261255 -11.7025,-8.674961 -16.9639,-4.492802 -2.3094,1.835661 -5.6149,6.810282 -5.6149,8.450062 0,0.3055 5.4,0.55545 12,0.55545 6.6,0 12,-0.24197 12,-0.53772 z m -457.2012,64.2094 c -2.03564,-1.11497 -5.03765,-3.99018 -6.67114,-6.38936 -1.63348,-2.39919 -10.43046,-19.77937 -19.54884,-38.62263 -16.50425,-34.106275 -16.57887,-34.291489 -16.57887,-41.152968 0,-11.476639 5.0122,-18.427116 15.51289,-21.51188 5.99019,-1.75973 10.82713,-1.28129 16.58179,1.640144 6.62184,3.361675 9.18277,7.600487 15.42423,25.529917 3.22328,9.259303 6.12135,16.835097 6.44017,16.835097 0.31882,0 2.77076,-6.48 5.44876,-14.4 5.65851,-16.734638 7.99673,-21.297749 13.47716,-26.301107 9.22566,-8.422571 25.0787,-5.523971 31.63689,5.78454 1.44785,2.496569 4.86091,11.033067 7.58458,18.969997 2.72367,7.936929 5.20362,15.11289 5.511,15.94657 0.30738,0.83368 3.41993,-6.618995 6.91677,-16.561508 6.78558,-19.293297 8.61157,-22.283474 15.96576,-26.144898 5.80506,-3.048032 14.72831,-2.905192 20.45653,0.327458 8.51979,4.808041 13.0455,13.914735 11.63587,23.41382 -0.46711,3.147656 -6.79268,17.000498 -18.89727,41.384498 -21.38066,43.07014 -20.95707,42.52715 -33.62976,43.10871 -6.27049,0.28776 -8.50565,-0.0317 -11.66137,-1.66665 -7.07465,-3.66534 -8.85799,-6.53404 -16.92761,-27.22986 -2.6547,-6.80842 -5.10925,-12.37894 -5.45454,-12.37894 -0.3453,0 -3.2436,6.56 -6.44068,14.57778 -6.87984,17.25359 -8.21775,19.63662 -13.16701,23.45254 -3.31992,2.55968 -4.69435,2.92619 -11.83514,3.15597 -6.52555,0.20999 -8.79069,-0.12982 -11.78017,-1.76724 z"
       id="path170" />
  </g>
</svg>
