<?xml version="1.0" encoding="UTF-8" standalone="no"?>
<!-- Created with Inkscape (http://www.inkscape.org/) -->

<svg
   version="1.1"
   id="svg2"
   width="1188"
   height="251.62105"
   viewBox="0 0 1188 251.62105"
   xmlns="http://www.w3.org/2000/svg"
   xmlns:svg="http://www.w3.org/2000/svg">
  <defs
     id="defs6" />
  <g
     id="g8">
    <path
       style="fill:#000000;stroke-width:1.00525"
       d="m 5.5190592,227.71555 v -17.17894 h 16.9999998 17 V 125.6524 40.768182 h -17 H 5.5190592 V 23.589232 6.4102822 h 485.5000008 485.5 v 17.1789498 17.17895 h -442.5 -442.499999 v 33.34737 33.347368 h 8.499999 8.5 v -7.57895 -7.578948 h 12.5 12.5 v 31.326318 31.32632 h -12.45619 -12.45619 l -0.29381,-7.32632 -0.29381,-7.32631 h -8 -7.999999 l -0.26296,35.11579 -0.26296,35.11579 h 17.512959 17.51296 v 17.17894 17.17895 H 66.019059 5.5190592 Z M 182.62812,243.72147 c -13.37375,-1.93268 -24.71116,-10.32386 -29.21579,-21.62354 l -2.39327,-6.00343 V 154.43155 92.768598 l 3.32435,-6.824196 c 3.75483,-7.70788 10.14937,-13.39072 19.36147,-17.20656 5.12318,-2.12213 6.84167,-2.2131 47.81418,-2.53121 44.60206,-0.34629 49.42715,4.7e-4 57.5,4.13223 7.19038,3.68011 10.42275,6.907 13.74322,13.71991 l 3.25678,6.68222 0.29402,39.182018 0.29401,39.18202 h -47.54401 -47.54402 v 22.78277 22.78278 l 2.45455,2.48037 c 2.41479,2.44022 2.73163,2.48039 19.56574,2.48039 9.41115,0 17.93428,-0.44513 18.94027,-0.98919 3.00643,-1.62593 4.03944,-6.70921 4.03944,-19.87739 v -12.48079 h 25.08604 25.08604 l -0.34956,16.42106 c -0.32929,15.46884 -0.50374,16.71776 -3.00836,21.53781 -5.38008,10.35378 -16.97539,17.64625 -31.13652,19.58225 -9.40385,1.28562 -70.50594,1.20605 -79.56858,-0.10362 z m 63.68756,-121.69486 -0.29662,-26.867907 -2.80576,-2.437371 c -2.71252,-2.35636 -3.33733,-2.43736 -18.79966,-2.43736 -16.60732,0 -20.86258,0.87741 -22.2734,4.59264 -0.34165,0.899697 -0.62118,13.421778 -0.62118,27.826858 v 26.19103 h 22.54662 22.54662 z m 67.20338,105.68894 v -17.17894 h 8.50826 8.50825 l -0.25825,-57.34737 -0.25826,-57.347375 -8.25,-0.2935 -8.25,-0.2935 V 80.643102 66.031342 h 33 33 v 11.75056 11.75056 l 3.25,-2.69667 c 1.7875,-1.48316 6.90711,-5.1715 11.37691,-8.19631 13.81801,-9.35093 23.06739,-12.57716 36.11236,-12.59615 13.56477,-0.0198 22.47541,4.5824 27.84944,14.38363 l 2.91129,5.30964 0.2945,38.652638 0.2945,38.65263 h -25.5445 -25.5445 l -0.0153,-30.56842 c -0.008,-16.81263 -0.41012,-31.1984 -0.89267,-31.96836 -1.59288,-2.541642 -6.1725,-0.22581 -13.37702,6.76454 -3.83289,3.71894 -9.16177,9.67163 -11.84195,13.2282 l -4.87306,6.46649 v 41.78614 41.78615 h 8 8 v 17.17894 17.17895 h -41 -41 z m 165,0 v -17.17894 h 8 8 v -57.6 -57.600009 h -8 -8 V 80.683972 66.031342 h 32.5 32.5 v 12.12883 12.12883 l 8.25,-6.59713 c 8.83054,-7.06135 23.40117,-14.92237 30.75,-16.58998 6.73093,-1.52739 18.94986,-1.27676 24.90681,0.51089 3.82106,1.14667 6.7317,3.02189 10.58734,6.82105 8.32224,8.20031 8.50585,9.33168 8.50585,52.412498 v 36.19554 h -25.5 -25.5 l -0.0136,-29.5579 c -0.008,-16.25684 -0.285,-30.58105 -0.61664,-31.83157 -1.24269,-4.685916 -6.93305,-1.806961 -16.91546,8.55813 -3.62967,3.76881 -8.36674,9.51895 -10.52683,12.77807 l -3.92747,5.92568 v 40.81116 40.81117 h 8.5 8.5 v 17.17894 17.17895 h -41 -41 z m 194,16.03265 c -12.18074,-2.01545 -22.6321,-10.43386 -27.17872,-21.89205 -2.1897,-5.51837 -2.28697,-6.95639 -2.30376,-34.05639 -0.0165,-26.69428 0.10206,-28.55594 2.09657,-32.91271 2.8705,-6.27025 8.5109,-11.54889 15.2651,-14.286 5.33791,-2.16317 7.19366,-2.29479 36.87081,-2.61506 l 31.25,-0.33724 v -21.20201 c 0,-21.163401 -0.004,-21.206521 -2.45455,-23.682388 -2.33608,-2.36068 -3.03958,-2.48038 -14.57692,-2.48038 -12.06508,0 -12.13619,0.014 -15.04545,2.953844 l -2.92308,2.953846 v 13.719848 13.71983 h -25.64184 -25.64184 l 0.55683,-15.91579 c 0.3995,-11.418772 1.05449,-17.340988 2.31814,-20.959848 2.42261,-6.93792 10.18274,-14.6333 17.9397,-17.79001 l 5.96901,-2.42909 h 43.5 43.5 l 5.71444,2.83569 c 6.73596,3.3426 12.91226,10.01678 15.42922,16.67299 1.63732,4.32998 1.82286,9.968706 2.12627,64.617638 l 0.33242,59.87369 h 6.44883 6.44882 v 17.17894 17.17895 l -57.25,-0.11813 c -31.4875,-0.065 -59.725,-0.52766 -62.75,-1.02817 z m 56,-55.53586 v -31.41899 l -15.08795,0.34531 -15.08794,0.34531 -2.41206,2.8353 c -2.41038,2.83333 -2.41205,2.85284 -2.41205,28.11984 v 25.28454 l 2.92308,2.95384 2.92307,2.95385 h 14.57693 14.57692 z m 80,39.50321 v -17.17894 h 8.50826 8.50825 l -0.25825,-57.34737 -0.25826,-57.347375 -8.25,-0.2935 -8.25,-0.2935 V 80.643102 66.031342 h 32.96826 32.96827 l 0.28173,11.62959 0.28174,11.6296 5.25137,-4.3557 c 7.235,-6.00099 19.57146,-13.39357 26.75535,-16.03304 9.0262,-3.31637 24.15687,-3.75633 31.61409,-0.91925 6.3839,2.42874 11.8585,7.31695 15.13758,13.5162 2.19339,4.1467 2.24794,5.06928 2.53611,42.890498 l 0.2945,38.65263 h -25.5445 -25.5445 l -0.0153,-30.56842 c -0.008,-16.81263 -0.41012,-31.1984 -0.89267,-31.96836 -1.62627,-2.594928 -6.25332,-0.16641 -13.85703,7.27291 -4.08341,3.99513 -9.40677,9.92367 -11.82969,13.17452 l -4.4053,5.91066 v 41.83671 41.83672 h 8 8 v 17.17894 17.17895 h -41 -41 v -17.17895 z m 176,0 v -17.17894 h 8.50004 8.5 v -57.6 -57.600009 h -8.5 -8.50004 V 80.683972 66.031342 h 42.00004 42 v 14.65263 14.652629 h -8 -8 v 57.600009 57.6 h 8 8 v 17.17894 17.17895 h -42 -42.00004 z m 111.00004,0 v -17.17894 h 8.5083 8.5082 l -0.2582,-57.34737 -0.2583,-57.347375 -8.25,-0.2935 -8.25,-0.2935 V 80.643102 66.031342 h 41.5 41.5 v 14.65263 14.652629 h -8 -8 v 57.600009 57.6 h 8 8 v 17.17894 17.17895 h -41.5 -41.5 z m -82.5,-186.504398 c -1.1,-0.25458 -4.475,-0.96305 -7.5,-1.5744 -12.2644,-2.47858 -21.00004,-8.91947 -21.00004,-15.48351 0,-4.48513 2.73564,-7.69466 9.34674,-10.96586 17.5103,-8.6642198 49.5332,-8.5293898 66.6221,0.28051 15.4512,7.96559 10.7247,19.96346 -10.2247,25.95448 -5.0917,1.4561 -32.9088,2.79211 -37.2441,1.78878 z m 105.0089,-1.02443 c -8.5306,-1.71081 -18.9704,-6.74337 -21.2355,-10.23669 -2.8707,-4.42735 -2.1851,-9.16643 1.8693,-12.92109 7.2863,-6.74772 20.3748,-9.9934798 39.8573,-9.8840598 19.684,0.11056 34.0066,4.4268798 39.9269,12.0325498 6.3881,8.20669 -3.826,17.73873 -22.6399,21.12796 -9.8276,1.77042 -28.6535,1.71128 -37.7781,-0.11867 z"
       id="path170" />
  </g>
</svg>
