<?xml version="1.0" encoding="UTF-8" standalone="no"?>
<!-- Created with Inkscape (http://www.inkscape.org/) -->

<svg
   version="1.1"
   id="svg2"
   width="300"
   height="118"
   viewBox="0 0 300 118"
   xmlns="http://www.w3.org/2000/svg"
   xmlns:svg="http://www.w3.org/2000/svg">
  <defs
     id="defs6" />
  <g
     id="g8">
    <path
       style="fill:#000000"
       d="M 22.343746,116.96865 C -4.8037211,111.53198 -7.1979252,77.136269 18.744393,65.259483 c 6.608157,-3.025315 10.463866,-2.299216 5.777212,1.087953 -24.91853777,18.009281 -10.281818,44.722744 17.091688,31.194021 11.079203,-5.475639 44.097061,-40.164436 41.091,-43.170497 -1.011338,-1.011339 -12.79373,1.464284 -17.093183,3.591484 -5.112217,2.529324 -6.714098,1.143446 -2.640392,-2.284351 3.409324,-2.868758 7.146433,-4.13008 17.298325,-5.83841 l 6.769043,-1.139074 4.676986,-6.600305 C 97.864508,33.422034 114.22879,17.089381 120.35058,13.520145 126.25487,10.077716 126.05721,9.9402404 111,7.0167971 74.888858,0.00561125 43,11.380775 43,31.273267 c 0,12.280812 22.828072,9.62882 29.584626,-3.436916 2.131223,-4.121331 3.806182,-3.632044 3.071194,0.897155 C 74.316411,36.987318 63.270606,48.772957 54.715216,51.076684 33.673001,56.742764 23.121175,33.383033 39.093949,16.494179 54.355468,0.35737277 81.919213,-3.2758184 130,4.5118063 c 34.24295,5.5463157 67.01303,6.8503447 85.74697,3.4121523 11.237,-2.0622975 12.21597,2.2734514 1.97773,8.7591474 -17.70184,11.21373 -38.03223,10.788045 -76.7247,-1.606488 -7.51305,-2.406689 -12.64283,-3.590137 -12.85801,-2.966361 -0.19691,0.570801 -1.99691,2.451831 -4,4.180066 C 113.9683,25.068011 98,43.922186 98,47.156829 c 0,1.119656 2.64468,1.063736 13.09894,-0.27697 l 8.73439,-1.12014 v -4.529761 c 0,-7.61127 5.74828,-12.609356 11.32358,-9.845776 4.81398,2.386201 2.80475,12.024625 -3.22131,15.452916 C 124.51644,48.782299 124.20446,50.503872 127,52 c 1.1,0.588702 2,1.534859 2,2.102571 0,1.533344 -4.23117,0.03332 -6.154,-2.181701 -1.60883,-1.853295 -2.02264,-1.860007 -15.14998,-0.245738 l -13.49597,1.6596 -9.209851,14.394162 C 57.722746,110.34545 43.823398,121.27026 22.343746,116.96865 Z M 127.97456,43.025436 c 2.42958,-2.429574 3.63498,-6.815896 2.25289,-8.197989 C 127.75463,32.354628 123,36.994454 123,41.880386 c 0,3.570143 2.07244,4.047178 4.97456,1.14505 z M 105,115.88157 c -2.89754,-1.14934 -8.99282,-6.77975 -9.015313,-8.32774 -0.05368,-3.69413 -1.826357,-3.67938 -7.461382,0.0621 -5.589726,3.71137 -5.775876,3.75928 -7.176756,1.84715 -1.293055,-1.76495 -1.206511,-2.14644 0.857634,-3.78049 6.323349,-5.00577 9.112175,-8.566177 13.984487,-17.853552 8.82721,-16.826007 17.22545,-24.39699 28.33464,-25.543559 5.22564,-0.539334 10.46491,2.902789 6.26981,4.119184 -21.02777,6.097142 -34.393307,29.521919 -22.77002,39.907327 13.65651,12.20209 39.04812,-18.53089 29.98609,-36.293942 -2.12678,-4.168829 -1.87667,-6.471147 0.8152,-7.504114 3.63305,-1.394132 8.155,7.450855 8.1728,15.986106 l 0.008,4 8.61614,-9.290335 C 170.48149,57.187084 185,54.957533 185,68.69815 v 2.534575 l 3.94026,-3.559791 c 9.55508,-8.632435 20.06351,-9.053618 23.15287,-0.927978 3.52148,9.262202 -8.24539,16.25663 -15.36739,9.134634 -5.07008,-5.070086 -10.49461,1.951153 -7.34018,9.500769 4.40498,10.542589 17.23982,6.748693 33.57694,-9.925122 15.82616,-16.152333 32.0403,-19.149667 38.51844,-7.120491 2.70008,5.013742 2.01935,5.713833 13.5495,-13.934907 11.45144,-19.514607 10.56048,-18.624987 18.23123,-18.203861 L 298.79939,36.5 279.8997,69.949777 C 269.50486,88.347154 261,104.44878 261,105.73116 c 0,6.24546 9.41579,2.18467 21.39786,-9.228349 C 286.73016,92.376265 290.66294,89 291.13738,89 c 5.14019,0 -12.86905,20.25519 -22.29561,25.07612 -8.09602,4.14047 -17.20725,3.3002 -18.4629,-1.70271 -0.60302,-2.40265 -2.75946,-3.18465 -3.8621,-1.40054 -1.09701,1.775 -13.63869,5.02719 -19.37211,5.02339 -10.0124,-0.007 -15.40497,-5.47808 -15.56335,-15.79099 -0.074,-4.819621 -0.26077,-5.238755 -2.08131,-4.670933 -11.10568,3.463843 -21.69761,0.885747 -25.31292,-6.161208 l -1.90428,-3.71183 -2.55166,4.41935 C 178.32773,92.511292 174.54669,99.45 171.32884,105.5 l -5.85066,11 -6.73909,0.29569 c -8.23891,0.3615 -8.26021,1.10476 0.38305,-13.36908 14.4567,-24.20893 16.9797,-30.43735 13.4995,-33.325661 C 169.07566,67.158054 159.97531,74.895052 147.45179,91.5 130.42393,114.07727 118.17981,121.1095 105,115.88157 Z m 135.39156,-11.64964 c 4.68103,-3.32744 17.40984,-19.464798 15.78153,-20.007567 -0.72505,-0.241683 -0.76493,-1.167704 -0.123,-2.8561 5.54712,-14.590028 -9.94211,-16.634502 -22.825,-3.012746 -16.41434,17.355749 -10.56404,38.479823 7.16647,25.876413 z"
       id="path170" />
  </g>
</svg>
