<svg width="100" height="100" viewBox="0 0 100 100" fill="none" xmlns="http://www.w3.org/2000/svg">
<circle cx="50" cy="50" r="50" fill="#EEEEEE"/>
<g clip-path="url(#clip0_152_10)">
<path d="M50 15C69.3171 15 85 30.6829 85 50C85 69.3171 69.3171 85 50 85C30.6829 85 15 69.3171 15 50C15 30.6829 30.6829 15 50 15ZM24.4646 66.1554C27.189 70.4632 30.9591 74.0115 35.4239 76.4701C39.8887 78.9286 44.903 80.2175 50 80.2167C60.7363 80.2167 70.1746 74.605 75.5354 66.1554L50 56.4254L24.4646 66.1554ZM55.565 46.7858L76.7604 64.0379C79.0374 59.7095 80.2238 54.8908 80.2167 50C80.2167 33.7337 67.3338 20.4513 51.225 19.8067L55.565 46.7858ZM48.775 19.8067C32.6663 20.4513 19.7833 33.7337 19.7833 50C19.7833 55.0662 21.0317 59.8408 23.2396 64.0379L44.435 46.7858L48.775 19.8067Z" fill="#111111"/>
</g>
<defs>
<clipPath id="clip0_152_10">
<rect width="70" height="70" fill="white" transform="translate(15 15)"/>
</clipPath>
</defs>
</svg>
