<svg width="100" height="100" viewBox="0 0 100 100" fill="none" xmlns="http://www.w3.org/2000/svg">
<circle cx="50" cy="50" r="50" fill="#EEEEEE"/>
<path d="M50.4969 53.2374C50.3844 53.2374 50.1688 53.0937 49.8031 52.4249C48.2729 49.5758 46.1719 47.0727 43.6313 45.0718C41.6374 43.508 39.4241 42.2466 37.0625 41.328C36.7046 41.1826 36.3452 41.041 35.9844 40.903C32.8219 39.653 29.5438 38.3624 26.5 36.5999C26.1626 36.4089 25.8292 36.211 25.5 36.0062C26.1062 34.9437 26.8125 33.928 27.5938 32.9999C28.7275 31.6447 30.0455 30.4551 31.5094 29.4655C33.081 28.4147 34.7801 27.5683 36.5656 26.9468C40.3719 25.5905 44.9312 24.9249 50.4969 24.9187C56.0687 24.9249 60.625 25.5905 64.4313 26.9499C66.2181 27.5693 67.9183 28.4147 69.4906 29.4655C70.9625 30.4624 72.2781 31.6499 73.4062 32.9968C74.1875 33.928 74.8906 34.9437 75.5 36.0062C75.1781 36.2062 74.8375 36.4093 74.5 36.6062C71.45 38.3687 68.1781 39.6593 65.0094 40.9062L63.9313 41.3312C61.572 42.2504 59.3608 43.5119 57.3688 45.0749C54.827 47.076 52.7258 49.5804 51.1969 52.4312C50.8312 53.0968 50.6125 53.2374 50.4969 53.2374ZM50.4969 75.3405C45.6719 75.3343 41.7531 74.9374 38.5281 74.1311C35.3625 73.3437 32.7313 72.1312 30.4781 70.4187C28.751 69.0923 27.2774 67.4652 26.1281 65.6155C25.0515 63.8897 24.2008 62.0329 23.5969 60.0905C22.6551 57.0718 22.1633 53.9308 22.1375 50.7687C22.1375 48.6624 22.2844 46.6655 22.5594 44.828C26.0156 46.6905 29.2875 47.6249 32.1844 48.453L32.8563 48.6405C36.8875 49.7999 40.0875 51.3187 42.6531 53.2905C44.1375 54.4405 45.4344 55.7687 46.4969 57.2405C47.65 58.828 48.5687 60.6405 49.2375 62.6312C49.5375 63.5343 49.8625 64.0937 50.4969 64.0937C51.1437 64.0937 51.4594 63.5312 51.7625 62.6312C52.9553 58.9208 55.2525 55.6631 58.3469 53.2937C60.9094 51.3187 64.1125 49.7999 68.1437 48.6405L68.8187 48.453C71.7125 47.6249 74.9844 46.6905 78.4375 44.828C78.7188 46.6687 78.8625 48.6624 78.8625 50.7655C78.8625 52.1968 78.7188 55.9655 77.4094 60.0905C76.8059 62.0325 75.9562 63.8893 74.8812 65.6155C73.7284 67.4664 72.2505 69.0936 70.5187 70.4187C68.2594 72.1312 65.6281 73.3437 62.475 74.1311C59.2406 74.9374 55.325 75.3343 50.4969 75.3405ZM80.7844 29.853C74.8187 23.4468 65.1906 20.5093 50.4969 20.4937C35.8094 20.5093 26.1813 23.4437 20.2156 29.8499C15.7812 34.603 13 41.1812 13 50.1062C13 55.0405 14.2187 67.6061 24.1375 74.0936C30.075 77.9749 37.7437 80.4874 50.4969 80.5061C63.2562 80.4874 70.9219 77.9749 76.8625 74.0936C86.7781 67.6061 88 55.0374 88 50.1062C88 41.2062 85.1969 34.5812 80.7812 29.8468L80.7844 29.853Z" fill="#101010"/>
</svg>
