<?xml version="1.0" encoding="UTF-8" standalone="no"?>
<!-- Created with Inkscape (http://www.inkscape.org/) -->

<svg
   version="1.1"
   id="svg2"
   width="2560"
   height="666"
   viewBox="0 0 2560 666"
   xmlns="http://www.w3.org/2000/svg"
   xmlns:svg="http://www.w3.org/2000/svg">
  <defs
     id="defs6" />
  <g
     id="g8">
    <path
       style="fill:#000000"
       d="M 314.32824,655.00632 C 224.84497,648.04697 143.75162,605.60788 88.691162,536.92223 51.584632,490.63338 29.729172,439.7409 20.674102,378.53817 c -2.57236,-17.38639 -2.58267,-64.75942 -0.0181,-83 5.19491,-36.94861 14.37545,-66.90377 30.65126,-100.01189 21.66228,-44.06522 53.795968,-82.90143 93.520958,-113.027764 112.39231,-85.2351997 269.70345,-85.6963797 382.4021,-1.12107 58.43143,43.850184 100.35861,106.562944 118.15682,176.733594 25.15128,99.16058 1.45007,203.9501 -63.97532,282.85236 -9.16348,11.05106 -30.23178,32.15842 -40.94065,41.01656 -47.58297,39.3596 -104.72894,63.96876 -166.07734,71.51903 -15.71739,1.93437 -45.09538,2.6716 -60.06561,1.50733 z m 52.19999,-32.44355 c 80.42638,-8.5357 151.98907,-49.53499 200.80408,-115.04355 8.80393,-11.81465 12.70282,-18.10749 11.78662,-19.02369 -0.49204,-0.49204 -90.55296,-37.16616 -197.52298,-80.43424 l -45.2323,-18.29591 -106.2677,43.59799 C 90.550852,490.61393 95.440972,488.59211 94.683552,489.34953 c -0.80081,0.80081 4.52965,8.96005 14.169238,21.68864 46.95814,62.00583 119.36235,102.9782 196.97545,111.46524 16.36363,1.78937 44.14322,1.81654 60.69999,0.0594 z M 113.45184,450.79819 c 15.05702,-11.76986 60.6764,-47.40029 101.3764,-79.17873 40.7,-31.77845 74.80583,-58.55284 75.79074,-59.49866 1.49107,-1.43189 4.79415,-23.37913 19.73835,-131.15115 9.87118,-71.18731 17.95285,-129.768984 17.95926,-130.181484 0.0184,-1.18214 -9.36328,-0.88154 -23.49448,0.7528 -54.30059,6.28009 -104.61365,27.12702 -147.49387,61.113244 -22.00725,17.44262 -49.08475,48.07188 -64.709428,73.19737 -51.47085,82.76846 -56.9646,186.69903 -14.56154,275.4746 3.41518,7.15006 6.10018,11.60777 6.82432,11.32989 0.65662,-0.25197 13.51323,-10.08801 28.570248,-21.85788 z m 481.30425,11.52089 c 12.70227,-25.75184 21.37616,-53.91418 26.26617,-85.28091 1.41282,-9.0625 1.79282,-17.54076 1.79282,-40 0,-22.45924 -0.38,-30.9375 -1.79282,-40 -8.32591,-53.40613 -27.99578,-98.738 -60.80273,-140.12808 -10.19811,-12.8662 -31.24484,-34.00068 -44.02475,-44.2083 -22.79631,-18.207954 -54.31657,-36.030204 -80.61219,-45.579914 -25.39941,-9.22424 -64.47448,-17.08371 -84.93535,-17.08371 h -5.19326 l 0.51021,3.25 c 0.28062,1.7875 8.49893,60.509104 18.26292,130.492464 9.76399,69.98335 17.9436,127.39505 18.17692,127.58155 0.23331,0.18651 31.92421,24.89464 70.42421,54.90696 38.5,30.01231 84.625,66.05873 102.5,80.10313 17.875,14.04441 32.98011,25.56468 33.56692,25.6006 0.5868,0.0359 3.22422,-4.30829 5.86093,-9.65379 z m 472.94661,-28.7722 c -22.9033,-4.9815 -38.0935,-22.75259 -42.8724,-50.1569 -2.8697,-16.45635 -1.3158,-39.86058 3.5941,-54.13146 6.4577,-18.76957 20.0269,-32.24079 37.0352,-36.76771 6.7616,-1.79965 22.7964,-1.84949 29.3686,-0.0913 16.0519,4.29425 27.0391,15.11055 33.1245,32.60922 2.4471,7.03643 5.3589,23.45637 5.3696,30.27943 l 0.01,3.75 h -43.5 -43.5 l 0.01,5.75 c 0.021,14.5485 3.6913,33.82031 8.0799,42.42262 2.7608,5.4117 9.4957,12.57443 13.9694,14.85669 6.004,3.06302 15.6068,4.30091 22.985,2.96298 16.8539,-3.05619 25.407,-12.97777 30.3812,-35.24229 0.5788,-2.59078 0.9317,-2.75 6.0954,-2.75 6.3232,0 6.3133,-0.0238 3.8999,9.35566 -5.1197,19.89655 -18.2251,33.37696 -36.1386,37.17285 -8.3196,1.76292 -19.7467,1.75481 -27.9059,-0.0198 z m 42.0636,-90.75871 c -2.0747,-19.60916 -5.6189,-29.92691 -12.8181,-37.31583 -5.9726,-6.12994 -11.0007,-7.9367 -19.8704,-7.14016 -9.4196,0.84591 -16.9025,6.50008 -22.3163,16.86229 -2.4266,4.64471 -6.4205,19.85621 -7.0819,26.97292 l -0.6386,6.87078 h 31.6933 31.6932 z m 198.6183,91.15954 c -6.8699,-1.34712 -18.0132,-7.1153 -23.7344,-12.28582 -9.6403,-8.71236 -16.7985,-22.8092 -19.8666,-39.12372 -2.2839,-12.14458 -1.5583,-33.57383 1.5219,-44.94423 8.0099,-29.56905 27.7211,-46.55577 54.0227,-46.55577 10.688,0 16.9477,1.79462 24.3526,6.98179 3.1549,2.21001 5.9356,4.01821 6.1792,4.01821 0.2437,0 2.0294,-3.15 3.9682,-7 2.9439,-5.84578 3.9353,-7 6.0126,-7 h 2.4874 v 24.06336 24.06336 l -3.1181,-0.31336 c -2.9556,-0.29703 -3.2324,-0.70424 -5.3106,-7.81336 -2.7877,-9.53617 -5.6789,-15.07659 -10.7238,-20.54966 -10.725,-11.63525 -27.6216,-12.35413 -39.0528,-1.66154 -12.0376,11.25973 -17.577,32.68324 -16.4737,63.7112 0.6353,17.8692 2.4523,28.07992 6.5923,37.04737 5.9732,12.9379 14.4648,18.81376 27.0867,18.74288 8.8751,-0.0498 13.365,-1.74197 19.4122,-7.31606 5.1369,-4.73509 9.971,-14.6837 11.7707,-24.22419 l 1.2732,-6.75 h 5.772 c 3.3735,0 5.7719,0.43738 5.7719,1.05259 0,3.74256 -3.7205,16.5556 -6.518,22.44741 -8.917,18.78015 -28.8231,27.84163 -51.4256,23.40954 z m 124.0745,-0.45054 c -20.5325,-4.4552 -35.802,-19.87881 -41.5399,-41.959 -2.9754,-11.45003 -4.0088,-26.26916 -2.7189,-38.99228 3.2929,-32.47973 18.1924,-53.86154 41.8212,-60.01605 7.4108,-1.93028 22.2817,-1.90968 29.7717,0.0412 21.7834,5.67386 35.4537,26.48979 37.2473,56.71709 l 0.5785,9.75 h -43.0864 c -23.6975,0 -43.315,0.36991 -43.5944,0.82202 -0.8746,1.41518 1.2497,24.65769 2.9562,32.34433 3.6684,16.52404 11.8318,27.80311 22.7633,31.45128 6.9043,2.30418 18.6588,2.30544 25.432,0.003 11.0981,-3.773 20.3818,-15.8438 23.3581,-30.37036 l 1.2806,-6.25 h 5.8673 c 5.1041,0 5.8048,0.22763 5.3872,1.75 -0.264,0.9625 -1.0158,4.225 -1.6707,7.25 -3.0184,13.94377 -13.0323,27.44362 -24.7688,33.39094 -10.6677,5.40575 -25.7058,6.97098 -39.0843,4.06806 z m 41.8653,-88.209 c 0,-2.0625 -0.6341,-7.575 -1.4044,-12.25 -3.8752,-23.51702 -11.6705,-33.51419 -27.0986,-34.75261 -13.4434,-1.07911 -24.3115,8.12142 -29.8296,25.25261 -1.4973,4.6487 -4.6636,21.03183 -4.6636,24.13099 0,1.12971 5.5062,1.36901 31.5,1.36901 h 31.5 v -3.75 z m 86.7755,87.46017 c -16.2073,-5.65553 -27.1747,-17.7903 -33.6415,-37.22215 -10.458,-31.42524 -4.5973,-68.05594 14.0885,-88.05529 17.4761,-18.70455 47.1044,-20.19934 61.0248,-3.07877 2.3411,2.87927 5.0204,6.34001 5.954,7.69054 1.6146,2.33549 1.7002,1.03327 1.75,-26.64528 0.034,-18.85375 -0.3378,-30.22038 -1.0559,-32.28038 -1.4069,-4.03592 -5.4102,-6.11884 -11.7602,-6.11884 -6.2129,0 -8.1314,-0.71716 -8.1314,-3.0396 0,-2.10268 1.2434,-2.55334 9.5,-3.44328 5.6274,-0.60655 28.9346,-4.95862 32.7193,-6.10957 1.6154,-0.49125 1.7363,4.90367 2,89.2848 0.2598,83.11302 0.4103,90.04464 2.0197,92.98678 2.0159,3.68525 3.8685,4.44601 12.761,5.24029 5.7152,0.51048 6.5377,0.84537 6.8121,2.77362 0.3443,2.41969 1.3832,2.10548 -15.8121,4.78262 -5.225,0.81348 -12.5018,2.31891 -16.1706,3.34541 l -6.6707,1.86635 -1.0052,-4.09371 c -0.5529,-2.25154 -1.2881,-6.34371 -1.6339,-9.09371 -0.3459,-2.75 -0.8698,-6.125 -1.1643,-7.5 -0.5255,-2.453 -0.5701,-2.43307 -2.3718,1.06 -3.2185,6.23969 -10.7469,13.68004 -16.7811,16.58501 -4.8085,2.31483 -7.2701,2.79753 -15.7024,3.07909 -8.4763,0.28303 -11.0252,-0.0238 -16.7283,-2.01393 z m 28.7665,-7.83315 c 8.1239,-3.81867 13.6665,-12.18647 17.7476,-26.79402 1.8938,-6.77834 2.1223,-10.23584 2.1538,-32.583 0.032,-22.58264 -0.179,-25.8445 -2.1796,-33.7337 -6.1463,-24.23739 -19.5508,-35.31218 -36.7047,-30.3254 -13.9831,4.065 -20.9563,17.58498 -23.5919,45.74145 -2.8017,29.93028 2.345,59.60137 12.4004,71.4899 6.6558,7.86911 20.5539,10.72697 30.1744,6.20477 z m 119.9618,8.24779 c -26.1726,-6.46076 -41.2228,-28.32688 -43.1628,-62.71043 -2.2703,-40.23557 13.3901,-69.53467 41.5943,-77.819 6.7842,-1.9927 22.6362,-2.08606 29.8126,-0.17559 16.2936,4.33763 27.0421,15.12528 33.4358,33.55773 2.1193,6.10976 4.805,22.16132 4.8142,28.77248 l 0.01,4.25 h -43.5 -43.5 l 0.017,4.75 c 0.028,7.64293 1.8867,23.22053 3.6096,30.25 2.5191,10.278 6.7701,18.27247 12.4149,23.34764 6.43,5.7812 12.978,8.01238 23.5808,8.03502 7.1418,0.0153 8.9099,-0.37024 14.6424,-3.19234 3.5859,-1.76533 8.201,-5.07065 10.2559,-7.34515 4.442,-4.91679 8.7962,-14.13525 10.4362,-22.09517 l 1.1847,-5.75 h 5.4291 c 6.2643,0 6.4698,0.50145 4.0029,9.76834 -5.1413,19.31328 -17.9823,32.52333 -35.6669,36.69188 -8.3528,1.96891 -20.6398,1.82876 -29.4069,-0.33541 z m 43.075,-91.37481 c -2.0358,-21.59508 -8.6468,-36.11591 -18.8433,-41.38873 -4.7775,-2.47056 -13.6245,-2.88977 -19.5375,-0.92578 -12.2453,4.06724 -21.3117,20.44228 -23.7051,42.81451 l -0.7221,6.75 h 31.7457 31.7457 z m 48.425,69.25 v -24 h 3.3409 c 3.2189,0 3.3842,0.19373 4.5283,5.30625 1.3814,6.17248 6.2051,16.78455 9.7349,21.41634 11.5256,15.12396 38.7474,16.19916 50.8927,2.01014 3.3835,-3.95288 6.5096,-11.72966 6.4976,-16.16423 -0.012,-4.45254 -2.2901,-9.89008 -5.7465,-13.71582 -3.624,-4.01137 -4.8849,-4.69002 -38.2479,-20.58581 -22.4916,-10.7161 -28.3989,-17.82305 -28.425,-34.19737 -0.016,-10.05796 1.8649,-16.37558 6.9311,-23.28034 7.4424,-10.14324 20.4403,-15.87507 36.0989,-15.91886 10.6704,-0.0298 15.6464,1.11894 24.0523,5.55274 l 6.1573,3.24776 2.5178,-5.8354 c 2.1363,-4.95109 2.9081,-5.8354 5.0927,-5.8354 h 2.5749 v 22.5 22.5 h -3.2719 c -3.2408,0 -3.284,-0.0632 -4.5309,-6.63632 -1.7668,-9.31368 -4.6338,-15.396 -9.5053,-20.16517 -5.7149,-5.59483 -10.5791,-7.44387 -19.6919,-7.48545 -16.1989,-0.0739 -28,10.33003 -28,24.68508 0,11.13744 5.5467,15.47081 38,29.68769 17.2868,7.57284 25.3513,12.80832 29.7364,19.30479 4.3813,6.49085 5.5554,11.52456 5.0697,21.73621 -0.342,7.19154 -0.9453,9.71357 -3.6259,15.15868 -4.2602,8.65373 -12.6397,16.4421 -21.8283,20.28838 -6.4238,2.689 -7.7265,2.86967 -20.8519,2.89189 -15.5859,0.0264 -19.9646,-1.10849 -30.1262,-7.80802 l -5.1262,-3.37971 -3.3738,6.35254 c -2.8884,5.4385 -3.7695,6.35375 -6.1238,6.36097 l -2.75,0.008 z m 393,22.4334 c -20.2177,-4.37822 -35.879,-20.29511 -41.4446,-42.12094 -5.9152,-23.19724 -3.0545,-54.14555 6.7282,-72.78557 1.7396,-3.31479 6.1028,-9.0012 9.6958,-12.63646 10.5063,-10.62969 21.2424,-14.89043 37.5206,-14.89043 16.0354,0 26.4622,4.08597 36.0336,14.12061 9.3182,9.76912 15.0709,25.46045 16.1787,44.12939 l 0.5785,9.75 h -42.9787 c -23.6383,0 -43.1689,0.19014 -43.4013,0.42253 -0.2324,0.23239 -0.1226,5.87962 0.2439,12.54941 2.0002,36.39324 13.7219,53.17516 37.2857,53.38182 10.8051,0.0948 17.0468,-2.11841 24.0655,-8.53313 6.2644,-5.72533 10.6282,-13.8797 12.6137,-23.57063 l 1.2806,-6.25 h 5.8673 c 5.1041,0 5.8048,0.22763 5.3872,1.75 -0.264,0.9625 -1.0185,4.225 -1.6766,7.25 -6.2132,28.55896 -32.8877,44.16614 -63.9781,37.4334 z m 41.6568,-92.73732 c -0.3511,-4.56715 -1.5148,-11.73074 -2.586,-15.91907 -4.5115,-17.64006 -12.034,-25.44247 -25.5776,-26.52962 -17.964,-1.44198 -30.0915,14.78313 -34.011,45.50261 l -0.6699,5.25 h 31.7414 31.7414 z M 788.32824,429.70848 c 0,-3.03075 0.35593,-3.4915 3.125,-4.04531 1.71875,-0.34375 4.30625,-0.63488 5.75,-0.64696 1.44375,-0.0121 4.55444,-0.89766 6.91264,-1.96796 7.40756,-3.36201 7.00566,-0.11176 10.75574,-86.98355 2.19557,-50.86102 3.0409,-78.94114 2.45497,-81.54904 -0.49151,-2.18762 -2.04295,-4.96904 -3.44764,-6.18094 -2.60982,-2.25161 -8.3682,-4.28098 -12.17571,-4.29097 -1.16875,-0.003 -3.55521,-0.29162 -5.30324,-0.64123 -2.80444,-0.56089 -3.14258,-0.98141 -2.875,-3.57547 l 0.30324,-2.93981 25.88086,-0.0693 25.88087,-0.0693 26.67503,72.61732 c 14.6712,39.93952 26.9302,72.87254 27.2421,73.18448 0.456,0.45596 29.8706,-77.21027 50.9439,-134.51227 l 4.2292,-11.5 h 25.8225 25.8224 v 3.13337 c 0,3.38203 -1.6135,4.32083 -7.4985,4.35855 -8.8531,0.0568 -15.2673,4.26707 -16.4631,10.80651 -1.0387,5.68008 2.5156,159.0063 3.76,162.20157 1.956,5.02241 6.5662,7.26039 17.5106,8.50032 5.8032,0.65747 5.8072,0.66026 5.5,3.82882 -0.2257,2.32771 -0.781,3.13257 -2.0882,3.02686 -25.5589,-2.06692 -36.671,-2.3718 -50.7193,-1.39159 -8.525,0.59483 -16.5125,1.30475 -17.75,1.5776 -1.9919,0.4392 -2.25,0.10328 -2.25,-2.92912 0,-3.38114 0.067,-3.43375 5.25,-4.08825 10.9684,-1.38521 14.9752,-3.54037 17.4474,-9.38454 1.2189,-2.88136 1.2642,-13.63452 0.318,-75.5 -0.6068,-39.67705 -1.3533,-75.03619 -1.6588,-78.57586 l -0.5555,-6.43576 -22.8921,61.93576 c -33.8151,91.48884 -34.4832,93.31642 -36.9916,101.18576 -1.9986,6.26972 -2.6267,7.25 -4.6456,7.25 -1.284,0 -2.5264,-0.5625 -2.7609,-1.25 -8.6448,-25.34262 -61.7164,-169.8778 -62.19965,-169.39454 -0.66405,0.66405 -6.25153,156.44575 -5.71406,159.31072 1.07506,5.73056 7.73697,10.30911 15.02785,10.32824 1.16875,0.003 3.53125,0.28683 5.25,0.63058 2.76907,0.55381 3.125,1.01456 3.125,4.04531 0,3.41808 -0.002,3.41983 -3.75,2.67564 -2.0625,-0.40957 -13.2,-0.74467 -24.75,-0.74467 -11.55,0 -22.6875,0.3351 -24.75,0.74467 -3.74755,0.74419 -3.75,0.74244 -3.75,-2.67564 z m 362.64846,2.64481 c -0.3567,-0.35665 -0.6485,-1.63435 -0.6485,-2.83933 0,-1.93046 0.6835,-2.26267 5.75,-2.79487 3.1625,-0.3322 7.2262,-1.12009 9.0304,-1.75088 6.337,-2.21552 6.2196,-1.04039 6.2196,-62.2696 0,-51.30935 -0.1304,-55.59978 -1.75,-57.59901 -1.9395,-2.39402 -7.5121,-4.00115 -14,-4.03757 -3.8011,-0.0213 -4.25,-0.27488 -4.25,-2.40039 0,-2.25813 0.4857,-2.43584 9.75,-3.56712 5.3625,-0.65483 13.7179,-2.10501 18.5675,-3.22264 4.8496,-1.11762 9.0657,-1.78385 9.369,-1.48052 0.3034,0.30334 0.9759,4.51047 1.4945,9.34917 0.5186,4.8387 1.1679,10.29991 1.4429,12.13603 l 0.4999,3.33838 3.4468,-5.83838 c 6.9826,-11.8275 17.5452,-18.34374 29.7169,-18.33281 8.56,0.008 13.153,1.49544 17.9396,5.81097 7.2787,6.56239 9.8568,16.98979 6.1381,24.82637 -3.2753,6.90201 -13.6797,8.49717 -19.2288,2.94806 -2.4333,-2.43336 -2.6069,-3.17971 -2.3424,-10.06968 0.3583,-9.32988 -1.2501,-11.5213 -8.4561,-11.5213 -9.3851,0 -17.0458,7.43966 -21.5804,20.95758 -2.101,6.26317 -2.2092,8.39685 -2.535,49.98961 -0.1872,23.89596 -0.077,44.49742 0.2454,45.78102 0.855,3.40662 5.9689,6.05229 13.1944,6.82607 6.1721,0.66097 6.3377,0.75458 6.3377,3.58127 0,2.68405 -0.207,2.84533 -2.75,2.14234 -3.5037,-0.96858 -54.8821,-1.00138 -58.3515,-0.0373 -1.4309,0.39762 -2.8934,0.43115 -3.25,0.0745 z m 1124.3515,-2.17957 c 0,-2.82669 0.1656,-2.9203 6.3377,-3.58127 8.2058,-0.87876 12.2253,-3.31859 13.5954,-8.25226 1.3302,-4.7905 1.4137,-102.09939 0.092,-107.80202 -1.2694,-5.4787 -4.0591,-7.49684 -10.3863,-7.51365 -7.4429,-0.0198 -9.8042,-0.84195 -9.4417,-3.28752 0.2633,-1.77601 1.8577,-2.32534 12.3025,-4.23864 6.6,-1.20901 15.1288,-3.14081 18.953,-4.29289 3.8241,-1.15208 7.0477,-1.99853 7.1636,-1.88099 0.5262,0.53392 2.3869,16.34358 2.4169,20.53605 l 0.034,4.67764 3.1808,-4 c 8.8184,-11.08933 18.4081,-16.93406 30.0923,-18.34071 18.5663,-2.23518 35.6737,5.26362 43.0887,18.88735 5.747,10.55925 5.8511,11.55651 6.4856,62.12446 l 0.5855,46.67111 2.3708,2.52194 c 2.3769,2.52838 9.277,4.63585 15.1784,4.63585 2.6146,0 2.9508,0.34318 2.9508,3.01182 0,2.99615 -0.022,3.00785 -4.25,2.25 -2.3375,-0.419 -14.825,-0.76182 -27.75,-0.76182 -12.925,0 -25.4125,0.34282 -27.75,0.76182 -4.1933,0.75165 -4.25,0.72335 -4.25,-2.12084 0,-2.76868 0.2283,-2.90848 5.7753,-3.53605 7.7,-0.87116 11.8151,-3.46788 13.1578,-8.30291 1.3667,-4.92164 1.3899,-80.26275 0.028,-89.80202 -1.9961,-13.97741 -7.9882,-21.39973 -18.992,-23.52504 -15.3997,-2.97433 -29.9025,4.7047 -34.6648,18.35452 -1.6372,4.69245 -1.804,9.40812 -1.804,51.0023 v 45.83178 l 3.2044,2.86341 c 2.4644,2.20208 4.6007,3.02138 9.25,3.54738 5.8378,0.66047 6.0456,0.78307 6.0456,3.56663 0,2.84419 -0.057,2.87249 -4.25,2.12084 -5.4375,-0.97469 -52.3587,-0.9447 -56,0.0358 -2.5385,0.68353 -2.75,0.51721 -2.75,-2.16206 z m -293,-1.42913 v -3.4633 l 7.5532,-1.1234 c 8.552,-1.27195 12.8058,-3.12232 14.6672,-6.38007 1.0105,-1.76872 1.2796,-19.2806 1.2796,-83.28363 0,-91.24503 0.5632,-84.83073 -7.7085,-87.79878 -2.3603,-0.84695 -6.879,-1.82369 -10.0415,-2.17053 l -5.75,-0.63062 v -3.49829 -3.49829 l 46.75,0.3847 c 40.0074,0.32922 47.5817,0.6266 52.5168,2.06191 23.3693,6.79671 35.761,24.21035 34.4936,48.47268 -0.4243,8.12227 -0.9393,10.19858 -4.1317,16.65805 -4.354,8.80964 -11.3142,15.63156 -20.6892,20.27826 -3.6936,1.83072 -5.7731,3.35854 -4.9191,3.61397 0.8138,0.24338 3.5046,0.99458 5.9796,1.66934 19.9919,5.45039 33,23.58346 33,46.00158 0,25.82036 -15.8953,46.10528 -41.686,53.19804 -7.3587,2.02371 -10.5382,2.1729 -54.564,2.5603 l -46.75,0.41137 z m 87.2008,-6.8308 c 14.9734,-3.17704 24.7935,-13.21276 28.7442,-29.37562 0.6722,-2.75 1.2032,-9.725 1.18,-15.5 -0.084,-20.84791 -5.9359,-32.81936 -18.9575,-38.78084 -6.2285,-2.85153 -22.1298,-4.47596 -39.2175,-4.00635 l -10.45,0.28719 v 41.09729 c 0,44.9982 -0.2206,43.30588 5.9996,46.0168 3.7875,1.65065 25.3418,1.82304 32.7012,0.26153 z m -0.2008,-98.37944 c 7.2212,-2.21166 14.7604,-9.74329 18.1089,-18.0907 2.109,-5.25745 2.3702,-7.49662 2.38,-20.40548 0.01,-11.41872 -0.3722,-15.59875 -1.7929,-19.67052 -2.423,-6.94482 -8.3728,-13.49401 -14.9083,-16.4101 -4.8173,-2.14942 -6.9559,-2.39257 -24.0377,-2.73302 l -18.75,-0.3737 v 40.23195 40.23196 l 16.75,-0.54794 c 11.4854,-0.37572 18.4787,-1.07739 22.25,-2.23245 z m 363.2842,107.20559 c 0.274,-0.71402 17.7034,-29.62652 38.732,-64.25 21.0286,-34.62347 38.4744,-63.57616 38.7685,-64.3393 0.4499,-1.1673 -3.2101,-1.31313 -23.0595,-0.91874 -22.5794,0.44863 -23.7984,0.57376 -28.3356,2.90871 -5.5837,2.87346 -10.9864,10.16157 -15.2346,20.55108 -2.3805,5.82196 -3.2001,6.89383 -5.4772,7.1629 -3.3979,0.40151 -3.4025,0.69817 0.3073,-19.81642 1.6411,-9.075 2.9908,-16.8375 2.9994,-17.25 0.01,-0.4125 22.553,-0.75 50.0988,-0.75 27.5459,0 49.9334,0.3655 49.75,0.81222 -0.1833,0.44673 -17.7708,29.40567 -39.0833,64.35321 -21.3125,34.94754 -38.75,64.05704 -38.75,64.68778 0,1.34912 25.9408,1.51835 38.0219,0.24804 15.1446,-1.59243 22.195,-8.01256 29.4876,-26.85125 2.6043,-6.72767 3.019,-7.25 5.7569,-7.25 2.5479,0 2.8791,0.30696 2.4277,2.25 -0.2875,1.2375 -2.0204,10.6875 -3.8509,21 l -3.3281,18.75 h -49.8646 c -40.4687,0 -49.7706,-0.24462 -49.3663,-1.29823 z m -519.2842,-77.20177 v -7.5 h 32.5 32.5 v 7.5 7.5 h -32.5 -32.5 z"
       id="path170" />
  </g>
</svg>
