<svg width="100" height="100" viewBox="0 0 100 100" fill="none" xmlns="http://www.w3.org/2000/svg">
<circle cx="50" cy="50" r="50" fill="url(#paint0_linear_152_6)"/>
<path d="M30.2863 34.2763C30.0012 34.28 29.7163 34.2897 29.4317 34.3054C29.4317 34.3054 24.765 34.5154 23.3067 36.6329C23.3067 36.6329 23.0588 36.9188 23.1988 37.225C23.1988 37.225 23.2279 37.3125 23.1696 37.3708C23.1696 37.3708 22.3821 38.0708 21.9854 38.6979C21.8454 38.9254 21.6879 39.3075 21.9854 39.5729C21.9854 39.5729 22.1167 39.675 22.1692 39.7625C22.2829 39.9492 22.3879 40.2263 22.5279 40.3896C22.7321 40.6346 23.1433 41.0546 23.7238 40.9525C23.9367 40.9146 23.9863 40.8358 23.9863 40.8358C24.2779 41.1246 24.7446 41.1158 24.7446 41.1158C24.6863 40.9292 24.4821 40.5675 24.4529 40.3488C24.4366 40.1899 24.4515 40.0294 24.4967 39.8763C24.5774 39.5847 24.7219 39.3148 24.9196 39.0858C25.0771 38.9283 25.4796 38.7504 25.8033 38.975C26.06 39.1588 26.3692 39.7567 26.1125 40.6083C26.1125 40.6725 25.8208 41.2792 25.5146 41.3667C25.5146 41.3667 25.4854 41.3783 25.4271 41.3783C25.2229 41.3783 24.8438 41.1654 24.8438 41.1654C24.8438 41.1654 24.8438 41.2179 24.8875 41.4396C24.9225 41.565 24.9663 41.7021 25.0042 41.81C25.0042 41.81 24.9313 41.9442 24.8817 42.02C24.8088 42.1513 24.7475 42.4021 24.9108 42.5158C24.9108 42.5158 25.5817 42.9738 26.2379 43.0146C26.6871 43.0438 26.8563 42.7375 26.8563 42.7375C27.1888 42.2825 27.4396 41.8917 27.7896 41.5738C28.7433 40.6988 30.0821 40.4654 30.0821 40.4654C30.1696 40.4538 31.6367 40.0454 34.1246 42.0375C33.4129 42.0958 32.5671 42.265 31.9196 42.3788C30.0763 42.7083 28.895 44.4496 28.5508 45.1554C27.6554 47.0017 29.4842 47.6375 29.4842 47.6375C29.5133 47.62 31.2342 47.4858 32.0683 45.6454C32.0683 45.6454 32.3717 44.8317 33.1854 45.0971C33.7163 45.2692 38.4062 46.9054 39.4621 47.1854C39.4621 47.1854 42.6033 48.0021 43.7846 46.5583C45.6775 47.1796 47.4508 47.48 52.0971 46.8792C52.905 46.7742 53.5408 46.8004 53.5408 46.8004C54.6258 46.8792 55.6175 47.6113 55.9179 48.0896C57.1429 50.0467 58.6888 53.9317 64.0729 53.4592L66.5083 53.2375C67.9958 53.15 69.2033 53.0917 70.4312 53.7392C70.965 54.0192 71.2625 54.1213 72.1696 54.9875C73.4092 56.1658 74.5496 57.4433 76.0663 56.7463C76.6058 56.4983 77.2125 55.5358 77.2125 55.5358C77.1827 55.2916 77.1015 55.0565 76.9743 54.8458C76.8471 54.6352 76.6768 54.4539 76.4746 54.3138C77.8542 54.6433 80.9662 54.8533 82.1679 52.7504C82.48 52.2604 82.5121 51.8229 82.3954 51.5604C82.0658 50.8225 81.1529 51.0646 81.1529 51.0646C80.7213 51.1521 80.2283 51.6479 79.4963 51.8638C77.9271 52.3304 76.6729 51.7879 76.6729 51.7879C74.255 50.7408 66.485 46.2929 62.5329 44.3504C62.5329 44.3504 57.9975 42.0754 51.3358 39.4388C51.3358 39.4388 39.2375 34.1217 30.3008 34.2763H30.2863ZM30.2863 34.6729C39.0363 34.5242 51.0325 39.745 51.1521 39.8004C52.2254 40.2263 53.2404 40.6463 54.1942 41.0429L52.8088 40.4946C51.0458 39.8277 49.2681 39.2005 47.4771 38.6133C42.9738 37.0588 41.0021 36.7846 40.865 36.7671C40.617 36.7243 40.3681 36.6874 40.1183 36.6563L39.3075 36.5629L39.7567 37.2892C36.5775 35.0404 32.7712 34.9267 32.5846 34.9208C31.8175 34.9208 31.1496 35.1396 30.6304 35.3875L30.89 34.9063L30.26 34.8771C29.3839 34.8322 28.5057 34.8497 27.6321 34.9296C28.5054 34.7651 29.3917 34.6792 30.2804 34.6729H30.2863ZM29.3558 35.2504C29.6329 35.2504 29.9304 35.2592 30.2513 35.2738L30.1462 35.4692C29.9217 35.895 29.0233 36.7758 27.5446 36.4492C27.5446 36.4492 27.5446 37.1083 29.1633 37.3446C29.1633 37.3446 30.6129 37.6013 33.0746 39.5817C33.0746 39.5817 31.8992 37.2425 29.9013 36.6358C29.9013 36.6358 29.6504 36.5833 29.7729 36.4258C29.7729 36.4258 30.9513 35.3175 32.5933 35.3175C32.5933 35.3175 37.7092 35.4283 40.9613 38.8292C40.9613 38.8292 40.8154 38.2371 40.305 37.4L40.0921 37.05C40.0921 37.05 40.2875 37.0733 40.8212 37.1608C40.8212 37.1608 42.7754 37.4029 47.3633 38.9867C47.3633 38.9867 50.8021 40.1183 52.6833 40.8621C55.5125 41.9908 62.5942 44.7325 67.1121 47.1971C67.9171 47.6346 76.0867 51.8929 76.0867 51.8929C78.3471 52.9108 79.9133 52.2925 79.9133 52.2925C80.4238 52.1 81.3483 51.3883 81.7508 51.7908C81.9579 51.9979 81.9871 52.2779 81.8879 52.5492C81.7713 52.9575 81.1879 53.5058 80.4792 53.8179C79.7354 54.1504 78.1838 54.2379 77.2883 54.0921C77.2883 54.0921 75.55 53.9171 74.0304 52.3275C73.5492 51.8258 72.96 51.2571 72.4146 50.6971C71.9433 50.1726 71.3037 49.8291 70.6063 49.7258C69.5854 49.5888 67.0917 49.5217 66.1554 49.2096C65.5283 48.9996 64.7729 48.5767 63.7667 47.0863C63.2825 46.3746 62.9413 46.1792 62.2821 45.7592C62.2821 45.7592 62.7867 46.1617 63.0725 46.6692C63.4867 47.4042 63.6937 47.9379 63.9183 48.3317C64.1429 48.7254 64.3967 49.0725 64.7788 49.3817C65.2571 49.7638 65.5546 49.8367 66.0708 49.9213C66.5667 50.0029 68.235 49.9883 69.6642 49.9679C71.0729 49.9446 71.7029 50.3996 72.1638 50.7904C72.5925 51.1521 73.3304 52.1817 73.7796 52.6338C74.3162 53.1704 74.7129 53.7188 75.7746 54.2554C76.145 54.4421 76.7488 54.9029 76.7167 55.3463C76.2383 55.8246 75.6463 55.95 74.2229 55.5679C74.325 55.6671 75.0688 56.4517 76.3433 56.0813C76.0308 56.3732 75.6159 56.5303 75.1883 56.5188C73.8525 56.4429 72.5458 54.7979 71.8108 54.1913C71.2567 53.7304 71.1896 53.6167 70.2446 52.9604C68.8067 51.9658 65.5838 52.2458 65.5838 52.2458L63.2154 52.3683C58.6071 52.7183 56.6704 48.635 56.16 47.7833C56.012 47.5303 55.8483 47.2868 55.67 47.0542C55.4367 46.7392 54.1767 45.1058 52.9021 44.5692C52.9021 44.5692 54.1562 45.6483 54.0804 46.36C54.0804 46.36 53.5613 46.1179 52.1496 46.3192C46.08 47.1854 44.0121 45.6658 44.0121 45.6658C44.295 44.4496 43.4463 43.2013 43.4463 43.2013C43.9129 43.3471 46.8996 44.3563 49.7317 43.7846C49.7317 43.7846 45.1204 43.8079 41.8858 41.2267C41.8858 41.2267 43.8983 43.7496 43.42 45.4004C43.42 45.4004 43.0904 47.1592 39.5817 46.4504C39.2054 46.3775 38.765 46.2521 33.515 44.7938C32.2783 44.4233 31.8525 45.0125 31.6279 45.3683C31.6279 45.8875 31.0067 46.4942 30.7004 46.6808C29.0729 46.3892 29.7204 44.8813 29.7204 44.8813C28.6996 46.3454 29.77 46.9929 30.1083 47.0396C29.9042 47.1358 29.7146 47.2088 29.5542 47.2671C29.5542 47.2671 28.2213 46.4767 28.965 45.1817C30.0004 43.3733 31.0563 42.7929 32.99 42.615C33.8358 42.5363 34.5387 42.475 35.0754 42.5508C36.4754 42.7433 37.3563 43.5367 39.4563 43.7379C34.9996 42.4254 34.9879 39.8442 34.9733 39.7946V39.7917C34.7254 40.6433 34.8625 41.3608 35.0813 41.9675C35.0229 41.9442 34.0458 41.3025 33.6725 41.0779C32.0742 40.1008 30.8083 39.9288 30.8083 39.9288C30.2775 39.8617 30.0325 39.2171 30.0325 39.2171C30.0033 39.185 29.9946 39.1529 29.9742 39.1238C29.2392 37.8638 28.51 37.8404 28.51 37.8404C28.7272 38.1651 28.8633 38.5372 28.9067 38.9254C28.9358 39.0858 28.9475 39.3833 28.9475 39.4708C28.9475 40.8183 27.3725 41.2413 27.3725 41.2413C26.2875 42.6208 26.3429 42.65 26.1008 42.685C25.8588 42.72 25.3279 42.4517 25.3279 42.4517C25.2871 42.4283 25.2754 42.3671 25.2813 42.3292C25.2813 42.2446 25.3629 42.1921 25.3629 42.1921C25.5671 42.0317 25.7333 41.8713 25.7333 41.8713C26.8825 40.6958 27.0196 40.1213 26.8796 39.36C26.5879 37.8317 25.4971 38.0096 25.4971 38.0096C24.9663 38.0621 24.7504 38.4996 24.7504 38.4996C24.5427 38.8714 24.3529 39.253 24.1817 39.6429C23.9483 40.1563 23.7033 40.27 23.5779 40.2933C23.5151 40.3014 23.4517 40.3044 23.3883 40.3021C23.0179 40.2875 22.7379 39.9492 22.7379 39.9492C22.7088 39.9317 22.7088 39.9113 22.6913 39.8967C22.3529 39.535 22.5979 39.0596 22.5979 39.0596C23.0529 38.0008 23.9396 37.8463 24.0563 37.8317L24.5871 37.7558C25.71 37.5663 26.2408 36.3967 26.2408 36.3967C25.8651 36.386 25.489 36.3996 25.115 36.4375C24.3683 36.5688 24.1146 37.4467 24.1146 37.4438C23.4846 37.5896 23.5021 37.0471 23.6129 36.8808C23.7121 36.7292 24.0796 36.0788 26.5033 35.5188C26.5033 35.5188 27.4192 35.2417 29.3558 35.2504ZM28.8921 35.6004C28.3088 35.6004 28.0025 35.9271 28.0025 35.9592C28.0025 35.9767 28.0813 35.9854 28.2067 35.9883L28.4108 35.9971C28.7355 35.9831 29.0536 35.9006 29.3442 35.755C29.4396 35.7159 29.5298 35.6649 29.6125 35.6033L28.8979 35.5975L28.8921 35.6004ZM29.3704 36.6592V36.6708C29.4579 36.9071 29.6854 36.9917 29.7875 37.0208V37.0179C30.2629 37.1638 30.6888 37.4204 31.0621 37.7208C29.9246 37.085 29.2742 36.9596 29.2304 36.9508C29.0763 36.9274 28.9235 36.8962 28.7725 36.8575C28.9814 36.8141 29.1849 36.7476 29.3792 36.6592H29.3704ZM25.3921 36.805C25.3921 36.805 25.2463 37.2717 24.6717 37.3708C24.6717 37.3708 24.4471 37.4233 24.3567 37.4263L24.4179 37.2513C24.4179 37.2163 24.5667 36.8488 24.8992 36.8138C24.8992 36.8138 25.0917 36.805 25.3921 36.805ZM23.4 37.4846C23.4461 37.5394 23.5014 37.5857 23.5633 37.6217C23.1696 37.7879 22.1488 38.8817 22.1488 38.8817C22.665 38.1175 23.3388 37.5458 23.3446 37.54C23.3446 37.5313 23.3738 37.5225 23.3738 37.5138C23.3738 37.505 23.4 37.4933 23.4 37.4846ZM25.5496 38.4033C25.6604 38.3888 26.1825 38.3683 26.4246 39.1908C26.3401 38.9772 26.1989 38.7906 26.0163 38.6513C25.9094 38.5771 25.7889 38.5248 25.6618 38.4972C25.5347 38.4697 25.4034 38.4675 25.2754 38.4908C25.3581 38.4392 25.4523 38.4092 25.5496 38.4033ZM21.8104 59.9808V62.5271C21.8104 63.2708 21.6471 63.7696 21.2854 64.1313C20.8042 64.6038 20.0108 64.7963 18.8354 64.7963H15V65.5429H19.165C21.1396 65.5429 22.5367 65.2746 23.2629 64.5308C23.68 64.105 23.8813 63.5712 23.8813 62.6933V59.9808H21.8104ZM29.6504 59.9808L24.8292 65.5458H26.0308L27.0458 64.3617H33.1825L34.2033 65.5458H36.525L31.695 59.9838L29.6504 59.9808ZM41.5679 59.9808C40.1592 59.9808 39.3163 60.1442 38.5638 60.5642C38.173 60.7778 37.8487 61.095 37.6265 61.4809C37.4042 61.8668 37.2925 62.3065 37.3038 62.7517C37.3038 63.8746 37.8142 64.6942 38.9283 65.1433C39.5963 65.4146 40.48 65.5429 41.6029 65.5429H47.5967V62.9908H45.5346V64.7992H42.23C41.1625 64.7992 40.5383 64.6446 40.0804 64.2946C39.6429 63.9592 39.4125 63.4517 39.4125 62.7633C39.4125 62.0954 39.6313 61.5967 40.0396 61.2671C40.5004 60.8938 41.1042 60.7246 42.2125 60.7246H47.3867V59.9808H41.5679ZM58.0646 59.9808V62.6758C58.0646 63.3758 57.9771 63.8221 57.7088 64.1925C57.2596 64.8254 56.5508 65.0529 55.0954 65.0529H54.9204C53.5321 65.0529 52.7592 64.8254 52.31 64.1954C52.0446 63.8221 51.9542 63.3992 51.9542 62.6758V59.9838H49.8833V62.7546C49.8833 63.4721 49.9621 64.0379 50.3208 64.5133C50.91 65.2833 51.995 65.7267 54.9875 65.7267H55.0196C58.0296 65.7267 59.1087 65.2833 59.6979 64.5133C60.0596 64.0379 60.1354 63.4721 60.1354 62.7546V59.9838L58.0646 59.9808ZM65.8725 59.9808L61.0483 65.5429H62.25L63.2679 64.3588H69.4017L70.4225 65.5429H72.7442L67.9142 59.9808H65.8725ZM74.5817 59.9808V65.5458H76.6525V63.6179H79.3737L82.4771 65.5429H85L81.7421 63.58C82.5179 63.5538 83.18 63.4342 83.6875 63.1629C83.9314 63.0273 84.1331 62.827 84.2705 62.5841C84.4079 62.3412 84.4757 62.0652 84.4662 61.7863C84.4662 61.0425 84.1338 60.5671 83.53 60.2988C82.9904 60.0654 82.3254 59.9838 81.0042 59.9838L74.5817 59.9808ZM76.6525 60.6808H80.7329C81.5088 60.6808 81.8529 60.7567 82.0892 60.9317C82.3138 61.1008 82.3954 61.3575 82.3954 61.7571V61.8621C82.3954 62.2208 82.3079 62.5125 82.0454 62.6963C81.7829 62.8771 81.4212 62.915 80.7592 62.915H76.6525V60.6808ZM30.1083 60.7917L32.5583 63.6413H27.6642L30.1083 60.7917ZM66.3304 60.7917L68.7804 63.6413H63.8804L66.3304 60.7917Z" fill="black"/>
<defs>
<linearGradient id="paint0_linear_152_6" x1="81.5" y1="16.5" x2="16" y2="84.5" gradientUnits="userSpaceOnUse">
<stop stop-color="white"/>
<stop offset="1" stop-color="#C1C1C1"/>
</linearGradient>
</defs>
</svg>
