<?xml version="1.0" encoding="UTF-8" standalone="no"?>
<!-- Created with Inkscape (http://www.inkscape.org/) -->

<svg
   version="1.1"
   id="svg2"
   width="1851"
   height="303.77899"
   viewBox="0 0 1851 303.77899"
   xmlns="http://www.w3.org/2000/svg"
   xmlns:svg="http://www.w3.org/2000/svg">
  <defs
     id="defs6" />
  <g
     id="g8"
     transform="translate(0,20)">
    <path
       style="fill:#ffffff;stroke-width:1.00525"
       d="m 7.5559853,245.19695 c 2.7931917,-4.86316 6.5646547,-11.57053 8.3810287,-14.90527 1.816375,-3.33474 6.14804,-10.92901 9.625922,-16.87616 11.599405,-19.8349 19.311269,-33.49939 20.52515,-36.36808 l 1.201726,-2.83997 h 45.615662 45.615666 l -0.68717,2.18785 c -0.37794,1.20331 -3.67076,7.30861 -7.31739,13.56733 -9.6351,16.53675 -18.06229,31.21539 -22.63022,39.41777 -2.2,3.95041 -6.21802,11.11468 -8.928926,15.9206 l -4.92892,8.73803 H 48.252982 2.4774543 Z m 177.5198647,6.56842 c -4.03665,-6.7654 -15.47249,-26.88025 -16.51721,-29.05264 -0.66821,-1.38947 -3.68116,-6.61894 -6.69545,-11.62105 -3.01429,-5.00211 -6.66446,-11.36842 -8.1115,-14.14737 -1.44703,-2.77895 -4.8212,-8.73888 -7.49815,-13.2443 -2.67695,-4.50542 -4.86718,-8.48437 -4.86718,-8.84211 0,-0.35773 20.37798,-0.65043 45.28439,-0.65043 h 45.28439 l 1.8567,3.28421 c 1.02119,1.80631 4.20447,7.37684 7.07398,12.37895 2.8695,5.0021 8.96602,15.68842 13.54782,23.74737 4.5818,8.05894 11.09739,19.42737 14.47908,25.26316 3.3817,5.83579 6.68752,11.63368 7.34627,12.88421 l 1.19774,2.27368 H 231.9446 186.43247 Z m 653.31051,0.81536 c -21.77915,-2.2839 -40.80898,-10.77335 -52.88716,-23.59366 -3.51294,-3.72878 -7.45168,-8.47781 -8.75276,-10.55341 -5.11815,-8.16492 -10.36008,-26.22961 -10.36008,-35.70279 v -4.4813 h 21.5 21.5 l 0.0326,2.77895 c 0.0504,4.29295 3.32011,12.89453 6.93818,18.25235 11.25275,16.66366 43.75444,22.47717 66.59288,11.91132 12.45044,-5.76 17.89808,-13.35627 17.82712,-24.85841 -0.0465,-7.53558 -2.25112,-12.75395 -7.5532,-17.87849 -3.74634,-3.6209 -16.2717,-10.36253 -19.33763,-10.40828 -1.1,-0.0164 -4.10219,-0.67454 -6.67153,-1.4625 -2.56934,-0.78795 -12.68562,-3.08421 -22.48061,-5.1028 -22.44206,-4.62494 -33.69082,-8.74023 -45.83913,-16.77003 -8.14076,-5.38088 -13.16603,-10.31346 -18.50205,-18.16081 -5.20691,-7.65748 -6.5572,-11.27794 -8.52133,-22.847821 -1.77871,-10.47762 -1.53648,-17.96644 0.92199,-28.50525 3.66221,-15.69888 13.35969,-28.34615 29.76926,-38.82449 26.11638,-16.67664 70.79826,-18.37684 99.87154,-3.80023 3.49778,1.75369 9.61505,5.70826 13.59394,8.78792 14.30826,11.07457 25.29159,32.36248 25.34319,49.12015 l 0.0148,4.8 h -21.86111 -21.86111 l -0.52796,-5.88368 c -0.66496,-7.41031 -3.34782,-12.76351 -9.06614,-18.08996 -8.02077,-7.47111 -18.88566,-11.36744 -31.6837,-11.3623 -17.81709,0.007 -32.32087,6.86406 -37.60517,17.77848 -2.34868,4.85105 -2.59507,6.32407 -2.13826,12.78331 0.79624,11.25895 3.72222,15.32327 15.24343,21.173811 5.47048,2.77795 24.65543,7.93689 36.5,9.81506 22.72047,3.60275 30.8837,5.96293 44.98402,13.00596 18.33362,9.15753 29.76946,23.3663 33.6544,41.81481 3.36433,15.97627 0.24169,38.02126 -7.20434,50.8607 -4.80751,8.28976 -15.19282,18.16681 -24.93408,23.71383 -12.002,6.83435 -22.18717,9.96793 -38,11.69108 -15.16288,1.65232 -22.73189,1.65201 -38.5,-10e-4 z m 187.00004,-0.0349 c -16.1094,-2.34858 -24.0446,-5.24712 -35.85514,-13.09717 -10.78826,-7.17057 -17.59598,-15.86437 -22.70373,-28.99382 -5.29513,-13.61104 -5.44117,-16.48609 -5.44117,-107.11659 V 19.596929 h 22 22.00004 v 84.341051 c 0,83.76649 0.015,84.38051 2.1449,90.13425 1.4954,4.03885 3.691,7.29426 7.25,10.7499 9.3431,9.07148 18.6583,12.25439 35.6051,12.16587 12.3005,-0.0643 18.7446,-1.66843 27.4776,-6.84016 5.485,-3.24827 12.0974,-10.61796 14.8209,-16.51836 l 2.2015,-4.76938 0.2774,-84.63158 0.2775,-84.631591 h 22.5093 22.5093 l -0.3141,87.157901 -0.3142,87.1579 -2.284,7.5375 c -4.7803,15.77534 -12.9994,28.42959 -23.1612,35.65923 -7.1684,5.09998 -17.1161,10.21162 -24.0017,12.33333 -14.013,4.31794 -46.1436,5.85189 -64.9983,3.10309 z m 451,-0.0656 c -32.3372,-3.67115 -56.075,-19.87745 -65.8034,-44.92544 -2.1654,-5.57505 -5.1966,-20.97813 -5.1966,-26.40601 v -2.89921 h 21.3865 21.3864 l 0.7117,4.8 c 2.31,15.58007 13.6022,27.07853 31.0115,31.57795 29.5341,7.63306 60.5334,-6.92469 60.4983,-28.41098 -0.019,-11.70665 -8.1152,-20.68345 -24.4944,-27.15894 -2.9131,-1.15167 -22.3384,-5.64375 -34.5376,-7.98677 -42.7347,-8.20776 -66.5121,-27.77441 -71.7263,-59.024441 -7.6233,-45.68724 33.7375,-82.01439 90.1746,-79.20036 36.5873,1.82429 61.8967,16.36833 74.1748,42.62459 3.3515,7.16691 6.4145,19.69269 6.4145,26.23108 v 3.57945 h -21.8601 -21.8601 l -0.5535,-5.41915 c -1.446,-14.15824 -12.3333,-25.01083 -28.5823,-28.49113 -16.9171,-3.62341 -34.9091,0.26865 -45.7641,9.89973 -4.9994,4.43579 -7.336,9.99118 -7.336,17.44213 0,7.44707 2.3363,13.00606 7.3269,17.43404 8.6937,7.713461 18.2813,10.607861 59.3931,17.930161 27.849,4.96008 50.8631,19.30332 59.569,37.12557 5.1468,10.53623 7.0059,18.68402 6.9785,30.58392 -0.073,31.81861 -18.0158,55.57284 -50.4061,66.73373 -8.1073,2.79358 -30.1562,5.60685 -42.2621,5.39231 -3.9288,-0.0696 -12.3182,-0.7141 -18.6432,-1.43216 z M 308.38636,133.78641 V 19.596929 h 32.42504 32.42504 l 2.47607,7.83158 c 1.36184,4.30737 4.11134,13.51579 6.11,20.46316 1.99866,6.94737 7.19538,24.68211 11.54827,39.41053 4.3529,14.728421 8.80364,29.962111 9.89055,33.852631 1.08691,3.89053 2.86454,10.02948 3.9503,13.64211 6.02423,20.04449 9.07125,30.53389 10.64093,36.63158 0.96574,3.75158 2.14146,6.82105 2.6127,6.82105 0.47125,0 2.02426,-3.97894 3.45114,-8.8421 1.42688,-4.86316 3.00523,-9.97895 3.50744,-11.36842 0.50222,-1.38948 2.67833,-8.89264 4.83579,-16.67369 2.15747,-7.78105 5.51707,-19.37684 7.46578,-25.76842 1.94871,-6.39158 4.67443,-15.48632 6.05714,-20.210531 1.38272,-4.72421 5.84995,-19.9579 9.92719,-33.85263 4.07723,-13.89474 8.43496,-29.01474 9.68384,-33.6 l 2.27068,-8.33685 h 32.86105 32.86105 V 133.78641 247.97589 h -21 -21 V 163.9001 c 0,-51.02417 -0.36062,-83.698401 -0.91734,-83.115801 -0.80908,0.84671 -4.77061,14.3648 -14.94016,50.981061 -1.6208,5.83579 -4.5909,16.29474 -6.60024,23.24211 -2.00933,6.94737 -4.54967,16.0421 -5.64519,20.21052 -1.09552,4.16843 -5.09371,18.49264 -8.88487,31.83158 -3.79116,13.33895 -7.90377,28.00422 -9.13912,32.58948 l -2.2461,8.33684 h -22.14958 -22.14958 l -6.20001,-21.97895 c -3.41001,-12.08842 -9.84749,-34.93894 -14.30552,-50.77895 -4.45804,-15.84 -11.15065,-39.48631 -14.87249,-52.54737 -3.72184,-13.06105 -7.73697,-27.612631 -8.92252,-32.336841 -1.18555,-4.72421 -2.57668,-9.02148 -3.09141,-9.54948 -0.58127,-0.59626 -0.93587,30.895991 -0.93587,83.115801 v 84.07579 h -21 -21 z m 244,0 V 19.596929 h 22.5 22.5 V 133.78641 247.97589 h -22.5 -22.5 z m 112.75515,19.9579 -0.25515,-94.231591 -27.75,-0.26861 -27.75,-0.26862 v -19.68928 -19.68928 h 78.5 78.5 v 19.70527 19.70526 h -27.5 -27.5 v 94.484221 94.48421 H 688.39151 665.39667 Z M 1157.3864,133.72969 V 19.483489 l 61.25,0.40269 c 64.516,0.42417 61.9112,0.2501 75.4914,5.04462 7.0238,2.47977 18.0926,9.81222 22.2895,14.76555 18.0874,21.3472 17.0023,53.95649 -2.4712,74.266031 -3.9557,4.1255 -8.2123,7.34848 -12.2595,9.28246 -6.1629,2.94498 -7.7688,4.47842 -4.6902,4.47842 6.3879,0 25.0078,15.42379 30.8298,25.53779 6.815,11.83894 9.9844,27.23579 8.4533,41.06516 -2.4052,21.72458 -13.1407,37.32858 -31.8931,46.35648 -14.9001,7.17332 -16.3072,7.2932 -85.607,7.2932 h -61.393 z m 113.12,76.72013 c 7.8821,-3.73474 13.1256,-8.88498 16.282,-15.99248 3.3777,-7.60559 4.2062,-14.45865 2.5876,-21.4015 -2.6377,-11.31335 -7.9062,-17.77742 -18.6247,-22.85113 l -5.8649,-2.77619 -31.25,-0.31761 -31.25,-0.31762 v 33.45316 33.45316 l 31.25,-0.29344 31.25,-0.29344 z m -2.62,-100.74008 c 5.5107,-2.53136 11.4429,-7.86274 14.813,-13.312801 1.8503,-2.99226 2.187,-5.01501 2.187,-13.13685 0,-11.32115 -1.5909,-14.80824 -9.7175,-21.29956 -8.2304,-6.57424 -11.4139,-7.06499 -43.8431,-6.7586 l -28.4394,0.26869 -0.2668,27.26914 c -0.1467,14.99803 -0.031,27.889291 0.2566,28.647241 0.4302,1.13293 5.8144,1.31061 30.2667,0.99878 28.3771,-0.36186 29.9732,-0.4848 34.7435,-2.67604 z m 80.5,24.07667 V 19.596929 h 22.5 22.5 V 133.78641 247.97589 h -22.5 -22.5 z m 252,0 V 19.596929 h 22.5 22.5 v 44.47346 44.473461 l 45.25,-0.26293 45.25,-0.26293 0.2605,-44.210531 0.2605,-44.21053 h 21.9895 21.9895 V 133.78641 247.97589 h -21.9906 -21.9906 l -0.2594,-49.76842 -0.2594,-49.76842 -45.25,-0.26293 -45.25,-0.26293 v 50.03135 50.03135 h -22.5 -22.5 z m 200,0 V 19.596929 h 22.5 22.5 V 133.78641 247.97589 h -22.5 -22.5 z M 135.29093,164.75498 c -2.52748,-4.52745 -7.97609,-14.1433 -12.108,-21.36857 -4.13192,-7.22526 -10.32539,-18.13894 -13.76327,-24.25263 -3.43787,-6.11368 -8.27189,-14.43396 -10.742266,-18.48952 l -4.4916,-7.373731 6.419036,-10.81574 c 3.53046,-5.94866 6.71116,-11.61072 7.0682,-12.58235 0.35705,-0.97163 3.81361,-7.03705 7.68125,-13.47872 3.86765,-6.44166 7.03208,-11.92392 7.03208,-12.1828 0,-0.25887 3.6,-6.61602 8,-14.12699 4.4,-7.51096 8,-14.05321 8,-14.53833 0,-0.48511 0.40579,-1.13545 0.90175,-1.4452 0.75645,-0.47244 14.09825,20.66369 14.09825,22.33449 0,0.30528 2.85638,5.39531 6.34752,11.31118 3.49114,5.91587 7.84629,13.48455 9.67811,16.81929 1.83182,3.33473 5.89581,10.38315 9.03109,15.66315 3.13527,5.28001 5.97996,10.52608 6.32152,11.65796 0.61462,2.03675 -1.33612,5.67147 -23.55411,43.887171 -4.02827,6.92877 -7.64361,13.39916 -8.03408,14.37863 -0.54773,1.37393 -12.50798,22.00739 -13.15056,22.68693 -0.0767,0.0811 -2.20743,-3.55676 -4.73492,-8.08422 z"
       id="path170" />
  </g>
</svg>
