<?xml version="1.0" encoding="UTF-8" standalone="no"?>
<!-- Created with Inkscape (http://www.inkscape.org/) -->

<svg
   version="1.1"
   id="svg2"
   width="404.16"
   height="60.695999"
   viewBox="0 0 404.16 60.695999"
   xmlns="http://www.w3.org/2000/svg"
   xmlns:svg="http://www.w3.org/2000/svg">
  <defs
     id="defs6" />
  <g
     id="g8"
     transform="translate(-7.9592842,4.3672407)">
    <path
       style="fill:#ffffff;stroke-width:0.32"
       d="m 51.915907,45.797943 c -1.999961,-0.538614 -4.856051,-1.937885 -5.061389,-2.479703 -0.166953,-0.440528 0.665284,-4.662205 0.981399,-4.97832 0.114121,-0.114125 0.51976,0.222874 0.901414,0.748883 1.525581,2.102602 2.578618,3.056535 4.315808,3.90962 1.474023,0.723856 2.242045,0.89103 4.058112,0.883325 2.678516,-0.01136 4.332346,-0.755485 5.994241,-2.697034 1.319046,-1.541011 1.84576,-3.134295 1.84576,-5.583338 0,-3.721542 -1.846464,-5.558035 -8.122692,-8.078824 -4.590042,-1.843549 -6.732432,-3.27735 -8.026141,-5.371519 -0.921222,-1.491207 -0.971168,-1.746089 -0.971168,-4.95592 0,-3.191842 0.05627,-3.483735 0.99161,-5.143863 1.255699,-2.228726 3.439891,-3.9098077 6.25672,-4.8155399 3.088406,-0.9930553 7.650899,-0.8115398 10.191671,0.4054679 2.827984,1.354581 2.721273,1.143929 1.888819,3.728615 -0.404135,1.254802 -0.846752,2.281458 -0.983587,2.281458 -0.136839,0 -0.459172,-0.406822 -0.716298,-0.904049 -0.257126,-0.497226 -1.042634,-1.423644 -1.745568,-2.058705 -4.72792,-4.2713907 -12.50682,-0.588634 -11.776775,5.575465 0.370675,3.129767 2.296109,4.995203 7.218708,6.993763 4.849446,1.968862 7.00216,3.172909 8.291312,4.63746 1.59872,1.816244 2.106339,3.612668 1.921769,6.801004 -0.255868,4.41999 -2.382368,7.74216 -6.242035,9.751757 -3.53193,1.838957 -7.584285,2.326899 -11.21169,1.349997 z m 66.955343,6.4e-4 c -1.232,-0.266224 -3.464,-1.079664 -4.96,-1.807648 -6.49412,-3.16017 -10.24,-9.517792 -10.24,-17.379652 0,-5.892064 1.98874,-10.788104 5.87923,-14.473952 2.67623,-2.535457 5.34448,-3.9725015 9.14691,-4.9262685 2.30341,-0.5777671 3.32728,-0.6546141 6.88,-0.5163831 6.50295,0.2530202 10.60745,1.8193134 14.57461,5.5617226 3.91248,3.690843 5.64863,8.455142 5.34763,14.674881 -0.43175,8.921616 -5.49413,15.614445 -13.82838,18.282103 -3.28845,1.052579 -9.35382,1.329879 -12.8,0.585197 z m 11.9834,-2.749587 c 6.97296,-3.418084 10.79079,-13.171343 8.81219,-22.512163 -1.14347,-5.398235 -4.53101,-9.413839 -9.59559,-11.37465 -2.6398,-1.0220306 -7.75715,-1.0507631 -10.47458,-0.05881 -4.71688,1.721815 -8.19892,5.727752 -9.67268,11.128025 -0.79575,2.915843 -0.98286,8.766181 -0.37195,11.629757 1.85519,8.696032 8.21869,13.360061 16.98261,12.447146 1.49385,-0.155613 2.91133,-0.568826 4.32,-1.259334 z M 7.6712502,45.475764 c 0,-0.06806 3.8698438,-8.804413 8.5996528,-19.414126 7.871919,-17.6579678 8.663798,-19.2903877 9.357673,-19.2903877 0.697269,0 1.418625,1.5374461 9.000348,19.1826807 4.533281,10.550476 8.242327,19.290594 8.242327,19.422486 0,0.131894 -1.264589,0.241814 -2.810198,0.244272 l -2.810199,0.0045 -1.682525,-4.546951 C 34.642937,38.577379 33.34999,35.235251 32.69511,33.651251 l -1.190689,-2.88 -7.251723,-0.08594 -7.251723,-0.08594 -1.903633,4.885943 c -1.046999,2.68727 -2.291496,6.06639 -2.765551,7.509155 l -0.861916,2.62321 -1.899312,-0.0091 C 8.525941,45.603579 7.6712502,45.543819 7.6712502,45.47576 Z M 30.391251,27.942936 c 0,-0.255367 -5.827881,-13.513693 -6.033343,-13.72575 -0.167484,-0.172859 -3.963127,8.3068 -6.073324,13.568115 -0.05867,0.146273 2.641333,0.26595 6,0.26595 3.358667,0 6.106667,-0.04874 6.106667,-0.108315 z m 55.040001,-0.05169 V 10.13125 l -3.92,0.01643 c -2.156,0.009 -4.892,0.124512 -6.08,0.256609 l -2.16,0.240177 V 8.947859 7.2512503 h 14.4 14.399998 v 1.5799373 1.5799374 l -5.759998,-0.189459 -5.76,-0.189459 v 17.809522 17.809523 h -2.56 -2.56 z M 153.59125,26.451251 V 7.2512503 h 1.06443 c 0.99369,0 1.95609,0.9674384 14.48,14.5557407 7.37857,8.005657 13.52357,14.557656 13.65557,14.560001 0.132,0.0023 0.24,-6.511741 0.24,-14.475741 V 7.4112503 h 1.6 1.6 V 26.531251 45.651252 h -0.9333 c -0.62005,0 -1.13024,-0.264797 -1.52,-0.7889 -1.5074,-2.026924 -26.23455,-29.248027 -26.5867,-29.268194 -0.31465,-0.01802 -0.4,3.186209 -0.4,15.017093 v 15.040001 h -1.6 -1.6 z M 209.91126,45.2369 c 0,-0.227891 0.70539,-5.159892 1.56754,-10.960001 0.86214,-5.800106 2.04987,-14.253648 2.6394,-18.785648 1.38246,-10.6278309 1.15535,-10.5577157 5.68706,-1.755692 5.23793,10.173751 12.42251,23.14703 12.67687,22.890784 0.0519,-0.0523 3.25135,-5.855092 7.10986,-12.895092 3.8585,-7.04 7.48859,-13.635137 8.06686,-14.655858 1.86601,-3.2937491 1.89268,-3.2123741 3.44094,10.497888 0.75513,6.686884 1.77651,15.28277 2.26972,19.10197 l 0.89675,6.944001 h -2.58367 -2.58366 l -1.0532,-11.424001 c -1.32655,-14.389033 -1.68258,-17.446336 -1.99395,-17.122783 -0.98677,1.025359 -13.57922,25.153664 -14.20535,27.218784 -0.12007,0.396 -0.40251,0.72 -0.62766,0.72 -0.22514,0 -1.30988,-1.908 -2.41052,-4.24 -2.85736,-6.054071 -12.27553,-24.109474 -12.3863,-23.745561 -0.28184,0.925938 -2.38697,21.092773 -2.5622,24.545561 l -0.20707,4.08 h -1.87071 c -1.31779,0 -1.87071,-0.122467 -1.87071,-0.414352 z m 48.33848,0.148477 c 0.0102,-0.11777 3.87629,-8.854126 8.59139,-19.414126 7.86531,-17.6152826 8.63582,-19.2000007 9.33529,-19.2000007 0.703,0 1.4049,1.4943882 9.00862,19.1797917 4.53542,10.548885 8.24622,19.289003 8.24622,19.422485 0,0.133482 -1.26,0.243974 -2.8,0.245539 l -2.8,0.0029 -1.69492,-4.545331 c -0.93221,-2.499965 -2.22975,-5.841364 -2.88342,-7.425364 l -1.18849,-2.88 -7.25173,-0.08594 -7.25172,-0.08594 -1.90363,4.885943 c -1.047,2.68727 -2.2915,6.06639 -2.76555,7.509155 l -0.86192,2.62321 -1.89931,-0.0091 c -1.04462,-0.005 -1.89099,-0.105443 -1.88083,-0.223213 z m 22.70152,-17.442441 c 0,-0.255367 -5.82789,-13.513693 -6.03335,-13.72575 -0.16748,-0.172859 -3.96312,8.3068 -6.07332,13.568115 -0.0587,0.146273 2.64133,0.26595 6,0.26595 3.35867,0 6.10667,-0.04874 6.10667,-0.108315 z m 18.88,-1.52701 V 7.1805997 l 8.08,0.1582327 c 5.72987,0.1122096 8.54537,0.2941341 9.68,0.6254775 4.49517,1.3127161 6.24,3.5535441 6.24,8.0138321 0,2.870959 -0.97047,5.083575 -2.98826,6.813081 -1.51924,1.302201 -4.62847,2.867785 -6.3125,3.178529 -0.62741,0.115773 -1.32391,0.323696 -1.54778,0.462053 -0.28916,0.178712 1.23527,2.326053 5.26438,7.415501 3.11926,3.940169 6.33926,7.955946 7.15555,8.923946 2.65485,3.148243 2.74374,2.847827 -0.84413,2.852086 l -3.1648,0.0037 -3.02122,-4.058768 c -3.14515,-4.225207 -9.96376,-12.827683 -11.15797,-14.077063 -0.41064,-0.429615 -1.07036,-0.72 -1.63574,-0.72 h -0.94753 v 9.44 9.440001 h -2.4 -2.4 z m 14.62556,-2.864225 c 3.60791,-1.834522 5.13482,-4.971109 4.31809,-8.870195 -0.48484,-2.31459 -1.43753,-3.520595 -3.55469,-4.499831 -1.5862,-0.733658 -2.28766,-0.841927 -6.18896,-0.955247 l -4.4,-0.127806 v 7.915756 7.915755 l 3.82556,-0.136395 c 3.59804,-0.128284 3.9549,-0.202156 6,-1.242037 z m 25.69444,4.33955 V 10.13125 l -3.92,0.01643 c -2.156,0.009 -4.892,0.124512 -6.08,0.256609 l -2.16,0.240177 V 8.947859 7.25125 h 14.4 14.4 v 1.5799373 1.5799377 l -5.76,-0.189459 -5.76,-0.189459 v 17.809522 17.809522 h -2.56 -2.56 z m 23.36013,-1.36 1.6e-4,-19.1200007 2.39984,-0.013139 2.39987,-0.013139 V 26.518113 45.651254 h -2.4 -2.4 l 1.3e-4,-19.12 z m 15.67987,-0.08 V 7.2512503 h 1.09408 c 1.03283,0 1.84058,0.8105162 14.4304,14.4800007 7.33498,7.964 13.46666,14.528 13.62592,14.586666 0.17011,0.06266 0.2896,-5.878913 0.2896,-14.4 V 7.4112503 h 1.6 1.6 V 26.531251 45.651252 h -0.84931 c -0.60336,0 -1.18253,-0.391354 -2,-1.351456 -3.74093,-4.393607 -25.82375,-28.586079 -26.17171,-28.672009 -0.34084,-0.08417 -0.41898,2.706098 -0.41898,14.96 v 15.063465 h -1.6 -1.6 z"
       id="path170" />
  </g>
</svg>
