<?xml version="1.0" encoding="UTF-8" standalone="no"?>
<!-- Created with Inkscape (http://www.inkscape.org/) -->

<svg
   version="1.1"
   id="svg2"
   width="279.85321"
   height="48"
   viewBox="0 0 279.85321 48"
   xmlns="http://www.w3.org/2000/svg"
   xmlns:svg="http://www.w3.org/2000/svg">
  <defs
     id="defs6" />
  <g
     id="g8">
    <path
       style="fill:#000000;stroke-width:0.220183"
       d="M 33.644921,46.390739 C 19.490184,45.410009 7.568102,38.81659 3.815451,29.893773 0.12094702,21.109213 5.054138,11.561998 16.140334,6.0413988 c 4.18687,-2.084938 9.050889,-3.52968 14.311927,-4.251018 3.174411,-0.435242 9.615349,-0.489089 12.770642,-0.106764 C 62.895307,4.0673098 75.443473,16.476786 70.9254,29.079931 66.974639,40.100568 50.859489,47.583473 33.644921,46.390739 Z m 1.321101,-2.046861 c 0,-0.03745 -0.470812,-0.557637 -1.04625,-1.155963 -2.959158,-3.076868 -5.118887,-10.661635 -5.118887,-17.977055 0,-1.021308 -0.08907,-1.534146 -0.27523,-1.584707 -0.151376,-0.04111 -1.305062,-0.294277 -2.563748,-0.562588 -7.910187,-1.686187 -13.506274,-5.258418 -14.587958,-9.312141 -0.153493,-0.57523 -0.336595,-1.045872 -0.406895,-1.045872 -0.333304,0 -2.160132,3.175541 -2.786681,4.844037 -1.261532,3.359452 -1.408252,6.201129 -0.497839,9.642163 2.231171,8.433012 11.890581,15.235821 23.980736,16.888853 2.134789,0.291879 3.302752,0.384982 3.302752,0.263273 z m 8.697248,-0.403035 c 8.930944,-1.327162 16.707003,-5.707396 20.789366,-11.710597 3.673167,-5.401464 3.813159,-12.131139 0.366257,-17.606602 -1.236735,-1.964575 -1.669385,-2.306448 -1.669385,-1.319122 0,1.760232 -2.492655,4.693438 -5.443347,6.405405 -2.72801,1.582768 -7.01437,3.021502 -11.644571,3.908549 -0.442252,0.08473 -0.469784,0.252077 -0.585739,3.560468 -0.24271,6.924801 -2.170053,13.199522 -4.907139,15.975824 -0.53836,0.546073 -0.978837,1.059468 -0.978837,1.140877 0,0.156695 1.525546,0.02382 4.073395,-0.354802 z m -5.254862,-6.997184 c 2.019021,-1.231139 3.611679,-5.49676 3.961238,-10.609396 l 0.144566,-2.114409 h -5.329436 -5.329438 l 0.136668,1.453858 c 0.57757,6.144121 2.052826,10.18763 4.125331,11.30707 0.913625,0.493484 1.434745,0.48504 2.291071,-0.03712 z m 3.108073,-18.431931 c 0.621791,-0.166634 0.628538,-0.591131 0.0448,-2.819762 -1.080815,-4.126437 -3.049416,-6.4740302 -4.913097,-5.8589602 -1.583534,0.5226132 -2.921472,2.6830392 -3.795585,6.1288992 -0.642205,2.531645 -0.640685,2.416236 -0.03337,2.533211 0.779895,0.150214 8.146212,0.164284 8.697248,0.01661 z M 29.696547,15.949952 c 1.258518,-6.2375622 3.743749,-10.4044342 6.676472,-11.1941342 3.484542,-0.93829 7.111383,4.082915 8.536776,11.8187972 0.304295,1.65147 0.206699,1.620074 3.068554,0.987131 4.090311,-0.904636 7.815395,-2.743537 8.910843,-4.398867 0.809791,-1.223677 0.887166,-2.028431 0.309721,-3.2212722 -1.158425,-2.392989 -5.540701,-4.414577 -11.994359,-5.533118 -3.201287,-0.554844 -12.498198,-0.557517 -15.777406,-0.0045 -6.409187,1.080796 -10.994585,3.135472 -12.200151,5.466779 -1.080459,2.0893792 0.386238,4.2593152 4.034523,5.9689592 2.006792,0.940415 6.369702,2.171586 7.40718,2.090236 0.618825,-0.04852 0.650433,-0.109408 1.027847,-1.979974 z m 95.625143,24.830499 c -3.27601,-0.712468 -5.8895,-2.177538 -8.44741,-4.735449 -3.48099,-3.480993 -5.05657,-7.254386 -5.05657,-12.110092 0,-4.855707 1.57558,-8.6291 5.05657,-12.110092 3.481,-3.4809922 7.25439,-5.0565732 12.1101,-5.0565732 8.38165,0 15.26355,5.7330972 16.86344,14.0484192 1.74244,9.056189 -4.25426,18.055659 -13.31022,19.975141 -1.8145,0.384595 -5.42138,0.378921 -7.21591,-0.01136 z m 7.29571,-6.604712 c 1.69278,-0.806482 3.98044,-3.085848 4.79126,-4.773884 1.69576,-3.530381 1.69576,-7.403509 0,-10.93389 -0.80243,-1.670583 -3.09482,-3.961563 -4.79126,-4.788308 -1.20478,-0.587142 -1.52506,-0.64383 -3.63765,-0.64383 -2.17122,0 -2.40827,0.04515 -3.77821,0.719566 -2.64901,1.304104 -4.78436,3.987061 -5.5681,6.996006 -0.18542,0.711909 -0.33714,2.144489 -0.33714,3.183511 0,3.290523 1.0562,6.045932 3.12195,8.144523 2.10877,2.142293 3.9608,2.892315 6.8964,2.792852 1.63808,-0.0555 2.2107,-0.176266 3.30275,-0.696546 z m 60.75072,6.606695 c -3.29557,-0.717043 -6.70303,-2.692685 -8.99103,-5.212982 -1.67601,-1.846179 -2.809,-3.799108 -3.68403,-6.350138 -0.68071,-1.984499 -0.71749,-2.255432 -0.71749,-5.284404 0,-3.028971 0.0368,-3.299905 0.71749,-5.284404 1.69371,-4.937783 5.11063,-8.6805352 9.65013,-10.5703322 4.13773,-1.722543 9.01729,-1.777132 13.05543,-0.146053 6.54517,2.6437122 10.79676,8.9445652 10.79676,16.0007892 0,8.132979 -5.68684,15.175354 -13.61044,16.854667 -1.82034,0.385799 -5.42725,0.38223 -7.21682,-0.0071 z m 7.44444,-6.67227 c 3.64968,-1.796731 5.89659,-5.67403 5.89659,-10.175254 0,-4.510901 -2.24581,-8.377983 -5.91436,-10.184003 -1.35954,-0.669299 -1.60084,-0.71508 -3.76909,-0.71508 -2.19517,0 -2.39473,0.03923 -3.80841,0.748588 -1.77333,0.889827 -3.78897,2.923124 -4.64089,4.681549 -2.15848,4.455252 -1.47637,9.856729 1.68099,13.311384 2.16187,2.365434 4.09757,3.210722 7.11636,3.107604 1.73111,-0.05913 2.19946,-0.164653 3.43881,-0.774788 z M 92.433916,27.127571 V 13.80647 h -5.064224 -5.06422 V 10.833993 7.8615158 h 13.651374 13.651384 v 2.9724772 2.972477 h -5.06422 -5.064224 v 13.321101 13.3211 h -3.52294 -3.52293 z m 66.935784,7.106664 v -6.214437 l -6.13246,-9.803912 c -3.37286,-5.392151 -6.20256,-9.9277652 -6.28823,-10.0791412 -0.12227,-0.216059 0.73458,-0.273628 3.98567,-0.267782 l 4.14144,0.0075 3.87167,6.7631942 c 2.12943,3.719758 3.95878,6.750551 4.06525,6.735096 0.10646,-0.01545 1.93118,-3.060213 4.05493,-6.76613 l 3.86136,-6.7380302 4.13619,-0.0045 c 3.87227,-0.0042 4.12294,0.02007 3.9286,0.380809 -0.11417,0.211927 -2.94151,4.7413072 -6.28298,10.0652902 l -6.07539,9.679968 v 6.228288 6.228288 h -3.63303 -3.63302 z m 67.37614,-7.106664 V 13.80647 h -5.06422 -5.06422 V 10.833993 7.8615158 h 13.63914 13.63913 l 0.0673,2.8814982 c 0.037,1.584824 0.026,2.922438 -0.0245,2.972477 -0.0505,0.05004 -2.35412,0.09098 -5.11927,0.09098 h -5.02752 v 13.321101 13.3211 h -3.52293 -3.52294 z m 16.51271,9.633027 c 0.832,-2.02844 3.83896,-9.33578 6.68215,-16.238532 l 5.1694,-12.5504592 4.48388,-0.05936 4.48388,-0.05936 6.54089,15.9125742 c 3.59749,8.751915 6.60374,16.088195 6.68056,16.302845 0.13097,0.366031 -0.118,0.386546 -4.00813,0.330276 l -4.1478,-0.06 -0.79873,-2.091743 c -0.43931,-1.150459 -1.07054,-2.81151 -1.40273,-3.691227 l -0.60396,-1.599483 -6.73938,0.0582 -6.73935,0.0582 -0.62537,1.651376 c -0.34392,0.908257 -0.97829,2.56789 -1.4097,3.688073 l -0.78436,2.036697 h -4.147 -4.14698 z m 20.91849,-9.27903 c 0,-0.237895 -4.36318,-11.72635 -4.50886,-11.872025 -0.0565,-0.05647 -0.21443,0.183539 -0.35103,0.533362 -0.13661,0.349823 -1.12058,2.914941 -2.1866,5.700262 -1.06604,2.785321 -2.00803,5.237615 -2.09329,5.449541 -0.14475,0.359699 0.15398,0.385321 4.49236,0.385321 2.57738,0 4.64742,-0.08751 4.64742,-0.196461 z"
       id="path170" />
  </g>
</svg>
