<?xml version="1.0" encoding="UTF-8" standalone="no"?>
<!-- Created with Inkscape (http://www.inkscape.org/) -->

<svg
   version="1.1"
   id="svg2"
   width="2560"
   height="391"
   viewBox="0 0 2560 391"
   xmlns="http://www.w3.org/2000/svg"
   xmlns:svg="http://www.w3.org/2000/svg">
  <defs
     id="defs6" />
  <g
     id="g8">
    <path
       style="fill:#000000"
       d="m 626.5329,352.65636 c -67.9543,-0.4219 -89.94587,-0.85321 -93,-1.82395 -15.72351,-4.99769 -26.07148,-11.05305 -37.69825,-22.05999 -12.4552,-11.7912 -18.80397,-21.70888 -24.18939,-37.78723 l -4.29325,-12.81766 -0.69168,-123.75 -0.69168,-123.749997 h 40.86831 40.86831 l 0.66287,57.75 c 0.36457,31.762497 0.66329,81.233647 0.66381,109.935877 l 9.5e-4,52.18588 4.31947,6.31412 c 5.83558,8.53035 11.05381,12.38944 17.84284,13.19551 31.00896,3.68173 87.95861,5.48945 116.33769,3.69285 31.84852,-2.01625 55.93386,-5.52428 60.33908,-8.78841 3.98144,-2.95011 8.94622,-9.85155 10.11531,-14.06109 0.68313,-2.45974 1.03635,-40.48872 1.04003,-111.97474 l 0.006,-108.249997 h 42.93001 42.93001 l -0.5178,120.749997 -0.51779,120.75 -2.37658,10.18216 c -4.30962,18.4641 -11.03557,31.6031 -22.27914,43.52188 -13.06105,13.8454 -23.97616,20.31485 -40.27738,23.87264 -10.00324,2.18324 -36.01835,4.01308 -52.39133,3.68507 -6.05,-0.1212 -51.05,-0.46902 -100,-0.77292 z m 262.5,-161.43059 V 30.684753 l 149.25,0.58034 c 123.3393,0.47959 150.2916,0.82492 155.25,1.98915 8.7133,2.0459 24.9561,10.41255 32.7575,16.87333 13.6826,11.33145 22.2401,25.55376 25.3807,42.18239 2.6157,13.849017 2.5921,41.912177 -0.043,51.857567 -3.1693,11.95877 -7.2811,19.23157 -15.6801,27.73388 l -7.6399,7.73388 4.7861,3.07125 c 13.6826,8.78008 23.76,26.43034 27.5575,48.26601 1.2552,7.21786 1.4864,13.49542 1.075,29.19498 -0.626,23.89084 -2.023,30.30816 -10.3115,47.36416 -4.7726,9.82119 -6.633,12.48523 -13.7021,19.62109 -6.6106,6.67301 -9.8103,9.03911 -16.6797,12.33437 -9.5067,4.56033 -18.9241,7.36418 -33,9.82505 -8.4833,1.48313 -24.9907,1.70334 -154.25,2.05773 l -144.7505,0.39686 z m 261.2842,85.96947 c 16.7355,-3.54624 23.6539,-10.74416 24.508,-25.49847 0.8491,-14.66791 -3.6217,-22.88559 -15.7936,-29.02993 l -5.8673,-2.96184 -90.5657,-0.68288 -90.5656,-0.68288 v 29.62521 29.62521 l 8.75,0.3333 c 4.8125,0.18332 43.4,0.41802 85.75,0.52157 63.6825,0.15571 78.1734,-0.0604 83.7842,-1.24929 z m -0.9897,-127.09617 c 7.5063,-1.89725 13.1665,-5.58852 17.0566,-11.12354 2.3298,-3.31483 3.0022,-5.5134 3.4041,-11.13034 0.2754,-3.84976 0.1928,-8.64149 -0.1837,-10.64828 -0.8565,-4.56546 -6.0551,-10.41752 -11.8053,-13.28934 l -4.3934,-2.19416 -91.1864,-0.68684 -91.1864,-0.68685 v 25.6639 25.66391 h 86.0445 c 74.8488,0 86.8519,-0.20408 92.25,-1.56846 z m 107.8722,200.71476 c 0.1833,-0.46953 39.4833,-72.68684 87.3333,-160.48291 l 87,-159.629217 37,0.11447 c 20.35,0.063 42.1418,0.39277 48.4263,0.73292 l 11.4263,0.61844 81.8576,150.999997 c 45.0216,83.05 83.8696,154.7125 86.3288,159.25 l 4.4713,8.25 h -49.8844 -49.8844 l -10.7273,-19.75 c -5.8999,-10.8625 -12.812,-23.2375 -15.3601,-27.5 l -4.6329,-7.75 h -93.2379 -93.2379 l -5.7727,9.89525 c -3.175,5.44238 -10.0477,18.03078 -15.2727,27.9742 l -9.5,18.07896 -48.3333,0.0258 c -26.5834,0.0142 -48.1834,-0.35837 -48,-0.82791 z M 1534.547,226.48677 c 0.3278,-0.3278 -2.8094,-6.96058 -6.9714,-14.73952 -4.1621,-7.77895 -13.6934,-26.39168 -21.1807,-41.36163 -12.3919,-24.7762 -25.0948,-48.34015 -28.6107,-53.07303 -1.259,-1.69489 -1.7714,-1.04775 -5.9385,7.5 -2.5083,5.14522 -10.2607,19.92994 -17.2277,32.85494 -12.3949,22.99486 -35.5851,68.36228 -35.5851,69.6158 0,0.80039 114.7082,0.009 115.5141,-0.79656 z m 734.4859,124.223 c -71.6527,-0.66698 -69.1424,-0.45953 -83.314,-6.88524 -9.8499,-4.46615 -17.4943,-9.76626 -25.9758,-18.00993 -12.9296,-12.56701 -19.145,-24.20427 -24.3798,-45.64707 -1.5538,-6.36451 -1.7399,-18.00763 -2.0502,-128.25 l -0.3413,-121.249997 h 28.3725 c 15.6048,0 34.5185,0.29476 42.0305,0.65503 l 13.6581,0.65503 V 141.84243 251.70727 l 2.6165,4.23013 c 3.2553,5.2631 9.078,11.47165 12.3922,13.21344 1.3798,0.72516 10.6048,2.14064 20.5,3.1455 22.9722,2.33283 104.4217,2.64652 133.4913,0.51413 21.6612,-1.58895 24.6476,-2.55603 32.3933,-10.48969 4.4842,-4.59291 5.4572,-6.28389 6.4442,-11.19831 0.8402,-4.18345 1.1625,-35.55023 1.1625,-113.12172 V 30.667533 h 28.3419 c 15.588,0 34.488,0.29476 42,0.65503 l 13.6581,0.65503 V 155.92506 279.87252 l -2.9717,8.87002 c -11.6513,34.77671 -33.5642,53.18794 -72.0283,60.51813 -10.2235,1.94832 -62.9358,2.40848 -166,1.4491 z m -2097.5,-1.05412 C 113.45427,347.18315 97.32692,344.29052 79.430146,333.13595 55.505245,318.22421 46.08561,295.11292 43.678119,245.41753 l -0.423893,-8.75 h 31.233776 c 17.178577,0 36.028778,0.29338 41.889338,0.65197 l 10.65556,0.65196 v 7.68911 c 0,12.3029 3.61239,21.23279 10.40982,25.73327 2.66492,1.7644 5.84252,2.20897 23.09018,3.23045 48.60885,2.87883 121.02493,2.43331 164,-1.00896 16.51564,-1.32288 16.79428,-1.38927 20.87706,-4.974 5.66067,-4.97014 7.93289,-11.09263 7.40675,-19.95747 -0.73121,-12.31988 -5.44782,-18.63667 -15.97213,-21.3909 -4.66477,-1.22077 -34.36169,-3.33788 -113.81168,-8.1137 -100.00495,-6.01138 -108.13927,-6.6351 -116.66899,-8.94583 -32.987649,-8.93648 -52.687746,-26.26775 -59.182235,-52.0659 -3.459625,-13.74272 -4.422125,-23.62089 -3.876808,-39.78784 0.569844,-16.89408 2.024796,-23.954747 7.326088,-35.552437 13.660939,-29.88617 41.865549,-46.94492 84.401945,-51.0481 41.66939,-4.01954 196.19938,-3.44554 221.06414,0.82115 28.72206,4.92859 45.1559,14.38374 56.37094,32.43283 7.74002,12.45652 11.10787,25.44089 12.09589,46.634397 0.29486,6.325 0.73741,13.4125 0.98344,15.75 l 0.44733,4.25 H 384.53282 343.071 l -0.46298,-2.25 c -0.25464,-1.2375 -0.64621,-5.41579 -0.87016,-9.2851 -0.5489,-9.48401 -2.63541,-13.56492 -8.59353,-16.80774 -10.16267,-5.531217 -11.63755,-5.627597 -86.11143,-5.627547 -61.55142,4e-5 -85.469,0.58756 -103.24736,2.536197 -6.44996,0.70696 -10.56535,3.06798 -15.03932,8.62814 -2.47966,3.08166 -3.05506,4.85005 -3.47138,10.66872 -0.66404,9.28079 1.63702,14.19589 9.2688,19.7984 4.99101,3.6639 6.26705,4.11525 13.25594,4.68876 23.83934,1.95628 67.21366,4.5122 121.23332,7.14392 35.76055,1.74218 77.58848,4.19296 86.5,5.06822 8.79807,0.86411 21.64008,4.0269 30.09189,7.41117 23.79593,9.52835 37.9051,26.64384 45.38309,55.05312 3.17935,12.07852 3.93965,36.76381 1.5746,51.12356 -3.99921,24.28178 -13.92426,44.77579 -27.74843,57.29709 -11.75886,10.65064 -28.97111,17.36141 -50.02679,19.50461 -28.20247,2.87064 -142.63583,4.76665 -183.27436,3.0366 z m 1550.7469,-158.73812 0.2531,-159.749997 147,0.12173 c 105.4987,0.0874 149.1174,0.44745 154.5,1.27545 11.2006,1.72297 22.1163,5.6933 30.2449,11.00091 10.1958,6.65741 20.9566,18.61002 25.7498,28.60191 12.4232,25.89701 16.6654,58.530607 10.634,81.803557 -4.6394,17.90169 -13.7445,33.18457 -24.0217,40.31994 -3.0708,2.13208 -5.5856,4.1015 -5.5883,4.3765 0,0.275 1.5675,1.57092 3.4895,2.87982 1.9219,1.3089 6.3864,5.44538 9.9209,9.19218 11.5072,12.19818 18.9193,31.09446 21.463,54.71722 1.2029,11.17187 1.4938,59.72775 0.4519,75.46078 l -0.6456,9.75 h -41.1927 -41.1926 l -0.6532,-15.75 c -0.3593,-8.6625 -0.6704,-25.875 -0.6915,-38.25 -0.042,-24.43731 -1.2459,-34.65066 -4.9603,-42.06269 -4.3218,-8.62403 -10.9991,-13.77076 -21.5081,-16.57796 -3.9866,-1.06491 -22.5497,-1.33802 -91.5897,-1.34748 l -86.5896,-0.0119 -0.6604,25.66221 c -0.3632,14.11422 -0.6603,39.76422 -0.6603,57 v 31.33779 h -42.0031 -42.003 z m 269.0279,-31.15485 c 6.0517,-0.99569 11.4173,-5.25371 14.7207,-11.68192 2.2055,-4.29162 2.4946,-6.06988 2.4219,-14.89337 -0.045,-5.51092 -0.6269,-11.93827 -1.2921,-14.28299 -1.4931,-5.26277 -5.9408,-10.45571 -12.0125,-14.02509 l -4.6128,-2.71178 -92,-0.5323 c -50.6,-0.29276 -92.225,-0.36841 -92.5,-0.1681 -0.275,0.2003 -0.6317,13.60233 -0.7927,29.78229 l -0.2926,29.41811 90.7926,-0.0596 c 49.936,-0.0328 92.9414,-0.41314 95.5675,-0.84524 z"
       id="path170" />
  </g>
</svg>
