<?xml version="1.0" encoding="UTF-8" standalone="no"?>
<!-- Created with Inkscape (http://www.inkscape.org/) -->

<svg
   version="1.1"
   id="svg2"
   width="1200"
   height="188.96841"
   viewBox="0 0 1200 188.96841"
   xmlns="http://www.w3.org/2000/svg"
   xmlns:svg="http://www.w3.org/2000/svg">
  <defs
     id="defs6" />
  <g
     id="g8">
    <path
       style="fill:#000000;stroke-width:1.00525"
       d="m 200.48297,179.345 c -12.7415,-2.82967 -27.89689,-10.3326 -29.27522,-14.49321 -0.81402,-2.45723 -0.49008,-2.90249 4.20514,-5.77987 l 5.08711,-3.11754 3.89071,3.33619 c 8.40604,7.20798 21.92368,8.47337 32.84364,3.07449 10.54425,-5.21312 28.09728,-20.77497 43.76565,-38.80097 1.925,-2.21466 6.2,-7.11472 9.5,-10.88904 6.31051,-7.21753 7.92282,-10.06192 7.03249,-12.40652 -0.41122,-1.082895 -1.68295,-0.591321 -5.34135,2.06464 -2.6409,1.91728 -10.62678,6.55748 -17.74639,10.31158 -36.97321,19.49555 -45.4672,23.12406 -63.65951,27.1944 -19.92214,4.45736 -35.68435,4.68777 -40.61049,0.59362 -3.3364,-2.77289 -3.50237,-9.78488 -0.33411,-14.1153 2.95242,-4.03539 2.33521,-4.67666 -2.08597,-2.16729 -1.91436,1.08655 -4.32981,2.4504 -5.36766,3.03076 -1.03786,0.58038 -6.61201,3.3159 -12.38701,6.07896 -19.49972,9.32967 -35.112893,12.77369 -45.499776,10.03657 -4.30823,-1.13529 -5.276438,-1.87661 -7,-5.35964 -1.100123,-2.22315 -2.043552,-4.16168 -2.096509,-4.30782 -0.05296,-0.14614 -2.527956,0.81547 -5.5,2.13692 C 58.757409,140.72187 51.672307,141.94466 34,141.96239 17.639905,141.9788 17.455514,141.95403 12.253475,139.0413 4.3604892,134.62185 0.78988167,128.42148 0.19911028,118.10882 -0.29199811,109.53592 0.39413034,106.82488 6.2657939,94.138133 14.808128,75.680931 40.28476,49.981386 65.932554,33.94931 88.429486,19.886793 108.22834,11.922829 127.83875,9.0479415 142.05129,6.9643801 151.68,8.6355477 161.31143,14.857489 l 2.81142,1.816194 3.45204,-3.789473 3.45203,-3.7894737 h 18.52764 18.52764 l -3.7911,5.4570147 c -2.08511,3.001358 -10.17904,13.573989 -17.98652,23.494735 -7.80748,9.920747 -15.68248,19.97634 -17.5,22.345762 -1.81752,2.369424 -4.87958,6.27839 -6.80458,8.686593 -6.84766,8.566526 -12.98373,16.402204 -17.91643,22.879048 -2.75134,3.612632 -8.55077,11.115791 -12.88761,16.673681 -4.33684,5.5579 -8.1876,10.958 -8.55723,12.00021 -0.61698,1.73967 -0.21627,1.85677 4.88971,1.42888 6.28086,-0.52634 24.07938,-9.06585 34.80959,-16.7012 3.35628,-2.38825 7.20734,-4.30683 8.64484,-4.30683 2.96756,0 6.24945,-3.232673 22.05714,-21.726319 22.36949,-26.170399 42.69437,-44.334336 63.73846,-56.961803 18.46743,-11.081346 27.11987,-14.5064051 36.46161,-14.4332821 6.48789,0.050784 8.24737,0.7387438 9.60816,3.7567991 1.53778,3.410569 1.4539,5.517816 -0.44841,11.266132 -2.41156,7.287129 -7.48217,14.378818 -16.11796,22.542389 -15.18062,14.350502 -33.88496,27.4841 -54.00664,37.921756 -9.52046,4.938516 -11.87391,6.661346 -15.5,11.346709 -2.35138,3.038264 -8.69124,10.694819 -14.08858,17.014569 -5.62011,6.58059 -9.51629,11.97617 -9.11815,12.62716 1.08315,1.77101 7.91519,0.3763 17.9315,-3.6606 13.30875,-5.36387 44.73947,-21.210504 52.77838,-26.609632 13.45403,-9.036051 11.70974,-8.381216 19.33916,-7.260249 6.52909,0.959298 6.97504,0.895204 8.68565,-1.248313 4.24736,-5.322271 19.67617,-23.636137 25.23098,-29.94897 22.93734,-26.067435 54.6668,-47.5947659 70.15063,-47.5947659 7.1722,0 8.3152,1.1118045 8.3152,8.0882529 0,5.403568 -0.45087,6.700397 -4.56256,13.123338 -4.3781,6.839086 -19.77513,21.944047 -28.43744,27.898008 -1.925,1.323131 -4.625,3.178465 -6,4.122965 -8.10295,5.565988 -16.26882,10.583778 -21.68975,13.327975 -4.49102,2.273463 -7.37265,4.673576 -10.5,8.745461 -2.37064,3.086636 -6.28128,7.950428 -8.69031,10.808424 l -4.38005,5.196358 2.38005,0.927038 c 3.41817,1.33138 22.0787,0.2283 30.88006,-1.825428 6.71021,-1.565772 8.13389,-2.348039 13.51954,-7.428598 15.43249,-14.558238 39.561,-25.683636 55.98046,-25.811985 9.0412,-0.07068 12.52991,1.290925 18.75814,7.321064 3.63374,3.518174 3.80368,3.573022 5.13428,1.657077 4.93171,-7.101219 2.99579,-6.618484 25.29015,-6.306274 l 20.18257,0.282636 -6.18257,8.722344 C 474.28216,81.730155 468.125,90.491187 464,96.401828 c -4.125,5.910642 -9.66355,13.695882 -12.3079,17.300542 -2.64434,3.60465 -4.53028,7.00783 -4.19098,7.56261 1.27746,2.08874 6.13163,0.84993 16.16104,-4.12436 5.69223,-2.82318 13.74923,-7.59792 17.90444,-10.61053 C 491.49285,99.333373 497,99.222219 497,106.2186 c 0,3.15979 -3.49574,5.79317 -23.967,18.05456 -13.6646,8.1845 -27.58208,14.06057 -42.033,17.74665 -5.71457,1.45766 -19.66006,1.791 -23.98876,0.57342 -2.18689,-0.61514 -6.21358,-5.26982 -7.23341,-8.36149 -0.209,-0.63361 -3.27685,0.40405 -7.40394,2.5043 -9.98068,5.07909 -17.9783,6.92711 -29.97834,6.92711 -11.09738,0 -14.70204,-1.15229 -18.99105,-6.07083 -5.06365,-5.80687 -5.63823,-15.48221 -1.48313,-24.97436 l 2.08136,-4.7548 -4.75136,0.70491 c -2.61326,0.3877 -11.93241,0.91087 -20.70925,1.1626 l -15.95787,0.4577 -6.30946,6.29528 c -3.4702,3.46241 -8.50891,9.25108 -11.19713,12.86371 -8.44563,11.34987 -39.65847,42.4421 -42.60673,42.4421 -0.4474,0 -1.60008,0.71939 -2.56153,1.59865 -0.96144,0.87924 -5.68127,2.92556 -10.48851,4.54736 -9.8191,3.31263 -18.47093,3.73405 -28.93792,1.40953 z M 399.5,121.18043 c 6.66284,-3.15229 13.58708,-10.41246 21.61534,-22.664015 8.65448,-13.207207 8.28901,-12.352814 6.47842,-15.145213 -5.27289,-8.132156 -27.84371,-0.382626 -42.68873,14.656866 -11.88389,12.039572 -13.88245,20.367662 -5.89431,24.561882 4.61536,2.42332 13.71044,1.79764 20.48928,-1.40952 z M 83.590037,111.16206 c 9.561135,-2.43789 8.54479,-1.47435 28.679453,-27.189534 4.52678,-5.781424 9.83009,-12.602476 11.78512,-15.157894 1.95504,-2.555418 8.55247,-11.080444 14.66095,-18.944501 12.7487,-16.412665 13.51927,-17.669797 13.09609,-21.365272 C 150.77488,19.451156 129.98626,22.080494 105.5,34.362344 78.82612,47.74146 57.115646,68.693204 50.318976,87.614921 c -2.826843,7.869842 -2.917971,11.927331 -0.362979,16.161749 2.505306,4.15206 5.271784,5.93702 12.057306,7.77948 7.546154,2.04898 12.338583,1.96145 21.576734,-0.39409 z M 250.98048,58.863154 C 259.61684,53.777309 270.96559,42.775831 277.0348,33.606098 279.76566,29.480145 282,25.673453 282,25.146783 282,22.41189 278.57242,23.530701 273.30801,27.98397 265.77273,34.35821 241,60.084454 241,61.535524 c 0,2.076119 3.51539,1.13484 9.98048,-2.67237 z M 363.83457,42.978913 c 9.82288,-9.274787 17.33365,-21.757862 13.09119,-21.757862 -1.18812,0 -12.5586,10.448951 -14.84525,13.642105 -0.79601,1.111579 -3.4904,4.067368 -5.98754,6.568421 -5.36441,5.37282 -11.06957,12.295608 -11.08326,13.448731 -0.0221,1.862182 12.90088,-6.307955 18.82486,-11.901395 z M 557,143.86117 c -19.60604,-2.89277 -32.85701,-9.64817 -27.02385,-13.77687 1.04745,-0.7414 6.01973,-5.33 11.0495,-10.19691 8.61563,-8.33667 9.27034,-8.76676 11.30969,-7.42951 6.13022,4.01974 14.17397,6.10631 23.83024,6.18161 l 9.66559,0.0754 8.33441,-5.83073 c 4.58393,-3.20689 14.10241,-11.40452 21.15219,-18.216944 l 12.81776,-12.386226 -1.14774,-4.606064 c -0.8667,-3.478224 -0.86333,-5.673371 0.0138,-8.964921 2.46481,-9.249993 5.94675,-11.351252 18.26393,-11.021811 4.07325,0.108945 8.09122,-0.207379 8.92882,-0.702942 0.8376,-0.495564 6.33385,-5.495005 12.21388,-11.10987 C 678.44483,34.38158 678.28469,35.606362 668.4151,30.526408 657.20663,24.757332 630.98221,23.640536 615,28.251657 c -15.64419,4.513599 -39.80547,19.097126 -43.45516,26.229133 -0.77713,1.518628 -2.12288,3.356518 -2.99055,4.084199 -0.86767,0.727682 -2.46104,3.341289 -3.54082,5.808019 -4.68545,10.703733 -3.17215,22.584 3.56245,27.967156 3.35736,2.683638 4.1266,2.869022 9.94609,2.396972 15.57837,-1.263644 21.42576,-10.725048 16.83857,-27.245747 -0.90168,-3.247394 -1.46418,-6.030824 -1.25,-6.185399 0.82347,-0.594304 12.41523,-10.301209 12.88942,-10.793569 0.275,-0.285535 2.80416,-2.438522 5.62036,-4.784413 l 5.12036,-4.265259 2.87964,6.300203 c 2.45801,5.37775 2.87964,7.557842 2.87964,14.889676 0,10.871621 -2.65216,17.060182 -11.32758,26.431858 -11.16981,12.066254 -23.81412,16.577084 -38.05587,13.576334 -9.69346,-2.04242 -14.91969,-5.123223 -18.76502,-11.061761 -2.70187,-4.172642 -3.25308,-6.14776 -3.85287,-13.805615 -0.7897,-10.08266 -0.0294,-13.463139 4.85381,-21.582217 C 570.81888,32.158777 594.33275,17.078081 628.5,9.9391809 652.61351,4.9009086 681.92127,8.4817532 694.75373,18.03411 l 3.25374,2.422049 4.93165,-2.14387 C 708.88387,15.728005 713,15.502846 713,17.761942 c 0,1.669565 -4.21674,6.220527 -7.49428,8.088281 -1.87397,1.067908 -1.86945,1.153196 0.2024,3.814845 2.82069,3.623681 4.68846,14.715927 4.08308,24.248436 -0.87051,13.707068 -8.36806,25.148393 -22.55889,34.425022 -3.71498,2.428508 -8.71373,4.807002 -11.10833,5.28554 l -4.35382,0.870071 -1.89128,7.525743 c -1.04695,4.16601 -3.70079,10.60368 -5.94455,14.42024 -4.0419,6.87514 -4.46556,10.19263 -1.54955,12.13388 2.76715,1.84213 10.11401,0.6603 17.98936,-2.89381 10.59004,-4.77925 15.08682,-6.73299 20.87332,-9.06895 4.35139,-1.75661 4.86943,-2.33804 6.20939,-6.96914 1.66093,-5.74043 7.00781,-15.135858 11.70932,-20.575394 7.61176,-8.806629 20.32006,-16.329063 33.83383,-20.027291 8.20786,-2.246193 21.15207,-2.296168 26.13956,-0.100922 5.17091,2.275978 11.21711,8.111047 13.34458,12.878581 1.45318,3.256502 2.34282,4.074005 4.41773,4.059529 5.70907,-0.03983 20.90249,-2.936425 25.88515,-4.934954 2.90786,-1.166329 6.48644,-2.120601 7.95239,-2.120601 1.57882,0 3.90775,-1.199197 5.71298,-2.941683 3.15669,-3.046968 8.89021,-5.132983 21.2543,-7.732902 6.37645,-1.340838 7.61564,-1.342758 10.75637,-0.01666 3.62149,1.529081 5.53694,4.689672 5.53694,9.13625 v 2.355541 l 9.25,-2.500353 c 5.0875,-1.375194 14.2,-3.831601 20.25,-5.458681 6.05,-1.627081 14.63175,-3.244882 19.07055,-3.595113 7.95193,-0.627425 8.10257,-0.595634 10.25,2.163108 1.1987,1.53994 2.17945,3.92516 2.17945,5.300487 0,2.932367 -0.62429,2.970914 19.5,-1.204058 17.84328,-3.701756 32.20637,-5.716886 35.36148,-4.961192 3.98651,0.954827 6.13852,3.354064 6.13852,6.843716 0,3.614798 -5.45834,12.296451 -16.73955,26.624722 -16.62488,21.1153 -14.82385,29.9287 4.73955,23.19315 l 6.5,-2.23791 0.69837,-5.05263 c 0.92785,-6.71291 8.17922,-21.05489 13.66703,-27.03101 5.1873,-5.648963 15.8934,-12.993836 25.0865,-17.2106 12.7749,-5.859705 35.4713,-8.710965 42.0355,-5.28076 6.1432,3.210197 4.6742,16.253731 -2.5527,22.665796 -6.718,5.960608 -18.573,13.334334 -30.9157,19.229374 -13.3406,6.37169 -14.2927,7.44245 -10.2502,11.52758 5.905,5.9671 26.4383,5.83433 39.3137,-0.2542 6.2181,-2.94044 6.4175,-3.15268 6.4175,-6.8307 0,-6.50125 7.9023,-21.362368 15.3743,-28.913035 15.8551,-16.021945 44.7798,-24.144767 59.2454,-16.637686 5.4321,2.819002 9.622,7.14398 12.1873,12.58008 1.0289,2.180304 2.2694,3.306336 3.6282,3.293406 5.6987,-0.05423 21.6893,-3.040559 26.3518,-4.921351 9.8668,-3.980056 12.105,-1.934951 5.245,4.792481 -4.5779,4.489436 -9.1774,6.414752 -20.9585,8.772907 -9.6118,1.923956 -13.0735,3.274731 -13.0735,5.101324 0,3.774294 -8.9793,18.505134 -15.1077,24.784644 -15.7215,16.10921 -45.0576,23.6613 -60.7325,15.6346 -4.7766,-2.44595 -9.0924,-6.97079 -10.5078,-11.01674 -0.6173,-1.76473 -0.7567,-1.75975 -3.3979,0.12126 -8.1491,5.80376 -30.4219,13.10271 -42.7541,14.01084 -14.9737,1.10266 -31.02265,-3.46375 -36.38499,-10.35262 l -2.08819,-2.68264 -7.76341,3.07207 c -21.50726,8.51065 -29.26893,10.30287 -44.61924,10.30287 -9.2494,0 -10.52104,-0.23425 -13.91204,-2.56275 C 921.25525,138.5445 921,138.02238 921,133.29759 c 0,-4.2734 0.62588,-5.97747 3.9765,-10.82673 4.07069,-5.8914 10.71897,-14.63725 17.12956,-22.534053 4.12449,-5.08071 5.18012,-8.207672 3.53726,-10.478064 -0.96203,-1.329498 -2.44484,-1.458197 -9.27325,-0.80486 l -8.1281,0.777691 -12.41226,16.673686 c -16.73756,22.48396 -18.96901,25.39394 -23.998,31.29504 l -4.33171,5.08291 -19.28169,5e-4 -19.28169,4.9e-4 3.28169,-4.57845 c 5.45323,-7.60806 11.66473,-16.06407 12.73687,-17.33931 C 868.33465,116.54682 884,92.967481 884,91.900358 c 0,-1.104198 -6.61352,-2.965188 -10.5,-2.954613 -5.32405,0.01449 -7.00812,1.018605 -10.53591,6.281995 -1.90525,2.842582 -4.81409,6.83044 -6.46409,8.8619 -1.65,2.03146 -3.99009,5.02129 -5.20021,6.64406 -1.21011,1.62277 -5.26011,7.06772 -9,12.09988 -3.73988,5.03216 -8.82479,11.51193 -11.29979,14.3995 l -4.5,5.25013 -19.21651,5e-4 -19.21651,4.9e-4 4.71651,-6.60229 c 2.59408,-3.63127 5.61651,-7.84947 6.71651,-9.37378 1.1,-1.52432 3.78515,-5.26066 5.967,-8.30297 2.18185,-3.04231 4.20812,-5.75885 4.50282,-6.03675 0.29469,-0.27789 1.87631,-2.55157 3.51471,-5.05263 1.6384,-2.50105 5.51636,-8.006648 8.61768,-12.23466 l 5.63877,-7.687295 -4.20964,2.377578 c -2.3153,1.307669 -8.89452,3.338998 -14.62049,4.514067 -5.72597,1.175069 -11.14842,2.530279 -12.0499,3.011581 -0.90147,0.481301 -3.67927,5.092409 -6.17288,10.246909 -9.13848,18.89003 -23.77901,30.15602 -44.89591,34.54775 -13.2281,2.75108 -23.10886,1.55932 -30.86532,-3.72278 -3.83147,-2.6092 -7.88565,-9.13294 -7.91039,-12.7289 -0.0198,-2.87515 1.2823,-3.20286 -19.51645,4.91199 -25.42583,9.92014 -35.53132,13.2022 -42.58694,13.83136 C 633.88005,145.16722 628,141.89869 628,134.78195 c 0,-3.58233 4.02219,-10.17275 11.80014,-19.33471 C 644.78279,109.57798 652,98.723514 652,97.099013 c 0,-1.117375 -2.51463,-2.109545 -5.3466,-2.109545 -1.20066,0 -3.82252,-0.887973 -5.82636,-1.973272 l -3.64335,-1.97327 -8.21686,9.299584 c -17.76699,20.10813 -31.49023,32.95528 -43.12599,40.37284 -4.537,2.89223 -19.49874,4.52418 -28.84084,3.14582 z m 211.84058,-27.36668 c 2.99638,-2.10144 5.9005,-4.11715 6.45361,-4.47934 0.60913,-0.39889 0.15796,-1.74756 -1.14427,-3.42049 -3.82452,-4.91328 -2.71325,-8.977549 4.58472,-16.767687 4.71215,-5.029945 4.25043,-7.983731 -1.53727,-9.834255 -4.12516,-1.318955 -4.56479,-1.245278 -10.65868,1.786312 -8.42774,4.192638 -16.89046,13.310391 -18.99221,20.46226 -2.29976,7.82563 -0.44785,12.6946 5.95352,15.65275 4.34816,2.00935 9.14344,0.94669 15.34058,-3.39955 z m 361.84432,3.68781 c 1.5483,-0.59446 5.1909,-2.89301 8.0946,-5.10791 l 5.2796,-4.02706 -2.0296,-2.60731 c -3.415,-4.38718 -2.6467,-8.15357 3.0305,-14.856034 6.1932,-7.311689 6.2371,-9.640869 0.218,-11.565761 -3.922,-1.254264 -4.6125,-1.169542 -9.7181,1.192477 -6.4199,2.970103 -14.7459,10.48645 -18.0461,16.291367 -5.1738,9.100571 -4.0919,16.633381 2.8461,19.816981 4.8059,2.2052 6.4679,2.34417 10.325,0.86325 z m -89.4983,-19.9977 c 7.8659,-5.188937 13.8673,-10.786399 16.9462,-15.805658 2.4266,-3.955754 2.3502,-5.194543 -0.3649,-5.912017 -3.1294,-0.826972 -11.269,3.215974 -17.1959,8.541157 -5.2157,4.686219 -12.9047,15.714608 -11.9942,17.203378 1.223,1.99965 5.5851,0.60654 12.6088,-4.02686 z M 652.29657,82.296943 c 1.19568,-0.463654 1.27072,-1.320372 0.4143,-4.729929 l -1.04586,-4.163719 -2.8325,3.4286 C 647.27463,78.717624 646,80.846092 646,81.561824 c 0,1.328246 3.6639,1.756004 6.29657,0.735119 z m 22.70431,-9.132406 c 8.19753,-7.74855 10.62184,-15.414796 7.84083,-24.794667 -0.63706,-2.148693 -1.44193,-3.906715 -1.78862,-3.906715 -0.9577,0 -13.56018,11.488686 -17.20851,15.687649 -2.22156,2.556852 -2.9268,4.094372 -2.28039,4.971605 3.47044,4.709724 6.43581,9.848243 6.43581,11.152242 0,2.575647 1.85969,1.749487 7.00088,-3.110114 z m -35.31533,-1.593322 c 2.71214,-2.574744 3.01573,-4.876482 0.64319,-4.876482 -2.30539,0 -5.32874,2.95556 -5.32874,5.209251 0,2.487141 1.85384,2.355482 4.68555,-0.332769 z"
       id="path170" />
  </g>
</svg>
